<svg width="220" height="140" viewBox="0 0 220 140" fill="none" xmlns="http://www.w3.org/2000/svg">
<rect width="220" height="140" fill="#F4F4F4"/>
<g opacity="0.5">
<rect x="71" y="32" width="77" height="77" rx="38.5" fill="white"/>
<path d="M105.164 82.4844L109.244 54.693H116.383L120.207 68.9711L128.111 54.693H135.25L129.749 94.6791C156.391 71.425 133.676 38.161 111.538 38.885L112.303 33.2758C152.843 37.6102 159.472 91.6632 121.482 105.941L126.326 68.9711L121.482 78.6599H116.383L113.833 68.9711L112.303 82.4844H105.164Z" fill="black" stroke="white" stroke-width="0.509934"/>
<path d="M104.145 82.7393H97.006L98.5359 72.0307H90.3769L89.1021 82.7393H81.963L85.7875 54.693H92.9266L91.3968 65.1466H99.5557L103.125 39.395C57.2312 53.1632 79.6683 113.59 120.973 100.587L120.208 106.706C60.5458 116.395 56.2115 34.2956 111.029 33.2758L104.145 82.7393Z" fill="#4169E1" stroke="white" stroke-width="0.509934"/>
</g>
</svg>
