<svg width="311" height="233" viewBox="0 0 311 233" fill="none" xmlns="http://www.w3.org/2000/svg">
<g opacity="0.25">
<path d="M79.8203 14.8922C79.8203 14.8922 81.8755 8.03905 87.0829 8.03905C92.2904 8.03905 95.5082 11.6581 100.699 11.4697C105.89 11.2814 112.039 4.47734 118.197 5.4435C124.354 6.40967 131.158 10.086 130.184 14.8922C129.209 19.6985 92.364 28.0582 79.8203 14.8922Z" fill="#081228"/>
<path d="M191.32 134.41C186.408 83.2117 139.835 66.3612 128.978 55.9954C120.357 47.7585 123.296 37.9004 124.885 34.1831C129.298 26.3064 139.623 24.5624 139.909 17.7583C140.196 10.9543 127.922 8.36693 123.059 14.1967C118.195 20.0264 112.365 12.5591 109.778 6.41823C107.191 0.277368 101.025 6.74574 99.0847 12.5755C97.1442 18.4052 93.2468 21.0007 90.0127 17.7583C86.7785 14.516 84.8216 13.2223 76.3963 15.8178C67.9711 18.4134 69.9198 27.158 74.1283 27.6492C78.3368 28.1405 84.1747 28.7791 87.0323 36.5739C88.416 41.2082 89.2184 49.1668 82.0705 55.9954C71.2134 66.3612 24.6002 83.2117 19.7285 134.41C15.3152 180.704 47.7881 202.009 97.3735 204.604V204.809C100.13 204.874 102.859 204.893 105.561 204.866C108.263 204.839 110.993 204.82 113.749 204.809V204.604C163.261 202.009 195.734 180.704 191.32 134.41Z" fill="#081228"/>
<path fill-rule="evenodd" clip-rule="evenodd" d="M138.058 102.757V94.1758H83.4531V102.757H96.4554C99.3646 102.772 102.195 103.702 104.547 105.416C106.898 107.129 108.65 109.539 109.556 112.304H83.4531V120.884H110.285V122.293C110.282 125.961 108.825 129.479 106.233 132.075C103.64 134.67 100.124 136.132 96.4554 136.138H87.9564H83.4859V144.023C83.5923 144.023 83.7069 144.064 83.8134 144.097L106.649 166.933L114.46 174.744H126.57L96.5373 144.686H98.0929C103.636 144.669 108.947 142.46 112.866 138.54C116.786 134.621 118.996 129.31 119.013 123.767V120.884H138.099V112.304H118.775C118.309 108.847 116.98 105.564 114.911 102.757H138.058Z" fill="#081228"/>
<path opacity="0.3" d="M191.32 134.41C190.808 128.909 189.738 123.475 188.127 118.19C188.127 118.19 180.078 99.5057 154.319 104.402C128.56 109.298 105.446 149.279 79.8101 153.103C54.174 156.927 30.806 144.612 23.7891 166.433C34.0075 190.8 61.1009 202.721 97.3647 204.621V204.825C100.121 204.891 102.851 204.91 105.553 204.883C108.255 204.855 110.984 204.836 113.74 204.825V204.621C163.26 202.009 195.733 180.704 191.32 134.41Z" fill="#081228"/>
<path opacity="0.3" d="M123.478 38.6058C123.781 37.089 124.239 35.6074 124.845 34.1843C129.258 26.3077 139.583 24.5637 139.87 17.7596C139.922 16.6913 139.636 15.6338 139.051 14.7383C139.051 14.7383 137.413 20.3551 130.224 21.9763C123.036 23.5975 116.289 26.8317 113.652 32.3421C111.016 37.8525 104.883 34.6101 103.909 32.3421C102.935 30.0741 95.6638 26.5124 94.0835 29.4272C92.5033 32.3421 84.5529 28.4529 79.9595 26.8317C75.3662 25.2105 72.3203 26.889 72.3203 26.889C72.8158 27.3061 73.4216 27.5706 74.0643 27.6505C78.281 28.1417 84.1108 28.7804 86.9683 36.5752C87.1648 37.222 87.3368 37.9425 87.4923 38.7122L102.451 42.5605L123.478 38.6058Z" fill="#081228"/>
<path d="M123.34 47.6437H123.095C110.816 46.136 98.6879 43.5915 86.8391 40.0372C86.3483 39.8787 85.9406 39.5317 85.7057 39.0726C85.4707 38.6135 85.4278 38.0798 85.5863 37.5891C85.7449 37.0983 86.0918 36.6906 86.551 36.4557C87.0101 36.2207 87.5437 36.1778 88.0345 36.3363C99.6503 39.8184 111.541 42.3082 123.578 43.779C124.067 43.8428 124.515 44.0901 124.829 44.4709C125.143 44.8517 125.301 45.3376 125.271 45.8304C125.241 46.3233 125.025 46.7863 124.666 47.1259C124.308 47.4655 123.834 47.6565 123.34 47.6601V47.6437Z" fill="#081228"/>
<path d="M87.4516 48.954C86.9646 48.9449 86.4986 48.7538 86.1455 48.4183C85.7924 48.0828 85.5777 47.6272 85.5438 47.1412C85.5099 46.6553 85.6592 46.1743 85.9623 45.793C86.2654 45.4117 86.7004 45.1577 87.1814 45.0811C109.428 41.9943 122.626 37.794 122.757 37.753C123 37.6751 123.256 37.6458 123.511 37.6667C123.765 37.6877 124.013 37.7586 124.24 37.8753C124.467 37.992 124.668 38.1522 124.833 38.3469C124.999 38.5416 125.124 38.7669 125.202 39.0099C125.279 39.2529 125.309 39.5089 125.288 39.7632C125.267 40.0175 125.196 40.2652 125.079 40.4922C124.963 40.7191 124.802 40.9209 124.608 41.0859C124.413 41.2509 124.188 41.376 123.945 41.4539C123.404 41.6259 110.337 45.7935 87.7218 48.9376L87.4516 48.954Z" fill="#081228"/>
<path d="M47.8786 137.971C47.3743 137.972 46.8895 137.776 46.5261 137.427C46.1627 137.077 45.949 136.6 45.9299 136.096C45.2585 115.365 66.0637 89.2129 78.4928 73.5824C90.5781 58.3776 100.15 38.9397 100.248 38.7432C100.475 38.2807 100.876 37.9272 101.364 37.7606C101.851 37.594 102.385 37.6279 102.847 37.8548C103.31 38.0818 103.663 38.4831 103.83 38.9707C103.997 39.4582 103.963 39.9919 103.736 40.4545C103.638 40.651 93.9105 60.4573 81.5305 75.9978C70.2313 90.2118 49.1887 116.667 49.8191 135.965C49.8279 136.22 49.7863 136.474 49.6968 136.713C49.6073 136.952 49.4716 137.171 49.2974 137.357C49.1233 137.543 48.9141 137.693 48.6819 137.799C48.4497 137.904 48.199 137.963 47.9441 137.971H47.8786Z" fill="#081228"/>
<path opacity="0.3" d="M87.8827 41.086C91.1104 42.4447 94.4843 43.4256 97.9373 44.0091C104.488 45.2536 115.68 44.0091 115.68 44.0091C115.68 44.0091 122.231 43.5424 123.049 42.8218C123.049 41.7001 123.172 40.4556 123.172 40.4556C123.172 40.4556 110.702 43.7307 108.491 43.0429C106.281 42.3551 87.2031 38.8262 87.2031 38.8262L87.8827 41.086Z" fill="#081228"/>
<path opacity="0.3" d="M86.375 50.0428C86.375 50.0428 87.1938 50.9434 96.4706 48.9538C105.747 46.9642 108.531 46.8905 108.531 46.8905C108.531 46.8905 121.181 48.8474 124.203 48.921C123.889 48.1732 123.717 47.3736 123.695 46.563C123.81 45.7442 107.172 44.5078 107.172 44.5078L87.1692 47.9467L86.375 50.0428Z" fill="#081228"/>
<path opacity="0.3" d="M101.485 47.3902C101.485 47.3902 96.3925 61.5469 81.6544 78.4302C66.9164 95.3135 53.7094 116.831 52.2438 126.313C50.7782 135.794 51.9982 137.489 48.8459 139.192C45.6936 140.895 45.7181 133.551 46.2176 130.562C46.717 127.573 57.5904 102.249 71.4442 85.2424C85.298 68.2364 95.7047 51.7543 100.339 44.5572C103.008 41.8307 101.485 47.3902 101.485 47.3902Z" fill="#081228"/>
<path d="M103.735 40.4551L104.668 40.5779C104.668 40.5779 101.745 45.7444 101.139 46.7761L100.32 46.9234C100.32 46.9234 102.809 42.0926 103.735 40.4551Z" fill="#081228"/>
<path d="M102.156 44.0098L108.534 45.328L107.077 45.631L101.484 44.8204L102.156 44.0098Z" fill="#081228"/>
<path d="M95.4425 47.7668L96.4742 45.9082L94.1406 47.9797L95.4425 47.7668Z" fill="#081228"/>
<path d="M108.531 41.3398L118.283 43.0428L118.815 42.9036L109.686 41.0859L108.531 41.3398Z" fill="#081228"/>
</g>
<path d="M79.8203 11.6168C79.8203 11.6168 81.8755 4.76365 87.0829 4.76365C92.2904 4.76365 95.5082 8.38266 100.699 8.19434C105.89 8.00602 112.039 1.20195 118.197 2.16811C124.354 3.13428 131.158 6.8106 130.184 11.6168C129.209 16.4231 92.364 24.7828 79.8203 11.6168Z" fill="#6D0900"/>
<path d="M191.32 131.135C186.408 79.9363 139.835 63.0858 128.978 52.72C120.357 44.4831 123.296 34.625 124.885 30.9077C129.298 23.031 139.623 21.287 139.909 14.483C140.196 7.67888 127.922 5.09153 123.059 10.9213C118.195 16.751 112.365 9.28369 109.778 3.14283C107.191 -2.99802 101.025 3.47034 99.0847 9.30007C97.1442 15.1298 93.2468 17.7253 90.0127 14.483C86.7785 11.2406 84.8216 9.94691 76.3963 12.5424C67.9711 15.138 69.9198 23.8826 74.1283 24.3738C78.3368 24.8651 84.1747 25.5037 87.0323 33.2985C88.416 37.9328 89.2184 45.8914 82.0705 52.72C71.2134 63.0858 24.6002 79.9363 19.7285 131.135C15.3152 177.429 47.7881 198.733 97.3735 201.329V201.533C100.13 201.599 102.859 201.618 105.561 201.591C108.263 201.564 110.993 201.544 113.749 201.533V201.329C163.261 198.733 195.734 177.429 191.32 131.135Z" fill="#DEA842"/>
<path fill-rule="evenodd" clip-rule="evenodd" d="M138.058 99.4812V90.9004H83.4531V99.4812H96.4554C99.3646 99.4965 102.195 100.427 104.547 102.14C106.898 103.854 108.65 106.263 109.556 109.028H83.4531V117.609H110.285V119.017C110.282 122.686 108.825 126.204 106.233 128.799C103.64 131.395 100.124 132.856 96.4554 132.863H87.9564H83.4859V140.748C83.5923 140.748 83.7069 140.789 83.8134 140.821L106.649 163.657L114.46 171.468H126.57L96.5373 141.411H98.0929C103.636 141.394 108.947 139.184 112.866 135.265C116.786 131.345 118.996 126.034 119.013 120.491V117.609H138.099V109.028H118.775C118.309 105.572 116.98 102.289 114.911 99.4812H138.058Z" fill="#111111"/>
<path opacity="0.3" d="M191.32 131.135C190.808 125.634 189.738 120.199 188.127 114.915C188.127 114.915 180.078 96.2303 154.319 101.127C128.56 106.023 105.446 146.004 79.8101 149.828C54.174 153.651 30.806 141.337 23.7891 163.157C34.0075 187.524 61.1009 199.446 97.3647 201.345V201.55C100.121 201.616 102.851 201.635 105.553 201.607C108.255 201.58 110.984 201.561 113.74 201.55V201.345C163.26 198.733 195.733 177.429 191.32 131.135Z" fill="#6D0900"/>
<path opacity="0.3" d="M123.478 35.3304C123.781 33.8136 124.239 32.332 124.845 30.9089C129.258 23.0323 139.583 21.2883 139.87 14.4842C139.922 13.4159 139.636 12.3584 139.051 11.4629C139.051 11.4629 137.413 17.0797 130.224 18.7009C123.036 20.3221 116.289 23.5563 113.652 29.0667C111.016 34.5771 104.883 31.3347 103.909 29.0667C102.935 26.7987 95.6638 23.237 94.0835 26.1518C92.5033 29.0667 84.5529 25.1775 79.9595 23.5563C75.3662 21.9351 72.3203 23.6136 72.3203 23.6136C72.8158 24.0307 73.4216 24.2952 74.0643 24.3751C78.281 24.8663 84.1108 25.505 86.9683 33.2998C87.1648 33.9466 87.3368 34.6671 87.4923 35.4368L102.451 39.2851L123.478 35.3304Z" fill="#6D0900"/>
<path d="M123.34 44.3683H123.095C110.816 42.8606 98.6879 40.3161 86.8391 36.7618C86.3483 36.6033 85.9406 36.2563 85.7057 35.7972C85.4707 35.3381 85.4278 34.8044 85.5863 34.3137C85.7449 33.8229 86.0918 33.4152 86.551 33.1803C87.0101 32.9453 87.5437 32.9024 88.0345 33.0609C99.6503 36.543 111.541 39.0329 123.578 40.5037C124.067 40.5674 124.515 40.8147 124.829 41.1955C125.143 41.5763 125.301 42.0622 125.271 42.555C125.241 43.0479 125.025 43.5109 124.666 43.8505C124.308 44.1902 123.834 44.3811 123.34 44.3847V44.3683Z" fill="#6D0900"/>
<path d="M87.4516 45.6786C86.9646 45.6695 86.4986 45.4784 86.1455 45.1429C85.7924 44.8074 85.5777 44.3518 85.5438 43.8658C85.5099 43.3799 85.6592 42.8989 85.9623 42.5176C86.2654 42.1363 86.7004 41.8823 87.1814 41.8057C109.428 38.7189 122.626 34.5186 122.757 34.4776C123 34.3997 123.256 34.3704 123.511 34.3913C123.765 34.4123 124.013 34.4832 124.24 34.5999C124.467 34.7166 124.668 34.8769 124.833 35.0715C124.999 35.2662 125.124 35.4915 125.202 35.7345C125.279 35.9775 125.309 36.2335 125.288 36.4878C125.267 36.7421 125.196 36.9899 125.079 37.2168C124.963 37.4438 124.802 37.6455 124.608 37.8105C124.413 37.9755 124.188 38.1006 123.945 38.1785C123.404 38.3505 110.337 42.5181 87.7218 45.6622L87.4516 45.6786Z" fill="#6D0900"/>
<path d="M47.8786 134.696C47.3743 134.696 46.8895 134.501 46.5261 134.151C46.1627 133.802 45.949 133.325 45.9299 132.821C45.2585 112.089 66.0637 85.9375 78.4928 70.307C90.5781 55.1022 100.15 35.6643 100.248 35.4678C100.475 35.0053 100.876 34.6518 101.364 34.4852C101.851 34.3186 102.385 34.3525 102.847 34.5794C103.31 34.8064 103.663 35.2077 103.83 35.6953C103.997 36.1828 103.963 36.7165 103.736 37.1791C103.638 37.3756 93.9105 57.1819 81.5305 72.7224C70.2313 86.9364 49.1887 113.391 49.8191 132.69C49.8279 132.945 49.7863 133.199 49.6968 133.438C49.6073 133.676 49.4716 133.895 49.2974 134.082C49.1233 134.268 48.9141 134.418 48.6819 134.523C48.4497 134.629 48.199 134.687 47.9441 134.696H47.8786Z" fill="#6D0900"/>
<path opacity="0.3" d="M87.8827 37.8087C91.1104 39.1674 94.4843 40.1483 97.9373 40.7317C104.488 41.9763 115.68 40.7317 115.68 40.7317C115.68 40.7317 122.231 40.265 123.049 39.5445C123.049 38.4228 123.172 37.1782 123.172 37.1782C123.172 37.1782 110.702 40.4533 108.491 39.7656C106.281 39.0778 87.2031 35.5488 87.2031 35.5488L87.8827 37.8087Z" fill="#6D0900"/>
<path opacity="0.3" d="M86.375 46.7674C86.375 46.7674 87.1938 47.668 96.4706 45.6784C105.747 43.6888 108.531 43.6151 108.531 43.6151C108.531 43.6151 121.181 45.572 124.203 45.6457C123.889 44.8978 123.717 44.0982 123.695 43.2876C123.81 42.4688 107.172 41.2324 107.172 41.2324L87.1692 44.6713L86.375 46.7674Z" fill="#6D0900"/>
<path opacity="0.3" d="M101.485 44.1148C101.485 44.1148 96.3925 58.2715 81.6544 75.1548C66.9164 92.0381 53.7094 113.556 52.2438 123.037C50.7782 132.519 51.9982 134.213 48.8459 135.917C45.6936 137.62 45.7181 130.275 46.2176 127.287C46.717 124.298 57.5904 98.9731 71.4442 81.967C85.298 64.961 95.7047 48.4789 100.339 41.2818C103.008 38.5553 101.485 44.1148 101.485 44.1148Z" fill="#6D0900"/>
<path d="M103.735 37.1797L104.668 37.3025C104.668 37.3025 101.745 42.469 101.139 43.5007L100.32 43.6481C100.32 43.6481 102.809 38.8172 103.735 37.1797Z" fill="#4F0703"/>
<path d="M102.156 40.7324L108.534 42.0507L107.077 42.3536L101.484 41.543L102.156 40.7324Z" fill="#4F0703"/>
<path d="M95.4425 44.4914L96.4742 42.6328L94.1406 44.7043L95.4425 44.4914Z" fill="#4F0703"/>
<path d="M108.531 38.0624L118.283 39.7655L118.815 39.6263L109.686 37.8086L108.531 38.0624Z" fill="#4F0703"/>
<g opacity="0.25">
<path d="M310.972 99.8965C289.413 113.284 260.895 130.191 201.255 150.964C187.213 155.877 175.234 159.545 175.234 159.545C175.234 159.545 196.343 222.927 197.825 227.135C199.053 227.422 252.511 218.235 310.972 189.823V99.8965Z" fill="#081228"/>
<path d="M205.527 212.462C210.964 210.473 212.961 219.111 208.376 220.208C203.398 221.387 200.148 214.427 205.527 212.462Z" fill="#081228"/>
<path d="M219.274 208.908C224.711 206.918 226.709 215.556 222.123 216.645C217.104 217.832 213.854 210.873 219.274 208.908Z" fill="#081228"/>
<path d="M179.869 185.845C179.869 185.845 168.504 179.147 150.876 181.988C133.247 184.829 122.726 188.129 107.677 185.861C95.0838 183.97 81.2382 181.349 73.6072 186.614C65.9761 191.879 68.2442 194.466 68.2442 194.466C68.2442 194.466 57.5017 190.102 54.112 187.916C50.7222 185.73 43.9345 177.215 32.3488 173.997C20.763 170.779 10.5856 170.885 13.1238 177.665C8.89071 176.248 6.91745 174.996 2.39778 175.274C-2.1219 175.552 -1.55693 185.533 15.6784 194.532C32.9138 203.53 41.3963 209.466 48.1758 213.708C54.9553 217.949 72.7393 230.665 83.498 232.081C94.2568 233.498 136.064 231.59 156.975 225.195C177.887 218.8 188.58 213.732 188.58 213.732L180.434 187.155" fill="#081228"/>
<path d="M13.1275 177.582C16.4501 180.13 19.9436 182.447 23.5834 184.517C30.3711 188.472 41.6702 195.538 44.7816 198.363C47.893 201.187 58.6272 203.734 66.8232 209.105C71.8532 212.381 77.261 215.037 82.9286 217.014C78.5354 216.868 74.2201 215.814 70.2539 213.919C64.0393 210.808 58.6681 207.001 52.167 204.528C45.6659 202.055 36.6102 194.703 32.3853 192.156C28.1604 189.61 14.3721 180.636 10.5156 176.648L13.1275 177.582Z" fill="#081228"/>
<path d="M73.6094 186.598C73.6094 186.598 81.7972 184.436 89.723 186.598C86.801 184.731 83.3573 183.85 79.8976 184.084C79.8976 184.084 77.6542 184.641 76.9336 184.903C75.7784 185.37 74.6661 185.937 73.6094 186.598Z" fill="#081228"/>
<path d="M68.2198 192.082C68.2198 192.082 70.3651 197.093 83.7767 201.473H79.257C81.5168 202.603 87.8297 206.386 94.2817 207.123C100.734 207.86 107.8 207.942 110.903 209.104C114.006 210.267 122.636 211.929 126.026 211.225C125.035 212.633 115.848 211.225 110.199 210.513C104.549 209.8 93.5284 209.948 84.3416 206.132C75.1549 202.317 68.2362 194.448 68.2362 194.448C68.0133 194.095 67.8936 193.686 67.8907 193.268C67.8878 192.849 68.0018 192.439 68.2198 192.082Z" fill="#081228"/>
<path d="M139.605 216.023C139.605 216.023 138.967 222.172 129.641 223.237C133.882 225.562 143.413 223.654 139.605 216.023Z" fill="#081228"/>
<path opacity="0.5" d="M156.979 225.113C177.891 218.71 188.584 213.65 188.584 213.65L184.261 199.551C179.962 199.723 166.297 200.574 159.738 204.529C151.894 209.253 141.25 219.521 132.26 222.763C123.27 226.006 86.2937 219.595 72.792 213.757C72.792 213.757 61.3291 208.508 56.0316 206.232C50.7341 203.956 38.9846 196.407 34.5877 193.623C30.1908 190.839 13.807 178.123 13.807 178.123L12.7754 177.485C8.77972 176.125 6.79008 174.946 2.40141 175.217C-2.12645 175.503 -1.55329 185.476 15.682 194.474C32.9174 203.473 41.3999 209.409 48.1795 213.65C54.959 217.891 72.7429 230.607 83.5017 232.024C94.2605 233.44 136.067 231.508 156.979 225.113Z" fill="#081228"/>
<path d="M176.894 164.588L163.008 168.395L180.325 225.792L196.406 222.893L176.894 164.588Z" fill="#081228"/>
<path d="M184.964 211.996C190.401 210.006 192.399 218.644 187.814 219.733C182.836 220.92 179.585 213.961 184.964 211.996Z" fill="#081228"/>
<path d="M310.973 140.148C310.973 140.148 250.154 201.221 191.062 206.928C196.401 222.894 197.826 227.136 197.826 227.136C197.826 227.136 258.104 217.875 310.973 189.824V140.148Z" fill="#081228"/>
<path opacity="0.2" d="M176.889 164.596L175.211 165.054C175.211 165.054 184.267 210.431 178.535 219.872C180.034 224.825 180.32 225.783 180.32 225.783L196.401 222.926L176.889 164.596Z" fill="#081228"/>
</g>
<path d="M310.972 95.9355C289.413 109.323 260.895 126.23 201.255 147.003C187.213 151.916 175.234 155.592 175.234 155.592C175.234 155.592 196.383 218.957 197.849 223.182C199.077 223.469 252.535 214.274 310.996 185.862L310.972 95.9355Z" fill="#111111"/>
<path d="M205.527 208.503C210.964 206.514 212.961 215.16 208.376 216.249C203.398 217.436 200.148 210.476 205.527 208.503Z" fill="white"/>
<path d="M219.274 204.915C224.711 202.926 226.709 211.572 222.123 212.661C217.104 213.873 213.854 206.921 219.274 204.915Z" fill="white"/>
<path d="M179.869 181.891C179.869 181.891 168.512 175.193 150.876 178.018C133.239 180.843 122.726 184.151 107.677 181.891C95.0838 179.999 81.2382 177.371 73.6072 182.644C65.9761 187.917 68.2442 190.496 68.2442 190.496C68.2442 190.496 57.5017 186.124 54.112 183.905C50.7222 181.686 43.9345 173.212 32.3488 169.986C20.763 166.76 10.5856 166.866 13.1238 173.646C8.89071 172.237 6.91745 170.976 2.39778 171.263C-2.1219 171.55 -1.55693 181.514 15.6784 190.521C32.9138 199.527 41.3963 205.455 48.1758 209.697C54.9553 213.938 72.7393 226.653 83.498 228.062C94.2568 229.47 136.064 227.571 156.975 221.176C177.887 214.781 188.58 209.713 188.58 209.713L180.434 183.135" fill="#E5A18F"/>
<path d="M13.129 173.621C16.4524 176.171 19.9458 178.491 23.5849 180.565C30.3726 184.519 41.6717 191.585 44.7831 194.41C47.8945 197.235 58.6287 199.781 66.8247 205.144C71.8562 208.436 77.2665 211.108 82.9383 213.103C78.5298 212.959 74.1994 211.9 70.2226 209.992C64.0081 206.88 58.6369 203.081 52.1358 200.6C45.6346 198.119 36.5789 190.775 32.354 188.228C28.1291 185.682 14.3408 176.708 10.4844 172.721L13.129 173.621Z" fill="#AF5E58"/>
<path d="M73.6094 182.644C73.6094 182.644 81.7972 180.482 89.723 182.644C86.8028 180.772 83.3577 179.891 79.8976 180.13C79.8976 180.13 77.6542 180.687 76.9336 180.949C75.7784 181.416 74.6661 181.983 73.6094 182.644Z" fill="#AF5E58"/>
<path d="M68.2195 188.121C68.2195 188.121 70.3647 193.132 83.7763 197.513H79.2567C81.5165 198.642 87.8293 202.466 94.2813 203.17C100.733 203.874 107.799 203.989 110.903 205.144C114.006 206.298 122.636 207.968 126.025 207.264C125.035 208.681 115.848 207.264 110.198 206.56C104.549 205.856 93.528 205.995 84.3413 202.18C75.1546 198.364 68.2359 190.496 68.2359 190.496C68.0131 190.14 67.8936 189.73 67.8907 189.311C67.8878 188.891 68.0016 188.479 68.2195 188.121Z" fill="#AF5E58"/>
<path d="M139.605 212.072C139.605 212.072 138.967 218.221 129.641 219.278C133.882 221.611 143.413 219.703 139.605 212.072Z" fill="#CC8A83"/>
<path opacity="0.5" d="M156.979 221.15C177.891 214.756 188.584 209.688 188.584 209.688L184.261 195.588C179.962 195.76 166.297 196.612 159.738 200.566C151.894 205.299 141.25 215.558 132.26 218.801C123.27 222.043 86.2937 215.64 72.792 209.794C72.792 209.794 61.3291 204.546 56.0316 202.261C50.7341 199.977 38.9846 192.436 34.5877 189.66C30.1908 186.884 13.807 174.161 13.807 174.161L12.7754 173.522C8.77972 172.155 6.79008 170.976 2.40141 171.254C-2.12645 171.532 -1.55329 181.505 15.682 190.512C32.9174 199.518 41.3999 205.446 48.1795 209.688C54.959 213.929 72.7429 226.644 83.5017 228.053C94.2605 229.461 136.067 227.545 156.979 221.15Z" fill="#AF5E58"/>
<path d="M176.894 160.635L163.008 164.442L180.325 221.83L196.406 218.932L176.894 160.635Z" fill="white"/>
<path d="M184.964 208.034C190.401 206.045 192.399 214.691 187.814 215.78C182.836 216.959 179.585 210.008 184.964 208.034Z" fill="#111111"/>
<path d="M310.973 136.195C310.973 136.195 250.154 197.268 191.062 202.975L197.826 223.183C197.826 223.183 258.104 213.922 310.973 185.863V136.195Z" fill="black"/>
<path opacity="0.2" d="M176.889 160.635L175.211 161.093C175.211 161.093 184.267 206.47 178.535 215.911C180.034 220.864 180.32 221.83 180.32 221.83L196.401 218.973L176.889 160.635Z" fill="#111111"/>
<g opacity="0.25">
<path fill-rule="evenodd" clip-rule="evenodd" d="M65.0829 51.5261C64.9109 51.9437 64.6326 51.9519 64.4606 51.5261L61.8978 45.4999C61.6682 45.0359 61.2909 44.6615 60.8252 44.4354L54.9382 41.9791C54.5206 41.799 54.5206 41.5042 54.9382 41.3077L60.7761 38.5484C61.2375 38.2984 61.6139 37.9164 61.8569 37.4512L64.4524 31.8098C64.6407 31.4004 64.9355 31.4086 65.1075 31.8098L67.5638 37.7542C67.7882 38.2238 68.1667 38.6024 68.6364 38.8268L74.6299 41.3323C75.0393 41.5042 75.0393 41.7744 74.6299 41.9382L68.5709 44.2799C68.1027 44.4954 67.7257 44.8696 67.5065 45.3361L65.0829 51.5261Z" fill="#081228"/>
<path fill-rule="evenodd" clip-rule="evenodd" d="M56.9583 63.1606C56.8519 63.4308 56.6718 63.439 56.5572 63.1606L54.9196 59.2632C54.7691 58.964 54.5246 58.7224 54.2236 58.5754L50.4245 57.0034C50.1543 56.8887 50.1461 56.7004 50.4245 56.5776L54.1991 54.7927C54.4962 54.6291 54.7384 54.3812 54.895 54.0803L56.5735 50.4367C56.6963 50.1747 56.8847 50.1747 56.9993 50.4367L58.5877 54.285C58.7382 54.5842 58.9827 54.8258 59.2837 54.9728L63.1483 56.6103C63.4185 56.725 63.4185 56.9051 63.1483 57.0116L59.2346 58.5181C58.9309 58.6584 58.6871 58.9022 58.5468 59.2059L56.9583 63.1606Z" fill="#081228"/>
</g>
<path fill-rule="evenodd" clip-rule="evenodd" d="M65.0829 48.2507C64.9109 48.6683 64.6326 48.6765 64.4606 48.2507L61.8978 42.2245C61.6682 41.7605 61.2909 41.3861 60.8252 41.1601L54.9382 38.7037C54.5206 38.5236 54.5206 38.2288 54.9382 38.0323L60.7761 35.273C61.2375 35.023 61.6139 34.641 61.8569 34.1759L64.4524 28.5344C64.6407 28.1251 64.9355 28.1332 65.1075 28.5344L67.5638 34.4788C67.7882 34.9484 68.1667 35.327 68.6364 35.5514L74.6299 38.0569C75.0393 38.2288 75.0393 38.499 74.6299 38.6628L68.5709 41.0045C68.1027 41.2201 67.7257 41.5942 67.5065 42.0607L65.0829 48.2507Z" fill="white"/>
<path fill-rule="evenodd" clip-rule="evenodd" d="M56.9583 59.8852C56.8519 60.1554 56.6718 60.1636 56.5572 59.8852L54.9196 55.9878C54.7691 55.6886 54.5246 55.447 54.2236 55.3L50.4245 53.728C50.1543 53.6133 50.1461 53.425 50.4245 53.3022L54.1991 51.5173C54.4962 51.3537 54.7384 51.1058 54.895 50.8049L56.5735 47.1614C56.6963 46.8993 56.8847 46.8993 56.9993 47.1614L58.5877 51.0096C58.7382 51.3088 58.9827 51.5504 59.2837 51.6974L63.1483 53.335C63.4185 53.4496 63.4185 53.6297 63.1483 53.7362L59.2346 55.2427C58.9309 55.383 58.6871 55.6268 58.5468 55.9305L56.9583 59.8852Z" fill="white"/>
</svg>
