<svg width="92" height="92" viewBox="0 0 92 92" fill="none" xmlns="http://www.w3.org/2000/svg">
<rect width="92" height="92" rx="46" fill="white"/>
<path d="M40.8213 60.3181L45.6955 27.1128H54.2253L58.7948 44.1724L68.2385 27.1128H76.7683L70.196 74.8884C102.028 47.1044 74.888 7.36041 48.4372 8.22542L49.3511 1.52344C97.7882 6.70225 105.709 71.285 60.318 88.3446L66.1061 44.1724L60.318 55.7486H54.2253L51.1789 44.1724L49.3511 60.3181H40.8213Z" fill="black" stroke="white" stroke-width="0.609272"/>
<path d="M39.6023 60.6228H31.0725L32.9005 47.8281H23.1521L21.6289 60.6228H13.0991L17.6687 27.1128H26.1985L24.3706 39.6029H34.119L38.3839 8.8347C-16.4506 25.285 10.3574 97.4837 59.7084 81.9473L58.7943 89.2585C-12.4903 100.835 -17.6689 2.74198 47.8275 1.52344L39.6023 60.6228Z" fill="#4169E1" stroke="white" stroke-width="0.609272"/>
</svg>
