<svg width="52" height="52" viewBox="0 0 52 52" fill="none" xmlns="http://www.w3.org/2000/svg">
<g opacity="0.5" clip-path="url(#clip0_3247_105449)">
<path opacity="0.958" fill-rule="evenodd" clip-rule="evenodd" d="M51.9453 15.9961C51.9453 17.7565 51.9453 19.517 51.9453 21.2773C51.7072 21.566 51.4026 21.7521 51.0312 21.8359C50.3211 21.8867 49.6102 21.9036 48.8984 21.8867C48.9154 29.6732 48.8984 37.4597 48.8477 45.2461C48.7197 45.5435 48.4996 45.7296 48.1875 45.8047C44.8021 45.8385 41.4166 45.8724 38.0312 45.9062C39.2997 47.54 40.8907 48.7587 42.8047 49.5625C43.3375 50.1413 43.3375 50.7169 42.8047 51.2891C42.6435 51.3766 42.4742 51.4443 42.2969 51.4922C37.9974 51.5599 33.6979 51.5599 29.3984 51.4922C28.4732 51.1301 28.2701 50.5207 28.7891 49.6641C30.7404 48.8293 32.3654 47.5766 33.6641 45.9062C28.5182 45.8385 23.3724 45.8385 18.2266 45.9062C18.7302 46.6469 19.3396 47.2901 20.0547 47.8359C21.0314 48.5529 22.064 49.1792 23.1523 49.7148C23.5995 50.5629 23.3794 51.1553 22.4922 51.4922C18.1927 51.5599 13.8932 51.5599 9.59375 51.4922C8.72165 51.2204 8.46775 50.6618 8.83203 49.8164C9.98648 49.2027 11.0867 48.5087 12.1328 47.7344C12.7454 47.1557 13.321 46.5463 13.8594 45.9062C10.474 45.8724 7.08854 45.8385 3.70312 45.8047C3.39097 45.7296 3.17092 45.5435 3.04297 45.2461C2.99219 37.4597 2.97526 29.6732 2.99219 21.8867C2.13876 21.9243 1.29241 21.8735 0.453125 21.7344C0.26405 21.5956 0.0947792 21.4433 -0.0546875 21.2773C-0.0546875 19.517 -0.0546875 17.7565 -0.0546875 15.9961C0.0947792 15.8301 0.26405 15.6778 0.453125 15.5391C5.32848 15.5221 10.2034 15.4713 15.0781 15.3867C14.9608 13.1567 14.9439 10.9223 15.0273 8.68359C15.1166 8.21279 15.2858 7.77268 15.5352 7.36328C15.8649 6.94087 16.1696 6.50077 16.4492 6.04297C16.6017 4.87395 16.754 3.70599 16.9062 2.53906C16.3634 2.00756 16.2787 1.4151 16.6523 0.761719C16.8352 0.577177 17.0551 0.458687 17.3125 0.40625C18.8021 0.338542 20.2916 0.338542 21.7812 0.40625C22.5164 0.579563 22.8042 1.0366 22.6445 1.77734C22.5554 2.05313 22.403 2.2901 22.1875 2.48828C22.3582 3.63483 22.5106 4.78587 22.6445 5.94141C22.9063 6.49822 23.2448 7.00603 23.6602 7.46484C23.8559 7.81504 23.9914 8.18744 24.0664 8.58203C24.1504 10.8746 24.1334 13.1598 24.0156 15.4375C25.4375 15.5052 26.8594 15.5052 28.2812 15.4375C28.2052 15.2614 28.1544 15.0752 28.1289 14.8789C28.0612 12.7461 28.0612 10.6133 28.1289 8.48047C28.2192 8.11361 28.4392 7.85971 28.7891 7.71875C31.7682 7.65104 34.7474 7.65104 37.7266 7.71875C39.4616 8.23759 40.2233 9.40556 40.0117 11.2227C39.4261 13.0741 38.1566 13.8866 36.2031 13.6602C36.2462 14.2703 36.1785 14.8628 36 15.4375C41.1459 15.4713 46.2916 15.5052 51.4375 15.5391C51.6266 15.6778 51.7958 15.8301 51.9453 15.9961ZM19.0391 2.48828C19.4302 2.43454 19.7856 2.50225 20.1055 2.69141C20.2303 4.01833 20.3996 5.33864 20.6133 6.65234C20.7208 6.96901 20.8562 7.27369 21.0195 7.56641C21.3493 7.98881 21.654 8.42892 21.9336 8.88672C22.0013 10.918 22.0013 12.9492 21.9336 14.9805C21.8864 15.1258 21.8017 15.2442 21.6797 15.3359C20.2578 15.4037 18.8359 15.4037 17.4141 15.3359C17.2921 15.2442 17.2074 15.1258 17.1602 14.9805C17.0924 12.983 17.0924 10.9857 17.1602 8.98828C17.6407 8.26996 18.0808 7.52516 18.4805 6.75391C18.7 5.33629 18.8862 3.91441 19.0391 2.48828ZM30.2109 9.80078C31.4974 9.80078 32.7838 9.80078 34.0703 9.80078C34.0873 11.4261 34.0703 13.0511 34.0195 14.6758C33.9397 14.9889 33.7535 15.2089 33.4609 15.3359C32.5807 15.4037 31.7006 15.4037 30.8203 15.3359C30.6341 15.2174 30.4818 15.0651 30.3633 14.8789C30.2154 13.1933 30.1646 11.5006 30.2109 9.80078ZM36.2031 9.80078C36.6108 9.78397 37.017 9.8009 37.4219 9.85156C38.046 10.3283 38.0799 10.8361 37.5234 11.375C37.0969 11.5138 36.6568 11.5646 36.2031 11.5273C36.2031 10.9518 36.2031 10.3763 36.2031 9.80078ZM1.97656 17.5195C17.9557 17.5195 33.9349 17.5195 49.9141 17.5195C49.9141 18.2643 49.9141 19.0091 49.9141 19.7539C43.2025 19.7038 36.4994 19.7546 29.8047 19.9062C29.2631 20.4818 29.2631 21.0573 29.8047 21.6328C29.9968 21.7316 30.2 21.7994 30.4141 21.8359C35.8645 21.8867 41.315 21.9037 46.7656 21.8867C46.7656 29.1654 46.7656 36.444 46.7656 43.7227C43.5156 43.7227 40.2656 43.7227 37.0156 43.7227C36.9433 43.048 36.9094 42.371 36.9141 41.6914C38.0994 41.7084 39.2843 41.6914 40.4687 41.6406C41.0824 41.26 41.2347 40.7352 40.9258 40.0664C40.8073 39.9479 40.6888 39.8295 40.5703 39.7109C39.3579 39.5672 38.1391 39.5164 36.9141 39.5586C36.9141 37.7982 36.9141 36.0377 36.9141 34.2773C38.1333 34.2943 39.3521 34.2773 40.5703 34.2266C42.3286 33.7745 43.158 32.6404 43.0586 30.8242C42.7801 29.2593 41.8492 28.3961 40.2656 28.2344C38.793 28.2174 37.3203 28.2006 35.8477 28.1836C34.1681 28.1713 32.4923 28.2221 30.8203 28.3359C28.9851 29.0781 28.3249 30.4153 28.8398 32.3477C29.3083 33.3919 30.104 34.0183 31.2266 34.2266C32.411 34.2773 33.5959 34.2943 34.7812 34.2773C34.7812 36.0377 34.7812 37.7982 34.7812 39.5586C33.5562 39.5164 32.3375 39.5672 31.125 39.7109C30.6074 40.1424 30.4889 40.6671 30.7695 41.2852C30.8928 41.4425 31.0452 41.5609 31.2266 41.6406C32.411 41.6914 33.5959 41.7084 34.7812 41.6914C34.8029 42.373 34.7691 43.05 34.6797 43.7227C28.8568 43.7227 23.0338 43.7227 17.2109 43.7227C17.1265 43.0492 17.0927 42.3721 17.1094 41.6914C18.2947 41.7084 19.4796 41.6914 20.6641 41.6406C21.2623 41.2567 21.4146 40.7319 21.1211 40.0664C20.9978 39.9091 20.8455 39.7907 20.6641 39.7109C19.4855 39.5675 18.3006 39.5167 17.1094 39.5586C17.1094 37.7982 17.1094 36.0377 17.1094 34.2773C18.2947 34.2943 19.4796 34.2773 20.6641 34.2266C22.6517 33.7225 23.4812 32.453 23.1523 30.418C22.7094 29.1286 21.8123 28.4007 20.4609 28.2344C17.5156 28.1666 14.5703 28.1666 11.625 28.2344C9.93305 28.5215 8.98514 29.5202 8.78125 31.2305C8.89991 32.9097 9.78011 33.9084 11.4219 34.2266C12.6063 34.2773 13.7912 34.2943 14.9766 34.2773C14.9766 36.0377 14.9766 37.7982 14.9766 39.5586C13.7515 39.5164 12.5328 39.5672 11.3203 39.7109C10.8354 40.0821 10.683 40.573 10.8633 41.1836C11.0156 41.3359 11.168 41.4883 11.3203 41.6406C12.5386 41.6914 13.7573 41.7084 14.9766 41.6914C14.9876 42.3715 14.9538 43.0486 14.875 43.7227C11.625 43.7227 8.375 43.7227 5.125 43.7227C5.125 36.444 5.125 29.1654 5.125 21.8867C10.6095 21.9037 16.0939 21.8867 21.5781 21.8359C22.3365 21.6911 22.6581 21.2341 22.543 20.4648C22.4625 20.2529 22.344 20.0666 22.1875 19.9062C15.459 19.7546 8.72196 19.7038 1.97656 19.7539C1.97656 19.0091 1.97656 18.2643 1.97656 17.5195ZM11.7266 30.3164C14.6043 30.2994 17.482 30.3164 20.3594 30.3672C21.019 30.5547 21.2391 30.9778 21.0195 31.6367C20.8628 31.8275 20.6767 31.9798 20.4609 32.0937C17.5156 32.1615 14.5703 32.1615 11.625 32.0937C10.6831 31.4527 10.7169 30.8603 11.7266 30.3164ZM31.5312 30.3164C34.409 30.2994 37.2867 30.3164 40.1641 30.3672C40.9359 30.6409 41.1222 31.1317 40.7227 31.8398C40.5785 31.9373 40.4262 32.0219 40.2656 32.0937C37.3203 32.1615 34.375 32.1615 31.4297 32.0937C30.8337 31.785 30.6814 31.328 30.9727 30.7227C31.125 30.5227 31.3112 30.3873 31.5312 30.3164ZM15.9922 46.4648C16.6593 47.5733 17.5057 48.5381 18.5312 49.3594C16.8724 49.4271 15.2135 49.4271 13.5547 49.3594C14.5376 48.5295 15.3501 47.5647 15.9922 46.4648ZM35.7969 46.5664C36.2677 47.1229 36.7247 47.6984 37.168 48.293C37.5284 48.684 37.9178 49.0394 38.3359 49.3594C36.6771 49.4271 35.0182 49.4271 33.3594 49.3594C34.3766 48.5967 35.1891 47.6658 35.7969 46.5664Z" fill="#838383"/>
<path opacity="0.912" fill-rule="evenodd" clip-rule="evenodd" d="M25.4405 19.7561C26.6072 19.6194 27.0982 20.1272 26.9131 21.2796C26.5419 21.7645 26.0511 21.9169 25.4405 21.7366C24.9555 21.3654 24.8032 20.8745 24.9834 20.2639C25.1568 20.1078 25.3091 19.9385 25.4405 19.7561Z" fill="#838383"/>
</g>
<defs>
<clipPath id="clip0_3247_105449">
<rect width="52" height="52" fill="white"/>
</clipPath>
</defs>
</svg>
