<svg width="356" height="226" viewBox="0 0 356 226" fill="none" xmlns="http://www.w3.org/2000/svg">
<path d="M80.8021 108.562C76.1791 110.759 71.5658 112.995 67.0546 115.367C62.5433 117.74 58.037 120.165 53.657 122.766C49.277 125.367 44.9749 128.084 40.8525 131.03C36.7276 133.911 32.8407 137.118 29.2293 140.621C27.4661 142.337 25.8407 144.188 24.3681 146.158C22.936 148.019 21.8147 150.099 21.0479 152.317L20.8048 153.115L20.6444 153.912L20.5618 154.311L20.5277 154.704C20.5277 154.967 20.4694 155.234 20.4645 155.492C20.452 156.509 20.603 157.522 20.9118 158.491C21.6997 160.469 23.0416 162.177 24.7765 163.411C26.664 164.792 28.7229 165.923 30.9016 166.775C33.1609 167.673 35.4785 168.417 37.8386 169.001C42.682 170.172 47.6052 170.985 52.5681 171.432C57.5606 171.918 62.6017 172.171 67.6379 172.248C72.6741 172.326 77.7444 172.287 82.8049 172.103C92.926 171.728 103.052 170.926 113.144 169.808C123.236 168.69 133.308 167.275 143.332 165.589C153.356 163.902 163.355 162.011 173.297 159.852C183.238 157.694 193.145 155.361 202.984 152.779C212.823 150.198 222.609 147.403 232.317 144.374C251.733 138.312 270.886 131.317 289.32 122.858C298.521 118.669 307.425 113.855 315.969 108.45C320.197 105.779 324.208 102.78 327.966 99.4808C329.804 97.8511 331.509 96.0776 333.066 94.1772C333.823 93.2488 334.523 92.2747 335.161 91.2604C335.772 90.2698 336.297 89.229 336.731 88.1492C337.589 86.1071 337.76 83.8412 337.217 81.6935C336.639 79.6032 335.21 77.7219 333.411 76.1809C332.502 75.3957 331.526 74.6914 330.494 74.076C329.442 73.4351 328.353 72.8572 327.232 72.3454C324.952 71.3064 322.603 70.4229 320.203 69.7009C315.331 68.2694 310.358 67.2035 305.328 66.5119C302.805 66.1327 300.272 65.8216 297.73 65.5397C295.187 65.2577 292.64 65.0536 290.088 64.8883C300.296 64.8348 310.622 65.3744 320.713 67.7418C323.259 68.3392 325.757 69.1256 328.185 70.0946C329.417 70.587 330.618 71.1519 331.782 71.7864C332.979 72.4214 334.117 73.1599 335.185 73.9934C336.294 74.8406 337.294 75.8201 338.165 76.9101C339.075 78.05 339.779 79.3397 340.246 80.7213C340.721 82.1286 340.929 83.6126 340.858 85.0964C340.788 86.5392 340.52 87.9656 340.061 89.3354C339.606 90.6545 339.03 91.9287 338.34 93.1417C337.663 94.3217 336.913 95.4582 336.094 96.5446C334.487 98.6698 332.71 100.661 330.781 102.5C326.988 106.109 322.915 109.413 318.599 112.378C314.345 115.377 309.917 118.09 305.43 120.642C300.943 123.194 296.364 125.624 291.741 127.934C287.117 130.243 282.446 132.411 277.735 134.506C273.025 136.601 268.256 138.56 263.468 140.461C253.896 144.267 244.188 147.709 234.412 150.913C224.636 154.116 214.753 157.004 204.822 159.663C194.89 162.322 184.891 164.728 174.823 166.906C164.756 169.084 154.654 170.975 144.489 172.608C134.324 174.242 124.116 175.598 113.863 176.594C103.611 177.591 93.31 178.281 82.9751 178.437C72.604 178.686 62.2284 178.198 51.9264 176.978C46.712 176.36 41.5501 175.359 36.4823 173.984C33.9014 173.27 31.3725 172.38 28.9134 171.32C27.6566 170.767 26.4327 170.142 25.248 169.448C24.0291 168.735 22.8714 167.922 21.7868 167.018C20.646 166.092 19.6268 165.025 18.7534 163.843C16.8592 161.375 15.9325 158.299 16.1478 155.195C16.1721 154.816 16.2353 154.447 16.2839 154.077L16.3568 153.518L16.4832 152.979L16.7457 151.909L17.1054 150.883C18.1152 148.315 19.5353 145.928 21.3104 143.815C22.9753 141.742 24.8111 139.811 26.7987 138.045C30.7074 134.597 34.8869 131.47 39.2969 128.692C43.6461 125.902 48.112 123.336 52.6945 120.997C57.277 118.657 61.9097 116.446 66.5927 114.366C71.279 112.334 76.0138 110.375 80.8021 108.562Z" fill="#565656" fill-opacity="0.5"/>
<path d="M85.0341 112.761C80.7335 114.945 76.4945 117.245 72.3171 119.659C68.1462 122.09 64.053 124.608 60.0814 127.32C56.1156 130.024 52.2943 132.933 48.6332 136.037C44.9903 139.113 41.6589 142.541 38.6871 146.269C37.2354 148.118 35.9441 150.088 34.8273 152.156C33.7284 154.182 32.9293 156.357 32.455 158.612C31.7304 161.901 32.1756 165.339 33.7141 168.335C34.2368 169.322 34.8555 170.255 35.5613 171.12C37.0313 172.863 38.7398 174.39 40.6365 175.656C42.5719 176.951 44.6184 178.072 46.7519 179.005C51.0839 180.886 55.5888 182.339 60.2029 183.346C62.5217 183.866 64.86 184.318 67.2079 184.697C69.5559 185.077 71.9233 185.388 74.2956 185.67C79.0402 186.195 83.8058 186.55 88.5925 186.734C98.1727 187.071 107.764 186.908 117.327 186.248C136.494 184.955 155.547 182.317 174.345 178.354C193.173 174.513 211.738 169.479 229.928 163.284C248.094 157.081 265.901 149.643 282.594 140.266C290.912 135.541 298.957 130.276 306.123 124.025C309.723 120.947 312.952 117.459 315.743 113.631C317.109 111.742 318.251 109.702 319.146 107.55C320.038 105.442 320.533 103.187 320.604 100.9C320.614 99.7695 320.502 98.6416 320.269 97.5357C320.01 96.4312 319.63 95.3585 319.136 94.337C318.634 93.3029 318.023 92.3252 317.313 91.4203C316.596 90.4922 315.799 89.6285 314.931 88.839C313.194 87.244 311.281 85.8513 309.229 84.6875C307.164 83.498 305.018 82.4551 302.807 81.5666C298.342 79.7997 293.737 78.4094 289.04 77.4102C284.333 76.3694 279.576 75.5663 274.787 75.0039C279.608 75.3646 284.407 75.9665 289.167 76.8074C293.949 77.6451 298.652 78.8842 303.225 80.5117C305.524 81.3393 307.758 82.3353 309.91 83.4916C312.096 84.6455 314.143 86.0466 316.01 87.6674C316.957 88.4864 317.83 89.3859 318.621 90.3557C319.43 91.3304 320.134 92.3879 320.721 93.5106C321.313 94.6448 321.776 95.8416 322.102 97.0787C322.401 98.3277 322.565 99.6057 322.588 100.89C322.583 103.44 322.1 105.966 321.163 108.337C320.263 110.672 319.095 112.894 317.683 114.958C314.876 119.011 311.605 122.721 307.936 126.013C304.322 129.301 300.498 132.351 296.488 135.142C292.506 137.952 288.399 140.567 284.208 143.032C275.818 147.932 267.154 152.346 258.259 156.254C249.387 160.187 240.355 163.731 231.211 166.949C212.889 173.303 194.172 178.458 175.181 182.384C165.688 184.328 156.136 185.961 146.524 187.284C136.913 188.586 127.259 189.593 117.57 190.132C107.87 190.697 98.148 190.759 88.4418 190.317C78.7193 189.831 68.9969 188.771 59.4737 186.457C54.6733 185.337 49.9939 183.749 45.5026 181.718C43.2307 180.673 41.0544 179.432 38.9982 178.008C36.9127 176.553 35.0493 174.802 33.4662 172.812C32.6688 171.788 31.9751 170.687 31.3953 169.526C29.6739 165.986 29.2374 161.957 30.1605 158.131C30.7318 155.67 31.6587 153.305 32.912 151.111C34.1318 148.957 35.5407 146.915 37.1218 145.01C40.2809 141.274 43.7977 137.854 47.622 134.802C51.4074 131.767 55.361 128.948 59.464 126.358C63.5572 123.767 67.7573 121.365 72.0254 119.1C76.2936 116.835 80.6201 114.759 85.0341 112.761Z" fill="#565656" fill-opacity="0.5"/>
<path d="M92.5645 110.923C87.888 112.955 83.2537 115.079 78.6614 117.296C74.0692 119.513 69.532 121.833 65.05 124.257C60.5922 126.712 56.1928 129.269 51.9587 132.06C49.8246 133.44 47.7634 134.908 45.7217 136.406C43.68 137.903 41.7355 139.512 39.8542 141.184C37.985 142.836 36.2399 144.623 34.6333 146.531C33.8463 147.477 33.119 148.471 32.4554 149.507C32.12 149.993 31.8478 150.557 31.5415 151.082L31.1624 151.893C31.0271 152.158 30.9118 152.433 30.8172 152.715L30.5158 153.546C30.4332 153.828 30.3748 154.11 30.2971 154.392L30.195 154.81L30.1366 155.238C30.0914 155.518 30.0606 155.8 30.0443 156.084C29.9791 157.196 30.1446 158.31 30.5304 159.355C30.9343 160.408 31.5311 161.376 32.2901 162.209C33.0904 163.067 33.9876 163.829 34.9638 164.479C37.013 165.803 39.2213 166.863 41.5362 167.634C43.8887 168.451 46.292 169.114 48.7308 169.617C53.6674 170.617 58.6641 171.292 63.6888 171.64C68.7251 172.009 73.7905 172.165 78.8559 172.165C83.9213 172.165 88.9964 172.033 94.0618 171.795C104.202 171.309 114.323 170.381 124.415 169.17C144.599 166.74 164.661 163.269 184.529 158.913C204.397 154.557 224.114 149.477 243.545 143.464C262.975 137.451 282.148 130.582 300.703 122.318C309.982 118.223 318.999 113.559 327.702 108.351C332.025 105.749 336.167 102.857 340.098 99.6935C342.038 98.1146 343.867 96.4042 345.572 94.5747C346.413 93.6663 347.205 92.7138 347.944 91.7211C348.66 90.7344 349.302 89.6961 349.865 88.6148C350.929 86.4661 351.532 84.0793 351.046 81.8091C350.56 79.5389 349.062 77.5604 347.157 76.0291C345.193 74.5103 343.022 73.2793 340.711 72.3734C338.371 71.4303 335.971 70.6458 333.526 70.0255C328.602 68.8127 323.599 67.9502 318.553 67.4441C313.493 66.8851 308.403 66.574 303.304 66.4087C308.403 66.3795 313.512 66.4914 318.607 66.8559C323.719 67.1997 328.801 67.9063 333.813 68.9706C336.333 69.5182 338.81 70.246 341.226 71.1484C343.693 72.0435 346.02 73.2877 348.134 74.8429C349.209 75.6585 350.166 76.6188 350.978 77.6965C351.821 78.811 352.423 80.089 352.745 81.4491C353.068 82.8092 353.103 84.2215 352.849 85.596C352.612 86.9414 352.197 88.2492 351.615 89.485C351.033 90.6815 350.358 91.8307 349.597 92.9219C348.845 93.9936 348.033 95.0226 347.167 96.0039C345.434 97.9418 343.571 99.7593 341.591 101.444C337.641 104.76 333.47 107.804 329.107 110.554C320.43 116.086 311.291 120.762 302.02 125.137C297.379 127.299 292.695 129.368 287.966 131.345C283.246 133.319 278.482 135.19 273.694 136.999C264.121 140.615 254.455 143.963 244.697 147.042C225.184 153.201 205.384 158.393 185.39 162.778C175.389 164.939 165.342 166.872 155.25 168.577C145.163 170.269 135.032 171.752 124.858 172.879C114.683 174.007 104.475 174.824 94.2319 175.252C83.9721 175.725 73.6924 175.545 63.4555 174.712C58.3063 174.279 53.1911 173.51 48.1426 172.408C45.5957 171.841 43.0885 171.108 40.6369 170.215C38.1223 169.329 35.7333 168.119 33.5298 166.618C32.3965 165.831 31.3618 164.91 30.4478 163.876C29.5094 162.798 28.7792 161.555 28.2942 160.211C27.8246 158.848 27.6393 157.404 27.7498 155.967C27.777 155.615 27.824 155.264 27.8907 154.917L27.9734 154.397L28.1046 153.911C28.197 153.575 28.2845 153.24 28.3866 152.909L28.756 151.937C28.8738 151.619 29.0118 151.309 29.1692 151.009L29.6165 150.1C29.9665 149.526 30.2873 148.933 30.6616 148.384C31.3959 147.288 32.1963 146.237 33.0582 145.238C34.769 143.279 36.6265 141.452 38.6146 139.774C40.5931 138.102 42.6446 136.547 44.7349 135.049C46.8252 133.552 48.9788 132.133 51.1663 130.815C55.5414 128.112 60.004 125.643 64.5639 123.334C69.1237 121.025 73.7467 118.847 78.4184 116.79C83.09 114.734 87.8151 112.775 92.5645 110.923Z" fill="#565656" fill-opacity="0.5"/>
<path d="M102.759 71.383C97.8973 70.61 93.0118 69.8566 88.1214 69.2392C83.231 68.6218 78.3503 68.0385 73.455 67.6253C63.6791 66.828 53.8448 66.3808 44.205 67.2461C41.8036 67.4843 39.4167 67.7322 37.0736 68.1794C34.7647 68.5883 32.4897 69.17 30.2679 69.9198C28.1695 70.6096 26.1867 71.6109 24.3858 72.89C22.7524 74.1636 21.5566 75.6803 21.1142 77.3769C20.6718 79.0734 20.91 80.9985 21.5614 82.9576C22.3297 85.015 23.3695 86.9605 24.6532 88.7424C27.2636 92.4856 30.5985 95.903 34.1083 99.126C37.6746 102.352 41.4066 105.389 45.2891 108.226C49.1781 111.094 53.1756 113.849 57.2817 116.49C65.468 121.74 73.9217 126.636 82.5601 131.225C91.1985 135.814 99.9439 140.15 108.816 144.248C117.687 148.346 126.676 152.264 135.757 155.915C144.837 159.566 153.976 163.119 163.208 166.405C172.439 169.692 181.724 172.812 191.077 175.71C209.793 181.48 228.776 186.434 247.988 189.997C257.571 191.804 267.247 193.084 276.97 193.832C281.79 194.191 286.627 194.28 291.457 194.1C296.25 193.881 301.038 193.322 305.472 191.966C307.632 191.336 309.673 190.35 311.509 189.049C313.218 187.863 314.455 186.115 315.005 184.11C315.45 181.963 315.282 179.734 314.518 177.679C313.739 175.454 312.693 173.332 311.402 171.359C310.096 169.317 308.648 167.367 307.071 165.526C305.501 163.664 303.829 161.88 302.098 160.139C298.656 156.639 294.937 153.397 291.155 150.227C295.254 153.002 299.197 156 302.968 159.206C304.845 160.825 306.668 162.521 308.413 164.31C310.18 166.096 311.822 168.001 313.327 170.012C314.898 172.061 316.192 174.306 317.178 176.692C317.688 177.941 318.048 179.247 318.252 180.581C318.466 181.976 318.45 183.396 318.203 184.786C317.942 186.212 317.407 187.573 316.628 188.796C315.861 189.99 314.917 191.06 313.828 191.971C311.727 193.66 309.358 194.984 306.818 195.889C304.387 196.768 301.886 197.443 299.342 197.906C296.828 198.392 294.306 198.708 291.787 198.937C286.776 199.361 281.745 199.502 276.718 199.36C271.706 199.248 266.718 198.874 261.755 198.387C256.791 197.901 251.843 197.279 246.918 196.53C237.069 195.048 227.308 193.128 217.625 190.906C207.941 188.684 198.335 186.137 188.797 183.366C179.26 180.595 169.839 177.533 160.447 174.256C151.055 170.98 141.799 167.451 132.597 163.722C123.394 159.993 114.304 155.993 105.316 151.754C96.3271 147.515 87.4505 143.003 78.7489 138.196C70.0473 133.388 61.477 128.254 53.208 122.64C44.9391 117.025 36.8694 111.007 29.5776 103.939C25.8088 100.39 22.4543 96.4252 19.578 92.121C18.0621 89.8354 16.8634 87.3546 16.0148 84.7465C15.5838 83.3345 15.3275 81.8749 15.2516 80.4006C15.1708 78.8358 15.3751 77.2693 15.8543 75.7775C15.971 75.3984 16.1314 75.0338 16.2724 74.6643C16.4134 74.2949 16.6224 73.9546 16.7974 73.6046C16.9848 73.2681 17.1926 72.9434 17.4197 72.6323C17.6248 72.3063 17.8539 71.9959 18.1051 71.7038L18.8537 70.8385C19.1211 70.576 19.3933 70.3281 19.6655 70.0753L20.0787 69.701L20.5114 69.3704L21.3767 68.719C23.6621 67.2256 26.162 66.0896 28.7901 65.3502C33.8458 63.8675 38.9257 63.3522 43.9571 63.1529C48.9585 63.0176 53.9636 63.1604 58.9491 63.5807C63.9108 63.9858 68.8401 64.5708 73.737 65.3356C78.6339 66.1005 83.4951 66.9901 88.3207 68.0044C93.1722 69.0253 97.9848 70.1336 102.759 71.383Z" fill="#565656" fill-opacity="0.5"/>
<path d="M73.4068 121.083C68.7935 124.456 64.2045 127.888 59.7224 131.403C55.2404 134.918 50.8021 138.525 46.5145 142.268C42.2269 146.011 38.0365 149.871 34.0843 153.935C30.1046 157.929 26.4534 162.237 23.166 166.817C21.5543 169.059 20.1346 171.434 18.9221 173.915C17.7427 176.261 17.0014 178.803 16.7346 181.415C16.6746 182.606 16.8093 183.798 17.1332 184.945C17.5052 186.023 18.0904 187.015 18.8541 187.861C19.679 188.74 20.6371 189.483 21.693 190.064C22.8263 190.666 24.0126 191.162 25.2369 191.546C27.8236 192.306 30.4824 192.795 33.1704 193.005C35.928 193.242 38.6969 193.323 41.4637 193.248C47.0739 193.081 52.6684 192.568 58.2154 191.712C63.7961 190.89 69.3525 189.821 74.8797 188.61C80.407 187.4 85.9196 186.058 91.4079 184.59C102.37 181.673 113.225 178.27 123.978 174.581C134.731 170.891 145.406 166.953 155.97 162.739C166.533 158.524 177.034 154.115 187.417 149.458C197.801 144.801 208.107 139.969 218.301 134.903C228.495 129.838 238.586 124.573 248.562 119.104C268.493 108.171 287.938 96.2565 306.44 83.0874C315.682 76.5381 324.505 69.4154 332.855 61.7612C336.994 57.9631 340.854 53.8724 344.406 49.5207C346.144 47.3712 347.722 45.0965 349.126 42.7149C349.486 42.1267 349.777 41.5191 350.098 40.9211C350.419 40.3232 350.701 39.7058 350.939 39.0836C351.463 37.8737 351.865 36.615 352.14 35.3259C352.689 32.8029 352.529 30.2264 351.25 28.1361C349.972 26.0458 347.789 24.461 345.325 23.4013C342.779 22.3384 340.108 21.6033 337.376 21.2137C334.597 20.7813 331.793 20.5248 328.981 20.4456C323.301 20.3001 317.617 20.5307 311.967 21.1359C309.131 21.4114 306.299 21.7468 303.469 22.1422C300.64 22.5376 297.817 22.9783 295.001 23.4645C306.124 20.8686 317.45 18.822 329.03 18.6032C331.931 18.5398 334.833 18.673 337.717 19.0019C340.667 19.3075 343.566 19.9854 346.345 21.0193C347.786 21.5631 349.153 22.2849 350.414 23.1679C351.736 24.0837 352.875 25.2377 353.773 26.5708C354.676 27.9549 355.265 29.5194 355.499 31.1549C355.717 32.7397 355.686 34.3487 355.407 35.9238C355.148 37.4425 354.73 38.93 354.162 40.3621C353.909 41.0816 353.579 41.7524 353.282 42.4476C352.986 43.1427 352.636 43.8038 352.271 44.4504C350.848 47.044 349.235 49.5284 347.444 51.8832C343.912 56.507 340.052 60.8707 335.894 64.9405C331.791 69.0239 327.469 72.8643 323.06 76.5782C318.651 80.2922 314.13 83.8701 309.531 87.3118C304.933 90.7536 300.266 94.1175 295.541 97.4086C290.816 100.7 286.008 103.83 281.166 106.922C271.486 113.109 261.643 119.022 251.639 124.661C241.644 130.309 231.489 135.671 221.247 140.839C211.004 146.006 200.611 150.892 190.135 155.588C169.18 164.999 147.764 173.345 125.966 180.594C115.048 184.172 104.018 187.439 92.8614 190.273C87.2759 191.673 81.6806 192.985 76.0075 194.108C70.3345 195.231 64.6517 196.174 58.9009 196.889C53.1299 197.644 47.3178 198.044 41.4977 198.085C38.5499 198.087 35.6043 197.925 32.6745 197.598C29.6676 197.281 26.7042 196.638 23.8368 195.678C22.3483 195.16 20.9126 194.501 19.5492 193.71C18.1224 192.865 16.8406 191.796 15.7526 190.545C14.643 189.232 13.8156 187.705 13.322 186.058C12.9052 184.44 12.7639 182.764 12.9039 181.099C13.2944 178.021 14.2503 175.041 15.7234 172.31C17.0969 169.692 18.6992 167.199 20.5118 164.863C24.0798 160.291 28.0089 156.012 32.2613 152.068C36.442 148.106 40.8123 144.368 45.3235 140.824C49.8347 137.28 54.4286 133.858 59.1148 130.567C63.801 127.276 68.5747 124.136 73.4068 121.083Z" fill="#565656" fill-opacity="0.5"/>
<path d="M95.7614 66.0144C90.2067 65.3662 84.6389 64.8169 79.0583 64.3664C73.4824 63.9192 67.8774 63.5886 62.3113 63.433C51.1305 63.1365 39.9205 63.4039 28.9438 65.1831C23.4798 66.1262 18.0255 67.3755 13.0379 69.6408C11.8022 70.203 10.6024 70.841 9.44545 71.5513C8.87182 71.9062 8.33223 72.3096 7.77805 72.6888L7.00512 73.3208C6.74007 73.5212 6.48987 73.7405 6.25648 73.977L5.54675 74.6673C5.30855 74.8958 5.11896 75.1535 4.90506 75.4062C4.48572 75.9033 4.10233 76.4297 3.75781 76.9813C3.58281 77.2535 3.45642 77.55 3.30572 77.832L3.0821 78.2598C3.01404 78.4056 2.96543 78.5563 2.9071 78.707C2.6675 79.2983 2.48202 79.9101 2.35292 80.5349C1.81818 83.0432 2.27028 85.6975 3.18419 88.1767C4.17601 90.6866 5.50214 93.051 7.12665 95.206C10.3691 99.5811 14.3602 103.47 18.5651 107.058C22.8148 110.623 27.2565 113.953 31.8703 117.033C36.482 120.141 41.2006 123.09 46.0262 125.88C55.6612 131.481 65.6169 136.536 75.7234 141.256C95.9977 150.625 116.794 158.818 138.01 165.796C159.196 172.877 180.695 178.907 202.509 183.885C224.278 188.853 246.328 192.708 268.544 194.808C279.639 195.896 290.792 196.29 301.936 195.989C307.492 195.83 313.033 195.328 318.527 194.487C323.986 193.597 329.426 192.29 334.37 189.922C335.599 189.34 336.779 188.66 337.899 187.89C338.473 187.521 338.983 187.083 339.518 186.67C340.03 186.231 340.517 185.764 340.976 185.27C341.885 184.296 342.642 183.192 343.222 181.994C343.782 180.787 344.128 179.493 344.243 178.168C344.481 175.499 343.806 172.791 342.741 170.273C342.187 169.013 341.552 167.79 340.84 166.613C340.111 165.441 339.343 164.289 338.497 163.21C335.153 158.771 331.113 154.873 326.893 151.222C322.639 147.59 318.198 144.182 313.588 141.013C318.294 144.052 322.837 147.334 327.2 150.848C329.373 152.627 331.478 154.484 333.495 156.443C335.527 158.395 337.423 160.482 339.173 162.69C340.058 163.788 340.865 164.95 341.642 166.136C342.403 167.339 343.087 168.59 343.689 169.879C344.851 172.475 345.633 175.339 345.454 178.284C345.359 179.759 345.007 181.205 344.413 182.557C343.803 183.896 342.995 185.134 342.017 186.233C341.533 186.78 341.018 187.299 340.476 187.788C339.917 188.245 339.372 188.726 338.774 189.135C337.605 189.974 336.371 190.72 335.085 191.366C329.956 193.938 324.39 195.342 318.848 196.344C313.287 197.284 307.673 197.881 302.038 198.133C296.414 198.42 290.784 198.434 285.165 198.274C279.545 198.113 273.935 197.788 268.335 197.345C257.154 196.451 245.973 195.027 234.909 193.242C223.845 191.458 212.8 189.319 201.853 186.894C190.905 184.468 179.997 181.687 169.185 178.693C158.374 175.698 147.636 172.422 136.99 168.878C115.712 161.742 94.7503 153.614 74.4255 144.032C64.2801 139.215 54.2854 134.057 44.597 128.335C34.9086 122.614 25.4924 116.372 16.9366 108.963C12.6782 105.244 8.61418 101.229 5.26965 96.5672C4.84673 95.9838 4.45783 95.3762 4.05435 94.7831C3.65086 94.19 3.28141 93.5629 2.95084 92.9164C2.23262 91.6447 1.61968 90.3164 1.11817 88.9448C0.604376 87.5472 0.260011 86.093 0.0924471 84.6134C-0.0835005 83.1061 -0.00793813 81.5799 0.316059 80.0973C0.483644 79.354 0.716262 78.6269 1.01122 77.9244C1.08414 77.7494 1.14733 77.5695 1.22997 77.3994L1.49734 76.9132C1.68207 76.5827 1.84248 76.2375 2.04666 75.941C2.45373 75.3113 2.90365 74.7103 3.39322 74.1423C3.646 73.8701 3.87934 73.5687 4.14184 73.3159L4.94395 72.5527C5.19948 72.2934 5.47059 72.0499 5.75578 71.8235L6.62107 71.143C7.22387 70.7395 7.82179 70.3117 8.43917 69.9422C9.68023 69.2166 10.9644 68.5672 12.2844 67.9977C17.554 65.713 23.1298 64.522 28.7008 63.6712C39.8816 62.1059 51.1499 62.0865 62.3405 62.6261C67.9406 62.908 73.5278 63.3423 79.102 63.9289C84.6762 64.5155 90.2293 65.2106 95.7614 66.0144Z" fill="#565656" fill-opacity="0.5"/>
<path d="M96.3892 40.2114C91.5669 38.9669 86.7445 37.7564 81.8882 36.6821C77.0318 35.6078 72.1657 34.5918 67.3045 33.7654C57.5431 32.1028 47.6797 30.8486 37.8843 30.941C33.0231 30.9993 28.1181 31.3591 23.5194 32.4966C21.2728 33.0186 19.1053 33.8359 17.0734 34.9272L16.3491 35.3404L15.6782 35.8022C15.2381 36.1011 14.8161 36.4258 14.4143 36.7745C13.6611 37.4602 13.0067 38.2471 12.4698 39.1127C11.4326 40.8538 10.9558 42.8716 11.1038 44.8927C11.1038 45.4177 11.2059 45.9525 11.2691 46.4824C11.3323 47.0122 11.4636 47.5518 11.6191 48.0866C11.9003 49.1787 12.2593 50.2493 12.6934 51.2901C14.4726 55.534 17.1755 59.5542 20.1652 63.3071C23.2152 67.0889 26.4981 70.677 29.9945 74.0504C33.48 77.4532 37.1211 80.7589 40.8691 83.9333C48.37 90.2772 56.2792 96.1787 64.3877 101.789C72.4963 107.398 80.8138 112.741 89.2918 117.831C97.7698 122.92 106.374 127.786 115.115 132.414C123.855 137.042 132.693 141.49 141.647 145.685C150.602 149.881 159.634 153.881 168.797 157.654C177.961 161.426 187.178 164.946 196.506 168.173C201.179 169.794 205.879 171.322 210.604 172.758C215.329 174.193 220.072 175.559 224.833 176.856C234.338 179.42 243.993 181.392 253.742 182.762C258.584 183.444 263.462 183.827 268.35 183.909C273.212 183.953 278.073 183.622 282.647 182.412C283.226 182.281 283.77 182.077 284.339 181.926C284.908 181.775 285.442 181.547 285.967 181.309C287.023 180.875 288.034 180.339 288.986 179.709C290.405 178.834 291.596 177.635 292.464 176.212C293.331 174.788 293.85 173.18 293.979 171.518C294.068 170.368 294.029 169.212 293.862 168.071C293.697 166.898 293.433 165.74 293.074 164.61C292.728 163.452 292.311 162.315 291.825 161.207C289.881 156.75 287.149 152.593 284.164 148.661C281.133 144.717 277.887 140.944 274.441 137.358C278.159 140.688 281.673 144.239 284.966 147.99C288.223 151.786 291.252 155.831 293.565 160.386C294.145 161.531 294.66 162.707 295.106 163.91C295.563 165.134 295.916 166.394 296.161 167.678C296.419 168.99 296.529 170.327 296.487 171.664C296.42 173.748 295.866 175.788 294.869 177.62C293.872 179.452 292.46 181.025 290.746 182.213C289.661 183.012 288.5 183.703 287.28 184.274C286.687 184.575 286.069 184.804 285.457 185.066C284.844 185.329 284.222 185.552 283.595 185.718C278.588 187.278 273.445 187.779 268.365 187.934C263.3 188.045 258.233 187.844 253.193 187.332C243.145 186.359 233.262 184.415 223.481 182.164C218.594 181.017 213.733 179.763 208.897 178.402C204.075 177.036 199.287 175.548 194.523 174.002C184.995 170.901 175.574 167.498 166.26 163.794C156.946 160.118 147.787 156.132 138.667 151.947C129.548 147.761 120.676 143.269 111.828 138.588C94.1579 129.172 76.9443 118.847 60.5863 107.209C52.4243 101.375 44.4664 95.2113 36.8732 88.5757C29.28 81.9402 22.0464 74.8233 15.8532 66.6419C12.7858 62.5341 9.95171 58.1493 8.00722 53.1422C7.51823 51.8759 7.12021 50.5763 6.81622 49.2533C6.64607 48.5873 6.54885 47.8921 6.43218 47.2018C6.34194 46.497 6.2884 45.7879 6.27176 45.0775C6.21779 43.6031 6.38159 42.1289 6.75788 40.7024C7.14308 39.2539 7.75858 37.8768 8.58084 36.6238C9.39251 35.4072 10.3748 34.3136 11.4976 33.3765C12.0476 32.93 12.6221 32.5145 13.2185 32.132L14.1081 31.5778C14.4143 31.4077 14.7206 31.257 15.0268 31.0917C17.4298 29.9083 19.9803 29.0517 22.6104 28.5444C27.6516 27.5873 32.788 27.2267 37.9135 27.4701C42.9465 27.6848 47.9632 28.1847 52.9396 28.9673C57.8948 29.7289 62.8062 30.6834 67.6739 31.8306C72.5352 32.9633 77.3672 34.2612 82.1555 35.6321C86.9438 37.003 91.6884 38.5537 96.3892 40.2114Z" fill="#565656" fill-opacity="0.5"/>
<path d="M267.347 21.2681C210.567 33.5621 181.721 7.17051 177.837 3.28153C177.837 3.28153 177.759 2.88777 177.608 3.04819C177.458 2.88777 177.375 3.28153 177.375 3.28153C173.486 7.17051 144.659 33.5621 87.8652 21.2681C87.8652 21.2681 79.149 123.441 112.254 165.126C147.615 209.646 177.458 223.106 177.608 223.009C177.759 223.121 207.855 209.918 242.958 165.16C275.8 123.232 267.347 21.2681 267.347 21.2681Z" stroke="#4169E1" stroke-width="5.67791" stroke-miterlimit="10"/>
<path style="mix-blend-mode:screen" d="M167.643 136.417L170.997 104.061C168.604 102.623 166.749 100.441 165.714 97.8485C164.68 95.2558 164.524 92.3955 165.27 89.7057C166.016 87.0159 167.624 84.6448 169.846 82.9556C172.068 81.2663 174.783 80.352 177.574 80.3527V3.02027C177.448 2.94735 177.375 3.27792 177.375 3.27792C173.486 7.1669 144.659 33.5585 87.8652 21.2645C87.8652 21.2645 79.149 123.438 112.254 165.123C147.046 208.908 176.5 222.665 177.574 223.005V136.417H167.643Z" fill="#001144"/>
<path style="mix-blend-mode:screen" d="M242.96 165.126C275.802 123.232 267.348 21.2681 267.348 21.2681C210.569 33.5621 181.723 7.17051 177.839 3.28153C177.839 3.28153 177.761 2.88777 177.61 3.04819C177.61 3.04819 177.61 3.04819 177.576 3.02388V80.3563C180.378 80.3544 183.102 81.2742 185.329 82.9739C187.557 84.6735 189.163 87.0587 189.9 89.7616C190.638 92.4644 190.466 95.3348 189.41 97.9302C188.355 100.525 186.475 102.702 184.061 104.123L186.803 136.421H177.566V223.009H177.6C177.761 223.106 207.857 209.884 242.96 165.126Z" fill="#001A67"/>
</svg>
