<svg width="15" height="15" viewBox="0 0 15 15" fill="none" xmlns="http://www.w3.org/2000/svg">
<path d="M12.8278 9.99748L10.8714 9.77412C10.6414 9.7471 10.4083 9.77257 10.1895 9.8486C9.9707 9.92464 9.772 10.0493 9.60831 10.2131L8.19114 11.6303C6.00468 10.5183 4.22751 8.74113 3.11551 6.55467L4.54038 5.1298C4.87157 4.79861 5.03331 4.33649 4.9794 3.86667L4.75604 1.92576C4.71237 1.55004 4.53206 1.20349 4.24943 0.952106C3.9668 0.70072 3.60159 0.562052 3.22334 0.562501H1.89089C1.02056 0.562501 0.296571 1.28649 0.350486 2.15682C0.758693 8.73434 6.01917 13.9871 12.589 14.3953C13.4593 14.4492 14.1833 13.7253 14.1833 12.8549V11.5225C14.191 10.7446 13.6057 10.0899 12.8278 9.99748Z" fill="#4169E1"/>
</svg>
