<svg width="20" height="20" viewBox="0 0 20 20" fill="none" xmlns="http://www.w3.org/2000/svg">
<path d="M4.74809 1.01372V3.26372M15.2481 1.01172V3.26172M0.996094 16.7617V5.51172C0.995963 5.21616 1.05406 4.92347 1.16708 4.65037C1.28009 4.37728 1.44581 4.12912 1.65475 3.92008C1.86369 3.71104 2.11178 3.54522 2.38483 3.43209C2.65787 3.31895 2.95054 3.26072 3.24609 3.26072H16.7461C17.3428 3.26072 17.9151 3.49777 18.3371 3.91973C18.759 4.34169 18.9961 4.91398 18.9961 5.51072V16.7617M0.996094 16.7617C0.996094 17.3585 1.23315 17.9308 1.6551 18.3527C2.07706 18.7747 2.64936 19.0117 3.24609 19.0117H16.7461C17.3428 19.0117 17.9151 18.7747 18.3371 18.3527C18.759 17.9308 18.9961 17.3585 18.9961 16.7617M0.996094 16.7617V9.26172C0.996094 8.66498 1.23315 8.09269 1.6551 7.67073C2.07706 7.24877 2.64936 7.01172 3.24609 7.01172H16.7461C17.3428 7.01172 17.9151 7.24877 18.3371 7.67073C18.759 8.09269 18.9961 8.66498 18.9961 9.26172V16.7617M12.2461 10.7617H14.4961M5.49609 13.0117H9.99609M9.99809 10.7617H10.0031V10.7677H9.99809V10.7617ZM9.99709 15.2617H10.0031V15.2677H9.99709V15.2617ZM7.74709 15.2627H7.75209V15.2687H7.74809L7.74709 15.2627ZM5.49709 15.2627H5.50209V15.2677H5.49609L5.49709 15.2627ZM12.2471 13.0157H12.2521V13.0207H12.2471V13.0157ZM12.2471 15.2627H12.2531V15.2687H12.2471V15.2627ZM14.4971 13.0147H14.5031V13.0187H14.4981L14.4971 13.0147Z" stroke="#9C9C9C" stroke-width="1.5" stroke-linecap="round" stroke-linejoin="round"/>
</svg>
