<svg width="52" height="52" viewBox="0 0 52 52" fill="none" xmlns="http://www.w3.org/2000/svg">
<g opacity="0.5" clip-path="url(#clip0_3247_105448)">
<path opacity="0.947" fill-rule="evenodd" clip-rule="evenodd" d="M21.6875 1.67551C23.1538 1.58877 24.4571 1.99502 25.5977 2.89426C27.6527 1.38112 29.7685 1.29649 31.9453 2.64035C32.5497 3.08705 33.0237 3.64565 33.3672 4.31613C38.3773 4.40076 43.3876 4.45155 48.3984 4.46848C48.517 4.58697 48.6354 4.70545 48.7539 4.82394C48.7877 7.56613 48.8216 10.3083 48.8555 13.0505C50.7357 13.1065 51.5144 14.0882 51.1914 15.9958C50.7271 17.2303 49.9485 18.212 48.8555 18.9411C48.8534 29.2247 48.8195 39.5164 48.7539 49.8161C48.6306 49.9734 48.4783 50.0919 48.2969 50.1716C45.1146 50.2393 41.9323 50.2393 38.75 50.1716C38.5686 50.0919 38.4163 49.9734 38.293 49.8161C37.9597 48.7594 37.7566 47.676 37.6836 46.5661C37.5174 43.7893 37.7545 41.0471 38.3945 38.3396C38.8616 36.38 39.4202 34.4503 40.0703 32.5505C38.3117 32.2173 37.6176 31.1677 37.9883 29.4021C38.276 28.7081 38.767 28.2171 39.4609 27.9294C37.2141 23.6428 35.7922 19.0894 35.1953 14.2693C33.8899 14.1275 32.6712 13.7212 31.5391 13.0505C30.3207 14.6246 28.865 15.928 27.1719 16.9607C26.6733 17.2526 26.1485 17.4725 25.5977 17.6208C24.4696 17.2373 23.4371 16.6787 22.5 15.945C21.4629 15.0603 20.515 14.0955 19.6562 13.0505C18.7543 13.543 17.8063 13.9153 16.8125 14.1677C16.2072 18.0448 15.1746 21.8027 13.7148 25.4411C13.3581 26.3071 12.9349 27.1364 12.4453 27.9294C14.0501 28.7789 14.4394 30.0146 13.6133 31.6364C13.1655 32.2203 12.573 32.525 11.8359 32.5505C12.916 35.5842 13.6777 38.6988 14.1211 41.8943C14.269 43.449 14.3029 45.0062 14.2227 46.5661C14.1496 47.676 13.9465 48.7594 13.6133 49.8161C13.49 49.9734 13.3376 50.0919 13.1562 50.1716C9.97396 50.2393 6.79166 50.2393 3.60937 50.1716C3.42798 50.0919 3.27564 49.9734 3.15234 49.8161C3.11849 39.5245 3.08463 29.2328 3.05078 18.9411C1.65202 18.0894 0.85645 16.8537 0.664062 15.2341C0.760775 13.7146 1.55635 12.9868 3.05078 13.0505C3.08463 10.3083 3.11849 7.56613 3.15234 4.82394C3.27084 4.70545 3.38932 4.58697 3.50781 4.46848C8.2474 4.43462 12.9869 4.40076 17.7266 4.36691C18.6398 2.86151 19.9601 1.96438 21.6875 1.67551ZM21.5859 3.40207C23.0112 3.25062 24.1961 3.70765 25.1406 4.77316C25.4453 4.97629 25.75 4.97629 26.0547 4.77316C27.5886 3.19703 29.2813 2.9939 31.1328 4.16379C32.1882 5.23172 32.5437 6.50125 32.1992 7.97238C31.4278 10.4451 30.0568 12.5272 28.0859 14.2185C27.3119 14.8566 26.4826 15.4152 25.5977 15.8943C22.5269 14.2118 20.3603 11.7405 19.0977 8.48019C18.5528 6.83648 18.8743 5.39767 20.0625 4.16379C20.5241 3.79754 21.0319 3.54364 21.5859 3.40207ZM4.72656 6.04269C5.09896 6.04269 5.47135 6.04269 5.84375 6.04269C5.99021 7.85803 6.61652 9.48303 7.72266 10.9177C8.32237 11.4832 8.88097 12.0756 9.39844 12.695C8.72392 17.3257 7.18356 21.6421 4.77734 25.6443C4.69273 23.3752 4.70966 21.1071 4.82812 18.8396C6.16287 17.9961 6.94152 16.7943 7.16406 15.2341C7.03882 13.7452 6.24325 13.0173 4.77734 13.0505C4.72656 10.7148 4.70964 8.37887 4.72656 6.04269ZM7.57031 6.04269C7.90885 6.04269 8.2474 6.04269 8.58594 6.04269C9.27358 9.45524 11.3556 11.3172 14.832 11.6286C16.0137 11.6125 17.1139 11.3078 18.1328 10.7146C18.3472 10.9896 18.5503 11.2773 18.7422 11.5778C15.4983 13.2828 12.4852 12.9443 9.70312 10.5622C8.4595 9.31052 7.74856 7.80401 7.57031 6.04269ZM10.3125 6.04269C12.6146 6.04269 14.9166 6.04269 17.2187 6.04269C17.1687 7.08084 17.2534 8.09646 17.4727 9.08957C15.6349 10.2099 13.8236 10.1591 12.0391 8.93722C11.1116 8.18246 10.536 7.21762 10.3125 6.04269ZM33.9766 6.04269C36.2796 6.00887 38.5817 6.04272 40.8828 6.14426C39.9887 8.99552 38.059 10.1973 35.0937 9.74972C34.5887 9.62409 34.1316 9.40404 33.7227 9.08957C33.9365 8.09482 34.0212 7.0792 33.9766 6.04269ZM42.6094 6.04269C42.9479 6.04269 43.2865 6.04269 43.625 6.04269C43.0739 9.42101 41.1442 11.5707 37.8359 12.4919C35.9193 12.8777 34.125 12.5731 32.4531 11.5778C32.645 11.2773 32.8481 10.9896 33.0625 10.7146C35.6116 12.038 38.0491 11.8518 40.375 10.156C41.586 9.03722 42.3308 7.66613 42.6094 6.04269ZM45.3516 6.04269C45.9609 6.04269 46.5703 6.04269 47.1797 6.04269C47.1966 8.37887 47.1797 10.7148 47.1289 13.0505C45.6715 13.0171 44.8759 13.745 44.7422 15.2341C44.9704 16.7904 45.7491 17.9922 47.0781 18.8396C47.1965 21.1071 47.2135 23.3752 47.1289 25.6443C45.2906 22.3736 43.9026 18.9205 42.9648 15.2849C42.7674 14.2017 42.5812 13.1183 42.4062 12.0349C44.1195 10.4026 45.1013 8.40519 45.3516 6.04269ZM40.6797 13.1521C41.7353 18.3631 43.665 23.2551 46.4687 27.8278C44.7516 27.9116 43.0419 27.8947 41.3398 27.7771C39.5685 24.6984 38.3159 21.4145 37.582 17.9255C37.3159 16.7138 37.0958 15.495 36.9219 14.2693C38.2897 14.2417 39.5423 13.8693 40.6797 13.1521ZM10.9219 13.5583C12.2294 14.05 13.5835 14.3208 14.9844 14.3708C14.46 18.0935 13.4613 21.682 11.9883 25.1364C11.566 26.049 11.092 26.9292 10.5664 27.7771C8.86428 27.8947 7.15465 27.9116 5.4375 27.8278C8.26987 23.4649 10.098 18.7085 10.9219 13.5583ZM2.59375 14.6755C2.73324 14.6596 2.86866 14.6765 3 14.7263C3.24074 14.967 3.52851 15.1193 3.86328 15.1833C4.25512 15.0804 4.61059 14.9111 4.92969 14.6755C5.28216 14.7234 5.45143 14.9266 5.4375 15.2849C5.41798 15.4958 5.3672 15.699 5.28516 15.8943C4.93794 16.445 4.51476 16.9359 4.01562 17.3669C3.87265 17.3989 3.73723 17.3651 3.60937 17.2653C2.98329 16.7248 2.54319 16.0647 2.28906 15.2849C2.33819 15.0512 2.43975 14.8481 2.59375 14.6755ZM46.7734 14.6755C46.9129 14.6596 47.0484 14.6765 47.1797 14.7263C47.4049 14.9574 47.6758 15.1098 47.9922 15.1833C48.3867 15.059 48.759 14.8897 49.1094 14.6755C49.3395 14.7193 49.4919 14.8547 49.5664 15.0818C49.3933 16.0864 48.8687 16.8651 47.9922 17.4177C47.025 16.8362 46.534 15.9899 46.5195 14.8786C46.6206 14.8211 46.7052 14.7534 46.7734 14.6755ZM4.72656 29.5036C7.09659 29.4867 9.46638 29.5036 11.8359 29.5544C12.2968 29.7284 12.4492 30.05 12.293 30.5193C12.159 30.7211 11.9728 30.8396 11.7344 30.8747C9.39868 30.9255 7.06274 30.9425 4.72656 30.9255C4.72656 30.4515 4.72656 29.9776 4.72656 29.5036ZM40.0703 29.5036C42.4401 29.5036 44.8099 29.5036 47.1797 29.5036C47.1797 29.9776 47.1797 30.4515 47.1797 30.9255C44.8435 30.9425 42.5076 30.9255 40.1719 30.8747C39.6427 30.7517 39.4565 30.4302 39.6133 29.9099C39.7552 29.7504 39.9075 29.6149 40.0703 29.5036ZM5.13281 32.6521C6.74 32.5509 8.365 32.517 10.0078 32.5505C11.1367 35.5425 11.9323 38.6233 12.3945 41.7927C12.7422 44.0367 12.6914 46.2711 12.2422 48.4958C10.8541 48.4958 9.46615 48.4958 8.07812 48.4958C8.38076 46.1195 8.32998 43.7497 7.92578 41.3864C7.32723 38.3556 6.39625 35.4441 5.13281 32.6521ZM41.8984 32.5505C43.5237 32.5335 45.1487 32.5505 46.7734 32.6013C45.1847 36.1153 44.1521 39.7886 43.6758 43.6208C43.5776 45.2525 43.6283 46.8775 43.8281 48.4958C42.4401 48.4958 41.0521 48.4958 39.6641 48.4958C39.2024 46.238 39.1516 43.9697 39.5117 41.6911C39.9904 38.5575 40.786 35.5106 41.8984 32.5505ZM4.72656 36.4099C5.88056 39.3184 6.52379 42.3483 6.65625 45.4997C6.62469 46.5071 6.52313 47.5059 6.35156 48.4958C5.8099 48.4958 5.26823 48.4958 4.72656 48.4958C4.72656 44.4671 4.72656 40.4386 4.72656 36.4099ZM47.0781 36.4099C47.1796 40.4212 47.2134 44.4499 47.1797 48.4958C46.6381 48.4958 46.0963 48.4958 45.5547 48.4958C45.08 45.3712 45.3001 42.2904 46.2148 39.2536C46.503 38.3038 46.7907 37.3559 47.0781 36.4099Z" fill="#838383"/>
</g>
<defs>
<clipPath id="clip0_3247_105448">
<rect width="52" height="52" fill="white"/>
</clipPath>
</defs>
</svg>
