<svg width="36" height="37" viewBox="0 0 36 37" fill="none" xmlns="http://www.w3.org/2000/svg">
<g clip-path="url(#clip0_3239_22228)">
<path opacity="0.978" fill-rule="evenodd" clip-rule="evenodd" d="M16.7129 0.813477C17.7267 0.813477 18.7404 0.813477 19.7541 0.813477C25.9786 1.54574 30.6672 4.61001 33.8198 10.0063C34.9848 12.2028 35.6876 14.5298 35.928 16.9873C35.928 18.0011 35.928 19.0148 35.928 20.0285C35.1957 26.253 32.1314 30.9416 26.7351 34.0942C24.5387 35.2592 22.2116 35.962 19.7541 36.2024C18.7404 36.2024 17.7267 36.2024 16.7129 36.2024C10.4884 35.4701 5.79984 32.4058 2.64719 27.0096C1.48218 24.8131 0.779473 22.4861 0.539062 20.0285C0.539062 19.0148 0.539062 18.0011 0.539062 16.9873C1.27133 10.7628 4.3356 6.07426 9.73188 2.9216C11.9283 1.7566 14.2554 1.05389 16.7129 0.813477ZM17.0585 4.33854C22.9659 4.15245 27.4701 6.54857 30.5712 11.5269C33.0134 16.1809 33.0134 20.8349 30.5712 25.4889C27.4719 30.4777 22.9677 32.8623 17.0585 32.6427C11.5421 31.9539 7.59078 29.1085 5.20459 24.1066C3.18219 18.8872 3.85034 14.0489 7.20904 9.59158C9.79506 6.54171 13.0782 4.7907 17.0585 4.33854Z" fill="white"/>
<path opacity="0.988" fill-rule="evenodd" clip-rule="evenodd" d="M16.6689 6.37793C16.7842 6.37793 16.8993 6.37793 17.0145 6.37793C16.9905 6.88982 17.025 7.39669 17.1182 7.89855C17.4123 8.38514 17.8386 8.55794 18.3969 8.41694C18.8107 8.24677 19.0296 7.93573 19.0535 7.48383C19.088 7.11592 19.0996 6.74728 19.0881 6.37793C23.5926 6.83771 26.9218 9.04951 29.0758 13.0133C29.7372 14.3686 30.1404 15.7971 30.2854 17.2987C29.6806 17.2704 29.0816 17.3049 28.4883 17.4024C27.9794 17.8105 27.8757 18.3059 28.1772 18.8885C28.2849 19.0169 28.4116 19.1206 28.5574 19.1995C29.1276 19.2967 29.7036 19.3312 30.2854 19.3032C29.8456 23.9057 27.5878 27.2811 23.5117 29.4291C22.1525 30.0684 20.7241 30.4486 19.2263 30.5696C19.2519 29.9887 19.2174 29.4128 19.1227 28.8416C18.7668 28.2197 18.2714 28.0699 17.6366 28.3923C17.4839 28.5218 17.3572 28.6715 17.2565 28.8416C17.1618 29.4128 17.1272 29.9887 17.1528 30.5696C12.4361 30.0102 9.06082 27.591 7.02686 23.3121C6.49852 22.0742 6.18749 20.784 6.09375 19.4414C6.62963 19.4688 7.15954 19.4342 7.68349 19.3377C8.24777 18.9576 8.37454 18.4622 8.06364 17.8517C7.92969 17.6715 7.75689 17.5449 7.54525 17.4715C7.06196 17.437 6.57813 17.4255 6.09375 17.437C6.62125 12.9373 8.8791 9.63115 12.8674 7.51839C14.0881 6.95442 15.3553 6.57426 16.6689 6.37793ZM12.4985 11.4781C12.1648 11.3383 11.7715 11.3858 11.4819 11.6025C11.2441 11.7804 11.1211 12.0048 11.1128 12.2756C11.0971 12.7868 11.4965 13.1976 11.8581 13.5592C13.6884 15.3895 15.5186 17.2197 17.3489 19.05C17.4937 19.1948 17.6609 19.3152 17.844 19.4068C18.0465 19.4743 18.2438 19.4846 18.4357 19.4378C18.7034 19.3725 18.9098 19.1705 19.1046 18.9756C20.1451 17.9351 21.1856 16.8946 22.2261 15.8541C22.4142 15.666 22.5995 15.4586 22.654 15.1982C22.7263 14.8533 22.5985 14.4848 22.347 14.238C22.232 14.1252 22.1048 14.0491 21.9651 14.0098C21.3882 13.8473 20.8783 14.3718 20.4547 14.7959C19.8647 15.3868 19.2706 15.973 18.6726 16.5544C18.4042 16.8154 17.9767 16.8135 17.7098 16.551C16.102 14.97 14.5023 13.3794 12.9108 11.7791C12.7901 11.6578 12.6563 11.5442 12.4985 11.4781Z" fill="white"/>
</g>
<defs>
<clipPath id="clip0_3239_22228">
<rect width="35.3889" height="35.3889" fill="white" transform="translate(0.570312 0.847656)"/>
</clipPath>
</defs>
</svg>
