<svg width="528" height="304" viewBox="0 0 528 304" fill="none" xmlns="http://www.w3.org/2000/svg">
<g clip-path="url(#clip0_3247_115157)">
<path d="M131.423 62.6168L123.543 61.2061L122.41 67.534L130.29 68.9447L131.423 62.6168Z" fill="#FFE668"/>
<path d="M130.325 66.8351L130.03 68.4826L126.754 67.8965L126.941 66.8481L128.652 65.6564C128.719 65.6104 128.801 65.5926 128.88 65.6068C128.96 65.621 129.03 65.6662 129.076 65.7323L129.846 66.8381C129.887 66.8969 129.95 66.9371 130.02 66.9497C130.091 66.9623 130.164 66.9464 130.223 66.9055L130.325 66.8351Z" fill="#D45232"/>
<path d="M130.286 67.0786L130.036 68.4824L122.816 67.1909L123.079 65.7197L124.791 64.5275C124.857 64.4815 124.939 64.4637 125.018 64.4779C125.098 64.4921 125.168 64.5373 125.215 64.6034L125.985 65.7092C126.005 65.7384 126.031 65.7632 126.061 65.7824C126.091 65.8016 126.124 65.8147 126.159 65.821C126.194 65.8272 126.23 65.8265 126.264 65.8189C126.299 65.8113 126.332 65.7969 126.361 65.7766L126.602 65.6089C126.668 65.5629 126.75 65.545 126.83 65.5592C126.909 65.5735 126.98 65.6186 127.026 65.6847L127.932 66.9862C127.952 67.0154 127.978 67.0403 128.008 67.0594C128.038 67.0786 128.071 67.0917 128.106 67.098C128.141 67.1042 128.177 67.1035 128.211 67.0959C128.246 67.0883 128.279 67.0739 128.308 67.0536L128.626 66.8325C128.659 66.8096 128.696 66.7934 128.735 66.7848C128.774 66.7762 128.815 66.7754 128.854 66.7825C128.893 66.7895 128.931 66.8043 128.964 66.8259C128.998 66.8475 129.027 66.8755 129.05 66.9084L129.378 67.3796C129.419 67.4384 129.482 67.4785 129.552 67.4912C129.623 67.5038 129.695 67.4879 129.754 67.447L130.286 67.0786Z" fill="#EF744B"/>
<path d="M129.493 64.0366C129.475 64.1387 129.427 64.233 129.355 64.3077C129.283 64.3823 129.191 64.434 129.089 64.4562C128.988 64.4783 128.883 64.47 128.786 64.4322C128.69 64.3943 128.606 64.3288 128.547 64.2437C128.488 64.1586 128.455 64.0579 128.453 63.9543C128.451 63.8506 128.48 63.7487 128.536 63.6614C128.592 63.5741 128.672 63.5054 128.767 63.4638C128.862 63.4223 128.967 63.4099 129.069 63.4281C129.137 63.4401 129.202 63.4654 129.26 63.5025C129.318 63.5397 129.368 63.5879 129.408 63.6444C129.447 63.7009 129.475 63.7647 129.49 63.832C129.504 63.8993 129.505 63.9688 129.493 64.0366Z" fill="white"/>
<path d="M129.15 62.98L129.102 63.2531" stroke="white" stroke-width="0.0728874" stroke-linecap="round" stroke-linejoin="round"/>
<path d="M128.854 64.6367L128.805 64.9098" stroke="white" stroke-width="0.0728874" stroke-linecap="round" stroke-linejoin="round"/>
<path d="M129.941 64.1178L129.668 64.0688" stroke="white" stroke-width="0.0728874" stroke-linecap="round" stroke-linejoin="round"/>
<path d="M128.285 63.8209L128.012 63.772" stroke="white" stroke-width="0.0728874" stroke-linecap="round" stroke-linejoin="round"/>
<path d="M129.782 63.3843L129.555 63.5425" stroke="white" stroke-width="0.0728874" stroke-linecap="round" stroke-linejoin="round"/>
<path d="M128.4 64.3462L128.172 64.5049" stroke="white" stroke-width="0.0728874" stroke-linecap="round" stroke-linejoin="round"/>
<path d="M129.538 64.7491L129.379 64.5215" stroke="white" stroke-width="0.0728874" stroke-linecap="round" stroke-linejoin="round"/>
<path d="M128.576 63.3673L128.418 63.1396" stroke="white" stroke-width="0.0728874" stroke-linecap="round" stroke-linejoin="round"/>
<path d="M364.425 79.5661L357.746 77.3867L355.983 82.7909L362.661 84.9702L364.425 79.5661Z" fill="#FFD249"/>
<path d="M364.057 79.7616L363.741 80.7305L363.712 80.8196L363.19 82.42L363.147 82.5536L363.144 82.5598L362.949 83.1576L362.915 83.2612L362.508 84.5112L360.167 83.7477L358.938 83.3471L356.387 82.5153L356.541 82.0422L356.724 81.4816L357.002 80.6286L357.323 79.6451L357.936 77.7651L364.057 79.7616Z" fill="#60DCE2"/>
<path d="M363.711 80.8197L363.19 82.4207L360.101 81.4605C360.038 81.4433 359.98 81.4136 359.929 81.3734C359.878 81.3331 359.836 81.2831 359.805 81.2263C359.774 81.1694 359.755 81.1069 359.748 81.0425C359.742 80.9781 359.749 80.913 359.768 80.8511C359.787 80.7893 359.819 80.7319 359.86 80.6825C359.902 80.633 359.953 80.5925 360.011 80.5632C360.069 80.534 360.132 80.5166 360.197 80.5123C360.261 80.5079 360.326 80.5165 360.387 80.5376L360.684 80.6303C360.751 80.5408 360.838 80.468 360.938 80.4177C361.038 80.3674 361.148 80.341 361.26 80.3404C361.377 80.0811 361.578 79.8689 361.83 79.7383C362.083 79.6077 362.372 79.5665 362.652 79.6212C362.931 79.676 363.183 79.8236 363.367 80.04C363.552 80.2563 363.658 80.5288 363.668 80.813L363.711 80.8197Z" fill="#BDFFF5"/>
<path d="M359.217 82.32C359.199 82.381 359.17 82.4378 359.13 82.4873C359.09 82.5368 359.041 82.578 358.986 82.6085C358.93 82.639 358.869 82.6582 358.806 82.665C358.743 82.6718 358.679 82.6661 358.618 82.6482L356.543 82.0421L356.726 81.482L357.004 80.629L357.325 79.6455C357.343 79.6496 357.36 79.6543 357.376 79.6595C357.672 79.7458 357.925 79.9373 358.089 80.1978C358.253 80.4584 358.316 80.7699 358.266 81.0736C358.36 81.1355 358.438 81.2184 358.494 81.3157C358.55 81.413 358.583 81.522 358.59 81.6342L358.889 81.7217C358.95 81.7394 359.006 81.7689 359.056 81.8086C359.105 81.8483 359.146 81.8973 359.177 81.9528C359.207 82.0084 359.227 82.0694 359.233 82.1324C359.24 82.1954 359.235 82.2592 359.217 82.32Z" fill="#BDFFF5"/>
<path d="M362.916 83.2607L362.509 84.5113L360.168 83.7473C360.236 83.6609 360.322 83.5911 360.421 83.5431C360.519 83.495 360.628 83.47 360.737 83.4698C360.828 83.267 360.972 83.092 361.153 82.9625C361.333 82.833 361.545 82.7537 361.766 82.7327C361.988 82.7117 362.211 82.7496 362.413 82.8427C362.615 82.9359 362.788 83.0808 362.916 83.2628V83.2607Z" fill="#BDFFF5"/>
<path d="M358.208 78.9031C358.221 78.8599 358.242 78.8197 358.27 78.7847C358.299 78.7497 358.333 78.7206 358.373 78.6991C358.413 78.6776 358.456 78.6642 358.501 78.6594C358.545 78.6547 358.591 78.6589 358.634 78.6717C358.654 78.6775 358.674 78.6853 358.692 78.695C358.771 78.5856 358.884 78.5061 359.014 78.4694C359.144 78.4326 359.282 78.4409 359.406 78.4927C359.531 78.5445 359.634 78.6369 359.699 78.7549C359.764 78.8728 359.788 79.0093 359.765 79.1422C359.809 79.1716 359.846 79.2109 359.873 79.257C359.899 79.3031 359.914 79.3547 359.917 79.4077L360.059 79.4497C360.115 79.4687 360.161 79.5087 360.189 79.5613C360.216 79.6139 360.222 79.675 360.205 79.7319C360.188 79.7887 360.15 79.8368 360.099 79.8661C360.047 79.8954 359.986 79.9037 359.929 79.8891L358.095 79.3451C358.038 79.3287 357.989 79.2907 357.96 79.2391C357.93 79.1876 357.922 79.1265 357.937 79.069C357.952 79.0115 357.988 78.9619 358.039 78.931C358.09 78.9 358.15 78.89 358.208 78.9031Z" fill="#BDFFF5"/>
<path opacity="0.08" d="M415.778 151.966C415.778 235.891 347.743 303.919 263.819 303.919C179.895 303.919 111.859 235.891 111.859 151.966C111.859 68.0413 179.893 0 263.819 0C347.744 0 415.778 68.0413 415.778 151.966Z" fill="white"/>
<path d="M134.651 68.5392C134.651 68.5392 138.783 49.6759 137.118 47.4415C135.454 45.2072 133.697 55.1802 133.697 55.1802C133.697 55.1802 132.961 49.087 130.31 49.7293C127.658 50.3717 129.767 57.0459 129.767 57.0459C129.767 57.0459 128.365 54.4506 126.465 55.9984C124.565 57.5461 127.361 68.376 134.651 68.5392Z" fill="#407BFF"/>
<path d="M140.032 63.2814C136.706 60.6784 131.965 65.3301 131.965 65.3301L117.206 44.8311C112.16 46.3943 117.65 56.2097 117.65 56.2097C117.65 56.2097 110.68 51.5778 110.419 54.6852C110.149 57.9045 116.307 60.1353 118.236 60.7537C116.893 60.3717 113.651 59.6548 113.292 61.5276C112.838 63.8921 121.987 66.8497 121.987 66.8497C121.987 66.8497 121.923 66.9686 121.833 67.1733L115.092 67.6988L105.704 61.7534C105.704 61.7534 103.261 63.8457 107.167 68.052C111.072 72.2583 115.163 70.5896 115.163 70.5896C115.163 70.5896 117.659 76.1241 126.452 77.0872C126.519 77.0943 126.578 77.0943 126.643 77.1006C133.588 78.3859 143.165 65.7353 140.032 63.2814Z" fill="#407BFF"/>
<path opacity="0.2" d="M140.032 63.2814C136.706 60.6784 131.965 65.3301 131.965 65.3301L117.206 44.8311C112.16 46.3943 117.65 56.2097 117.65 56.2097C117.65 56.2097 110.68 51.5778 110.419 54.6852C110.149 57.9045 116.307 60.1353 118.236 60.7537C116.893 60.3717 113.651 59.6548 113.292 61.5276C112.838 63.8921 121.987 66.8497 121.987 66.8497C121.987 66.8497 121.923 66.9686 121.833 67.1733L115.092 67.6988L105.704 61.7534C105.704 61.7534 103.261 63.8457 107.167 68.052C111.072 72.2583 115.163 70.5896 115.163 70.5896C115.163 70.5896 117.659 76.1241 126.452 77.0872C126.519 77.0943 126.578 77.0943 126.643 77.1006C133.588 78.3859 143.165 65.7353 140.032 63.2814Z" fill="white"/>
<path d="M140.686 65.2847L143.199 66.0818L140.72 66.7241L141.669 68.4125L139.733 67.7983C139.595 67.5776 139.51 67.3279 139.485 67.0689C139.459 66.8099 139.494 66.5485 139.586 66.3051C139.679 66.0617 139.826 65.843 140.017 65.666C140.207 65.489 140.437 65.3585 140.686 65.2847Z" fill="#407BFF"/>
<path d="M138.859 65.6372C138.832 65.7223 138.78 65.7976 138.71 65.8533C138.64 65.9091 138.556 65.9429 138.467 65.9505C138.378 65.9581 138.288 65.9391 138.21 65.8959C138.132 65.8528 138.068 65.7874 138.027 65.708C137.986 65.6287 137.969 65.5389 137.979 65.4501C137.989 65.3613 138.025 65.2775 138.083 65.2092C138.141 65.1409 138.217 65.0913 138.303 65.0665C138.389 65.0418 138.48 65.043 138.565 65.0701C138.679 65.1065 138.774 65.1866 138.829 65.2929C138.884 65.3993 138.895 65.5231 138.859 65.6372Z" fill="#263238"/>
<g clip-path="url(#clip1_3247_115157)">
<rect x="249.43" y="40.0977" width="48.8931" height="48.8931" rx="24.4466" fill="white"/>
<path d="M272.45 78.1389C272.709 78.2818 273 78.3549 273.296 78.3511C273.592 78.3473 273.881 78.2667 274.136 78.1172C277.672 76.098 283.813 71.4479 286.225 65.4079C289.767 57.543 281.453 51.2653 275.708 55.7803C275.108 56.2518 274.354 56.7904 273.837 57.3014C273.602 57.5322 273.188 57.5559 272.945 57.3339C272.264 56.7144 271.198 55.9184 270.513 55.4557C265.616 52.1413 256.703 56.5102 260.505 65.8331C261.898 70.0176 268.533 75.954 272.45 78.1389Z" fill="url(#paint0_radial_3247_115157)"/>
<path d="M272.45 78.1389C272.709 78.2818 273 78.3549 273.296 78.3511C273.592 78.3473 273.881 78.2667 274.136 78.1172C277.672 76.098 283.813 71.4479 286.225 65.4079C289.767 57.543 281.453 51.2653 275.708 55.7803C275.108 56.2518 274.354 56.7904 273.837 57.3014C273.602 57.5322 273.188 57.5559 272.945 57.3339C272.264 56.7144 271.198 55.9184 270.513 55.4557C265.616 52.1413 256.703 56.5102 260.505 65.8331C261.898 70.0176 268.533 75.954 272.45 78.1389Z" fill="url(#paint1_radial_3247_115157)"/>
<path d="M272.45 78.1389C272.709 78.2818 273 78.3549 273.296 78.3511C273.592 78.3473 273.881 78.2667 274.136 78.1172C277.672 76.098 283.813 71.4479 286.225 65.4079C289.767 57.543 281.453 51.2653 275.708 55.7803C275.108 56.2518 274.354 56.7904 273.837 57.3014C273.602 57.5322 273.188 57.5559 272.945 57.3339C272.264 56.7144 271.198 55.9184 270.513 55.4557C265.616 52.1413 256.703 56.5102 260.505 65.8331C261.898 70.0176 268.533 75.954 272.45 78.1389Z" fill="url(#paint2_linear_3247_115157)"/>
<path d="M272.45 78.1389C272.709 78.2818 273 78.3549 273.296 78.3511C273.592 78.3473 273.881 78.2667 274.136 78.1172C277.672 76.098 283.813 71.4479 286.225 65.4079C289.767 57.543 281.453 51.2653 275.708 55.7803C275.108 56.2518 274.354 56.7904 273.837 57.3014C273.602 57.5322 273.188 57.5559 272.945 57.3339C272.264 56.7144 271.198 55.9184 270.513 55.4557C265.616 52.1413 256.703 56.5102 260.505 65.8331C261.898 70.0176 268.533 75.954 272.45 78.1389Z" fill="url(#paint3_radial_3247_115157)"/>
<path d="M272.45 78.1389C272.709 78.2818 273 78.3549 273.296 78.3511C273.592 78.3473 273.881 78.2667 274.136 78.1172C277.672 76.098 283.813 71.4479 286.225 65.4079C289.767 57.543 281.453 51.2653 275.708 55.7803C275.108 56.2518 274.354 56.7904 273.837 57.3014C273.602 57.5322 273.188 57.5559 272.945 57.3339C272.264 56.7144 271.198 55.9184 270.513 55.4557C265.616 52.1413 256.703 56.5102 260.505 65.8331C261.898 70.0176 268.533 75.954 272.45 78.1389Z" fill="url(#paint4_radial_3247_115157)"/>
<path d="M272.45 78.1389C272.709 78.2818 273 78.3549 273.296 78.3511C273.592 78.3473 273.881 78.2667 274.136 78.1172C277.672 76.098 283.813 71.4479 286.225 65.4079C289.767 57.543 281.453 51.2653 275.708 55.7803C275.108 56.2518 274.354 56.7904 273.837 57.3014C273.602 57.5322 273.188 57.5559 272.945 57.3339C272.264 56.7144 271.198 55.9184 270.513 55.4557C265.616 52.1413 256.703 56.5102 260.505 65.8331C261.898 70.0176 268.533 75.954 272.45 78.1389Z" fill="url(#paint5_linear_3247_115157)"/>
<path d="M272.45 78.1389C272.709 78.2818 273 78.3549 273.296 78.3511C273.592 78.3473 273.881 78.2667 274.136 78.1172C277.672 76.098 283.813 71.4479 286.225 65.4079C289.767 57.543 281.453 51.2653 275.708 55.7803C275.108 56.2518 274.354 56.7904 273.837 57.3014C273.602 57.5322 273.188 57.5559 272.945 57.3339C272.264 56.7144 271.198 55.9184 270.513 55.4557C265.616 52.1413 256.703 56.5102 260.505 65.8331C261.898 70.0176 268.533 75.954 272.45 78.1389Z" fill="url(#paint6_radial_3247_115157)"/>
<path d="M272.45 78.1389C272.709 78.2818 273 78.3549 273.296 78.3511C273.592 78.3473 273.881 78.2667 274.136 78.1172C277.672 76.098 283.813 71.4479 286.225 65.4079C289.767 57.543 281.453 51.2653 275.708 55.7803C275.108 56.2518 274.354 56.7904 273.837 57.3014C273.602 57.5322 273.188 57.5559 272.945 57.3339C272.264 56.7144 271.198 55.9184 270.513 55.4557C265.616 52.1413 256.703 56.5102 260.505 65.8331C261.898 70.0176 268.533 75.954 272.45 78.1389Z" fill="url(#paint7_radial_3247_115157)"/>
<path d="M272.561 57.0345L272.903 57.3482C273.844 58.2094 275.368 57.9697 276.222 57.0227C277.123 56.0224 278.333 54.9867 279.797 54.2686C278.413 54.2981 276.995 54.7687 275.705 55.7818L275.237 56.1438C274.747 56.5186 274.224 56.9181 273.834 57.3019C273.599 57.5327 273.186 57.5564 272.942 57.3354C272.824 57.2275 272.696 57.1158 272.559 57L272.561 57.0345Z" fill="url(#paint8_linear_3247_115157)"/>
<g filter="url(#filter0_f_3247_115157)">
<path d="M273.133 59.6072V66.7332C273.133 67.5875 274.139 68.0324 274.738 67.4237C276.958 65.1598 278.933 62.3041 276.968 59.9958C276.244 59.1455 274.845 58.6049 273.72 58.8032C273.348 58.8683 273.133 59.2294 273.133 59.6072Z" fill="#FF0000"/>
</g>
<g filter="url(#filter1_f_3247_115157)">
<path d="M284.83 65.1467C286.44 61.2338 285.668 57.2066 283.106 56.1517C280.543 55.0969 277.16 57.4138 275.549 61.3267C273.938 65.2396 274.71 69.2668 277.273 70.3217C279.836 71.3765 283.219 69.0596 284.83 65.1467Z" fill="url(#paint9_radial_3247_115157)"/>
</g>
<g filter="url(#filter2_f_3247_115157)">
<path d="M272.19 58.3902L272.392 69.2716C265.611 62.6753 264.396 57.9492 266.703 56.364C268.35 55.2326 271.45 56.8483 272.19 58.3902Z" fill="url(#paint10_radial_3247_115157)"/>
</g>
<g filter="url(#filter3_f_3247_115157)">
<path d="M265.875 55.6603C266.947 55.5262 269.845 55.6603 272.188 59.0458" stroke="url(#paint11_linear_3247_115157)" stroke-opacity="0.5" stroke-width="0.24661" stroke-linecap="round"/>
</g>
<g filter="url(#filter4_f_3247_115157)">
<path d="M279.499 55.8638C278.246 56.3373 274.776 58.6998 274.629 62.3989" stroke="#FF0000" stroke-width="0.98644" stroke-linecap="round"/>
</g>
</g>
<path d="M256.146 73.5243L269.157 84.0402L253.545 90.0501L256.146 73.5243Z" fill="white"/>
<path d="M285.523 82.1601L297.352 70.3307L301.682 86.49L285.523 82.1601Z" fill="white"/>
<path d="M292.93 42.3491C296.37 44.9665 299.11 48.3923 300.909 52.3227C302.708 56.2531 303.509 60.5666 303.241 64.8807" stroke="white" stroke-width="0.657627" stroke-linecap="round" stroke-linejoin="round"/>
<path d="M302.817 68.8125C302.82 70.1307 302.551 71.4355 302.027 72.6452" stroke="white" stroke-width="0.657627" stroke-linecap="round" stroke-linejoin="round"/>
<path d="M345.096 81.021C345.055 80.6967 345.103 80.3673 345.236 80.0686C345.369 79.7699 345.581 79.5133 345.85 79.3269C346.771 78.7409 351.881 78.394 351.881 78.394L354.989 87.5186L349.009 88.7048L345.096 81.021Z" fill="#B97964"/>
<path d="M330.152 112.734C330.217 113.212 353.2 111.426 353.806 111.094C356.041 109.874 348.712 87.7875 348.712 87.7875L354.269 86.5557C358.129 92.6091 361.282 99.0847 363.667 105.856C367.627 117.223 364.083 120.029 353.446 121.867C345.824 123.184 327.973 125.596 327.973 125.596L330.152 112.734Z" fill="#B97964"/>
<path opacity="0.3" d="M353.734 111.119C354.675 112.464 356.021 113.474 357.575 114.003C357.575 114.003 356.635 114.514 354.832 113.527C353.917 112.91 353.098 112.16 352.402 111.303L353.734 111.119Z" fill="black"/>
<path d="M362.764 73.7471C366.378 76.5717 367.048 79.9872 366.704 85.8764L342.563 89.5157L340.273 82.4721L362.764 73.7471Z" fill="#263238"/>
<path d="M341.058 83.9961L342.311 87.85L338.787 88.9643L337.535 85.1105L341.058 83.9961Z" fill="#263238"/>
<path d="M338.019 83.5405L340.107 89.9643L338.608 90.4385L336.52 84.0154L338.019 83.5405Z" fill="#263238"/>
<path d="M362.668 74.0908C362.856 78.11 364.096 82.0093 366.264 85.3991" stroke="black" stroke-width="0.175879" stroke-linecap="round" stroke-linejoin="round"/>
<path d="M342.135 191.963C342.013 192.33 341.155 228.528 340.421 236.611C339.687 244.694 335.102 287.531 335.102 287.531L327.07 286.704C327.07 286.704 325.356 259.76 323.764 253.023C322.172 246.286 324.452 183.456 324.452 183.456L342.135 191.963Z" fill="#B97964"/>
<path opacity="0.2" d="M331.085 210.042C331.085 210.042 334.45 226.812 332.67 235.509C330.889 244.206 324.664 258.639 324.664 258.639L323.5 250.981L327.945 210.044L331.085 210.042Z" fill="black"/>
<path d="M327.111 184.485L304.166 185.982C304.176 186.011 303.268 189.859 303.415 190.334C305.144 195.898 311.311 226.25 311.311 226.25L312.169 232.497C312.169 232.497 306.535 248.296 306.412 256.012C306.29 263.729 304.6 283.346 304.6 283.346L313.026 284.06C313.026 284.06 328.703 243.519 329.316 236.049C329.929 228.578 326.866 184.976 327.111 184.485Z" fill="#B97964"/>
<path d="M335.296 286.702L336.725 274.111L326.207 274.269L326.999 288.055L332.221 288.446L335.296 286.702Z" fill="#407BFF"/>
<path opacity="0.8" d="M335.296 286.702L336.725 274.111L326.207 274.269L326.999 288.055L332.221 288.446L335.296 286.702Z" fill="white"/>
<path d="M336.443 287.045C336.523 285.952 336.461 285.041 335.449 284.974L334.016 284.881C333.474 284.881 333.087 285.303 332.653 285.65C329.368 288.298 328.02 284.876 326.743 284.881C325.105 284.881 326.159 290.947 326.081 291.265L324.294 298.301C324.138 298.889 324.453 300.158 324.997 300.327C325.093 300.356 325.194 300.371 325.295 300.369H344.265C347.282 300.369 347.317 296.088 346.074 295.784C342.46 295.042 339.124 293.31 336.44 290.78C336.372 289.536 336.373 288.289 336.443 287.045Z" fill="#407BFF"/>
<path opacity="0.4" d="M344.267 300.37H325.297C325.196 300.372 325.096 300.358 325 300.328C324.631 300.214 324.371 299.593 324.289 299.021L324.297 298.485H346.693C346.567 299.03 346.257 299.515 345.815 299.858C345.373 300.202 344.827 300.382 344.267 300.37Z" fill="white"/>
<path d="M339.661 293.095C339.131 293.624 338.7 294.243 338.389 294.924C338.356 294.985 338.347 295.056 338.364 295.123C338.382 295.191 338.424 295.248 338.483 295.285C338.544 295.32 338.616 295.329 338.683 295.312C338.751 295.294 338.809 295.25 338.845 295.19C339.133 294.55 339.535 293.967 340.032 293.47C340.078 293.42 340.104 293.354 340.102 293.286C340.101 293.217 340.073 293.152 340.025 293.104C339.977 293.055 339.912 293.028 339.843 293.026C339.775 293.025 339.709 293.051 339.659 293.097L339.661 293.095Z" fill="#263238"/>
<path d="M337.822 291.882C337.337 292.383 336.931 292.956 336.618 293.579C336.583 293.64 336.573 293.712 336.591 293.78C336.609 293.847 336.653 293.905 336.713 293.94C336.773 293.976 336.845 293.985 336.913 293.968C336.981 293.95 337.039 293.906 337.074 293.845C337.363 293.261 337.741 292.724 338.195 292.255C338.244 292.206 338.272 292.139 338.272 292.069C338.272 291.999 338.244 291.932 338.195 291.882C338.145 291.833 338.078 291.805 338.008 291.805C337.938 291.805 337.871 291.832 337.822 291.882Z" fill="#263238"/>
<path d="M336.194 290.633C335.697 290.932 335.304 291.377 335.069 291.908C335.035 291.969 335.026 292.04 335.044 292.107C335.061 292.174 335.104 292.232 335.163 292.269C335.224 292.303 335.295 292.313 335.363 292.295C335.43 292.278 335.488 292.234 335.524 292.175C335.577 292.053 335.639 291.935 335.71 291.823C335.744 291.767 335.78 291.713 335.82 291.66C335.836 291.637 335.841 291.634 335.82 291.66C335.829 291.648 335.839 291.636 335.849 291.624C335.87 291.597 335.892 291.571 335.914 291.546C335.997 291.451 336.087 291.362 336.183 291.28L336.219 291.252C336.229 291.243 336.276 291.201 336.219 291.247C336.242 291.228 336.268 291.211 336.289 291.193C336.344 291.154 336.4 291.119 336.458 291.085C336.518 291.049 336.562 290.992 336.58 290.924C336.597 290.856 336.588 290.784 336.552 290.724C336.517 290.663 336.459 290.619 336.391 290.601C336.323 290.584 336.251 290.594 336.191 290.629L336.194 290.633Z" fill="#263238"/>
<path d="M336.31 288.183C335.715 288.194 335.129 288.326 334.587 288.573C334.527 288.609 334.484 288.666 334.466 288.734C334.448 288.802 334.458 288.873 334.492 288.934C334.529 288.993 334.587 289.036 334.654 289.053C334.721 289.071 334.792 289.062 334.853 289.029C335.084 288.929 335.324 288.85 335.57 288.795C335.812 288.739 336.061 288.711 336.31 288.71C336.38 288.71 336.447 288.682 336.496 288.633C336.546 288.584 336.573 288.516 336.573 288.446C336.573 288.376 336.546 288.309 336.496 288.26C336.447 288.21 336.38 288.183 336.31 288.183Z" fill="#263238"/>
<g opacity="0.3">
<path d="M331.101 288.939C331.115 289.248 331.054 289.556 330.923 289.837C330.792 290.117 330.595 290.362 330.349 290.55C330.017 290.7 329.65 290.756 329.288 290.712L326.052 290.611L326.039 290.577C325.869 288.92 325.411 284.879 326.749 284.879C327.804 284.879 328.907 287.2 331.11 286.521C331.089 287.397 331.122 288.515 331.101 288.939Z" fill="black"/>
</g>
<path d="M313.366 286.645L316.955 273.31L305.09 272.036L303.977 287L309.719 288.138L313.366 286.645Z" fill="#407BFF"/>
<path opacity="0.8" d="M313.366 286.645L316.955 273.31L305.09 272.036L303.977 287L309.719 288.138L313.366 286.645Z" fill="white"/>
<path d="M313.607 287.235C313.813 286.186 313.862 285.296 312.89 285.112L311.513 284.851C310.99 284.879 310.492 285.084 310.102 285.435C306.607 287.609 305.708 284.139 304.474 283.99C302.888 283.794 303.189 289.794 303.076 290.093L300.508 296.699C300.288 297.25 300.442 298.517 300.948 298.744C301.037 298.784 301.132 298.81 301.23 298.82L308.882 299.757L319.599 301.069C322.521 301.427 323.062 297.285 321.895 296.843C318.483 295.697 315.458 293.624 313.158 290.856C313.241 289.642 313.391 288.433 313.607 287.235Z" fill="#407BFF"/>
<path opacity="0.4" d="M319.602 301.069L308.885 299.757L301.233 298.82C301.135 298.809 301.04 298.784 300.951 298.744C300.607 298.589 300.43 297.957 300.418 297.394L300.488 296.876L322.173 299.53C321.986 300.043 321.629 300.476 321.16 300.756C320.692 301.036 320.142 301.146 319.602 301.069Z" fill="white"/>
<path d="M315.977 293.495C315.404 293.947 314.915 294.497 314.536 295.121C314.501 295.181 314.491 295.253 314.509 295.321C314.527 295.388 314.57 295.446 314.631 295.481C314.691 295.517 314.763 295.527 314.831 295.509C314.899 295.491 314.957 295.447 314.992 295.387C315.084 295.237 315.182 295.091 315.287 294.95L315.327 294.895C315.333 294.887 315.352 294.863 315.335 294.885C315.363 294.849 315.39 294.815 315.419 294.779C315.475 294.709 315.534 294.642 315.593 294.575C315.824 294.318 316.078 294.083 316.351 293.872C316.4 293.822 316.428 293.755 316.428 293.685C316.428 293.616 316.4 293.549 316.351 293.499C316.3 293.451 316.234 293.425 316.164 293.425C316.095 293.425 316.028 293.451 315.977 293.499V293.495Z" fill="#263238"/>
<path d="M314.343 292.101C313.815 292.532 313.355 293.04 312.981 293.608C312.946 293.669 312.936 293.741 312.954 293.809C312.972 293.876 313.015 293.934 313.076 293.97C313.136 294.004 313.208 294.013 313.275 293.995C313.342 293.977 313.4 293.934 313.436 293.875C313.481 293.805 313.527 293.741 313.574 293.675C313.599 293.641 313.624 293.605 313.649 293.573L313.688 293.522C313.697 293.509 313.71 293.493 313.693 293.515C313.795 293.385 313.904 293.259 314.011 293.137C314.229 292.899 314.464 292.677 314.715 292.474C314.764 292.425 314.792 292.358 314.792 292.288C314.792 292.218 314.764 292.151 314.715 292.101C314.664 292.054 314.598 292.027 314.528 292.027C314.459 292.027 314.393 292.054 314.343 292.101Z" fill="#263238"/>
<path d="M312.911 290.689C312.395 290.925 311.963 291.314 311.677 291.804C311.659 291.834 311.648 291.867 311.643 291.902C311.638 291.936 311.64 291.971 311.649 292.005C311.667 292.072 311.711 292.13 311.771 292.166C311.832 292.201 311.904 292.211 311.972 292.193C312.039 292.175 312.097 292.131 312.133 292.071C312.166 292.015 312.203 291.961 312.237 291.908C312.259 291.882 312.279 291.855 312.297 291.826C312.271 291.859 312.286 291.851 312.297 291.826L312.325 291.79C312.407 291.692 312.495 291.6 312.59 291.515C312.612 291.496 312.635 291.476 312.66 291.456L312.695 291.428C312.724 291.405 312.715 291.417 312.691 291.428C312.745 291.398 312.793 291.354 312.845 291.32C312.952 291.251 313.065 291.191 313.182 291.14C313.242 291.105 313.285 291.047 313.303 290.979C313.321 290.912 313.311 290.84 313.276 290.779C313.239 290.721 313.181 290.678 313.114 290.66C313.047 290.643 312.976 290.651 312.915 290.684L312.911 290.689Z" fill="#263238"/>
<path d="M313.313 288.315C312.757 288.257 312.196 288.313 311.662 288.479C311.595 288.498 311.538 288.543 311.503 288.603C311.469 288.664 311.46 288.736 311.478 288.804C311.497 288.871 311.542 288.929 311.603 288.963C311.663 288.998 311.736 289.006 311.803 288.988C311.926 288.95 312.051 288.917 312.178 288.89C312.294 288.865 312.411 288.847 312.53 288.836C312.79 288.812 313.051 288.815 313.311 288.843C313.381 288.843 313.448 288.815 313.497 288.765C313.546 288.716 313.574 288.649 313.574 288.579C313.573 288.51 313.545 288.443 313.495 288.394C313.446 288.345 313.38 288.317 313.311 288.315H313.313Z" fill="#263238"/>
<g opacity="0.3">
<path d="M308.21 288.438C308.187 288.739 308.091 289.03 307.931 289.286C307.771 289.543 307.551 289.756 307.29 289.909C306.951 290.015 306.589 290.026 306.245 289.941L303.122 289.459L303.113 289.425C303.145 287.8 303.184 283.83 304.477 283.99C305.496 284.113 306.291 286.492 308.503 286.101C308.38 286.945 308.281 288.03 308.21 288.438Z" fill="black"/>
</g>
<path d="M341.707 102.841C338.411 96.5999 336.096 89.8876 334.846 82.9409L311.386 86.6133C312.074 94.4435 310.903 102.326 307.97 109.618C307.278 111.042 306.818 112.568 306.608 114.138C306.508 115.716 307.125 117.457 308.526 118.189C309.792 118.85 311.324 118.545 312.717 118.223L326.182 115.113L337.893 112.407C339.84 111.957 342.02 111.335 342.951 109.567C344.059 107.46 342.822 104.944 341.707 102.841Z" fill="#263238"/>
<path d="M340.557 70.8959C341.735 73.4398 335.479 76.9827 331.798 78.4558C328.118 79.929 327.188 73.0338 327.188 73.0338C327.188 73.0338 339.42 68.4322 340.557 70.8959Z" fill="#407BFF"/>
<path opacity="0.4" d="M340.557 70.8959C341.735 73.4398 335.479 76.9827 331.798 78.4558C328.118 79.929 327.188 73.0338 327.188 73.0338C327.188 73.0338 339.42 68.4322 340.557 70.8959Z" fill="black"/>
<path d="M328.304 102.539C328.078 101.422 327.987 100.281 328.035 99.1422L325.7 98.7623L316.285 94.665C318.709 98.5126 322.406 105.717 319.881 108.851C322.29 110.193 324.817 111.311 327.43 112.193C328.379 112.518 329.361 112.737 330.358 112.844L330.777 107.608C328.628 106.96 328.711 104.412 328.304 102.539Z" fill="#B97964"/>
<path opacity="0.2" d="M328.399 102.947C326.115 102.587 323.334 101.494 322.708 99.225C322.473 98.3955 322.336 97.5412 322.301 96.6797L328.031 100.149C328.055 101.092 328.178 102.029 328.399 102.947Z" fill="black"/>
<path d="M313.856 84.4319C314.934 91.8097 315.545 95.055 319.581 98.7344C325.651 104.273 334.089 101.725 335.218 94.2938C336.234 87.6047 334.303 76.6623 326.854 73.9376C319.517 71.2515 312.778 77.052 313.856 84.4319Z" fill="#B97964"/>
<path d="M331.504 85.7784C331.582 86.5368 332.039 87.1383 332.526 87.1228C333.013 87.1073 333.344 86.4791 333.267 85.7207C333.189 84.9623 332.731 84.3608 332.245 84.3763C331.758 84.3917 331.425 85.02 331.504 85.7784Z" fill="#263238"/>
<path d="M321.896 83.6792C321.943 83.6824 321.991 83.6752 322.036 83.6582C322.081 83.6412 322.121 83.6148 322.155 83.5807C322.457 83.2565 322.835 83.0124 323.255 82.8704C323.676 82.7283 324.124 82.6927 324.561 82.7667C324.606 82.7784 324.653 82.7806 324.699 82.7731C324.745 82.7656 324.789 82.7487 324.828 82.7233C324.867 82.698 324.9 82.6648 324.926 82.6259C324.951 82.5869 324.968 82.5432 324.976 82.4973C324.99 82.4001 324.968 82.301 324.913 82.2193C324.858 82.1376 324.776 82.079 324.68 82.0548C324.129 81.9505 323.56 81.9867 323.026 82.1601C322.492 82.3335 322.011 82.6384 321.626 83.0467C321.561 83.1189 321.528 83.2133 321.532 83.3099C321.535 83.4065 321.577 83.4978 321.647 83.5645C321.713 83.6322 321.801 83.673 321.896 83.6792Z" fill="#263238"/>
<path d="M333.162 82.0593C333.2 82.0441 333.233 82.021 333.261 81.9915C333.289 81.962 333.31 81.9268 333.323 81.8884C333.348 81.7982 333.341 81.7021 333.302 81.6169C333.264 81.5316 333.196 81.4626 333.112 81.422C332.655 81.157 332.137 81.0145 331.609 81.0085C331.081 81.0025 330.56 81.133 330.097 81.3875C330.062 81.4149 330.033 81.449 330.012 81.4878C329.99 81.5266 329.976 81.5693 329.971 81.6135C329.966 81.6576 329.97 81.7024 329.982 81.7451C329.994 81.7878 330.015 81.8277 330.043 81.8624C330.089 81.9398 330.164 81.9962 330.251 82.0196C330.338 82.0429 330.431 82.0315 330.51 81.9876C330.88 81.7922 331.294 81.6947 331.713 81.7044C332.132 81.7141 332.541 81.8307 332.902 82.0432C332.942 82.064 332.985 82.0762 333.03 82.079C333.075 82.0818 333.12 82.0751 333.162 82.0593Z" fill="#263238"/>
<path d="M328.895 85.6582C329.647 87.2046 330.555 88.6699 331.606 90.0312C331.662 90.1003 331.701 90.1814 331.72 90.2681C331.74 90.3549 331.738 90.4449 331.717 90.5312C331.696 90.6174 331.654 90.6975 331.597 90.7651C331.539 90.8326 331.466 90.8858 331.384 90.9205C330.748 91.1492 330.061 91.1979 329.399 91.0612L328.895 85.6582Z" fill="#A24E3F"/>
<path d="M324.633 84.8977L326.313 84.4053C326.313 84.4053 325.447 85.7237 324.633 84.8977Z" fill="#263238"/>
<path d="M332.035 84.3553L333.716 83.8628C333.716 83.8628 332.853 85.1805 332.035 84.3553Z" fill="#263238"/>
<path d="M316.599 86.7694C316.599 86.7694 320.117 80.8064 319.667 76.1548C319.667 76.1548 326.885 73.8522 333.144 81.3383C334.14 82.5308 334.807 84.5745 335.153 86.3466C334.492 83.166 342.891 74.325 323.793 71.6481C311.341 69.9034 309.723 88.8701 316.135 94.4553C316.135 94.4553 314.424 90.4995 316.599 86.7694Z" fill="#263238"/>
<path d="M311.966 90.5099C312.39 91.1701 312.939 91.7403 313.584 92.188C314.228 92.6357 314.954 92.9522 315.721 93.1192C317.71 93.5062 318.554 90.296 317.778 88.3656C317.416 87.4974 316.755 86.7871 315.916 86.3623C315.076 85.9375 314.113 85.8261 313.198 86.0482C311.338 86.5301 310.871 88.825 311.966 90.5099Z" fill="#B97964"/>
<path opacity="0.2" d="M316.095 89.8923C316.009 89.1836 315.646 88.5378 315.085 88.0964C314.524 87.6549 313.811 87.4538 313.102 87.5369" stroke="black" stroke-width="0.351758" stroke-linecap="round" stroke-linejoin="round"/>
<path d="M324.812 91.895C325.065 92.4443 325.508 92.8834 326.059 93.1306C326.611 93.3779 327.233 93.4166 327.811 93.2394" stroke="#263238" stroke-width="0.351758" stroke-linecap="round" stroke-linejoin="round"/>
<path d="M330.52 72.6755C323.845 75.1082 316.433 80.7955 311.694 86.5551C310.779 84.7591 308.451 78.1925 314.483 73.1715C316.74 71.3589 319.526 70.3302 322.419 70.2407C325.312 70.1513 328.156 71.0059 330.52 72.6755Z" fill="#407BFF"/>
<path opacity="0.1" d="M330.52 72.6755C323.845 75.1082 316.433 80.7955 311.694 86.5551C310.779 84.7591 308.451 78.1925 314.483 73.1715C316.74 71.3589 319.526 70.3302 322.419 70.2407C325.312 70.1513 328.156 71.0059 330.52 72.6755Z" fill="black"/>
<path d="M314.516 83.5564C319.743 80.0318 325.434 76.9257 328.422 74.3403C331.612 71.1914 335.95 70.3838 340.558 70.8931C340.073 69.0147 325.566 70.0637 314.516 83.5564Z" fill="#407BFF"/>
<path d="M330.37 69.8413C326.439 68.3468 322.129 68.172 318.09 69.3432" stroke="#407BFF" stroke-width="0.351758" stroke-linecap="round" stroke-linejoin="round"/>
<path d="M316.734 69.9697C316.089 70.205 315.473 70.5097 314.895 70.8787" stroke="#407BFF" stroke-width="0.351758" stroke-linecap="round" stroke-linejoin="round"/>
<path d="M325.77 86.7035C325.765 86.3138 325.676 85.9297 325.508 85.5779C325.424 85.4058 325.289 85.2636 325.122 85.1708C324.954 85.0781 324.762 85.0392 324.572 85.0594C324.41 85.109 324.265 85.2025 324.154 85.3294C324.042 85.4563 323.968 85.6118 323.939 85.7784C323.881 86.1185 323.885 86.4662 323.951 86.8049" stroke="#263238" stroke-width="0.351758" stroke-linecap="round" stroke-linejoin="round"/>
<path d="M305.65 163.095C305.65 163.095 300.95 177.529 301.193 186.161C301.435 194.794 304.477 211.736 304.477 211.736L327.986 211.619L327.071 178.967L337.474 166.635L331.055 156.667L305.65 163.095Z" fill="#263238"/>
<path d="M339.633 166.635L343.881 209.578L326.749 210.198L323.938 173.795L334.627 164.988L339.633 166.635Z" fill="#263238"/>
<path opacity="0.3" d="M303.414 207.381L327.693 207.231" stroke="white" stroke-width="0.351758" stroke-linecap="round" stroke-linejoin="round"/>
<path opacity="0.3" d="M328.125 206.09L343.88 205.941" stroke="white" stroke-width="0.351758" stroke-linecap="round" stroke-linejoin="round"/>
<path opacity="0.2" d="M327.944 210.041L327.32 180.305L332.668 173.07L329.579 181.865L332.59 210.041H327.944Z" fill="black"/>
<path opacity="0.3" d="M307.437 207.337C303.323 196.06 303.015 183.746 306.562 172.278L309.29 164.993" stroke="white" stroke-width="0.351758" stroke-linecap="round" stroke-linejoin="round"/>
<path opacity="0.3" d="M306.652 174.912C307.573 175.502 308.617 175.873 309.704 175.997C310.79 176.122 311.891 175.995 312.921 175.629C314.982 174.872 316.791 173.556 318.146 171.83C319.491 170.111 320.674 168.272 321.679 166.334" stroke="white" stroke-width="0.351758" stroke-linecap="round" stroke-linejoin="round"/>
<path d="M310.999 109.584C310.999 109.584 294.011 126.349 288.768 135.069C283.524 143.789 282.581 163.896 297.403 164.989C307.36 165.722 310.91 163.081 310.91 163.081L320.008 121.397L310.999 109.584Z" fill="#263238"/>
<path d="M346.846 124.026L346.006 111.023L329.426 110.897L339.129 125.396L346.846 124.026Z" fill="#407BFF"/>
<path opacity="0.3" d="M331.59 110.898C332.024 110.879 339.675 125.299 339.675 125.299L342.002 124.886C340.366 118.874 338.397 114.832 335.291 110.942L331.59 110.898Z" fill="black"/>
<path d="M305.945 163.837C305.657 163.367 310.799 144.804 310.799 144.804L312.01 129.711C312.01 129.711 310.798 109.108 311.018 108.448C311.238 107.787 319.435 103.344 319.435 103.344C319.435 103.344 330.641 107.786 330.641 108.117C330.641 108.448 339.631 117.393 339.672 124.048C339.73 133.305 337.93 143.178 338.04 143.509L339.631 166.635C339.631 166.635 308.369 167.803 305.945 163.837Z" fill="#407BFF"/>
<path d="M317.122 103.344C322.258 103.33 327.926 109.701 329.129 116.531C330.331 123.362 329.281 133.712 323.934 142.469C317.436 153.112 305.277 157.657 305.277 157.657L305.649 153.87C305.649 153.87 326.874 140.299 324.765 122.198C322.656 104.097 314.318 105.421 314.318 105.421C314.318 105.421 315.32 103.349 317.122 103.344Z" fill="#263238"/>
<path opacity="0.3" d="M302.778 119.006C298.754 133.786 294.688 148.963 296.147 164.212" stroke="white" stroke-width="0.351758" stroke-linecap="round" stroke-linejoin="round"/>
<path opacity="0.3" d="M296.385 147.451C292.749 146.84 289.076 146.481 285.391 146.376" stroke="white" stroke-width="0.351758" stroke-linecap="round" stroke-linejoin="round"/>
<path d="M313.909 114.167C313.909 114.167 311.387 115.433 309.933 121.249C308.93 125.259 304.011 148.069 304.023 151.776C304.047 157.565 310.1 189.507 310.1 189.507L315.84 188.328C315.84 188.328 314.59 153.389 314.634 153.022C314.677 152.656 322.11 125.131 322.11 125.131L313.909 114.167Z" fill="#B97964"/>
<path d="M315.492 188.241C315.492 188.241 317.922 189.075 318.833 190.993C319.744 192.912 320.982 194.202 321.561 195.675C322.139 197.148 320.249 196.154 319.349 195.422C318.45 194.689 317.424 193.868 316.984 194.632C316.543 195.396 316.521 202.984 315.788 203.974C315.054 204.964 314.675 203.735 314.675 203.735C314.675 203.735 314.62 205.578 313.885 205.755C313.694 205.801 313.175 205.598 313.068 204.755C312.828 202.855 312.53 198.845 312.53 198.845C312.551 199.075 312.566 204.051 312.471 204.795C312.347 205.77 311.792 206.166 311.229 206.075C310.429 205.946 310.2 199.779 310.008 199.525C310.008 199.525 310.259 203.072 309.379 203.637C308.498 204.203 308.219 201.979 308.345 199.971C308.46 198.131 308.204 194.49 308.505 192.631C308.873 190.34 309.635 188.884 311.734 188.31C312.96 187.963 314.254 187.94 315.492 188.241Z" fill="#B97964"/>
<path d="M318.519 105.725C318.519 105.725 312.304 103.058 309.796 110.763C307.288 118.469 303.727 135.621 303.727 135.621L322.172 138.31C322.172 138.31 325.348 117.94 324.936 113.707C324.525 109.475 318.519 105.725 318.519 105.725Z" fill="#407BFF"/>
<path d="M256.131 133.221C255.379 130.569 254.46 127.211 252.008 124.605C251.98 124.575 251.961 124.536 251.955 124.495C251.949 124.454 251.956 124.412 251.975 124.375C251.995 124.339 252.027 124.31 252.065 124.293C252.103 124.275 252.145 124.271 252.186 124.28C256.234 125.015 261.985 133.086 261.835 136.748C261.835 136.767 261.835 136.788 261.839 136.808C261.859 137.242 261.706 137.666 261.413 137.986C261.12 138.307 260.712 138.498 260.279 138.518C259.817 138.575 259.349 138.52 258.914 138.357C257.388 137.757 256.821 135.694 256.131 133.221ZM252.726 124.857C254.893 127.444 255.787 130.592 256.501 133.143C257.345 136.186 257.952 138.38 260.229 138.152C260.265 138.152 260.3 138.147 260.334 138.143C260.497 138.124 260.655 138.073 260.798 137.993C260.941 137.913 261.067 137.806 261.169 137.677C261.271 137.549 261.346 137.401 261.391 137.243C261.435 137.085 261.448 136.92 261.429 136.757C261.57 133.502 256.645 126.375 252.887 124.889L252.726 124.857Z" fill="#263238"/>
<path d="M244.975 138.732L248.221 139.722L234.589 192.129L232.84 191.592L244.975 138.732Z" fill="#407BFF"/>
<path opacity="0.7" d="M244.975 138.732L248.221 139.722L234.589 192.129L232.84 191.592L244.975 138.732Z" fill="white"/>
<path d="M248.374 124.253C248.344 124.351 248.333 124.453 248.342 124.555C248.352 124.656 248.381 124.755 248.428 124.845C248.476 124.935 248.541 125.015 248.62 125.08C248.698 125.145 248.789 125.194 248.886 125.223L249.04 125.284L249.011 125.354L245.107 138.144L244.96 138.086C244.762 138.025 244.548 138.046 244.365 138.143C244.182 138.24 244.045 138.406 243.983 138.604L243.843 138.955C243.782 139.154 243.803 139.368 243.9 139.551C243.997 139.734 244.162 139.871 244.36 139.932L247.97 141.034C248.168 141.094 248.382 141.074 248.565 140.977C248.749 140.88 248.886 140.715 248.947 140.516L249.087 140.165V140.161C249.118 140.063 249.128 139.961 249.119 139.86C249.11 139.758 249.08 139.66 249.033 139.57C248.985 139.48 248.92 139.4 248.842 139.335C248.764 139.27 248.673 139.221 248.576 139.191L248.449 139.14L252.318 126.302L252.334 126.262L252.467 126.315H252.471C252.569 126.345 252.671 126.356 252.772 126.347C252.874 126.337 252.972 126.308 253.063 126.26C253.153 126.213 253.233 126.148 253.298 126.07C253.363 125.991 253.411 125.901 253.441 125.803L253.582 125.442C253.643 125.244 253.622 125.03 253.525 124.847C253.428 124.664 253.263 124.527 253.065 124.466L249.455 123.363C249.257 123.305 249.044 123.326 248.861 123.423C248.679 123.52 248.542 123.684 248.479 123.881L248.372 124.248L248.374 124.253Z" fill="#407BFF"/>
<path d="M204.993 105.773C204.993 105.773 203.962 90.2822 207.965 85.238C211.967 80.1938 223.001 79.1104 235.754 82.4732C248.506 85.836 254.262 87.2775 253.261 95.9251C252.261 104.573 245.257 109.376 245.257 109.376L243.257 134.839C243.257 134.839 249.009 156.216 247.509 163.423C246.008 170.63 239.759 175.434 233.005 174.953C228.758 174.669 224.495 174.68 220.25 174.986L201.742 173.272L204.993 105.773Z" fill="#407BFF"/>
<path opacity="0.4" d="M204.993 105.773C204.993 105.773 203.962 90.2822 207.965 85.238C211.967 80.1938 223.001 79.1104 235.754 82.4732C248.506 85.836 254.262 87.2775 253.261 95.9251C252.261 104.573 245.257 109.376 245.257 109.376L243.257 134.839C243.257 134.839 249.009 156.216 247.509 163.423C246.008 170.63 239.759 175.434 233.005 174.953C228.758 174.669 224.495 174.68 220.25 174.986L201.742 173.272L204.993 105.773Z" fill="black"/>
<path opacity="0.2" d="M224.156 164.838C229.004 164.542 233.829 163.957 238.606 163.086C237.615 164.32 230.657 167.474 228.373 167.962C228.051 168.032 229.935 174.795 229.935 174.795H227.56L224.156 164.838Z" fill="black"/>
<path d="M235.336 174.986C234.853 171.793 230.996 103.323 231.084 100.397C231.171 97.4711 231.417 94.6282 233.15 92.2672C234.884 89.978 237.379 88.3841 240.185 87.7731C242.986 87.1815 245.899 87.4201 248.567 88.4597" stroke="#263238" stroke-width="0.175879" stroke-miterlimit="10"/>
<path opacity="0.3" d="M232.82 100.4C233.004 100.868 233.787 107.853 238.738 111.243C242.346 113.714 244.91 113.838 244.91 113.838L245.37 107.236L232.82 100.4Z" fill="black"/>
<path d="M243.097 109.21C248.773 109.21 253.374 104.609 253.374 98.9327C253.374 93.2569 248.773 88.6558 243.097 88.6558C237.421 88.6558 232.82 93.2569 232.82 98.9327C232.82 104.609 237.421 109.21 243.097 109.21Z" fill="#263238"/>
<path d="M238.829 108.551C238.571 119.654 239.211 135.317 240.741 146.317L245.261 145.221" stroke="#263238" stroke-width="0.175879" stroke-linecap="round" stroke-linejoin="round"/>
<path d="M239.348 133.295C239.348 133.295 242.443 132.834 243.45 132.62" stroke="#263238" stroke-width="0.175879" stroke-linecap="round" stroke-linejoin="round"/>
<path d="M239.082 129.153L243.666 128.158" stroke="#263238" stroke-width="0.175879" stroke-linecap="round" stroke-linejoin="round"/>
<path d="M233.617 149.811L245.749 146.41" stroke="#263238" stroke-width="0.175879" stroke-linecap="round" stroke-linejoin="round"/>
<path d="M221.404 164.69L193.788 164.924L176.98 164.415C176.98 164.415 166.99 213.406 164.17 224.887C161.871 234.244 156.977 288.813 156.977 288.813L164.309 290.437C164.309 290.437 179.094 250.665 180.854 233.206C181.317 228.615 194.824 195.172 197.461 187.805C197.727 189.313 197.999 190.83 198.276 192.332C198.943 199.125 202.37 220.625 203.301 228.684C203.301 228.684 204.189 239.645 205.104 252.4C206.249 268.373 209.466 286.859 210.79 294.38L216.334 293.499C217.959 274.521 221.352 202.625 221.352 202.625C222.26 188.146 221.404 164.69 221.404 164.69Z" fill="#E4897B"/>
<path d="M161.391 226.808L184.806 233.907L196.035 196.348L200.284 234.996L224.611 233.18C224.611 233.18 224.155 192.129 224.155 183.196C224.155 176.597 222.371 168.471 222.371 168.471L175.944 163.084L161.391 226.808Z" fill="#263238"/>
<path d="M221.166 301.706H208.374C208.181 301.061 208.194 300.372 208.413 299.736C208.462 299.513 208.526 299.268 208.608 299.001C208.612 298.987 208.616 298.974 208.62 298.961C208.74 298.565 208.877 298.078 209.023 297.554C209.5 295.221 209.829 292.86 210.008 290.485C210.008 290.485 212.427 288.057 214.916 289.195C217.101 290.193 216.762 291.458 216.762 291.458C216.762 291.458 216.797 294.726 218.454 296.205C219.478 297.119 220.494 297.823 220.986 298.963C221.081 299.183 221.153 299.411 221.202 299.646C221.208 299.675 221.214 299.706 221.218 299.737C221.324 300.391 221.306 301.058 221.166 301.706Z" fill="#407BFF"/>
<g opacity="0.4">
<path d="M208.413 299.737C208.194 300.374 208.181 301.063 208.374 301.707H221.166C221.306 301.059 221.324 300.391 221.218 299.737H208.413Z" fill="white"/>
</g>
<path d="M216.068 293.767C215.734 293.498 215.313 293.364 214.885 293.39C214.458 293.416 214.056 293.601 213.757 293.907C213.583 294.077 213.316 293.81 213.49 293.64C213.861 293.265 214.359 293.042 214.885 293.016C215.412 292.99 215.929 293.163 216.335 293.499C216.527 293.649 216.257 293.914 216.068 293.767Z" fill="#263238"/>
<path d="M216.427 294.961C216.094 294.693 215.672 294.558 215.245 294.584C214.818 294.611 214.416 294.795 214.117 295.102C213.943 295.271 213.675 295.004 213.85 294.834C214.221 294.46 214.718 294.238 215.245 294.212C215.771 294.186 216.289 294.357 216.695 294.694C216.886 294.843 216.617 295.108 216.427 294.96V294.961Z" fill="#263238"/>
<path d="M216.791 296.059C216.457 295.791 216.035 295.657 215.608 295.683C215.181 295.709 214.778 295.893 214.48 296.2C214.306 296.37 214.039 296.103 214.213 295.933C214.583 295.558 215.081 295.335 215.608 295.309C216.134 295.283 216.652 295.456 217.057 295.792C217.249 295.942 216.98 296.207 216.791 296.059Z" fill="#263238"/>
<path d="M154.401 289.717C154.313 288.673 154.381 287.803 155.501 287.74L157.087 287.65C157.655 287.73 158.183 287.987 158.596 288.384C162.231 290.917 163.722 287.648 165.134 287.65C166.946 287.65 165.779 293.442 165.866 293.746L167.847 300.47C168.019 301.033 167.67 302.243 167.069 302.405C166.962 302.433 166.851 302.446 166.74 302.445H145.745C142.406 302.445 142.368 298.357 143.742 298.067C149.928 296.791 152.368 294.768 154.406 293.288C154.48 292.099 154.479 290.906 154.401 289.717Z" fill="#407BFF"/>
<path opacity="0.4" d="M145.747 302.443H166.742C166.853 302.445 166.964 302.432 167.071 302.403C167.48 302.294 167.766 301.7 167.858 301.155L167.849 300.644H143.066C143.251 301.198 143.614 301.675 144.1 302.001C144.585 302.326 145.164 302.482 145.747 302.443Z" fill="white"/>
<path d="M151.132 295.739C151.641 296.204 152.057 296.76 152.36 297.379C152.395 297.439 152.453 297.482 152.521 297.5C152.588 297.518 152.66 297.508 152.721 297.474C152.78 297.437 152.823 297.38 152.841 297.312C152.858 297.245 152.849 297.173 152.815 297.113C152.489 296.455 152.045 295.863 151.505 295.365C151.455 295.316 151.388 295.288 151.318 295.288C151.248 295.288 151.181 295.316 151.132 295.366C151.082 295.415 151.055 295.482 151.055 295.552C151.055 295.622 151.083 295.689 151.132 295.739Z" fill="#263238"/>
<path d="M153.061 294.567C153.18 294.68 153.294 294.796 153.403 294.919C153.458 294.979 153.51 295.041 153.563 295.104C153.589 295.135 153.614 295.166 153.64 295.198L153.674 295.241C153.705 295.28 153.638 295.193 153.691 295.263C153.888 295.522 154.065 295.797 154.221 296.084C154.257 296.144 154.314 296.187 154.382 296.205C154.449 296.223 154.521 296.213 154.582 296.179C154.641 296.142 154.684 296.084 154.702 296.017C154.719 295.95 154.71 295.878 154.676 295.818C154.349 295.216 153.93 294.668 153.435 294.195C153.386 294.145 153.319 294.117 153.249 294.117C153.179 294.117 153.111 294.145 153.062 294.194C153.012 294.244 152.984 294.311 152.984 294.381C152.984 294.451 153.012 294.518 153.061 294.568V294.567Z" fill="#263238"/>
<path d="M154.49 293.588C154.547 293.619 154.602 293.652 154.657 293.687C154.684 293.705 154.711 293.723 154.738 293.742L154.773 293.768C154.786 293.777 154.835 293.806 154.773 293.768C154.824 293.804 154.871 293.844 154.914 293.888C154.962 293.932 155.009 293.977 155.055 294.024C155.101 294.072 155.139 294.116 155.178 294.165C155.189 294.178 155.199 294.194 155.211 294.207C155.192 294.186 155.186 294.173 155.207 294.202C155.229 294.232 155.245 294.255 155.264 294.282C155.337 294.389 155.402 294.502 155.458 294.62C155.494 294.68 155.551 294.723 155.619 294.741C155.687 294.759 155.758 294.749 155.819 294.714C155.878 294.677 155.92 294.619 155.938 294.552C155.956 294.485 155.947 294.414 155.914 294.353C155.663 293.835 155.257 293.408 154.752 293.132C154.692 293.096 154.62 293.087 154.552 293.104C154.485 293.122 154.427 293.166 154.391 293.227C154.356 293.287 154.346 293.359 154.364 293.427C154.382 293.494 154.426 293.552 154.486 293.588L154.49 293.588Z" fill="#263238"/>
<path d="M154.623 291.49C154.886 291.491 155.147 291.518 155.404 291.573C155.674 291.63 155.939 291.712 156.194 291.818C156.262 291.837 156.334 291.828 156.394 291.793C156.455 291.759 156.5 291.701 156.518 291.634C156.535 291.566 156.525 291.495 156.491 291.435C156.456 291.375 156.4 291.33 156.334 291.309C155.791 291.086 155.21 290.968 154.623 290.962C154.553 290.962 154.486 290.99 154.437 291.039C154.387 291.089 154.359 291.156 154.359 291.226C154.359 291.296 154.387 291.363 154.437 291.412C154.486 291.462 154.553 291.49 154.623 291.49Z" fill="#263238"/>
<g opacity="0.3">
<path d="M160.824 291.526C160.812 291.827 160.877 292.126 161.012 292.395C161.148 292.665 161.349 292.895 161.598 293.065C161.943 293.209 162.32 293.263 162.692 293.221L166.035 293.123L166.048 293.092C166.224 291.509 166.696 287.648 165.315 287.649C164.228 287.649 163.086 289.865 160.812 289.218C160.834 290.055 160.8 291.124 160.824 291.526Z" fill="black"/>
</g>
<path opacity="0.3" d="M199.629 229.046L224.55 227.572" stroke="white" stroke-width="0.351758" stroke-miterlimit="10"/>
<path opacity="0.3" d="M162.734 220.934L186.482 228.309" stroke="white" stroke-width="0.351758" stroke-miterlimit="10"/>
<path opacity="0.3" d="M195.617 172.29L195.174 180.616C195.113 181.77 195.484 182.906 196.215 183.801C196.945 184.696 197.983 185.287 199.126 185.458L200.544 185.669" stroke="white" stroke-width="0.351758" stroke-miterlimit="10"/>
<path opacity="0.3" d="M216.75 170.087L219.819 227.852" stroke="white" stroke-width="0.351758" stroke-miterlimit="10"/>
<path d="M146.684 99.312C146.78 99.6138 162.668 120.98 162.668 120.98L174.028 106.008C174.028 106.008 182.125 116.983 181.777 117.071C181.428 117.159 166.693 139.429 159.467 133.879C152.242 128.33 140.754 104.268 140.754 104.268L146.684 99.312Z" fill="#E4897B"/>
<path opacity="0.2" d="M162.668 120.982C162.668 120.982 163.89 123.855 163.301 126.288C163.947 125.385 164.3 124.304 164.311 123.193C164.362 121.988 164.137 120.788 163.654 119.683L162.668 120.982Z" fill="black"/>
<path d="M146.972 99.7345C146.972 99.7345 147.207 93.7068 146.198 92.883C145.589 92.3869 144.86 92.0607 144.084 91.9375C144.084 91.9375 138.918 83.2476 137.76 84.1531C137.133 84.642 138.054 86.9847 140.553 91.0588C140.553 91.0588 138.034 90.6796 138.204 92.3715C137.951 92.3466 137.695 92.3764 137.454 92.4589C137.214 92.5414 136.993 92.6747 136.808 92.8497C136.624 93.0247 136.479 93.2375 136.383 93.4735C136.288 93.7095 136.244 93.9632 136.255 94.2175C136.255 94.2175 134.804 95.1828 135.219 96.5391C135.635 97.8955 138.519 102.583 140.753 104.273C142.986 105.963 146.994 102.022 146.994 102.022L146.972 99.7345Z" fill="#E4897B"/>
<path opacity="0.3" d="M144.472 92.0146C143.514 92.0766 142.004 92.2686 141.046 92.3312C140.695 92.3538 139.858 92.3024 139.589 92.5324C139.491 92.5985 139.408 92.6847 139.345 92.7853C139.283 92.8859 139.242 92.9986 139.226 93.116C139.21 93.2334 139.22 93.3528 139.253 93.4664C139.287 93.58 139.345 93.6851 139.422 93.7749C139.985 94.6929 141.834 95.0834 142.862 94.7689C142.452 95.6891 142.241 96.6854 142.243 97.6927C142.261 98.1107 142.381 98.5179 142.593 98.8786C142.805 99.2394 143.102 99.5426 143.459 99.7618" stroke="black" stroke-width="0.351758" stroke-linecap="round" stroke-linejoin="round"/>
<path opacity="0.3" d="M136.168 97.6071C136.308 97.889 136.491 98.147 136.712 98.3718C136.823 98.4836 136.959 98.568 137.108 98.6183C137.258 98.6686 137.417 98.6834 137.573 98.6617C137.81 98.5773 138.013 98.4192 138.153 98.2106C138.293 98.0021 138.363 97.754 138.352 97.503C138.366 97.1558 138.304 96.8098 138.17 96.4891C138.036 96.1684 137.834 95.8808 137.578 95.6464C137.876 96.0916 138.304 96.4352 138.803 96.6313C139.052 96.7253 139.322 96.7534 139.585 96.7131C139.849 96.6729 140.098 96.5655 140.308 96.4013C140.511 96.2285 140.645 95.9887 140.686 95.7254C140.727 95.4622 140.672 95.193 140.531 94.9668" stroke="black" stroke-width="0.351758" stroke-linecap="round" stroke-linejoin="round"/>
<path d="M187.86 93.1063C192.59 96.5535 193.179 106.262 178.561 127.137L166.957 114.867C169.963 109.558 172.575 106.959 177.04 100.641C184.085 90.8529 187.86 93.1063 187.86 93.1063Z" fill="#407BFF"/>
<path d="M187.752 92.7376C191.509 92.5041 206.535 90.9957 221.878 94.0743L220.982 152.87C220.982 152.87 221.382 160.656 222.373 168.472C206.329 174.672 185.704 172.834 175.484 166.465C175.594 166.717 176.253 160.293 177.251 150.885C179.01 134.306 181.828 108.459 184.567 93.5488C184.637 93.1801 187.377 92.7608 187.752 92.7376Z" fill="#407BFF"/>
<path opacity="0.2" d="M180.151 124.821L182.56 106.138L177.094 125.584L178.562 127.137L180.151 124.821Z" fill="black"/>
<path opacity="0.2" d="M220.191 127.069L219.346 127.178L216.301 112.244L217.71 129.007L220.392 129.444L220.191 127.069Z" fill="black"/>
<path d="M222.594 151.426C222.594 151.426 211.65 142.28 208.847 136.441C205.774 129.886 204.218 122.722 204.292 115.483C204.292 107.424 205.566 102.148 208.02 97.3592C210.475 92.5704 213.392 90.6357 213.392 90.6357C216.569 91.0944 219.389 91.8803 221.879 94.0759C221.879 94.0759 213.482 95.5793 212.464 104.546C211.947 109.097 211.584 121.12 213.57 128.245C215.556 135.37 228.589 144.801 228.589 144.801L222.594 151.426Z" fill="#407BFF"/>
<path opacity="0.4" d="M222.594 151.426C222.594 151.426 211.65 142.28 208.847 136.441C205.774 129.886 204.218 122.722 204.292 115.483C204.292 107.424 205.566 102.148 208.02 97.3592C210.475 92.5704 213.392 90.6357 213.392 90.6357C216.569 91.0944 219.389 91.8803 221.879 94.0759C221.879 94.0759 213.482 95.5793 212.464 104.546C211.947 109.097 211.584 121.12 213.57 128.245C215.556 135.37 228.589 144.801 228.589 144.801L222.594 151.426Z" fill="black"/>
<path d="M219.87 122.044L222.367 133.296L214.224 122.579L207.355 126.424C207.355 126.424 219.597 148.698 226.984 148.931C237.773 149.272 232.36 119.953 232.36 119.953L219.87 122.044Z" fill="#E4897B"/>
<path d="M221.876 94.0728C221.876 94.0728 227.917 95.1899 229.37 102.758C230.707 109.727 234.465 125.22 234.465 125.22L219.346 127.178L216.301 109.053L221.876 94.0728Z" fill="#407BFF"/>
<path d="M179.002 134.769C179.002 134.769 176.729 129.006 176.836 123.422C177.093 110.01 180.135 100.58 182.161 97.0364C183.39 95.0758 185.037 93.4114 186.985 92.1624C189.674 90.4957 192.866 89.8338 195.995 90.2939C196.507 90.3688 197.006 90.5163 197.477 90.7322L197.12 92.1624C197.12 92.1624 192.999 91.4589 187.531 97.3501C183.987 101.171 182.849 112.662 180.81 122.39C180.307 124.789 179.002 134.769 179.002 134.769Z" fill="#407BFF"/>
<g opacity="0.4">
<path d="M179.002 134.769C179.002 134.769 176.729 129.006 176.836 123.422C177.093 110.01 180.135 100.58 182.161 97.0364C183.39 95.0758 185.037 93.4114 186.985 92.1624C189.674 90.4957 192.866 89.8338 195.995 90.2939C196.507 90.3688 197.006 90.5163 197.477 90.7322L197.12 92.1624C197.12 92.1624 192.999 91.4589 187.531 97.3501C183.987 101.171 182.849 112.662 180.81 122.39C180.307 124.789 179.002 134.769 179.002 134.769Z" fill="black"/>
</g>
<path d="M211.445 115.495C211.445 115.495 204.506 110.423 204.001 110.856C203.495 111.289 202.323 113.019 202.585 114.462C202.585 114.462 201.117 115.807 201.934 117.442L202.585 118.403C202.585 118.403 200.492 118.607 201.502 121.217C202.511 123.826 205.307 125.842 207.384 126.869C209.461 127.897 214.172 127.275 214.181 126.874C214.19 126.473 214.814 117.729 214.674 115.467C214.533 113.205 212.03 110.628 211.789 110.572L211.445 115.495Z" fill="#E4897B"/>
<path d="M177.021 153.04C177.021 153.04 186.534 157.39 196.86 157.916C209.095 158.54 220.476 157.961 220.476 157.961V163.54C220.476 163.54 203.788 164.558 193.305 163.345C182.822 162.132 176.395 158.935 176.395 158.935L177.021 153.04Z" fill="#263238"/>
<path d="M209.398 159.196C209.398 159.196 209.539 155.825 211.879 153.837C215.608 150.671 227.904 152.6 231.338 151.134C234.771 149.668 239.827 148.109 239.827 148.109C239.827 148.109 239.827 162.61 238.873 163.558C237.919 164.506 227.808 168.263 222.181 166.981C216.553 165.698 210.257 166.067 209.398 159.196Z" fill="#407BFF"/>
<path opacity="0.4" d="M209.398 159.196C209.398 159.196 209.539 155.825 211.879 153.837C215.608 150.671 227.904 152.6 231.338 151.134C234.771 149.668 239.827 148.109 239.827 148.109C239.827 148.109 239.827 162.61 238.873 163.558C237.919 164.506 227.808 168.263 222.181 166.981C216.553 165.698 210.257 166.067 209.398 159.196Z" fill="black"/>
<path d="M187.028 155.757L185.848 162.735C185.848 162.735 190.542 164.318 192.334 163.94L193.498 156.975L187.028 155.757Z" fill="#263238"/>
<path opacity="0.3" d="M187.028 155.757L185.848 162.735C185.848 162.735 190.542 164.318 192.334 163.94L193.498 156.975L187.028 155.757Z" fill="white"/>
<path d="M197.632 87.051C197.784 88.4939 197.718 89.7652 197.234 90.4103C196.628 91.0992 195.834 91.5959 194.949 91.8391C195.691 92.9964 196.681 93.9732 197.849 94.6982H203.67C203.67 94.6982 206.301 95.2828 207.3 94.7179C208.125 94.2522 208.996 93.8146 209.781 93.2849C210.182 93.0046 210.563 92.6977 210.923 92.3661C209.677 91.7495 208.703 90.6952 208.187 89.405C207.171 86.1118 208.262 74.876 208.262 74.876L195.981 79.9279C195.981 79.9279 196.076 80.203 196.218 80.668C196.87 82.7516 197.343 84.887 197.632 87.051Z" fill="#E4897B"/>
<path opacity="0.2" d="M206.335 81.7576C206.335 81.7576 203.696 87.245 197.633 87.0522C197.344 84.887 196.871 82.7504 196.219 80.6657C196.675 80.4955 196.969 80.3906 196.969 80.3906L206.335 81.7576Z" fill="black"/>
<path d="M190.307 53.574C187.672 53.9398 189.152 57.895 190.733 60.0027C192.315 62.1105 191.305 64.119 193.21 67.0379C195.114 69.9568 202.46 70.2523 203.692 72.4824C204.924 74.7125 205.924 78.2787 210.032 77.5618C214.14 76.8449 219.286 81.1279 219.943 77.5618C220.6 73.9957 217.192 67.4804 210.032 61.5153C202.872 55.5502 194.961 52.9268 190.307 53.574Z" fill="#407BFF"/>
<path d="M200.231 88.755C191.938 91.1885 191.714 70.0556 194.594 64.0342" stroke="#407BFF" stroke-width="0.351758" stroke-linecap="round" stroke-linejoin="round"/>
<path d="M199.495 53.8027C199.495 53.8027 192.55 61.9755 195.194 68.4035C197.838 74.8315 208.213 58.0393 208.213 58.0393L199.495 53.8027Z" fill="#263238"/>
<path d="M204.663 84.1606C202.742 85.0252 200.59 85.2356 198.538 84.7594C196.486 84.2832 194.646 83.1468 193.302 81.5245C191.524 79.4592 190.599 76.7937 190.717 74.0707C190.731 73.6914 190.765 73.3131 190.819 72.9374C191.868 65.9726 197.077 55.8638 205.138 55.8518C206.919 55.8395 208.673 56.2831 210.234 57.1407C211.796 57.9982 213.111 59.2409 214.056 60.7507C215.001 62.2605 215.544 63.987 215.633 65.7658C215.722 67.5447 215.354 69.3168 214.565 70.9134C211.296 77.8008 209.701 82.0036 204.663 84.1606Z" fill="#E4897B"/>
<path d="M203.555 69.1931C203.309 69.9486 202.626 70.3771 202.134 70.178C201.641 69.9789 201.504 69.217 201.798 68.4769C202.092 67.7368 202.739 67.2971 203.22 67.492C203.7 67.6868 203.853 68.4403 203.555 69.1931Z" fill="#263238"/>
<path d="M196.696 66.3366C196.451 67.0922 195.755 67.5164 195.275 67.3216C194.795 67.1267 194.646 66.3606 194.94 65.6198C195.234 64.879 195.881 64.4407 196.361 64.6348C196.841 64.829 196.979 65.6317 196.696 66.3366Z" fill="#263238"/>
<path d="M198.489 67.0405C197.093 68.5237 195.498 69.8066 193.75 70.8529C194.031 71.2954 194.405 71.6711 194.847 71.9534C195.288 72.2358 195.786 72.418 196.306 72.4871L198.489 67.0405Z" fill="#DE5753"/>
<path d="M195.25 62.1681C195.291 62.2194 195.346 62.259 195.407 62.2829C195.469 62.3068 195.536 62.3143 195.601 62.3046C196.05 62.2152 196.512 62.2317 196.953 62.3526C197.394 62.4735 197.8 62.6955 198.14 63.0011C198.207 63.0662 198.296 63.1033 198.389 63.1045C198.482 63.1058 198.572 63.0711 198.64 63.0078C198.709 62.9444 198.75 62.8572 198.755 62.7643C198.761 62.6713 198.731 62.5798 198.671 62.5086C198.252 62.1117 197.743 61.821 197.188 61.6612C196.634 61.5013 196.049 61.4768 195.482 61.5898C195.435 61.5965 195.39 61.6125 195.349 61.6368C195.308 61.661 195.272 61.6931 195.244 61.7312C195.215 61.7693 195.195 61.8127 195.183 61.8588C195.171 61.9049 195.169 61.9529 195.176 62V62.0084C195.192 62.0652 195.217 62.1191 195.25 62.1681Z" fill="#263238"/>
<path d="M205.379 66.4717C205.448 66.4975 205.524 66.5007 205.595 66.4809C205.637 66.4596 205.675 66.4301 205.706 66.3941C205.737 66.3582 205.761 66.3164 205.776 66.2712C205.791 66.2261 205.797 66.1784 205.793 66.131C205.79 66.0835 205.777 66.0372 205.756 65.9947V65.9877C205.5 65.4686 205.122 65.0187 204.656 64.6759C204.19 64.3331 203.648 64.1074 203.076 64.0179C203.029 64.0132 202.981 64.0179 202.935 64.0317C202.89 64.0455 202.848 64.0682 202.811 64.0984C202.774 64.1286 202.744 64.1657 202.721 64.2077C202.699 64.2496 202.685 64.2956 202.681 64.3429C202.674 64.4382 202.704 64.5325 202.765 64.6062C202.825 64.6799 202.912 64.7275 203.007 64.739C203.457 64.8231 203.881 65.0113 204.245 65.2886C204.61 65.5659 204.904 65.9246 205.105 66.3359C205.138 66.3767 205.18 66.4099 205.228 66.4333C205.275 66.4568 205.327 66.4698 205.379 66.4717Z" fill="#263238"/>
<path d="M212.942 60.0024L211.163 62.8819C211.565 63.3661 211.77 63.9837 211.737 64.612C211.704 65.2403 211.436 65.8332 210.986 66.2729C208.818 68.3834 208.438 73.0358 209.676 75.5304C209.676 75.5304 210.25 74.447 211.066 75.1428C211.882 75.8386 208.955 81.5089 205.852 83.4267C205.852 83.4267 209.771 82.2047 214.135 76.8481C218.172 71.8932 220.511 67.2923 220.359 64.5851L212.942 60.0024Z" fill="#263238"/>
<path d="M215.308 77.9585C213.877 79.2403 211.997 79.9024 210.08 79.7996C207.541 79.6455 207.102 77.1727 208.495 75.2057C209.751 73.4694 212.599 71.3877 214.809 72.5323C217.019 73.6769 217.044 76.3594 215.308 77.9585Z" fill="#E4897B"/>
<path d="M195.883 74.5109C196.051 75.7627 196.128 77.0251 196.113 78.288C196.332 78.3295 196.55 78.3711 196.771 78.4013C199.753 78.8902 201.298 78.1319 202.106 77.1427C202.49 76.6513 202.751 76.075 202.867 75.462C202.944 75.1159 202.972 74.7607 202.95 74.4067C201.215 75.092 198.4 74.8507 196.9 74.6586C196.274 74.5861 195.883 74.5109 195.883 74.5109Z" fill="#263238"/>
<path d="M196.902 74.6602L196.999 75.7717C199.809 76.2255 201.847 76.1678 202.867 75.4601C202.944 75.114 202.972 74.7587 202.95 74.4048C201.215 75.0935 198.4 74.8522 196.902 74.6602Z" fill="white"/>
<path d="M196.77 78.3992C199.751 78.8882 201.296 78.1298 202.104 77.1406C200.967 76.9762 199.81 77.0146 198.686 77.2539C197.943 77.4256 197.273 77.8262 196.77 78.3992Z" fill="#DE5753"/>
<path d="M199.496 53.8028C198.817 54.3924 199.034 57.6018 201.399 60.0029C203.763 62.404 201.821 58.3405 201.821 58.3405C201.821 58.3405 206.826 62.5151 207.264 61.8362C207.701 61.1574 206.333 59.4042 206.333 59.4042C206.333 59.4042 210.267 63.4895 214.522 64.0122C218.777 64.5349 214.146 55.3963 209.579 53.8028C205.012 52.2093 201.547 52.0173 199.496 53.8028Z" fill="#263238"/>
<path d="M214.415 68.2744C214.415 68.2744 208.524 86.321 200.23 88.7544" stroke="#407BFF" stroke-width="0.351758" stroke-linecap="round" stroke-linejoin="round"/>
<path d="M200.23 53.0933L207.709 48.5972C207.709 48.5972 211.969 48.6281 216.796 53.8454C221.623 59.0627 222.073 62.9017 222.073 62.9017L219.827 68.6607L200.23 53.0933Z" fill="#407BFF"/>
<path opacity="0.6" d="M200.23 53.0933L207.709 48.5972C207.709 48.5972 211.969 48.6281 216.796 53.8454C221.623 59.0627 222.073 62.9017 222.073 62.9017L219.827 68.6607L200.23 53.0933Z" fill="white"/>
<path opacity="0.2" d="M200.23 53.0933C202.636 52.9161 205.048 53.3354 207.253 54.3139C210.667 55.9264 217.288 61.8542 219.829 68.6607C219.829 68.6607 208.837 62.9045 205.548 59.2857C202.259 55.6668 200.23 53.0933 200.23 53.0933Z" fill="black"/>
<path d="M190.305 53.5738L200.228 53.0933C200.228 53.0933 206.379 54.2477 210.817 57.8912C215.256 61.5347 219.827 68.6606 219.827 68.6606L219.939 77.5643C219.939 77.5643 219.892 73.9061 214.803 71.6457C212.01 70.4068 209.768 64.7385 207.92 62.7188C206.072 60.699 200.985 60.222 199.344 58.7903C197.704 57.3587 195.008 54.043 190.305 53.5738Z" fill="#407BFF"/>
<path opacity="0.6" d="M190.305 53.5738L200.228 53.0933C200.228 53.0933 206.379 54.2477 210.817 57.8912C215.256 61.5347 219.827 68.6606 219.827 68.6606L219.939 77.5643C219.939 77.5643 219.892 73.9061 214.803 71.6457C212.01 70.4068 209.768 64.7385 207.92 62.7188C206.072 60.699 200.985 60.222 199.344 58.7903C197.704 57.3587 195.008 54.043 190.305 53.5738Z" fill="white"/>
<path opacity="0.1" d="M209.82 76.2935C210.162 75.7388 210.619 75.2649 211.161 74.9043C211.704 74.5438 212.318 74.3054 212.962 74.2055C213.228 74.1316 213.51 74.1386 213.772 74.2257C214.034 74.3128 214.265 74.4759 214.434 74.6944" stroke="black" stroke-width="0.351758" stroke-miterlimit="10"/>
<rect x="457" width="71" height="303" fill="url(#paint12_linear_3247_115157)"/>
<rect width="71" height="303" transform="matrix(-1 0 0 1 71 0)" fill="url(#paint13_linear_3247_115157)"/>
<rect width="71" height="528" transform="matrix(-4.37114e-08 1 1 4.37114e-08 0 233)" fill="url(#paint14_linear_3247_115157)"/>
</g>
<defs>
<filter id="filter0_f_3247_115157" x="271.16" y="56.7893" width="8.58639" height="12.8891" filterUnits="userSpaceOnUse" color-interpolation-filters="sRGB">
<feFlood flood-opacity="0" result="BackgroundImageFix"/>
<feBlend mode="normal" in="SourceGraphic" in2="BackgroundImageFix" result="shape"/>
<feGaussianBlur stdDeviation="0.98644" result="effect1_foregroundBlur_3247_115157"/>
</filter>
<filter id="filter1_f_3247_115157" x="273.227" y="54.4173" width="13.9242" height="17.639" filterUnits="userSpaceOnUse" color-interpolation-filters="sRGB">
<feFlood flood-opacity="0" result="BackgroundImageFix"/>
<feBlend mode="normal" in="SourceGraphic" in2="BackgroundImageFix" result="shape"/>
<feGaussianBlur stdDeviation="0.73983" result="effect1_foregroundBlur_3247_115157"/>
</filter>
<filter id="filter2_f_3247_115157" x="262.673" y="53.0255" width="12.6765" height="19.2053" filterUnits="userSpaceOnUse" color-interpolation-filters="sRGB">
<feFlood flood-opacity="0" result="BackgroundImageFix"/>
<feBlend mode="normal" in="SourceGraphic" in2="BackgroundImageFix" result="shape"/>
<feGaussianBlur stdDeviation="1.47966" result="effect1_foregroundBlur_3247_115157"/>
</filter>
<filter id="filter3_f_3247_115157" x="264.764" y="54.5184" width="8.53538" height="5.63694" filterUnits="userSpaceOnUse" color-interpolation-filters="sRGB">
<feFlood flood-opacity="0" result="BackgroundImageFix"/>
<feBlend mode="normal" in="SourceGraphic" in2="BackgroundImageFix" result="shape"/>
<feGaussianBlur stdDeviation="0.49322" result="effect1_foregroundBlur_3247_115157"/>
</filter>
<filter id="filter4_f_3247_115157" x="272.164" y="53.3977" width="9.80123" height="11.4672" filterUnits="userSpaceOnUse" color-interpolation-filters="sRGB">
<feFlood flood-opacity="0" result="BackgroundImageFix"/>
<feBlend mode="normal" in="SourceGraphic" in2="BackgroundImageFix" result="shape"/>
<feGaussianBlur stdDeviation="0.98644" result="effect1_foregroundBlur_3247_115157"/>
</filter>
<radialGradient id="paint0_radial_3247_115157" cx="0" cy="0" r="1" gradientUnits="userSpaceOnUse" gradientTransform="translate(273.107 54.8915) rotate(90) scale(24.7161 26.2405)">
<stop offset="0.204" stop-color="#FF0000"/>
<stop offset="0.528" stop-color="#FF0000"/>
<stop offset="1" stop-color="#FF0000"/>
</radialGradient>
<radialGradient id="paint1_radial_3247_115157" cx="0" cy="0" r="1" gradientUnits="userSpaceOnUse" gradientTransform="translate(269.599 78.6211) rotate(-57.293) scale(29.8941 27.9979)">
<stop offset="0.801" stop-color="#820000" stop-opacity="0"/>
<stop offset="1" stop-color="#820000"/>
</radialGradient>
<linearGradient id="paint2_linear_3247_115157" x1="274.943" y1="65.2481" x2="282.848" y2="74.6538" gradientUnits="userSpaceOnUse">
<stop offset="0.694" stop-color="#B694FF" stop-opacity="0"/>
<stop offset="0.934" stop-color="#9F72FF"/>
</linearGradient>
<radialGradient id="paint3_radial_3247_115157" cx="0" cy="0" r="1" gradientUnits="userSpaceOnUse" gradientTransform="translate(273.23 55.3156) rotate(90) scale(26.3256 32.5597)">
<stop offset="0.812" stop-color="#820000" stop-opacity="0"/>
<stop offset="0.979" stop-color="#820000"/>
</radialGradient>
<radialGradient id="paint4_radial_3247_115157" cx="0" cy="0" r="1" gradientUnits="userSpaceOnUse" gradientTransform="translate(277.835 62.274) rotate(142.559) scale(18.5583 26.5672)">
<stop offset="0.642" stop-color="#820000" stop-opacity="0"/>
<stop offset="1" stop-color="#820000"/>
</radialGradient>
<linearGradient id="paint5_linear_3247_115157" x1="273.964" y1="65.6397" x2="264.641" y2="76.1453" gradientUnits="userSpaceOnUse">
<stop offset="0.694" stop-color="#9F72FF" stop-opacity="0"/>
<stop offset="0.885" stop-color="#B694FF"/>
</linearGradient>
<radialGradient id="paint6_radial_3247_115157" cx="0" cy="0" r="1" gradientUnits="userSpaceOnUse" gradientTransform="translate(276.751 76.6477) rotate(-125.423) scale(31.1058 31.5611)">
<stop offset="0.669" stop-color="#820000" stop-opacity="0"/>
<stop offset="1" stop-color="#820000"/>
</radialGradient>
<radialGradient id="paint7_radial_3247_115157" cx="0" cy="0" r="1" gradientUnits="userSpaceOnUse" gradientTransform="translate(272.782 62.945) rotate(90) scale(17.2617 19.7809)">
<stop offset="0.821" stop-color="#9F72FF" stop-opacity="0"/>
<stop offset="0.934" stop-color="#B694FF"/>
</radialGradient>
<linearGradient id="paint8_linear_3247_115157" x1="274.441" y1="56.6528" x2="276.179" y2="58.0516" gradientUnits="userSpaceOnUse">
<stop stop-color="#820000"/>
<stop offset="0.68" stop-color="#820000" stop-opacity="0"/>
</linearGradient>
<radialGradient id="paint9_radial_3247_115157" cx="0" cy="0" r="1" gradientUnits="userSpaceOnUse" gradientTransform="translate(285.046 54.6906) rotate(118.831) scale(15.3419 7.2672)">
<stop stop-color="#94B9FC"/>
<stop offset="1" stop-color="#7D9AFF" stop-opacity="0"/>
</radialGradient>
<radialGradient id="paint10_radial_3247_115157" cx="0" cy="0" r="1" gradientUnits="userSpaceOnUse" gradientTransform="translate(273.211 63.2604) rotate(-151.049) scale(8.66087 11.1297)">
<stop stop-color="#94B9FC"/>
<stop offset="1" stop-color="#7D9AFF" stop-opacity="0"/>
</radialGradient>
<linearGradient id="paint11_linear_3247_115157" x1="270.441" y1="57.3787" x2="267.823" y2="56.0588" gradientUnits="userSpaceOnUse">
<stop stop-color="#94B9FC"/>
<stop offset="1" stop-color="#94B9FC" stop-opacity="0"/>
</linearGradient>
<linearGradient id="paint12_linear_3247_115157" x1="528" y1="151.5" x2="457" y2="151.5" gradientUnits="userSpaceOnUse">
<stop/>
<stop offset="1" stop-opacity="0"/>
</linearGradient>
<linearGradient id="paint13_linear_3247_115157" x1="71" y1="151.5" x2="0" y2="151.5" gradientUnits="userSpaceOnUse">
<stop/>
<stop offset="1" stop-opacity="0"/>
</linearGradient>
<linearGradient id="paint14_linear_3247_115157" x1="71" y1="264" x2="0" y2="264" gradientUnits="userSpaceOnUse">
<stop/>
<stop offset="1" stop-opacity="0"/>
</linearGradient>
<clipPath id="clip0_3247_115157">
<rect width="527.636" height="303.73" fill="white"/>
</clipPath>
<clipPath id="clip1_3247_115157">
<rect x="249.43" y="40.0977" width="48.8931" height="48.8931" rx="24.4466" fill="white"/>
</clipPath>
</defs>
</svg>
