<svg width="36" height="37" viewBox="0 0 36 37" fill="none" xmlns="http://www.w3.org/2000/svg">
<path opacity="0.934" fill-rule="evenodd" clip-rule="evenodd" d="M16.9844 2.05176C17.738 2.05176 18.4917 2.05176 19.2453 2.05176C19.2453 2.88078 19.2453 3.7098 19.2453 4.53883C18.4917 4.43834 17.738 4.43834 16.9844 4.53883C16.9844 3.7098 16.9844 2.88078 16.9844 2.05176Z" fill="white"/>
<path opacity="0.98" fill-rule="evenodd" clip-rule="evenodd" d="M17.1367 5.21429C20.6967 5.00379 23.5481 6.31013 25.6907 9.13331C26.6904 10.6123 27.2305 12.2452 27.3111 14.0321C21.1814 14.0321 15.0516 14.0321 8.92188 14.0321C9.12777 10.7169 10.6351 8.19214 13.4438 6.45783C14.6056 5.80682 15.8365 5.39231 17.1367 5.21429ZM20.5282 6.79697C21.8397 7.36719 22.8571 8.27158 23.5805 9.51014C23.6273 9.89013 23.4641 10.0284 23.0906 9.92465C22.3846 8.81655 21.4425 7.97494 20.2644 7.3999C20.1725 7.11404 20.2604 6.91304 20.5282 6.79697ZM13.8206 8.07819C14.1936 8.14647 14.3067 8.34747 14.1598 8.68111C13.0445 9.3316 12.203 10.236 11.635 11.3943C11.3396 11.5335 11.1387 11.4456 11.0321 11.1305C11.6353 9.81152 12.5648 8.79409 13.8206 8.07819Z" fill="white"/>
<path opacity="0.966" fill-rule="evenodd" clip-rule="evenodd" d="M7.40715 14.791C14.5418 14.791 21.6764 14.791 28.811 14.791C29.0648 15.5755 29.3411 16.3543 29.64 17.1274C26.0228 17.2027 22.4053 17.2278 18.7874 17.2027C18.8581 18.4065 18.8832 19.6123 18.8627 20.8203C18.3603 20.7198 17.8579 20.7198 17.3554 20.8203C17.3362 19.6126 17.3613 18.4068 17.4308 17.2027C13.8129 17.2278 10.1953 17.2027 6.57812 17.1274C6.87703 16.3543 7.15339 15.5755 7.40715 14.791Z" fill="white"/>
<path opacity="0.958" fill-rule="evenodd" clip-rule="evenodd" d="M17.7463 21.5674C19.5655 21.5651 20.407 22.4695 20.271 24.2806C19.8387 25.5652 18.9469 26.1053 17.5955 25.9009C16.3473 25.4807 15.8073 24.614 15.9752 23.3008C16.2101 22.3498 16.8004 21.772 17.7463 21.5674Z" fill="white"/>
<path opacity="0.969" fill-rule="evenodd" clip-rule="evenodd" d="M7.50223 22.2549C9.51381 22.2946 10.6192 23.312 10.8183 25.3072C10.6619 27.1593 9.65708 28.1767 7.80369 28.3595C5.94657 28.173 4.94169 27.1556 4.78906 25.3072C4.91091 23.5903 5.81529 22.5729 7.50223 22.2549Z" fill="white"/>
<path opacity="0.969" fill-rule="evenodd" clip-rule="evenodd" d="M28.226 22.2549C30.202 22.3345 31.2823 23.3519 31.4668 25.3072C31.3141 27.1556 30.3092 28.173 28.4521 28.3595C26.5987 28.1767 25.5939 27.1593 25.4375 25.3072C25.573 23.5518 26.5026 22.5343 28.226 22.2549Z" fill="white"/>
<path opacity="0.924" fill-rule="evenodd" clip-rule="evenodd" d="M17.4452 26.6943C17.9191 26.7662 18.3839 26.7913 18.8395 26.7697C18.8772 28.2768 18.8897 29.7841 18.8772 31.2916C20.1335 31.2791 21.3896 31.2916 22.6454 31.3293C22.3358 31.7475 22.0846 32.1996 21.8918 32.6859C19.3796 32.7362 16.8674 32.7362 14.3552 32.6859C14.1624 32.1996 13.9112 31.7475 13.6016 31.3293C14.8574 31.2916 16.1135 31.2791 17.3698 31.2916C17.3457 29.7535 17.3708 28.2211 17.4452 26.6943Z" fill="white"/>
<path opacity="0.976" fill-rule="evenodd" clip-rule="evenodd" d="M7.18368 29.04C10.0774 28.9472 12.1751 30.1781 13.4767 32.733C13.7709 33.4326 13.9343 34.1611 13.9666 34.9186C9.82117 34.9437 5.67606 34.9186 1.53125 34.8432C2.02185 31.5391 3.90599 29.6047 7.18368 29.04Z" fill="white"/>
<path opacity="0.976" fill-rule="evenodd" clip-rule="evenodd" d="M27.8349 29.0397C30.6144 28.953 32.6869 30.1086 34.0525 32.5065C34.3814 33.2542 34.5949 34.0331 34.6932 34.8429C30.5483 34.9182 26.4032 34.9433 22.2578 34.9182C22.6498 31.562 24.5088 29.6025 27.8349 29.0397Z" fill="white"/>
</svg>
