<svg width="528" height="304" viewBox="0 0 528 304" fill="none" xmlns="http://www.w3.org/2000/svg">
<g clip-path="url(#clip0_3247_119766)">
<path opacity="0.08" d="M415.778 151.964C415.778 235.889 347.743 303.917 263.819 303.917C179.895 303.917 111.859 235.889 111.859 151.964C111.859 68.0393 179.893 -0.00195312 263.819 -0.00195312C347.744 -0.00195312 415.778 68.0393 415.778 151.964Z" fill="white"/>
<g opacity="0.4" clip-path="url(#clip1_3247_119766)">
<path d="M326.941 44.5471V283.25C326.941 289.997 321.888 295.455 315.656 295.455H204.253C198.006 295.455 192.953 289.997 192.953 283.25V44.5471C192.953 30.8021 198.006 30.1318 204.253 30.1318H226.572C227.868 30.1318 228.929 31.605 228.929 33.4318V34.22C228.929 38.4996 231.271 38.5143 234.144 38.5143H285.75C288.652 38.5143 290.98 38.5143 290.98 34.22V33.4318C290.98 31.605 292.026 30.1318 293.344 30.1318H315.656C321.888 30.1318 326.941 31.9586 326.941 44.5471Z" fill="white"/>
<path d="M326.941 44.5471V93.5236H192.953V44.5471C192.953 30.8021 198.006 30.1318 204.253 30.1318H226.572C227.868 30.1318 228.929 31.605 228.929 33.4318V34.22C228.929 38.4996 231.271 38.5143 234.144 38.5143H285.75C288.652 38.5143 290.98 38.5143 290.98 34.22V33.4318C290.98 31.605 292.026 30.1318 293.344 30.1318H315.656C321.888 30.1318 326.941 31.9586 326.941 44.5471Z" fill="#407BFF"/>
</g>
<path d="M322.204 22H197.675C196.005 22.0154 194.355 22.3595 192.818 23.0127C191.281 23.6659 189.889 24.6154 188.719 25.8069C187.549 26.9985 186.626 28.4087 186.001 29.9572C185.377 31.5056 185.063 33.162 185.079 34.8316V291.168C185.049 294.54 186.359 297.785 188.721 300.191C191.083 302.597 194.303 303.967 197.675 304H322.204C325.577 303.967 328.799 302.597 331.163 300.192C333.527 297.786 334.84 294.541 334.815 291.168V34.8316C334.842 31.4583 333.529 28.212 331.165 25.806C328.8 23.4001 325.577 22.0311 322.204 22ZM326.933 283.25C326.933 289.997 321.88 295.455 315.648 295.455H204.245C197.999 295.455 192.946 289.997 192.946 283.25V44.5473C192.946 30.8024 197.999 30.1321 204.245 30.1321H226.564C227.86 30.1321 228.921 31.6053 228.921 33.432V34.2202C228.921 38.4998 231.264 38.5146 234.136 38.5146H285.742C288.645 38.5146 290.972 38.5146 290.972 34.2202V33.432C290.972 31.6053 292.018 30.1321 293.337 30.1321H315.648C321.88 30.1321 326.933 31.9588 326.933 44.5473V283.25Z" fill="#263238"/>
<path d="M222.702 35.4878L222.488 35.7014L222.37 35.8266C221.818 35.2756 221.069 34.9661 220.289 34.9661C219.509 34.9661 218.761 35.2756 218.208 35.8266L218.112 35.7087L217.906 35.4951C217.995 35.4141 218.083 35.3331 218.179 35.2594C218.604 34.9097 219.111 34.6739 219.652 34.5744C219.792 34.5744 219.932 34.5744 220.072 34.5154C220.212 34.4565 220.425 34.5154 220.433 34.5154H220.72C220.972 34.5493 221.219 34.611 221.457 34.6996C221.635 34.7656 221.808 34.8469 221.972 34.9427C222.148 35.0453 222.315 35.161 222.473 35.2889L222.694 35.4951L222.702 35.4878Z" fill="white"/>
<path d="M218.894 36.5117L218.555 36.1729C218.921 35.7797 219.409 35.5205 219.939 35.4363C220.317 35.3806 220.702 35.4142 221.064 35.5345C221.426 35.6547 221.755 35.8583 222.024 36.1287L221.685 36.4675C221.315 36.0974 220.813 35.8894 220.289 35.8894C219.766 35.8894 219.264 36.0974 218.894 36.4675V36.5117Z" fill="white"/>
<path d="M221.343 36.8511L221.004 37.1899C220.908 37.0925 220.793 37.0161 220.666 36.9654C220.54 36.9146 220.404 36.8908 220.267 36.8953C220.131 36.8921 219.995 36.9166 219.869 36.9672C219.742 37.0178 219.627 37.0936 219.531 37.1899L219.199 36.8511C219.337 36.7051 219.503 36.5887 219.687 36.5092C219.872 36.4297 220.07 36.3887 220.271 36.3887C220.472 36.3887 220.67 36.4297 220.855 36.5092C221.039 36.5887 221.205 36.7051 221.343 36.8511Z" fill="white"/>
<path d="M220.599 37.4988C220.599 37.56 220.581 37.6198 220.547 37.6707C220.513 37.7216 220.465 37.7612 220.408 37.7846C220.352 37.8081 220.289 37.8142 220.229 37.8023C220.169 37.7903 220.114 37.7609 220.071 37.7176C220.028 37.6743 219.998 37.6192 219.986 37.5592C219.974 37.4992 219.981 37.437 220.004 37.3804C220.027 37.3239 220.067 37.2756 220.118 37.2416C220.169 37.2076 220.229 37.1895 220.29 37.1895C220.372 37.1895 220.451 37.222 220.509 37.2801C220.567 37.3381 220.599 37.4168 220.599 37.4988Z" fill="white"/>
<path d="M201.68 36.1423C201.68 35.966 201.732 35.7937 201.83 35.6471C201.928 35.5005 202.067 35.3863 202.23 35.3188C202.393 35.2514 202.572 35.2337 202.745 35.2681C202.918 35.3025 203.077 35.3874 203.201 35.512C203.326 35.6367 203.411 35.7955 203.445 35.9684C203.48 36.1413 203.462 36.3205 203.394 36.4833C203.327 36.6462 203.213 36.7854 203.066 36.8833C202.92 36.9813 202.747 37.0336 202.571 37.0336C202.335 37.0336 202.108 36.9396 201.941 36.7725C201.774 36.6054 201.68 36.3786 201.68 36.1423Z" fill="white"/>
<path d="M204.484 36.1422C204.484 35.9656 204.537 35.793 204.635 35.6463C204.733 35.4996 204.873 35.3853 205.036 35.3181C205.2 35.2509 205.379 35.2337 205.552 35.2686C205.725 35.3036 205.884 35.3893 206.009 35.5147C206.133 35.64 206.217 35.7995 206.251 35.9729C206.284 36.1463 206.266 36.3257 206.197 36.4884C206.128 36.6512 206.013 36.7899 205.865 36.8869C205.718 36.9839 205.545 37.035 205.368 37.0335C205.252 37.0335 205.136 37.0104 205.028 36.9655C204.921 36.9207 204.823 36.8549 204.741 36.772C204.659 36.6892 204.594 36.5909 204.55 36.4828C204.506 36.3747 204.483 36.2589 204.484 36.1422Z" fill="white"/>
<path d="M207.273 36.1423C207.273 35.966 207.326 35.7937 207.424 35.6471C207.522 35.5005 207.661 35.3863 207.824 35.3188C207.987 35.2514 208.166 35.2337 208.339 35.2681C208.511 35.3025 208.67 35.3874 208.795 35.512C208.92 35.6367 209.005 35.7955 209.039 35.9684C209.073 36.1413 209.056 36.3205 208.988 36.4833C208.921 36.6462 208.806 36.7854 208.66 36.8833C208.513 36.9813 208.341 37.0336 208.165 37.0336C207.928 37.0336 207.702 36.9396 207.534 36.7725C207.367 36.6054 207.273 36.3786 207.273 36.1423Z" fill="white"/>
<path d="M210.07 36.1423C210.07 35.966 210.123 35.7937 210.221 35.6471C210.318 35.5005 210.458 35.3863 210.621 35.3188C210.783 35.2514 210.963 35.2337 211.135 35.2681C211.308 35.3025 211.467 35.3874 211.592 35.512C211.716 35.6367 211.801 35.7955 211.836 35.9684C211.87 36.1413 211.853 36.3205 211.785 36.4833C211.718 36.6462 211.603 36.7854 211.457 36.8833C211.31 36.9813 211.138 37.0336 210.962 37.0336C210.725 37.0336 210.499 36.9396 210.331 36.7725C210.164 36.6054 210.07 36.3786 210.07 36.1423Z" fill="white"/>
<path d="M212.875 36.1422C212.875 35.9656 212.927 35.793 213.026 35.6463C213.124 35.4996 213.264 35.3853 213.427 35.3181C213.59 35.2509 213.77 35.2337 213.943 35.2686C214.116 35.3036 214.275 35.3893 214.399 35.5147C214.524 35.64 214.608 35.7995 214.641 35.9729C214.675 36.1463 214.656 36.3257 214.588 36.4884C214.519 36.6512 214.404 36.7899 214.256 36.8869C214.109 36.9839 213.936 37.035 213.759 37.0335C213.642 37.0335 213.527 37.0104 213.419 36.9655C213.311 36.9207 213.213 36.8549 213.131 36.772C213.049 36.6892 212.984 36.5909 212.94 36.4828C212.896 36.3747 212.874 36.2589 212.875 36.1422Z" fill="white"/>
<path d="M316.874 38.0794H309.648V34.75H316.874V38.0794ZM310.017 37.7111H316.506V35.1036H310.017V37.7111Z" fill="white"/>
<path d="M314.913 35.3027H310.25V37.5125H314.913V35.3027Z" fill="white"/>
<path d="M317.528 35.5166H316.887V37.3065H317.528V35.5166Z" fill="white"/>
<path d="M266.981 33.1671H252.904C252.79 33.1671 252.677 33.1446 252.572 33.1009C252.466 33.0572 252.37 32.9932 252.29 32.9125C252.209 32.8318 252.145 32.736 252.101 32.6305C252.058 32.5251 252.035 32.412 252.035 32.2979C252.035 32.1838 252.058 32.0707 252.101 31.9653C252.145 31.8598 252.209 31.764 252.29 31.6833C252.37 31.6026 252.466 31.5386 252.572 31.4949C252.677 31.4512 252.79 31.4287 252.904 31.4287H266.981C267.095 31.4287 267.208 31.4512 267.313 31.4949C267.419 31.5386 267.515 31.6026 267.595 31.6833C267.676 31.764 267.74 31.8598 267.784 31.9653C267.827 32.0707 267.85 32.1838 267.85 32.2979C267.85 32.412 267.827 32.5251 267.784 32.6305C267.74 32.736 267.676 32.8318 267.595 32.9125C267.515 32.9932 267.419 33.0572 267.313 33.1009C267.208 33.1446 267.095 33.1671 266.981 33.1671Z" fill="white"/>
<g opacity="0.4">
<path d="M311.633 55.501H208.768C205.03 55.501 202 58.531 202 62.2686V96.2296C202 99.9673 205.03 102.997 208.768 102.997H311.633C315.37 102.997 318.4 99.9673 318.4 96.2296V62.2686C318.4 58.531 315.37 55.501 311.633 55.501Z" fill="#EBF2FF"/>
<path d="M271.846 74.0879H243.758C243.591 74.0879 243.431 74.0216 243.313 73.9037C243.195 73.7857 243.129 73.6258 243.129 73.459C243.129 73.2922 243.195 73.1322 243.313 73.0143C243.431 72.8963 243.591 72.8301 243.758 72.8301H271.846C272.012 72.8307 272.172 72.8972 272.29 73.015C272.407 73.1328 272.474 73.2924 272.475 73.459C272.474 73.6256 272.407 73.7852 272.29 73.903C272.172 74.0208 272.012 74.0872 271.846 74.0879Z" fill="#2B478B"/>
<path d="M290.635 78.644H243.758C243.591 78.644 243.431 78.5777 243.313 78.4598C243.195 78.3418 243.129 78.1819 243.129 78.0151C243.129 77.9326 243.145 77.8509 243.177 77.7748C243.208 77.6986 243.255 77.6295 243.313 77.5713C243.372 77.5131 243.441 77.467 243.517 77.4356C243.594 77.4043 243.675 77.3883 243.758 77.3887H290.635C290.718 77.3883 290.799 77.4043 290.876 77.4356C290.952 77.467 291.021 77.5131 291.08 77.5713C291.138 77.6295 291.185 77.6986 291.216 77.7748C291.248 77.8509 291.264 77.9326 291.264 78.0151C291.264 78.1819 291.198 78.3418 291.08 78.4598C290.962 78.5777 290.802 78.644 290.635 78.644Z" fill="#2B478B"/>
<path d="M236.926 66.9287H210.066V93.7888H236.926V66.9287Z" fill="#C2CFFF"/>
<path d="M215.047 86.7524L220.912 76.1787L225.227 82.0619L227.379 79.7066L231.945 86.7524H215.047Z" fill="#AABDF2"/>
<path d="M223.715 74.658C223.715 74.3577 223.804 74.0642 223.971 73.8145C224.138 73.5648 224.375 73.3702 224.652 73.2552C224.93 73.1403 225.235 73.1102 225.529 73.1688C225.824 73.2274 226.095 73.372 226.307 73.5844C226.519 73.7967 226.664 74.0673 226.722 74.3618C226.781 74.6564 226.751 74.9617 226.636 75.2391C226.521 75.5166 226.327 75.7537 226.077 75.9205C225.827 76.0874 225.534 76.1764 225.233 76.1764C224.831 76.1764 224.444 76.0165 224.16 75.7317C223.875 75.447 223.715 75.0607 223.715 74.658Z" fill="#AABDF2"/>
<path d="M289.751 66.9287H243.676C243.328 66.9287 243.047 67.2103 243.047 67.5576V69.0535C243.047 69.4008 243.328 69.6824 243.676 69.6824H289.751C290.099 69.6824 290.38 69.4008 290.38 69.0535V67.5576C290.38 67.2103 290.099 66.9287 289.751 66.9287Z" fill="#2B478B"/>
<path d="M249.938 86.2607L253.807 86.8194L251.011 89.5505L251.675 93.4016L248.212 91.5876L244.754 93.4091L245.411 89.5555L242.609 86.8294L246.478 86.2632L248.204 82.7578L249.938 86.2607Z" fill="#F78248"/>
<path d="M263.325 86.2607L267.194 86.8194L264.395 89.5505L265.061 93.4016L261.599 91.5876L258.141 93.4091L258.797 89.5555L255.996 86.8294L259.865 86.2632L261.591 82.7578L263.325 86.2607Z" fill="#F78248"/>
<path d="M276.729 86.2607L280.6 86.8194L277.801 89.5505L278.468 93.4016L275.005 91.5876L271.547 93.4091L272.204 89.5555L269.402 86.8294L273.269 86.2632L274.995 82.7578L276.729 86.2607Z" fill="#F78248"/>
<path d="M290.13 86.2607L293.998 86.8194L291.202 89.5505L291.866 93.4016L288.406 91.5876L284.946 93.4091L285.605 89.5555L282.801 86.8294L286.669 86.2632L288.396 82.7578L290.13 86.2607Z" fill="#F78248"/>
<path d="M303.528 86.2607L307.397 86.8194L304.6 89.5505L305.264 93.4016L301.802 91.5876L298.344 93.4091L299.003 89.5555L296.199 86.8294L300.068 86.2632L301.794 82.7578L303.528 86.2607Z" fill="#F78248"/>
</g>
<g opacity="0.4">
<path d="M318.4 176.328V259.264C318.4 261.905 317.351 264.438 315.483 266.306C313.615 268.174 311.082 269.223 308.441 269.223H211.957C210.649 269.223 209.354 268.966 208.146 268.465C206.938 267.965 205.84 267.231 204.916 266.306C203.991 265.381 203.258 264.283 202.757 263.075C202.257 261.866 202 260.571 202 259.264V176.328C202 175.02 202.257 173.725 202.757 172.517C203.258 171.308 203.991 170.21 204.916 169.285C205.84 168.361 206.938 167.627 208.146 167.126C209.354 166.626 210.649 166.368 211.957 166.368H308.441C309.749 166.368 311.044 166.625 312.253 167.125C313.462 167.625 314.56 168.359 315.485 169.284C316.41 170.209 317.143 171.307 317.644 172.516C318.144 173.724 318.401 175.02 318.4 176.328Z" fill="#EBF2FF"/>
<g opacity="0.3">
<path d="M245.514 197.994C244.737 197.89 243.954 197.839 243.171 197.839C243.041 197.839 242.92 197.839 242.785 197.839C238.199 197.948 233.837 199.847 230.632 203.13C227.427 206.412 225.633 210.818 225.633 215.406C225.633 219.993 227.427 224.399 230.632 227.682C233.837 230.964 238.199 232.863 242.785 232.972H243.171C243.954 232.974 244.737 232.922 245.514 232.817C249.267 232.314 252.757 230.612 255.466 227.966C258.174 225.32 259.957 221.87 260.547 218.129C260.685 217.226 260.755 216.314 260.755 215.401C260.752 211.146 259.205 207.037 256.402 203.836C253.599 200.635 249.731 198.559 245.514 197.994ZM245.514 227.017C244.742 227.172 243.958 227.25 243.171 227.25H242.785C239.72 227.14 236.817 225.846 234.688 223.639C232.558 221.432 231.368 218.485 231.368 215.418C231.368 212.351 232.558 209.404 234.688 207.197C236.817 204.99 239.72 203.696 242.785 203.587H243.171C246.107 203.585 248.939 204.675 251.117 206.645C253.295 208.615 254.662 211.324 254.954 214.246C255.246 217.168 254.442 220.094 252.697 222.456C250.953 224.818 248.392 226.447 245.514 227.027V227.017Z" fill="#739AF0"/>
<path d="M231.339 215.412C231.338 216.331 231.444 217.247 231.655 218.141H209.871V215.412H231.339Z" fill="#739AF0"/>
<path d="M310.557 215.412V218.141H254.699C254.909 217.246 255.015 216.331 255.015 215.412H310.557Z" fill="#739AF0"/>
<path d="M245.518 170.119V203.807C244.746 203.652 243.962 203.574 243.175 203.574H242.789V170.119H245.518Z" fill="#739AF0"/>
<path d="M245.518 227.016V263.435H242.789V227.244H243.175C243.961 227.246 244.746 227.169 245.518 227.016Z" fill="#739AF0"/>
<path d="M307.824 170.129V217.277V219.83H310.555V217.277V170.344L307.824 170.129Z" fill="#739AF0"/>
<path d="M279.755 170.129H277.023V263.443H279.755V170.129Z" fill="#739AF0"/>
<path d="M262.595 173.584H249.098V194.546H262.595V173.584Z" fill="#739AF0"/>
<path d="M223.028 189.354H209.871V204.418H223.028V189.354Z" fill="#739AF0"/>
<path d="M236.348 173.584H209.871V186.741H236.348V173.584Z" fill="#739AF0"/>
<path d="M274.316 173.584H264.875V186.613H274.316V173.584Z" fill="#739AF0"/>
<path d="M274.316 189.354H264.875V211.131H274.316V189.354Z" fill="#739AF0"/>
<path d="M274.316 220.732H264.875V233.624H274.316V220.732Z" fill="#739AF0"/>
<path d="M293.426 173.584H285.809V211.135H293.426V173.584Z" fill="#739AF0"/>
<path d="M305.347 173.584H295.906V211.135H305.347V173.584Z" fill="#739AF0"/>
<path d="M310.56 222.096H284.379V263.431H310.56V222.096Z" fill="#739AF0"/>
<path d="M274.314 247.797H248.258V263.429H274.314V247.797Z" fill="#739AF0"/>
<path d="M274.314 236.574H248.258V244.86H274.314V236.574Z" fill="#739AF0"/>
<path d="M233.276 236.574H209.871V263.442H233.276V236.574Z" fill="#739AF0"/>
<path d="M219.726 219.604H209.871V234.081H219.726V219.604Z" fill="#739AF0"/>
</g>
<path d="M267.99 217.921C276.818 217.921 283.975 210.764 283.975 201.935C283.975 193.106 276.818 185.949 267.99 185.949C259.161 185.949 252.004 193.106 252.004 201.935C252.004 210.764 259.161 217.921 267.99 217.921Z" fill="#EBF2FF"/>
<path d="M244.003 204.167C244.464 217.947 268.388 239.17 268.388 239.17C268.388 239.17 290.838 216.384 290.377 202.616C289.916 188.847 279.162 178.028 266.356 178.457C253.55 178.885 243.547 190.408 244.003 204.167ZM253.479 202.385C253.389 199.683 254.102 197.014 255.528 194.717C256.954 192.42 259.029 190.597 261.491 189.479C263.953 188.361 266.691 187.999 269.359 188.437C272.027 188.876 274.505 190.095 276.48 191.942C278.455 193.789 279.838 196.18 280.454 198.813C281.07 201.446 280.891 204.202 279.94 206.733C278.989 209.265 277.309 211.457 275.113 213.033C272.916 214.61 270.301 215.499 267.599 215.59C263.978 215.703 260.46 214.377 257.815 211.902C255.17 209.427 253.613 206.005 253.484 202.385H253.479Z" fill="#F78E48"/>
</g>
<g opacity="0.4">
<path d="M311.632 110.526H208.768C205.03 110.526 202 113.556 202 117.294V151.255C202 154.992 205.03 158.022 208.768 158.022H311.632C315.37 158.022 318.4 154.992 318.4 151.255V117.294C318.4 113.556 315.37 110.526 311.632 110.526Z" fill="#EBF2FF"/>
<path d="M271.842 129.123H243.754C243.587 129.123 243.427 129.057 243.309 128.939C243.191 128.821 243.125 128.661 243.125 128.494C243.125 128.327 243.191 128.167 243.309 128.049C243.427 127.931 243.587 127.865 243.754 127.865H271.842C272.008 127.866 272.168 127.932 272.286 128.05C272.403 128.168 272.47 128.328 272.471 128.494C272.471 128.661 272.404 128.821 272.286 128.939C272.168 129.057 272.008 129.123 271.842 129.123Z" fill="#2B478B"/>
<path d="M290.631 133.668H243.754C243.671 133.669 243.59 133.653 243.513 133.621C243.437 133.59 243.368 133.544 243.309 133.486C243.251 133.428 243.205 133.358 243.173 133.282C243.141 133.206 243.125 133.124 243.125 133.042C243.125 132.875 243.191 132.715 243.309 132.597C243.427 132.479 243.587 132.413 243.754 132.413H290.631C290.798 132.413 290.958 132.479 291.076 132.597C291.194 132.715 291.26 132.875 291.26 133.042C291.26 133.124 291.244 133.206 291.212 133.282C291.18 133.358 291.134 133.428 291.076 133.486C291.017 133.544 290.948 133.59 290.872 133.621C290.795 133.653 290.714 133.669 290.631 133.668Z" fill="#2B478B"/>
<path d="M236.926 121.968H210.066V148.828H236.926V121.968Z" fill="#C2CFFF"/>
<path d="M215.043 141.788L220.909 131.215L225.223 137.098L227.376 134.743L231.941 141.788H215.043Z" fill="#AABDF2"/>
<path d="M223.711 129.696C223.711 129.396 223.8 129.102 223.967 128.853C224.134 128.603 224.371 128.408 224.648 128.293C224.926 128.178 225.231 128.148 225.526 128.207C225.82 128.265 226.091 128.41 226.303 128.622C226.515 128.835 226.66 129.105 226.719 129.4C226.777 129.694 226.747 130 226.632 130.277C226.517 130.555 226.323 130.792 226.073 130.959C225.823 131.125 225.53 131.215 225.229 131.215C224.827 131.215 224.44 131.055 224.156 130.77C223.871 130.485 223.711 130.099 223.711 129.696Z" fill="#AABDF2"/>
<path d="M289.747 121.968H243.672C243.325 121.968 243.043 122.249 243.043 122.597V124.093C243.043 124.44 243.325 124.721 243.672 124.721H289.747C290.095 124.721 290.376 124.44 290.376 124.093V122.597C290.376 122.249 290.095 121.968 289.747 121.968Z" fill="#2B478B"/>
<path d="M249.938 141.297L253.807 141.856L251.011 144.587L251.675 148.438L248.212 146.624L244.754 148.445L245.411 144.592L242.609 141.866L246.478 141.299L248.204 137.794L249.938 141.297Z" fill="#F78248"/>
<path d="M263.329 141.297L267.198 141.856L264.399 144.587L265.065 148.438L261.603 146.624L258.145 148.445L258.801 144.592L256 141.866L259.869 141.299L261.595 137.794L263.329 141.297Z" fill="#F78248"/>
<path d="M276.733 141.297L280.604 141.856L277.805 144.587L278.472 148.438L275.009 146.624L271.551 148.445L272.208 144.592L269.406 141.866L273.272 141.299L274.999 137.794L276.733 141.297Z" fill="#F78248"/>
<path d="M290.126 141.297L293.994 141.856L291.198 144.587L291.862 148.438L288.402 146.624L284.942 148.445L285.601 144.592L282.797 141.866L286.666 141.299L288.392 137.794L290.126 141.297Z" fill="#F78248"/>
<path d="M303.528 141.297L307.397 141.856L304.6 144.587L305.264 148.438L301.802 146.624L298.344 148.445L299.003 144.592L296.199 141.866L300.068 141.299L301.794 137.794L303.528 141.297Z" fill="#F78248"/>
</g>
<path d="M234.225 45.0007L225.711 159.573L278.773 163.516L287.288 48.944L234.225 45.0007Z" fill="url(#paint0_radial_3247_119766)"/>
<path d="M271.122 159.937C271.229 158.632 271.844 157.422 272.835 156.567C273.826 155.713 275.114 155.282 276.419 155.367H276.539L283.873 56.592H283.753C282.448 56.4848 281.238 55.8694 280.384 54.8783C279.529 53.8873 279.098 52.6 279.183 51.294V51.1144L241.858 48.3906V48.5702C241.761 49.8817 241.15 51.1019 240.158 51.9651C239.166 52.8283 237.873 53.2649 236.56 53.1797H236.44L229.117 151.955H229.227C230.531 152.062 231.741 152.677 232.596 153.668C233.451 154.66 233.882 155.947 233.797 157.253C233.792 157.313 233.792 157.373 233.797 157.432L271.141 160.206L271.122 159.937Z" fill="url(#paint1_radial_3247_119766)"/>
<path d="M255.477 117.864C252.786 117.663 250.214 116.668 248.087 115.006C245.96 113.344 244.374 111.088 243.53 108.525C242.685 105.961 242.619 103.204 243.341 100.603C244.062 98.0023 245.539 95.6737 247.584 93.9119C249.629 92.15 252.15 91.0341 254.83 90.7052C257.509 90.3763 260.225 90.8492 262.636 92.0641C265.046 93.279 267.042 95.1813 268.372 97.5305C269.701 99.8797 270.304 102.57 270.104 105.262C269.972 107.05 269.488 108.794 268.681 110.396C267.874 111.997 266.76 113.423 265.401 114.593C264.043 115.763 262.468 116.654 260.765 117.216C259.062 117.777 257.265 117.997 255.477 117.864Z" fill="url(#paint2_radial_3247_119766)"/>
<path d="M254.4 132.269C254.027 132.246 253.669 132.113 253.371 131.886C253.074 131.66 252.851 131.35 252.73 130.996C252.609 130.642 252.596 130.26 252.693 129.899C252.79 129.538 252.991 129.214 253.273 128.968C253.554 128.721 253.902 128.564 254.273 128.516C254.644 128.469 255.021 128.532 255.355 128.699C255.69 128.865 255.968 129.128 256.153 129.453C256.338 129.777 256.422 130.15 256.395 130.523C256.36 131.018 256.13 131.479 255.756 131.806C255.383 132.133 254.895 132.299 254.4 132.269Z" fill="url(#paint3_radial_3247_119766)"/>
<path d="M262.769 106.209C262.6 106.826 262.342 107.414 262.001 107.955C261.713 108.418 261.36 108.838 260.954 109.202C260.606 109.511 260.212 109.764 259.786 109.95C259.433 110.1 259.052 110.175 258.669 110.17C258.556 110.16 258.452 110.106 258.379 110.02C258.343 109.984 258.316 109.94 258.298 109.892C258.281 109.843 258.275 109.792 258.28 109.741L258.569 105.9C258.57 105.751 258.604 105.604 258.669 105.471C258.74 105.352 258.827 105.245 258.928 105.151C259.028 105.052 259.112 104.937 259.178 104.812C259.279 104.607 259.336 104.382 259.347 104.154C259.39 103.911 259.359 103.66 259.257 103.435C259.221 103.366 259.166 103.307 259.1 103.265C259.033 103.223 258.957 103.199 258.878 103.196C258.787 103.191 258.696 103.215 258.619 103.266C258.513 103.346 258.43 103.452 258.379 103.575C258.28 103.78 258.2 103.994 258.14 104.213C258.042 104.562 257.962 104.915 257.9 105.271C257.749 106.093 257.518 106.898 257.212 107.676C256.978 108.26 256.64 108.798 256.214 109.262C255.864 109.64 255.425 109.924 254.937 110.09C254.398 110.253 253.832 110.31 253.271 110.26C252.714 110.223 252.172 110.063 251.685 109.791C251.206 109.52 250.788 109.153 250.457 108.713C250.101 108.239 249.825 107.71 249.639 107.147C249.415 106.503 249.278 105.832 249.23 105.151L247.883 105.052C247.816 105.048 247.75 105.03 247.689 104.999C247.629 104.968 247.576 104.925 247.534 104.872C247.487 104.823 247.451 104.765 247.429 104.702C247.406 104.638 247.398 104.57 247.404 104.503L247.574 102.178C247.579 102.109 247.597 102.042 247.628 101.98C247.658 101.919 247.701 101.864 247.754 101.819C247.805 101.774 247.865 101.739 247.93 101.719C247.996 101.698 248.065 101.691 248.133 101.699L249.46 101.789C249.601 101.094 249.839 100.422 250.168 99.7935C250.423 99.2859 250.76 98.824 251.166 98.4267C251.522 98.0892 251.943 97.8278 252.403 97.6584C252.837 97.4992 253.298 97.428 253.76 97.4489C253.872 97.459 253.976 97.5129 254.048 97.5987C254.121 97.6846 254.157 97.7956 254.149 97.9078L253.88 101.55C253.873 101.709 253.832 101.866 253.76 102.009L253.49 102.358C253.33 102.524 253.205 102.721 253.121 102.936C253.013 103.193 252.952 103.467 252.942 103.745C252.907 104.098 252.927 104.455 253.002 104.802C253.071 105.072 253.191 105.211 253.371 105.221C253.55 105.231 253.79 105.072 253.939 104.732C254.167 104.11 254.341 103.469 254.458 102.817C254.602 102.133 254.813 101.464 255.087 100.821C255.309 100.269 255.63 99.7613 256.035 99.3246C256.396 98.929 256.843 98.6218 257.342 98.4267C257.886 98.2241 258.469 98.1457 259.048 98.1972C259.574 98.2286 260.088 98.3714 260.554 98.6162C261.018 98.8623 261.426 99.202 261.752 99.6139C262.104 100.039 262.387 100.517 262.59 101.031C262.815 101.61 262.96 102.218 263.019 102.837L264.356 102.946C264.425 102.949 264.493 102.967 264.555 102.998C264.617 103.029 264.671 103.072 264.715 103.126C264.76 103.176 264.794 103.234 264.817 103.298C264.839 103.361 264.848 103.428 264.845 103.495L264.665 105.82C264.661 105.889 264.642 105.956 264.611 106.017C264.581 106.079 264.538 106.134 264.485 106.179C264.434 106.223 264.373 106.257 264.308 106.277C264.243 106.298 264.174 106.305 264.106 106.299L262.769 106.209Z" fill="url(#paint4_radial_3247_119766)"/>
<path d="M273.093 51.1629L229.387 157.413L278.595 177.655L322.301 71.4049L273.093 51.1629Z" fill="url(#paint5_radial_3247_119766)"/>
<path d="M272.455 171.91C272.964 170.706 273.926 169.75 275.134 169.248C276.341 168.746 277.697 168.738 278.91 169.226L279.01 169.276L316.684 77.7146H316.564C315.36 77.2049 314.404 76.243 313.902 75.0357C313.401 73.8284 313.393 72.4723 313.88 71.2593C313.88 71.1994 313.93 71.1495 313.95 71.0996L279.289 56.7822C279.274 56.8402 279.254 56.897 279.229 56.9518C278.72 58.1559 277.758 59.1117 276.55 59.6137C275.343 60.1156 273.987 60.1235 272.774 59.6357H272.674L235 151.197H235.12C236.324 151.707 237.28 152.669 237.782 153.876C238.283 155.083 238.291 156.44 237.804 157.653L237.734 157.812L272.365 172.06L272.455 171.91Z" fill="url(#paint6_radial_3247_119766)"/>
<path d="M270.652 127.011C268.154 125.983 266.017 124.237 264.511 121.994C263.005 119.751 262.198 117.112 262.191 114.411C262.185 111.709 262.98 109.067 264.476 106.817C265.972 104.568 268.101 102.812 270.594 101.772C273.088 100.733 275.834 100.456 278.484 100.977C281.135 101.498 283.572 102.793 285.486 104.699C287.401 106.605 288.707 109.036 289.241 111.684C289.774 114.332 289.51 117.079 288.481 119.578C287.8 121.237 286.798 122.746 285.533 124.018C284.267 125.29 282.764 126.3 281.108 126.991C279.452 127.681 277.676 128.038 275.882 128.042C274.088 128.045 272.311 127.695 270.652 127.011Z" fill="url(#paint7_radial_3247_119766)"/>
<path d="M284.426 93.5877C284.08 93.4446 283.785 93.2019 283.578 92.8906C283.37 92.5793 283.26 92.2133 283.262 91.8393C283.263 91.4653 283.375 91.1002 283.585 90.7902C283.794 90.4803 284.091 90.2396 284.437 90.0988C284.784 89.9579 285.164 89.9233 285.53 89.9993C285.897 90.0753 286.232 90.2584 286.494 90.5255C286.756 90.7925 286.932 91.1314 287.001 91.499C287.07 91.8666 287.028 92.2464 286.88 92.59C286.686 93.0474 286.319 93.4093 285.859 93.5963C285.399 93.7834 284.883 93.7803 284.426 93.5877Z" fill="url(#paint8_radial_3247_119766)"/>
<path d="M265.164 140.4C264.818 140.257 264.523 140.014 264.316 139.703C264.109 139.392 263.999 139.026 264 138.652C264.001 138.278 264.114 137.913 264.323 137.603C264.532 137.293 264.829 137.052 265.176 136.911C265.522 136.77 265.903 136.736 266.269 136.812C266.635 136.888 266.97 137.071 267.232 137.338C267.494 137.605 267.671 137.944 267.739 138.311C267.808 138.679 267.766 139.059 267.618 139.403C267.423 139.858 267.055 140.218 266.596 140.405C266.136 140.592 265.622 140.59 265.164 140.4Z" fill="url(#paint9_radial_3247_119766)"/>
<path d="M281.224 118.231C280.87 118.763 280.443 119.243 279.956 119.658C279.534 120.004 279.068 120.292 278.57 120.516C278.146 120.703 277.694 120.818 277.233 120.855C276.849 120.892 276.461 120.848 276.095 120.725C275.992 120.682 275.909 120.599 275.866 120.496C275.826 120.397 275.826 120.286 275.866 120.187L277.332 116.625C277.386 116.486 277.468 116.361 277.572 116.256C277.675 116.168 277.789 116.094 277.911 116.036C278.037 115.971 278.151 115.887 278.25 115.787C278.417 115.629 278.543 115.434 278.619 115.218C278.735 115.001 278.784 114.754 278.759 114.509C278.746 114.431 278.713 114.357 278.662 114.296C278.611 114.234 278.545 114.188 278.47 114.16C278.386 114.131 278.294 114.131 278.21 114.16C278.085 114.202 277.972 114.274 277.881 114.37C277.721 114.535 277.577 114.715 277.452 114.909C277.293 115.138 277.113 115.447 276.893 115.836C276.498 116.573 276.03 117.268 275.497 117.912C275.106 118.394 274.633 118.803 274.1 119.119C273.648 119.372 273.14 119.506 272.623 119.508C272.06 119.496 271.504 119.374 270.987 119.149C270.468 118.941 270.001 118.62 269.62 118.211C269.249 117.809 268.966 117.333 268.792 116.814C268.603 116.251 268.502 115.662 268.493 115.068C268.488 114.397 268.562 113.727 268.712 113.073L267.465 112.564C267.337 112.508 267.237 112.404 267.186 112.275C267.136 112.15 267.136 112.01 267.186 111.885L268.074 109.73C268.098 109.667 268.135 109.609 268.183 109.561C268.231 109.512 268.289 109.475 268.353 109.451C268.416 109.424 268.484 109.41 268.552 109.41C268.621 109.41 268.689 109.424 268.752 109.451L269.979 109.96C270.332 109.352 270.765 108.795 271.266 108.304C271.668 107.894 272.137 107.556 272.653 107.306C273.096 107.093 273.579 106.974 274.07 106.957C274.533 106.943 274.994 107.021 275.427 107.186C275.53 107.23 275.613 107.312 275.656 107.416C275.696 107.518 275.696 107.632 275.656 107.735L274.259 111.117C274.209 111.268 274.124 111.405 274.01 111.516L273.641 111.756C273.443 111.874 273.264 112.022 273.112 112.195C272.932 112.408 272.79 112.651 272.693 112.913C272.546 113.228 272.455 113.565 272.424 113.911C272.424 114.19 272.473 114.36 272.643 114.43C272.813 114.5 273.082 114.43 273.332 114.14C273.741 113.617 274.105 113.059 274.419 112.474C274.774 111.862 275.185 111.284 275.646 110.748C276.032 110.294 276.495 109.913 277.013 109.621C277.481 109.357 278.003 109.204 278.54 109.172C279.092 109.159 279.641 109.256 280.155 109.459C280.669 109.661 281.137 109.963 281.533 110.349C281.895 110.718 282.18 111.155 282.371 111.636C282.577 112.152 282.698 112.698 282.73 113.252C282.758 113.872 282.705 114.493 282.571 115.098L283.818 115.607C283.945 115.663 284.046 115.767 284.097 115.896C284.127 115.957 284.142 116.023 284.142 116.091C284.142 116.158 284.127 116.225 284.097 116.285L283.209 118.441C283.187 118.506 283.15 118.567 283.102 118.617C283.054 118.667 282.995 118.705 282.93 118.73C282.801 118.78 282.659 118.78 282.531 118.73L281.224 118.231Z" fill="url(#paint10_radial_3247_119766)"/>
<path d="M336.514 193.286C336.515 197.663 338.253 201.861 341.346 204.958C344.438 208.056 348.633 209.8 353.01 209.809V231.002H165.836V209.809C168.034 209.852 170.218 209.457 172.261 208.646C174.305 207.835 176.166 206.625 177.735 205.086C179.305 203.547 180.552 201.711 181.404 199.684C182.255 197.657 182.693 195.481 182.693 193.283C182.693 191.085 182.255 188.909 181.404 186.882C180.552 184.855 179.305 183.019 177.735 181.48C176.166 179.941 174.305 178.731 172.261 177.92C170.218 177.109 168.034 176.714 165.836 176.758V135.814H353.01V176.758C348.632 176.766 344.436 178.511 341.343 181.61C338.251 184.709 336.514 188.908 336.514 193.286Z" fill="#FFC727"/>
<path opacity="0.3" d="M353.01 209.808V231.002H165.836V209.808C170.219 209.808 174.422 208.068 177.521 204.97C180.621 201.871 182.363 197.669 182.365 193.286H336.514C336.515 197.663 338.253 201.861 341.346 204.958C344.438 208.055 348.633 209.8 353.01 209.808Z" fill="white"/>
<g opacity="0.2">
<path d="M183.663 193.933H182.356C182.183 193.933 182.017 193.864 181.894 193.741C181.772 193.619 181.703 193.453 181.703 193.279C181.703 193.106 181.772 192.94 181.894 192.817C182.017 192.695 182.183 192.626 182.356 192.626H183.663C183.836 192.626 184.003 192.695 184.125 192.817C184.248 192.94 184.316 193.106 184.316 193.279C184.316 193.453 184.248 193.619 184.125 193.741C184.003 193.864 183.836 193.933 183.663 193.933Z" fill="black"/>
<path d="M329.236 193.933H326.623C326.45 193.933 326.283 193.864 326.161 193.741C326.038 193.619 325.97 193.453 325.97 193.279C325.97 193.106 326.038 192.94 326.161 192.817C326.283 192.695 326.45 192.626 326.623 192.626H329.236C329.409 192.626 329.576 192.695 329.698 192.817C329.821 192.94 329.889 193.106 329.889 193.279C329.889 193.453 329.821 193.619 329.698 193.741C329.576 193.864 329.409 193.933 329.236 193.933ZM320.671 193.933H318.058C317.885 193.933 317.719 193.864 317.596 193.741C317.474 193.619 317.405 193.453 317.405 193.279C317.405 193.106 317.474 192.94 317.596 192.817C317.719 192.695 317.885 192.626 318.058 192.626H320.671C320.844 192.626 321.011 192.695 321.133 192.817C321.256 192.94 321.325 193.106 321.325 193.279C321.325 193.453 321.256 193.619 321.133 193.741C321.011 193.864 320.844 193.933 320.671 193.933ZM312.106 193.933H309.493C309.32 193.933 309.154 193.864 309.031 193.741C308.909 193.619 308.84 193.453 308.84 193.279C308.84 193.106 308.909 192.94 309.031 192.817C309.154 192.695 309.32 192.626 309.493 192.626H312.106C312.28 192.626 312.446 192.695 312.568 192.817C312.691 192.94 312.76 193.106 312.76 193.279C312.76 193.453 312.691 193.619 312.568 193.741C312.446 193.864 312.28 193.933 312.106 193.933ZM303.541 193.933H300.928C300.755 193.933 300.589 193.864 300.466 193.741C300.344 193.619 300.275 193.453 300.275 193.279C300.275 193.106 300.344 192.94 300.466 192.817C300.589 192.695 300.755 192.626 300.928 192.626H303.541C303.715 192.626 303.881 192.695 304.003 192.817C304.126 192.94 304.195 193.106 304.195 193.279C304.195 193.453 304.126 193.619 304.003 193.741C303.881 193.864 303.715 193.933 303.541 193.933ZM294.983 193.933H292.37C292.197 193.933 292.03 193.864 291.908 193.741C291.785 193.619 291.716 193.453 291.716 193.279C291.716 193.106 291.785 192.94 291.908 192.817C292.03 192.695 292.197 192.626 292.37 192.626H294.983C295.156 192.626 295.322 192.695 295.445 192.817C295.567 192.94 295.636 193.106 295.636 193.279C295.636 193.453 295.567 193.619 295.445 193.741C295.322 193.864 295.156 193.933 294.983 193.933ZM286.418 193.933H283.805C283.632 193.933 283.465 193.864 283.343 193.741C283.22 193.619 283.152 193.453 283.152 193.279C283.152 193.106 283.22 192.94 283.343 192.817C283.465 192.695 283.632 192.626 283.805 192.626H286.418C286.591 192.626 286.758 192.695 286.88 192.817C287.003 192.94 287.071 193.106 287.071 193.279C287.071 193.453 287.003 193.619 286.88 193.741C286.758 193.864 286.591 193.933 286.418 193.933ZM277.853 193.933H275.24C275.067 193.933 274.9 193.864 274.778 193.741C274.655 193.619 274.587 193.453 274.587 193.279C274.587 193.106 274.655 192.94 274.778 192.817C274.9 192.695 275.067 192.626 275.24 192.626H277.853C278.026 192.626 278.193 192.695 278.315 192.817C278.438 192.94 278.506 193.106 278.506 193.279C278.506 193.453 278.438 193.619 278.315 193.741C278.193 193.864 278.026 193.933 277.853 193.933ZM269.288 193.933H266.675C266.502 193.933 266.336 193.864 266.213 193.741C266.091 193.619 266.022 193.453 266.022 193.279C266.022 193.106 266.091 192.94 266.213 192.817C266.336 192.695 266.502 192.626 266.675 192.626H269.288C269.462 192.626 269.628 192.695 269.75 192.817C269.873 192.94 269.942 193.106 269.942 193.279C269.942 193.453 269.873 193.619 269.75 193.741C269.628 193.864 269.462 193.933 269.288 193.933ZM260.73 193.933H258.117C257.943 193.933 257.777 193.864 257.655 193.741C257.532 193.619 257.463 193.453 257.463 193.279C257.463 193.106 257.532 192.94 257.655 192.817C257.777 192.695 257.943 192.626 258.117 192.626H260.73C260.903 192.626 261.069 192.695 261.192 192.817C261.314 192.94 261.383 193.106 261.383 193.279C261.383 193.453 261.314 193.619 261.192 193.741C261.069 193.864 260.903 193.933 260.73 193.933ZM252.165 193.933H249.552C249.378 193.933 249.212 193.864 249.09 193.741C248.967 193.619 248.898 193.453 248.898 193.279C248.898 193.106 248.967 192.94 249.09 192.817C249.212 192.695 249.378 192.626 249.552 192.626H252.165C252.338 192.626 252.504 192.695 252.627 192.817C252.749 192.94 252.818 193.106 252.818 193.279C252.818 193.453 252.749 193.619 252.627 193.741C252.504 193.864 252.338 193.933 252.165 193.933ZM243.6 193.933H240.987C240.814 193.933 240.647 193.864 240.525 193.741C240.402 193.619 240.333 193.453 240.333 193.279C240.333 193.106 240.402 192.94 240.525 192.817C240.647 192.695 240.814 192.626 240.987 192.626H243.6C243.773 192.626 243.939 192.695 244.062 192.817C244.185 192.94 244.253 193.106 244.253 193.279C244.253 193.453 244.185 193.619 244.062 193.741C243.939 193.864 243.773 193.933 243.6 193.933ZM235.035 193.933H232.422C232.249 193.933 232.082 193.864 231.96 193.741C231.837 193.619 231.769 193.453 231.769 193.279C231.769 193.106 231.837 192.94 231.96 192.817C232.082 192.695 232.249 192.626 232.422 192.626H235.035C235.208 192.626 235.375 192.695 235.497 192.817C235.62 192.94 235.688 193.106 235.688 193.279C235.688 193.453 235.62 193.619 235.497 193.741C235.375 193.864 235.208 193.933 235.035 193.933ZM226.477 193.933H223.863C223.69 193.933 223.524 193.864 223.402 193.741C223.279 193.619 223.21 193.453 223.21 193.279C223.21 193.106 223.279 192.94 223.402 192.817C223.524 192.695 223.69 192.626 223.863 192.626H226.477C226.65 192.626 226.816 192.695 226.939 192.817C227.061 192.94 227.13 193.106 227.13 193.279C227.13 193.453 227.061 193.619 226.939 193.741C226.816 193.864 226.65 193.933 226.477 193.933ZM217.912 193.933H215.299C215.125 193.933 214.959 193.864 214.837 193.741C214.714 193.619 214.645 193.453 214.645 193.279C214.645 193.106 214.714 192.94 214.837 192.817C214.959 192.695 215.125 192.626 215.299 192.626H217.912C218.085 192.626 218.251 192.695 218.374 192.817C218.496 192.94 218.565 193.106 218.565 193.279C218.565 193.453 218.496 193.619 218.374 193.741C218.251 193.864 218.085 193.933 217.912 193.933ZM209.347 193.933H206.734C206.56 193.933 206.394 193.864 206.272 193.741C206.149 193.619 206.08 193.453 206.08 193.279C206.08 193.106 206.149 192.94 206.272 192.817C206.394 192.695 206.56 192.626 206.734 192.626H209.347C209.52 192.626 209.686 192.695 209.809 192.817C209.931 192.94 210 193.106 210 193.279C210 193.453 209.931 193.619 209.809 193.741C209.686 193.864 209.52 193.933 209.347 193.933ZM200.789 193.933H198.175C198.002 193.933 197.836 193.864 197.713 193.741C197.591 193.619 197.522 193.453 197.522 193.279C197.522 193.106 197.591 192.94 197.713 192.817C197.836 192.695 198.002 192.626 198.175 192.626H200.789C200.962 192.626 201.128 192.695 201.25 192.817C201.373 192.94 201.442 193.106 201.442 193.279C201.442 193.453 201.373 193.619 201.25 193.741C201.128 193.864 200.962 193.933 200.789 193.933ZM192.224 193.933H189.61C189.437 193.933 189.271 193.864 189.148 193.741C189.026 193.619 188.957 193.453 188.957 193.279C188.957 193.106 189.026 192.94 189.148 192.817C189.271 192.695 189.437 192.626 189.61 192.626H192.224C192.397 192.626 192.563 192.695 192.686 192.817C192.808 192.94 192.877 193.106 192.877 193.279C192.877 193.453 192.808 193.619 192.686 193.741C192.563 193.864 192.397 193.933 192.224 193.933Z" fill="black"/>
<path d="M336.511 193.933H335.204C335.031 193.933 334.865 193.864 334.742 193.741C334.62 193.619 334.551 193.453 334.551 193.279C334.551 193.106 334.62 192.94 334.742 192.817C334.865 192.695 335.031 192.626 335.204 192.626H336.511C336.684 192.626 336.85 192.695 336.973 192.817C337.095 192.94 337.164 193.106 337.164 193.279C337.164 193.453 337.095 193.619 336.973 193.741C336.85 193.864 336.684 193.933 336.511 193.933Z" fill="black"/>
</g>
<path d="M238.176 173.755V173.631C238.176 167.751 242.207 162.871 248.158 162.871C254.11 162.871 258.023 167.738 258.023 173.514V173.631C258.023 179.465 254.051 184.398 248.041 184.398C242.148 184.398 238.176 179.524 238.176 173.755ZM252.666 173.755V173.631C252.666 170.267 250.746 167.503 248.041 167.503C245.212 167.503 243.526 170.267 243.526 173.514V173.631C243.526 177.061 245.486 179.766 248.158 179.766C250.987 179.753 252.666 177.002 252.666 173.755ZM245.094 201.848L272.69 164.145C272.906 163.801 273.208 163.52 273.567 163.33C273.927 163.141 274.329 163.05 274.735 163.067C275.048 163.061 275.358 163.117 275.649 163.232C275.939 163.347 276.204 163.519 276.428 163.737C276.651 163.955 276.83 164.216 276.952 164.503C277.074 164.791 277.138 165.1 277.139 165.412C277.126 165.976 276.939 166.521 276.604 166.974L248.975 204.663C248.742 205.005 248.428 205.282 248.061 205.47C247.693 205.659 247.284 205.752 246.871 205.741C246.562 205.747 246.255 205.69 245.968 205.574C245.681 205.458 245.42 205.285 245.201 205.066C244.982 204.847 244.81 204.587 244.694 204.3C244.578 204.013 244.521 203.705 244.526 203.396C244.547 202.829 244.746 202.283 245.094 201.835V201.848ZM263.616 195.315V195.19C263.616 189.311 267.64 184.43 273.592 184.43C279.543 184.43 283.457 189.298 283.457 195.073V195.19C283.457 201.025 279.426 205.957 273.474 205.957C267.523 205.957 263.616 201.051 263.616 195.282V195.315ZM278.106 195.315V195.19C278.106 191.826 276.179 189.062 273.474 189.062C270.645 189.062 268.966 191.826 268.966 195.073V195.19C268.966 198.62 270.887 201.325 273.592 201.325C276.414 201.312 278.106 198.529 278.106 195.282V195.315Z" fill="#263238"/>
<path d="M123.756 222.423C97.4523 194.171 88.2996 162.514 94.291 136.366L125.168 138.193C123.274 156.825 132.222 178.067 151.711 196.027C142.943 204.307 133.649 213.085 123.756 222.423Z" fill="url(#paint11_radial_3247_119766)"/>
<path d="M146.192 198.037C144.706 196.552 144.692 194.413 146.095 193.264C146.095 193.264 146.129 193.23 146.148 193.21C130.386 176.892 122.704 158.465 123.25 141.796L123.176 141.801C121.569 141.782 120.303 140.681 120.429 139.346C120.432 139.318 120.437 139.291 120.444 139.263L98.529 138.304L98.5095 138.411C98.3612 139.22 97.9408 139.955 97.3181 140.492C96.6953 141.03 95.9075 141.339 95.0852 141.368C95.0852 141.368 95.056 141.339 95.0121 141.363C91.7485 164.101 99.6006 190.346 119.82 214.677C119.845 214.652 119.864 214.633 119.889 214.609C121.511 213.308 124.238 213.932 126.109 215.958L126.235 216.085C133.204 209.85 139.886 203.866 146.28 198.135L146.192 198.037Z" fill="url(#paint12_radial_3247_119766)"/>
<path d="M117.353 180.06C112.638 182.077 106.612 179.344 104.786 173.864C103.013 168.574 106.14 163.528 110.923 162.651C113.193 162.239 115.537 162.613 117.566 163.712C119.594 164.811 121.188 166.569 122.083 168.696C122.96 170.831 122.954 173.226 122.067 175.356C121.181 177.486 119.485 179.178 117.353 180.06Z" fill="url(#paint13_radial_3247_119766)"/>
<path d="M109.806 157.233C109.653 157.257 109.497 157.251 109.346 157.215C109.196 157.179 109.054 157.114 108.928 157.023C108.803 156.932 108.697 156.817 108.616 156.685C108.535 156.553 108.481 156.406 108.457 156.253C108.438 156.102 108.449 155.948 108.491 155.8C108.532 155.653 108.603 155.515 108.698 155.396C108.793 155.276 108.911 155.176 109.046 155.103C109.18 155.029 109.327 154.983 109.479 154.967C109.785 154.926 110.095 155.004 110.343 155.187C110.591 155.37 110.759 155.642 110.809 155.947C110.829 156.097 110.819 156.25 110.779 156.397C110.739 156.543 110.671 156.68 110.577 156.8C110.484 156.92 110.367 157.02 110.235 157.094C110.103 157.168 109.957 157.215 109.806 157.233Z" fill="url(#paint14_radial_3247_119766)"/>
<path d="M122.747 189.534C122.403 189.692 122.013 189.716 121.653 189.599C121.293 189.483 120.99 189.235 120.804 188.906C120.698 188.763 120.624 188.599 120.587 188.425C120.549 188.251 120.548 188.071 120.584 187.897C120.621 187.723 120.693 187.559 120.797 187.414C120.901 187.27 121.035 187.149 121.188 187.06C121.531 186.916 121.913 186.901 122.266 187.018C122.618 187.136 122.915 187.377 123.103 187.698C123.208 187.839 123.282 188.001 123.321 188.172C123.36 188.344 123.363 188.522 123.329 188.695C123.296 188.867 123.227 189.031 123.127 189.176C123.026 189.32 122.897 189.442 122.747 189.534Z" fill="url(#paint15_radial_3247_119766)"/>
<path d="M117.907 170.964C117.981 171.369 117.997 171.782 117.956 172.191C117.919 172.538 117.832 172.878 117.698 173.2C117.588 173.478 117.427 173.734 117.225 173.955C117.057 174.139 116.851 174.286 116.621 174.383C116.549 174.407 116.47 174.402 116.402 174.369C116.333 174.338 116.277 174.283 116.246 174.213C115.905 173.404 115.589 172.581 115.262 171.777C115.222 171.687 115.203 171.589 115.209 171.49C115.215 171.402 115.238 171.316 115.277 171.237C115.306 171.15 115.324 171.06 115.331 170.969C115.334 170.819 115.307 170.67 115.253 170.53C115.205 170.372 115.118 170.228 114.999 170.111C114.957 170.079 114.908 170.057 114.855 170.047C114.803 170.036 114.749 170.039 114.697 170.053C114.647 170.078 114.606 170.119 114.58 170.17C114.538 170.246 114.517 170.331 114.517 170.418C114.509 170.568 114.519 170.719 114.546 170.866C114.583 171.105 114.634 171.34 114.697 171.573C114.839 172.118 114.935 172.673 114.985 173.234C115.026 173.645 114.993 174.061 114.887 174.461C114.797 174.789 114.619 175.086 114.371 175.319C114.091 175.568 113.763 175.758 113.407 175.874C113.049 176.001 112.669 176.049 112.291 176.015C111.904 175.966 111.531 175.838 111.195 175.64C110.826 175.42 110.493 175.146 110.206 174.827C109.881 174.471 109.601 174.077 109.373 173.653L108.501 173.921C108.457 173.934 108.41 173.938 108.364 173.932C108.318 173.926 108.273 173.911 108.233 173.886C108.143 173.845 108.071 173.772 108.029 173.682C107.839 173.151 107.664 172.625 107.483 172.094C107.467 172.05 107.46 172.002 107.464 171.955C107.467 171.908 107.48 171.863 107.503 171.821C107.517 171.778 107.541 171.739 107.573 171.706C107.605 171.674 107.645 171.65 107.688 171.636L108.54 171.388C108.447 170.913 108.421 170.428 108.462 169.946C108.496 169.562 108.595 169.186 108.755 168.835C108.891 168.545 109.091 168.288 109.339 168.085C109.571 167.893 109.839 167.75 110.128 167.666C110.165 167.658 110.203 167.657 110.239 167.664C110.276 167.671 110.311 167.685 110.343 167.705C110.412 167.736 110.468 167.791 110.498 167.861C110.737 168.645 110.99 169.434 111.254 170.223C111.294 170.322 111.31 170.429 111.302 170.535C111.284 170.632 111.259 170.728 111.229 170.823C111.182 170.969 111.157 171.122 111.156 171.276C111.167 171.466 111.206 171.653 111.273 171.831C111.348 172.063 111.456 172.283 111.594 172.484C111.731 172.62 111.848 172.678 111.945 172.659C112.096 172.615 112.15 172.454 112.16 172.211C112.117 171.76 112.043 171.312 111.94 170.871C111.837 170.408 111.785 169.934 111.784 169.459C111.773 169.064 111.835 168.671 111.97 168.299C112.093 167.977 112.296 167.69 112.559 167.466C112.848 167.225 113.19 167.056 113.558 166.974C113.893 166.886 114.243 166.868 114.585 166.921C114.924 166.966 115.252 167.075 115.55 167.242C115.875 167.419 116.171 167.646 116.427 167.915C116.711 168.207 116.956 168.534 117.157 168.889L118.005 168.645C118.093 168.626 118.186 168.636 118.268 168.674C118.351 168.709 118.418 168.776 118.453 168.86C118.623 169.322 118.808 169.79 118.998 170.262C119.016 170.302 119.024 170.344 119.023 170.387C119.022 170.43 119.012 170.472 118.994 170.511C118.978 170.552 118.954 170.59 118.923 170.621C118.892 170.652 118.855 170.676 118.813 170.691L117.907 170.964Z" fill="url(#paint16_radial_3247_119766)"/>
<path d="M217.875 43.8959C196.362 46.8374 176.261 56.5918 158.502 74.5023C149.657 65.3748 141.59 57.0464 134.191 49.4206C156.49 32.6191 179.918 23.7259 203.87 21.2666L217.875 43.8959Z" fill="url(#paint17_radial_3247_119766)"/>
<path d="M203.899 24.3798C202.273 24.5727 200.454 23.9252 199.765 22.8988V22.8574C179.396 25.7024 159.487 33.3833 140.447 46.8094L140.495 46.8576C141.549 48.0011 141.026 49.9368 139.324 51.2319L139.207 51.3146L156.009 68.8807L156.098 68.7843C156.441 68.4639 156.844 68.2144 157.284 68.0501C157.723 67.8857 158.191 67.8096 158.66 67.8262C159.129 67.8429 159.59 67.9519 160.017 68.147C160.444 68.3421 160.828 68.6196 161.147 68.9634L161.203 69.0323C176.923 54.7796 194.268 46.4374 212.702 43.179L212.661 43.1239C211.807 41.7944 212.344 40.52 213.86 40.2996H213.956L204.016 24.366L203.899 24.3798Z" fill="url(#paint18_radial_3247_119766)"/>
<path d="M185.657 37.3511C188.054 40.7404 186.787 44.7771 182.902 46.5888C178.872 48.4419 173.347 47.3673 170.502 43.9367C167.795 40.6577 169.186 36.3109 173.643 34.4992C177.962 32.7357 183.363 34.1135 185.657 37.3511Z" fill="url(#paint19_radial_3247_119766)"/>
<path d="M165.54 46.6857C165.631 46.7997 165.695 46.9328 165.728 47.0751C165.76 47.2174 165.76 47.3652 165.728 47.5075C165.696 47.6498 165.632 47.783 165.541 47.8971C165.45 48.0112 165.334 48.1034 165.203 48.1667C164.926 48.3386 164.598 48.4104 164.275 48.3703C163.952 48.3302 163.652 48.1806 163.425 47.9463C163.333 47.8317 163.268 47.6976 163.235 47.5542C163.203 47.4109 163.203 47.2619 163.236 47.1186C163.269 46.9753 163.334 46.8414 163.427 46.7271C163.519 46.6127 163.637 46.5208 163.77 46.4583C164.047 46.2903 164.373 46.2214 164.695 46.2626C165.016 46.3039 165.314 46.4531 165.54 46.6857Z" fill="url(#paint20_radial_3247_119766)"/>
<path d="M193.688 34.8715C193.762 34.9691 193.809 35.0848 193.824 35.2066C193.838 35.3284 193.82 35.4518 193.771 35.5641C193.722 35.6765 193.643 35.7736 193.544 35.8456C193.445 35.9176 193.328 35.9618 193.206 35.9737C192.915 36.0528 192.608 36.0461 192.32 35.9544C192.033 35.8628 191.778 35.69 191.587 35.457C191.277 35.0092 191.491 34.5133 192.076 34.3479C192.367 34.271 192.673 34.2795 192.959 34.3724C193.245 34.4652 193.498 34.6385 193.688 34.8715Z" fill="url(#paint21_radial_3247_119766)"/>
<path d="M176.788 37.1792C177.188 37.0867 177.597 37.0382 178.008 37.0345C178.362 37.0369 178.715 37.0738 179.062 37.1447C179.346 37.2096 179.621 37.3091 179.881 37.4409C180.081 37.54 180.259 37.6782 180.405 37.8474C180.42 37.8712 180.427 37.8986 180.427 37.9266C180.427 37.9545 180.42 37.982 180.405 38.0058C180.397 38.0323 180.382 38.0566 180.363 38.0769C180.344 38.0971 180.321 38.1129 180.295 38.1229C179.606 38.4053 178.862 38.6947 178.145 38.9978C178.06 39.0336 177.969 39.0568 177.877 39.0667H177.608C177.519 39.0541 177.429 39.0541 177.34 39.0667C177.197 39.078 177.057 39.113 176.926 39.17C176.791 39.216 176.67 39.2968 176.575 39.4042C176.55 39.4368 176.536 39.4767 176.536 39.5179C176.536 39.559 176.55 39.599 176.575 39.6315C176.609 39.672 176.655 39.7009 176.706 39.7142C176.792 39.7309 176.881 39.7309 176.968 39.7142C177.112 39.7005 177.255 39.6751 177.395 39.6384C177.567 39.5971 177.787 39.542 178.042 39.4593C178.543 39.2975 179.057 39.1799 179.578 39.108C179.973 39.0495 180.375 39.0495 180.77 39.108C181.093 39.1551 181.402 39.2676 181.679 39.4386C181.949 39.6245 182.182 39.8579 182.368 40.1275C182.548 40.3645 182.668 40.6408 182.72 40.9335C182.76 41.2059 182.727 41.4843 182.623 41.7395C182.508 42.0256 182.34 42.2874 182.127 42.511C181.874 42.7748 181.59 43.0062 181.28 43.1999L181.755 43.8199C181.778 43.8484 181.794 43.8821 181.801 43.9181C181.808 43.9541 181.807 43.9913 181.796 44.0265C181.788 44.062 181.771 44.095 181.747 44.1226C181.723 44.1502 181.693 44.1716 181.659 44.185C181.232 44.3709 180.818 44.5638 180.398 44.7567C180.315 44.7851 180.226 44.7851 180.143 44.7567C180.06 44.7358 179.986 44.6901 179.93 44.6258L179.461 44.0058C179.039 44.1418 178.602 44.2273 178.159 44.2607C177.789 44.2969 177.416 44.283 177.05 44.2194C176.74 44.1589 176.44 44.0521 176.162 43.9025C175.916 43.7685 175.697 43.5911 175.514 43.379C175.497 43.3542 175.485 43.3261 175.479 43.2964C175.473 43.2668 175.473 43.2363 175.48 43.2068C175.489 43.1772 175.506 43.1502 175.527 43.1276C175.549 43.105 175.575 43.0873 175.604 43.0759C176.292 42.7521 176.94 42.4421 177.615 42.1321C177.703 42.0886 177.799 42.0628 177.897 42.0563H178.187C178.333 42.077 178.481 42.077 178.628 42.0563C178.797 42.0342 178.962 41.9853 179.117 41.9117C179.309 41.8381 179.489 41.7334 179.647 41.6017C179.764 41.4984 179.792 41.4019 179.73 41.3261C179.668 41.2504 179.496 41.1815 179.255 41.209C178.846 41.2837 178.443 41.3873 178.049 41.519C177.625 41.6513 177.192 41.7526 176.754 41.8221C176.368 41.8733 175.976 41.8733 175.59 41.8221C175.249 41.7856 174.918 41.6875 174.612 41.5328C174.307 41.3619 174.044 41.1268 173.84 40.8439C173.66 40.6276 173.536 40.3694 173.482 40.0931C173.434 39.8349 173.455 39.5687 173.544 39.3215C173.642 39.0439 173.794 38.7887 173.992 38.5707C174.228 38.3029 174.502 38.0708 174.804 37.8818L174.364 37.31C174.342 37.2836 174.327 37.2519 174.321 37.2181C174.315 37.1843 174.318 37.1496 174.329 37.1172C174.359 37.0456 174.416 36.9887 174.488 36.9587L175.81 36.4076C175.895 36.3798 175.987 36.3798 176.072 36.4076C176.15 36.4219 176.221 36.4634 176.272 36.5247L176.788 37.1792Z" fill="url(#paint22_radial_3247_119766)"/>
<path d="M370.723 99.6892C362.313 79.6702 347.689 62.7785 325.792 50.2602C332.319 39.3542 338.276 29.4068 343.727 20.2868C365.727 37.4771 380.381 57.8055 388.956 80.3048L370.723 99.6892Z" fill="url(#paint23_radial_3247_119766)"/>
<path d="M385.956 81.1382C385.349 79.6178 385.504 77.6935 386.317 76.7625L386.357 76.7518C378.337 57.8124 365.765 40.5704 347.869 25.6538L347.835 25.7128C347.003 27.0268 344.998 27.0221 343.306 25.7138L343.196 25.6221L330.577 46.3975L330.693 46.4591C331.092 46.7075 331.437 47.0321 331.709 47.4142C331.982 47.7962 332.177 48.2283 332.282 48.6857C332.387 49.1431 332.401 49.6167 332.323 50.0795C332.245 50.5423 332.077 50.9852 331.827 51.3828L331.775 51.4539C349.611 62.9493 362.158 77.5449 370.076 94.5075L370.119 94.4533C371.182 93.2841 372.552 93.4733 373.157 94.8801L373.182 94.9733L386 81.2477L385.956 81.1382Z" fill="url(#paint24_radial_3247_119766)"/>
<path d="M368.7 66.8728C366.046 70.0656 361.819 69.886 359.064 66.6021C356.231 63.1892 355.839 57.5745 358.416 53.9386C360.883 50.4749 365.441 50.694 368.345 54.5302C371.166 58.2458 371.233 63.8191 368.7 66.8728Z" fill="url(#paint25_radial_3247_119766)"/>
<path d="M354.48 49.8584C354.393 49.9759 354.281 50.0723 354.152 50.1406C354.023 50.2088 353.881 50.2471 353.735 50.2526C353.589 50.2581 353.444 50.2307 353.31 50.1724C353.176 50.114 353.057 50.0263 352.962 49.9157C352.724 49.6927 352.57 49.3951 352.525 49.0724C352.48 48.7497 352.547 48.4213 352.715 48.1419C352.802 48.0232 352.914 47.9258 353.044 47.857C353.174 47.7882 353.318 47.7499 353.465 47.7448C353.612 47.7398 353.758 47.7682 353.893 47.8279C354.027 47.8876 354.146 47.977 354.241 48.0895C354.475 48.3138 354.626 48.6109 354.67 48.9322C354.713 49.2535 354.646 49.58 354.48 49.8584Z" fill="url(#paint26_radial_3247_119766)"/>
<path d="M373.181 73.9883C373.106 74.0852 373.006 74.1603 372.892 74.2058C372.778 74.2513 372.654 74.2656 372.533 74.2472C372.412 74.2288 372.298 74.1784 372.203 74.1011C372.107 74.0239 372.034 73.9226 371.991 73.8078C371.84 73.5473 371.767 73.2484 371.781 72.9473C371.795 72.6461 371.896 72.3555 372.071 72.1104C372.424 71.6951 372.958 71.773 373.269 72.2958C373.419 72.5566 373.49 72.8549 373.474 73.1551C373.459 73.4552 373.357 73.7445 373.181 73.9883Z" fill="url(#paint27_radial_3247_119766)"/>
<path d="M366.577 58.2638C366.77 58.6262 366.923 59.0086 367.033 59.4041C367.122 59.7467 367.178 60.0972 367.199 60.4507C367.21 60.7421 367.185 61.0338 367.125 61.3192C367.081 61.538 366.994 61.7457 366.868 61.9301C366.849 61.9504 366.824 61.9649 366.797 61.9722C366.77 61.9794 366.742 61.979 366.715 61.9711C366.687 61.9698 366.66 61.9623 366.635 61.9491C366.611 61.9359 366.59 61.9174 366.573 61.8949C366.122 61.3026 365.65 60.6589 365.172 60.0453C365.115 59.9717 365.069 59.8903 365.036 59.8036L364.966 59.5441C364.955 59.4548 364.932 59.3675 364.897 59.2846C364.849 59.1499 364.779 59.024 364.69 58.9121C364.61 58.7931 364.501 58.697 364.373 58.6334C364.335 58.6176 364.293 58.6147 364.253 58.6254C364.213 58.636 364.178 58.6595 364.153 58.6922C364.123 58.7356 364.107 58.7872 364.107 58.8401C364.113 58.9279 364.136 59.0137 364.175 59.0929C364.226 59.2286 364.287 59.36 364.359 59.4858C364.443 59.6415 364.553 59.8402 364.699 60.065C364.985 60.5068 365.232 60.9729 365.436 61.4579C365.595 61.8244 365.699 62.2122 365.745 62.609C365.783 62.9327 365.754 63.2607 365.661 63.5729C365.551 63.8814 365.386 64.1673 365.174 64.4166C364.991 64.6512 364.755 64.839 364.486 64.9645C364.233 65.0744 363.956 65.1142 363.682 65.08C363.376 65.0428 363.08 64.948 362.809 64.8006C362.489 64.6246 362.191 64.4096 361.924 64.1604L361.448 64.78C361.427 64.8097 361.398 64.8337 361.365 64.85C361.332 64.8662 361.296 64.8743 361.259 64.8734C361.223 64.8744 361.187 64.8665 361.154 64.8505C361.121 64.8345 361.092 64.8108 361.071 64.7814C360.781 64.417 360.487 64.0677 360.192 63.7117C360.143 63.6392 360.12 63.5526 360.126 63.4655C360.125 63.3801 360.15 63.2963 360.197 63.2253L360.675 62.6124C360.434 62.2395 360.239 61.8396 360.092 61.4208C359.961 61.0729 359.878 60.7089 359.845 60.3388C359.823 60.0233 359.848 59.7063 359.921 59.3984C359.987 59.1265 360.101 58.8687 360.259 58.6374C360.278 58.6144 360.302 58.5956 360.329 58.5822C360.357 58.5688 360.386 58.5611 360.416 58.5596C360.447 58.5615 360.478 58.5702 360.505 58.585C360.532 58.5998 360.556 58.6205 360.575 58.6455C361.066 59.2271 361.533 59.7723 362.007 60.3442C362.072 60.4182 362.122 60.5042 362.153 60.5974L362.228 60.8769C362.246 61.0234 362.285 61.1668 362.342 61.3027C362.408 61.4608 362.498 61.6076 362.609 61.7377C362.73 61.9047 362.877 62.0507 363.045 62.1698C363.175 62.2562 363.276 62.2579 363.333 62.1784C363.39 62.0989 363.412 61.9147 363.323 61.6889C363.145 61.3135 362.941 60.9512 362.712 60.6047C362.474 60.2296 362.264 59.8377 362.084 59.4322C361.934 59.0723 361.833 58.6942 361.782 58.3077C361.729 57.969 361.738 57.6235 361.809 57.288C361.895 56.95 362.054 56.6348 362.274 56.3644C362.437 56.1341 362.654 55.9483 362.907 55.8241C363.144 55.7111 363.406 55.6629 363.668 55.6843C363.962 55.7069 364.248 55.7879 364.509 55.9224C364.829 56.0812 365.124 56.2857 365.385 56.5293L365.823 55.9555C365.843 55.9275 365.87 55.9052 365.901 55.8906C365.932 55.8761 365.966 55.8697 366.001 55.8723C366.078 55.8828 366.147 55.923 366.195 55.9843L367.069 57.1192C367.118 57.1942 367.142 57.2828 367.137 57.3721C367.144 57.4514 367.122 57.5305 367.076 57.5954L366.577 58.2638Z" fill="url(#paint28_radial_3247_119766)"/>
<path d="M419.667 139.752C427.286 165.102 421.872 194.31 401.219 221.038L371.164 199.036C388.152 180.843 394.303 159.812 390.115 140.785L419.667 139.752Z" fill="url(#paint29_radial_3247_119766)"/>
<path d="M394.967 142.129C395.249 143.507 394.133 144.609 392.535 144.595H392.466C395.029 161.479 389.773 179.679 376.34 196.054C376.364 196.065 376.387 196.079 376.409 196.095C376.779 196.326 377.094 196.637 377.329 197.005C377.565 197.373 377.715 197.789 377.77 198.222C377.825 198.655 377.782 199.096 377.646 199.511C377.509 199.925 377.282 200.305 376.98 200.621L376.891 200.71L398.246 215.686C398.273 215.641 398.303 215.598 398.335 215.556C399.816 213.599 402.234 212.8 403.846 213.861L403.915 213.916C419.635 191.018 424.361 166.625 419.408 144.726H419.346C417.837 144.726 416.329 143.348 415.902 141.702C415.898 141.668 415.898 141.633 415.902 141.599L394.946 142.04L394.967 142.129Z" fill="url(#paint30_radial_3247_119766)"/>
<path d="M406.81 165.481C407.955 165.719 409.041 166.183 410.005 166.846C410.969 167.509 411.79 168.358 412.421 169.343C413.053 170.328 413.481 171.429 413.682 172.581C413.882 173.734 413.85 174.915 413.588 176.055C413.362 177.23 412.883 178.342 412.184 179.314C411.486 180.286 410.585 181.094 409.543 181.684C408.502 182.273 407.345 182.63 406.152 182.728C404.959 182.827 403.759 182.665 402.635 182.255C400.514 181.496 398.751 179.976 397.688 177.99C396.625 176.004 396.338 173.694 396.883 171.508C397.485 169.444 398.837 167.681 400.675 166.565C402.512 165.449 404.701 165.062 406.81 165.481Z" fill="url(#paint31_radial_3247_119766)"/>
<path d="M400.301 187.821C400.454 187.889 400.592 187.987 400.706 188.11C400.82 188.233 400.907 188.378 400.962 188.537C401.018 188.695 401.04 188.863 401.029 189.03C401.017 189.197 400.971 189.36 400.893 189.509C400.743 189.819 400.483 190.062 400.163 190.189C399.842 190.317 399.486 190.32 399.164 190.198C399.015 190.127 398.881 190.026 398.771 189.902C398.662 189.779 398.578 189.634 398.525 189.477C398.472 189.32 398.452 189.154 398.465 188.989C398.477 188.824 398.523 188.664 398.599 188.517C398.747 188.212 399.003 187.972 399.317 187.844C399.631 187.715 399.981 187.707 400.301 187.821Z" fill="url(#paint32_radial_3247_119766)"/>
<path d="M407.329 156.905C407.633 156.944 407.914 157.091 408.118 157.32C408.322 157.55 408.435 157.845 408.438 158.152C408.439 158.295 408.409 158.437 408.349 158.567C408.29 158.697 408.202 158.812 408.093 158.905C407.984 158.997 407.856 159.065 407.718 159.103C407.58 159.141 407.436 159.148 407.295 159.123C406.993 159.079 406.716 158.928 406.516 158.699C406.315 158.469 406.203 158.175 406.199 157.87C406.201 157.729 406.232 157.59 406.292 157.463C406.351 157.335 406.438 157.222 406.545 157.13C406.652 157.039 406.777 156.972 406.912 156.933C407.048 156.894 407.19 156.885 407.329 156.905Z" fill="url(#paint33_radial_3247_119766)"/>
<path d="M401.542 171.84C401.708 171.491 401.924 171.169 402.182 170.882C402.402 170.635 402.658 170.421 402.94 170.248C403.178 170.092 403.441 169.98 403.719 169.918C403.946 169.87 404.18 169.87 404.408 169.918C404.475 169.935 404.534 169.977 404.573 170.035C404.592 170.061 404.606 170.092 404.613 170.124C404.62 170.156 404.62 170.189 404.614 170.221C404.456 170.999 404.284 171.771 404.104 172.549C404.087 172.639 404.05 172.724 403.994 172.797C403.941 172.864 403.875 172.92 403.801 172.963C403.732 173.014 403.67 173.075 403.615 173.142C403.526 173.254 403.465 173.387 403.436 173.527C403.393 173.676 403.393 173.834 403.436 173.982C403.453 174.029 403.481 174.072 403.519 174.106C403.556 174.139 403.601 174.163 403.65 174.175C403.704 174.192 403.761 174.192 403.815 174.175C403.891 174.137 403.955 174.08 404.001 174.01C404.089 173.897 404.163 173.775 404.222 173.645C404.297 173.486 404.387 173.279 404.483 173.025C404.659 172.534 404.876 172.06 405.131 171.606C405.309 171.277 405.542 170.981 405.82 170.731C406.066 170.529 406.36 170.396 406.674 170.345C407.019 170.293 407.37 170.312 407.707 170.4C408.053 170.478 408.378 170.631 408.658 170.848C408.938 171.071 409.172 171.347 409.347 171.661C409.529 172.001 409.657 172.369 409.726 172.749C409.804 173.178 409.829 173.616 409.801 174.051L410.621 174.265C410.706 174.29 410.777 174.347 410.821 174.423C410.868 174.502 410.883 174.595 410.862 174.685C410.752 175.195 410.635 175.697 410.511 176.2C410.501 176.244 410.483 176.286 410.457 176.322C410.431 176.359 410.398 176.39 410.359 176.414C410.32 176.431 410.278 176.44 410.235 176.44C410.193 176.44 410.15 176.431 410.111 176.414L409.305 176.187C409.131 176.615 408.899 177.018 408.617 177.385C408.39 177.682 408.115 177.938 407.804 178.143C407.537 178.31 407.24 178.42 406.929 178.467C406.634 178.508 406.333 178.487 406.047 178.405C406.013 178.395 405.981 178.379 405.954 178.356C405.926 178.334 405.904 178.306 405.889 178.274C405.861 178.205 405.861 178.129 405.889 178.06C406.116 177.296 406.329 176.524 406.536 175.759C406.557 175.66 406.599 175.565 406.66 175.484L406.867 175.298C406.986 175.208 407.087 175.096 407.163 174.967C407.257 174.817 407.325 174.651 407.363 174.478C407.425 174.254 407.45 174.021 407.439 173.789C407.439 173.61 407.356 173.507 407.246 173.479C407.135 173.452 406.97 173.521 406.846 173.72C406.643 174.093 406.468 174.48 406.323 174.878C406.154 175.298 405.941 175.7 405.689 176.076C405.482 176.399 405.215 176.68 404.904 176.903C404.623 177.103 404.3 177.235 403.96 177.289C403.591 177.335 403.217 177.298 402.864 177.178C402.544 177.087 402.246 176.93 401.988 176.72C401.73 176.509 401.517 176.248 401.363 175.952C401.201 175.643 401.087 175.311 401.025 174.967C400.959 174.587 400.945 174.2 400.984 173.817L400.157 173.583C400.116 173.572 400.076 173.553 400.042 173.527C400.008 173.501 399.979 173.468 399.957 173.431C399.939 173.393 399.93 173.352 399.93 173.31C399.93 173.269 399.939 173.227 399.957 173.19C400.081 172.735 400.199 172.281 400.316 171.812C400.325 171.772 400.344 171.734 400.37 171.702C400.396 171.67 400.43 171.644 400.467 171.626C400.54 171.584 400.626 171.572 400.708 171.592L401.542 171.84Z" fill="url(#paint34_radial_3247_119766)"/>
<rect x="457" width="71" height="303" fill="url(#paint35_linear_3247_119766)"/>
<rect width="71" height="303" transform="matrix(-1 0 0 1 71 0)" fill="url(#paint36_linear_3247_119766)"/>
<rect width="71" height="528" transform="matrix(-4.37114e-08 1 1 4.37114e-08 0 233)" fill="url(#paint37_linear_3247_119766)"/>
</g>
<defs>
<radialGradient id="paint0_radial_3247_119766" cx="0" cy="0" r="1" gradientUnits="userSpaceOnUse" gradientTransform="translate(172.165 89.9727) rotate(94.25) scale(139.373 139.373)">
<stop stop-color="#89B629"/>
<stop offset="1" stop-color="#68951C"/>
</radialGradient>
<radialGradient id="paint1_radial_3247_119766" cx="0" cy="0" r="1" gradientUnits="userSpaceOnUse" gradientTransform="translate(319.764 115.621) rotate(94.0042) scale(79.1834 79.1834)">
<stop stop-color="#CCCD69"/>
<stop offset="1" stop-color="#96C200"/>
</radialGradient>
<radialGradient id="paint2_radial_3247_119766" cx="0" cy="0" r="1" gradientUnits="userSpaceOnUse" gradientTransform="translate(292.932 111.798) rotate(94.0042) scale(40.3369 40.3368)">
<stop stop-color="#89B629"/>
<stop offset="1" stop-color="#68951C"/>
</radialGradient>
<radialGradient id="paint3_radial_3247_119766" cx="0" cy="0" r="1" gradientUnits="userSpaceOnUse" gradientTransform="translate(332.19 120.591) rotate(94.0042) scale(75.9429 75.9429)">
<stop stop-color="#89B629"/>
<stop offset="1" stop-color="#68951C"/>
</radialGradient>
<radialGradient id="paint4_radial_3247_119766" cx="0" cy="0" r="1" gradientUnits="userSpaceOnUse" gradientTransform="translate(296.819 108.661) rotate(94.0042) scale(91.5756 91.5756)">
<stop stop-color="#CCCD69"/>
<stop offset="1" stop-color="#96C200"/>
</radialGradient>
<radialGradient id="paint5_radial_3247_119766" cx="0" cy="0" r="1" gradientUnits="userSpaceOnUse" gradientTransform="translate(200.04 74.5689) rotate(112.36) scale(139.383 139.383)">
<stop stop-color="#89B629"/>
<stop offset="1" stop-color="#68951C"/>
</radialGradient>
<radialGradient id="paint6_radial_3247_119766" cx="0" cy="0" r="1" gradientUnits="userSpaceOnUse" gradientTransform="translate(337.195 138.034) rotate(112.443) scale(78.6359 78.6359)">
<stop stop-color="#CCCD69"/>
<stop offset="1" stop-color="#96C200"/>
</radialGradient>
<radialGradient id="paint7_radial_3247_119766" cx="0" cy="0" r="1" gradientUnits="userSpaceOnUse" gradientTransform="translate(313.116 125.995) rotate(112.443) scale(40.0529 40.0528)">
<stop stop-color="#89B629"/>
<stop offset="1" stop-color="#68951C"/>
</radialGradient>
<radialGradient id="paint8_radial_3247_119766" cx="0" cy="0" r="1" gradientUnits="userSpaceOnUse" gradientTransform="translate(347.34 146.609) rotate(112.443) scale(75.3982 75.3982)">
<stop stop-color="#89B629"/>
<stop offset="1" stop-color="#68951C"/>
</radialGradient>
<radialGradient id="paint9_radial_3247_119766" cx="0" cy="0" r="1" gradientUnits="userSpaceOnUse" gradientTransform="translate(347.294 146.602) rotate(112.443) scale(75.3685 75.3684)">
<stop stop-color="#89B629"/>
<stop offset="1" stop-color="#68951C"/>
</radialGradient>
<radialGradient id="paint10_radial_3247_119766" cx="0" cy="0" r="1" gradientUnits="userSpaceOnUse" gradientTransform="translate(317.77 124.262) rotate(112.443) scale(90.9309 90.9308)">
<stop stop-color="#CCCD69"/>
<stop offset="1" stop-color="#96C200"/>
</radialGradient>
<radialGradient id="paint11_radial_3247_119766" cx="0" cy="0" r="1" gradientUnits="userSpaceOnUse" gradientTransform="translate(50.4665 193.739) rotate(68.9625) scale(107.51 121.057)">
<stop stop-color="#89B629"/>
<stop offset="1" stop-color="#68951C"/>
</radialGradient>
<radialGradient id="paint12_radial_3247_119766" cx="0" cy="0" r="1" gradientUnits="userSpaceOnUse" gradientTransform="translate(167.897 157.177) rotate(68.9625) scale(57.8432 65.1315)">
<stop stop-color="#CCCD69"/>
<stop offset="1" stop-color="#96C200"/>
</radialGradient>
<radialGradient id="paint13_radial_3247_119766" cx="0" cy="0" r="1" gradientUnits="userSpaceOnUse" gradientTransform="translate(136.514 162.244) rotate(68.9625) scale(23.7955 26.7938)">
<stop stop-color="#89B629"/>
<stop offset="1" stop-color="#68951C"/>
</radialGradient>
<radialGradient id="paint14_radial_3247_119766" cx="0" cy="0" r="1" gradientUnits="userSpaceOnUse" gradientTransform="translate(161.414 155.713) rotate(68.9626) scale(42.6511 48.0253)">
<stop stop-color="#89B629"/>
<stop offset="1" stop-color="#68951C"/>
</radialGradient>
<radialGradient id="paint15_radial_3247_119766" cx="0" cy="0" r="1" gradientUnits="userSpaceOnUse" gradientTransform="translate(166.835 154.253) rotate(68.9626) scale(47.878 53.9108)">
<stop stop-color="#89B629"/>
<stop offset="1" stop-color="#68951C"/>
</radialGradient>
<radialGradient id="paint16_radial_3247_119766" cx="0" cy="0" r="1" gradientUnits="userSpaceOnUse" gradientTransform="translate(137.91 158.857) rotate(68.9625) scale(53.8803 60.6693)">
<stop stop-color="#CCCD69"/>
<stop offset="1" stop-color="#96C200"/>
</radialGradient>
<radialGradient id="paint17_radial_3247_119766" cx="0" cy="0" r="1" gradientUnits="userSpaceOnUse" gradientTransform="translate(195.486 101.873) rotate(-25.0963) scale(89.9421 103.333)">
<stop stop-color="#89B629"/>
<stop offset="1" stop-color="#68951C"/>
</radialGradient>
<radialGradient id="paint18_radial_3247_119766" cx="0" cy="0" r="1" gradientUnits="userSpaceOnUse" gradientTransform="translate(160.158 6.22766) rotate(-25.0962) scale(47.3177 54.3625)">
<stop stop-color="#CCCD69"/>
<stop offset="1" stop-color="#96C200"/>
</radialGradient>
<radialGradient id="paint19_radial_3247_119766" cx="0" cy="0" r="1" gradientUnits="userSpaceOnUse" gradientTransform="translate(170.027 22.4637) rotate(-25.0963) scale(19.5124 22.4175)">
<stop stop-color="#89B629"/>
<stop offset="1" stop-color="#68951C"/>
</radialGradient>
<radialGradient id="paint20_radial_3247_119766" cx="0" cy="0" r="1" gradientUnits="userSpaceOnUse" gradientTransform="translate(164.941 -1.21307) rotate(-25.0963) scale(39.77 45.6912)">
<stop stop-color="#89B629"/>
<stop offset="1" stop-color="#68951C"/>
</radialGradient>
<radialGradient id="paint21_radial_3247_119766" cx="0" cy="0" r="1" gradientUnits="userSpaceOnUse" gradientTransform="translate(165.5 3.46584) rotate(-25.0963) scale(35.4913 40.7754)">
<stop stop-color="#89B629"/>
<stop offset="1" stop-color="#68951C"/>
</radialGradient>
<radialGradient id="paint22_radial_3247_119766" cx="0" cy="0" r="1" gradientUnits="userSpaceOnUse" gradientTransform="translate(167.372 21.2207) rotate(-25.0963) scale(44.1147 50.6827)">
<stop stop-color="#CCCD69"/>
<stop offset="1" stop-color="#96C200"/>
</radialGradient>
<radialGradient id="paint23_radial_3247_119766" cx="0" cy="0" r="1" gradientUnits="userSpaceOnUse" gradientTransform="translate(308.926 93.0681) rotate(49.9037) scale(89.9421 103.333)">
<stop stop-color="#89B629"/>
<stop offset="1" stop-color="#68951C"/>
</radialGradient>
<radialGradient id="paint24_radial_3247_119766" cx="0" cy="0" r="1" gradientUnits="userSpaceOnUse" gradientTransform="translate(392.169 34.1898) rotate(49.9038) scale(47.3177 54.3625)">
<stop stop-color="#CCCD69"/>
<stop offset="1" stop-color="#96C200"/>
</radialGradient>
<radialGradient id="paint25_radial_3247_119766" cx="0" cy="0" r="1" gradientUnits="userSpaceOnUse" gradientTransform="translate(379.035 47.9224) rotate(49.9037) scale(19.5124 22.4175)">
<stop stop-color="#89B629"/>
<stop offset="1" stop-color="#68951C"/>
</radialGradient>
<radialGradient id="paint26_radial_3247_119766" cx="0" cy="0" r="1" gradientUnits="userSpaceOnUse" gradientTransform="translate(400.592 36.8831) rotate(49.9037) scale(39.77 45.6912)">
<stop stop-color="#89B629"/>
<stop offset="1" stop-color="#68951C"/>
</radialGradient>
<radialGradient id="paint27_radial_3247_119766" cx="0" cy="0" r="1" gradientUnits="userSpaceOnUse" gradientTransform="translate(396.221 38.6325) rotate(49.9037) scale(35.4913 40.7754)">
<stop stop-color="#89B629"/>
<stop offset="1" stop-color="#68951C"/>
</radialGradient>
<radialGradient id="paint28_radial_3247_119766" cx="0" cy="0" r="1" gradientUnits="userSpaceOnUse" gradientTransform="translate(379.555 45.0382) rotate(49.9037) scale(44.1147 50.6827)">
<stop stop-color="#CCCD69"/>
<stop offset="1" stop-color="#96C200"/>
</radialGradient>
<radialGradient id="paint29_radial_3247_119766" cx="0" cy="0" r="1" gradientUnits="userSpaceOnUse" gradientTransform="translate(464.882 201.132) rotate(-75.9638) scale(95.988 122.734)">
<stop stop-color="#89B629"/>
<stop offset="1" stop-color="#68951C"/>
</radialGradient>
<radialGradient id="paint30_radial_3247_119766" cx="0" cy="0" r="1" gradientUnits="userSpaceOnUse" gradientTransform="translate(351.633 163.202) rotate(-75.9638) scale(50.5978 64.6963)">
<stop stop-color="#CCCD69"/>
<stop offset="1" stop-color="#96C200"/>
</radialGradient>
<radialGradient id="paint31_radial_3247_119766" cx="0" cy="0" r="1" gradientUnits="userSpaceOnUse" gradientTransform="translate(382.117 168.354) rotate(-75.9638) scale(20.3773 26.0552)">
<stop stop-color="#89B629"/>
<stop offset="1" stop-color="#68951C"/>
</radialGradient>
<radialGradient id="paint32_radial_3247_119766" cx="0" cy="0" r="1" gradientUnits="userSpaceOnUse" gradientTransform="translate(354.87 155.921) rotate(-75.9638) scale(41.4832 53.0418)">
<stop stop-color="#89B629"/>
<stop offset="1" stop-color="#68951C"/>
</radialGradient>
<radialGradient id="paint33_radial_3247_119766" cx="0" cy="0" r="1" gradientUnits="userSpaceOnUse" gradientTransform="translate(358.733 157.859) rotate(-75.9637) scale(36.7827 47.0318)">
<stop stop-color="#89B629"/>
<stop offset="1" stop-color="#68951C"/>
</radialGradient>
<radialGradient id="paint34_radial_3247_119766" cx="0" cy="0" r="1" gradientUnits="userSpaceOnUse" gradientTransform="translate(379.347 169.742) rotate(-75.9638) scale(45.9568 58.7621)">
<stop stop-color="#CCCD69"/>
<stop offset="1" stop-color="#96C200"/>
</radialGradient>
<linearGradient id="paint35_linear_3247_119766" x1="528" y1="151.5" x2="457" y2="151.5" gradientUnits="userSpaceOnUse">
<stop/>
<stop offset="1" stop-opacity="0"/>
</linearGradient>
<linearGradient id="paint36_linear_3247_119766" x1="71" y1="151.5" x2="0" y2="151.5" gradientUnits="userSpaceOnUse">
<stop/>
<stop offset="1" stop-opacity="0"/>
</linearGradient>
<linearGradient id="paint37_linear_3247_119766" x1="71" y1="264" x2="0" y2="264" gradientUnits="userSpaceOnUse">
<stop/>
<stop offset="1" stop-opacity="0"/>
</linearGradient>
<clipPath id="clip0_3247_119766">
<rect width="527.636" height="303.73" fill="white"/>
</clipPath>
<clipPath id="clip1_3247_119766">
<rect width="133.988" height="265.323" fill="white" transform="translate(192.949 30.1318)"/>
</clipPath>
</defs>
</svg>
