<svg width="37" height="36" viewBox="0 0 37 36" fill="none" xmlns="http://www.w3.org/2000/svg">
<g clip-path="url(#clip0_3239_22246)">
<path opacity="0.988" fill-rule="evenodd" clip-rule="evenodd" d="M36.2014 11.0635C36.2014 11.8468 36.2014 12.6302 36.2014 13.4135C35.9023 15.5786 35.0383 17.4909 33.6094 19.1504C28.7365 24.0233 23.8637 28.8961 18.9908 33.769C18.6682 33.9994 18.3457 33.9994 18.0231 33.769C13.1502 28.8961 8.27734 24.0233 3.40446 19.1504C1.97599 17.4916 1.112 15.5793 0.8125 13.4135C0.8125 12.6302 0.8125 11.8468 0.8125 11.0635C1.43514 7.0429 3.62391 4.24358 7.3788 2.6655C11.6007 1.29625 15.31 2.13719 18.5069 5.18834C21.7038 2.13723 25.4131 1.29629 29.6351 2.6655C33.39 4.24358 35.5788 7.0429 36.2014 11.0635ZM13.1157 9.12812C13.4493 9.1736 13.6681 9.35787 13.7723 9.68107C13.7749 11.0218 13.821 12.3581 13.9105 13.69C14.5099 14.528 15.2357 14.6547 16.0878 14.0701C16.2175 13.9145 16.3212 13.7417 16.3988 13.5517C16.4218 12.3076 16.4449 11.0635 16.4679 9.81931C16.6025 9.22793 16.9366 9.05513 17.4702 9.30092C17.5532 9.36333 17.6108 9.44393 17.643 9.54284C17.7089 10.9979 17.6859 12.4494 17.5738 13.8973C17.2343 14.7556 16.6237 15.3085 15.7422 15.5562C15.7537 18.0676 15.7422 20.5789 15.7076 23.0901C15.4975 23.4957 15.1865 23.5994 14.7745 23.4012C14.6372 23.31 14.5565 23.1833 14.5326 23.021C14.498 20.5329 14.4865 18.0446 14.498 15.5562C13.4762 15.26 12.8426 14.5918 12.5973 13.5517C12.5512 12.2155 12.5512 10.8791 12.5973 9.54284C12.7153 9.32926 12.8881 9.19102 13.1157 9.12812ZM21.8247 9.12812C22.9991 9.26083 23.794 9.8829 24.2093 10.9943C24.7275 12.5027 24.4626 13.8505 23.4144 15.0378C23.1431 15.2403 22.8551 15.4131 22.5504 15.5562C22.5274 18.0445 22.5043 20.5327 22.4813 23.021C22.3092 23.4814 21.9981 23.6081 21.5482 23.4012C21.4411 23.3173 21.3605 23.2136 21.3063 23.0901C21.2832 20.5788 21.2602 18.0675 21.2371 15.5562C20.2988 15.1334 19.6997 14.4192 19.4401 13.4135C19.135 12.1696 19.3653 11.0406 20.1312 10.0267C20.5916 9.51443 21.1561 9.21494 21.8247 9.12812ZM14.8436 9.19724C15.2542 9.09833 15.5422 9.23657 15.7076 9.61195C15.7537 10.5796 15.7537 11.5473 15.7076 12.5149C15.4975 12.9205 15.1865 13.0242 14.7745 12.826C14.6372 12.7348 14.5565 12.6081 14.5326 12.4458C14.4865 11.5012 14.4865 10.5566 14.5326 9.61195C14.6247 9.46266 14.7284 9.32442 14.8436 9.19724Z" fill="white"/>
<path opacity="0.951" fill-rule="evenodd" clip-rule="evenodd" d="M21.8222 10.375C22.4998 10.4878 22.9259 10.8795 23.1009 11.55C23.3928 12.554 23.197 13.441 22.5134 14.2111C21.9073 14.5858 21.3889 14.4821 20.9583 13.9001C20.4514 12.9094 20.4514 11.9186 20.9583 10.928C21.1917 10.645 21.4798 10.4606 21.8222 10.375Z" fill="white"/>
</g>
<defs>
<clipPath id="clip0_3239_22246">
<rect width="35.3889" height="35.3889" fill="white" transform="translate(0.84375 0.318359)"/>
</clipPath>
</defs>
</svg>
