<svg width="52" height="52" viewBox="0 0 52 52" fill="none" xmlns="http://www.w3.org/2000/svg">
<g opacity="0.5" clip-path="url(#clip0_3247_105446)">
<path opacity="0.93" fill-rule="evenodd" clip-rule="evenodd" d="M25.5391 1.57632C26.6129 1.54488 27.5607 1.86648 28.3829 2.54116C31.3819 5.50648 34.4119 8.43486 37.4727 11.3263C37.5066 10.3445 37.5405 9.36278 37.5743 8.38101C38.1421 6.20954 39.5472 5.0585 41.7891 4.92788C43.7833 4.98475 45.1544 5.93267 45.9024 7.77163C45.9959 8.03583 46.0636 8.30665 46.1055 8.58413C46.1394 12.2742 46.1733 15.9644 46.2071 19.6544C47.66 21.0056 49.0818 22.3937 50.4727 23.8185C51.5983 25.842 51.2428 27.5517 49.4063 28.9474C48.379 29.4794 47.3296 29.5302 46.2579 29.0998C46.1563 35.6333 46.1225 42.1671 46.1563 48.7013C47.714 48.6844 49.2713 48.7013 50.8282 48.7521C51.4203 49.3621 51.3526 49.8699 50.6251 50.2755C34.172 50.3433 17.7188 50.3433 1.26571 50.2755C0.538169 49.8699 0.470461 49.3621 1.06259 48.7521C2.61951 48.7013 4.1768 48.6844 5.73446 48.7013C5.71754 45.4173 5.73446 42.1335 5.78524 38.8498C6.09128 38.3384 6.51445 38.2199 7.05477 38.4943C7.17679 38.586 7.26143 38.7044 7.30868 38.8498C7.35946 42.1335 7.37638 45.4173 7.35946 48.7013C9.96623 48.7013 12.573 48.7013 15.1798 48.7013C15.1628 46.5682 15.1798 44.4354 15.2306 42.3029C16.0632 39.5228 17.9421 38.2701 20.8673 38.5451C21.4428 38.562 22.0183 38.5789 22.5938 38.5959C22.9607 38.7115 23.2993 38.8808 23.6095 39.1037C24.4007 40.2968 25.1794 41.4987 25.9454 42.7091C26.6987 41.5753 27.4265 40.4242 28.129 39.256C28.3736 39.0066 28.6613 38.8204 28.9923 38.6974C30.2376 38.5343 31.4903 38.5005 32.7501 38.5959C34.846 38.9993 36.1495 40.2349 36.6602 42.3029C36.711 44.4354 36.728 46.5682 36.711 48.7013C39.3178 48.7013 41.9245 48.7013 44.5313 48.7013C44.5483 41.7273 44.5313 34.7533 44.4805 27.7794C38.3484 21.7994 32.17 15.875 25.9454 10.006C19.7208 15.875 13.5424 21.7994 7.41024 27.7794C7.37639 30.1154 7.34253 32.4513 7.30868 34.7873C6.99677 35.2747 6.57359 35.3931 6.03915 35.1427C5.91713 35.051 5.83249 34.9326 5.78524 34.7873C5.76828 32.8905 5.7175 30.9947 5.6329 29.0998C3.58658 29.7551 2.04622 29.1458 1.0118 27.2716C0.587084 26.0523 0.7225 24.9013 1.41805 23.8185C6.54696 18.8927 11.6759 13.9669 16.8048 9.04116C17.8274 8.91235 18.1829 9.33553 17.8712 10.3107C12.8269 15.1519 7.78264 19.993 2.73837 24.8341C2.17335 25.8212 2.3257 26.6845 3.1954 27.424C3.90633 27.898 4.61727 27.898 5.32821 27.424C12.0313 20.9917 18.7345 14.5594 25.4376 8.1271C25.7761 7.92397 26.1147 7.92397 26.4532 8.1271C33.1563 14.5594 39.8595 20.9917 46.5626 27.424C47.5448 27.9614 48.4081 27.8091 49.1524 26.9669C49.6264 26.256 49.6264 25.5451 49.1524 24.8341C41.7861 17.7046 34.389 10.6122 26.961 3.55679C26.0813 3.0651 25.2688 3.16667 24.5235 3.86148C23.3696 5.0494 22.1846 6.20044 20.9688 7.3146C20.4789 7.56302 20.0557 7.47839 19.6993 7.06069C19.6191 6.7424 19.6529 6.43771 19.8009 6.14663C21.0675 4.98168 22.3032 3.77986 23.5079 2.54116C24.1051 2.03275 24.7822 1.71113 25.5391 1.57632ZM41.3829 6.55288C42.8022 6.47532 43.8009 7.08469 44.379 8.38101C44.5452 11.5923 44.5791 14.8085 44.4805 18.0294C42.7202 16.3367 40.9597 14.6441 39.1993 12.9513C39.1043 11.3885 39.1382 9.8312 39.3009 8.27944C39.7337 7.37895 40.4277 6.80343 41.3829 6.55288ZM19.3438 40.1701C20.3648 40.1388 21.3805 40.1726 22.3907 40.2716C23.1778 41.4733 23.9395 42.6921 24.6759 43.9279C25.5222 44.7404 26.3686 44.7404 27.2149 43.9279C27.9428 42.7261 28.6706 41.5242 29.3985 40.3224C30.4379 40.1582 31.4874 40.1244 32.547 40.2209C33.8737 40.4981 34.7031 41.2937 35.0352 42.6076C35.086 44.6385 35.103 46.6698 35.086 48.7013C28.9923 48.7013 22.8985 48.7013 16.8048 48.7013C16.7586 46.5292 16.8093 44.3626 16.9571 42.2013C17.4019 41.0954 18.1974 40.4183 19.3438 40.1701Z" fill="#838383"/>
<path opacity="0.926" fill-rule="evenodd" clip-rule="evenodd" d="M24.9289 23.5129C28.0481 23.2524 30.3671 24.4712 31.8859 27.1692C33.1001 30.1491 32.5753 32.7729 30.3117 35.0403C28.2234 36.6832 25.9213 37.0556 23.4055 36.1575C20.1396 34.5174 18.8701 31.8938 19.5969 28.2864C20.4729 25.6754 22.2502 24.0843 24.9289 23.5129ZM25.2336 25.1379C24.567 25.2987 23.9239 25.5526 23.3039 25.8996C20.9345 27.7099 20.4098 29.9611 21.7297 32.6535C23.1777 34.7048 25.1243 35.3988 27.5695 34.7356C30.2978 33.4768 31.3134 31.3778 30.6164 28.4387C29.5997 26.1009 27.8054 25.0007 25.2336 25.1379Z" fill="#838383"/>
</g>
<defs>
<clipPath id="clip0_3247_105446">
<rect width="52" height="52" fill="white"/>
</clipPath>
</defs>
</svg>
