<svg width="52" height="52" viewBox="0 0 52 52" fill="none" xmlns="http://www.w3.org/2000/svg">
<g opacity="0.5" clip-path="url(#clip0_3247_105447)">
<path opacity="0.948" fill-rule="evenodd" clip-rule="evenodd" d="M12.0391 -0.0507812C21.3151 -0.0507812 30.5912 -0.0507812 39.8672 -0.0507812C41.7003 0.44464 42.936 1.59568 43.5742 3.40234C43.7067 6.64751 43.7744 9.89751 43.7773 13.1523C45.3784 14.2145 46.3264 15.7041 46.6211 17.6211C46.6888 19.5846 46.6888 21.5482 46.6211 23.5117C46.321 23.8953 45.9317 24.0137 45.4531 23.8672C45.2958 23.7439 45.1774 23.5915 45.0977 23.4102C45.0638 21.5482 45.0299 19.6862 44.9961 17.8242C44.5979 15.8915 43.4637 14.622 41.5938 14.0156C36.3839 13.8982 31.1704 13.8474 25.9531 13.8633C20.7359 13.8474 15.5224 13.8982 10.3125 14.0156C8.60287 14.5065 7.5026 15.6068 7.01172 17.3164C6.8784 22.9663 6.81069 28.6199 6.8086 34.2773C6.56126 34.7571 6.17194 34.9095 5.64063 34.7344C5.48333 34.6111 5.36483 34.4587 5.28516 34.2773C5.21745 28.7252 5.21745 23.1732 5.28516 17.6211C5.57994 15.7041 6.52786 14.2145 8.12891 13.1523C8.16276 10.0378 8.19662 6.92318 8.23047 3.80859C8.77371 1.79276 10.0432 0.506306 12.0391 -0.0507812ZM13.0547 1.47266C21.6537 1.45573 30.2527 1.47266 38.8516 1.52344C40.5249 1.63965 41.5913 2.50293 42.0508 4.11328C42.1354 6.88994 42.1185 9.66599 42 12.4414C41.7688 12.369 41.5319 12.3182 41.2891 12.2891C31.0651 12.2213 20.8412 12.2213 10.6172 12.2891C10.3744 12.3182 10.1374 12.369 9.90625 12.4414C9.78778 9.63213 9.77085 6.82223 9.85547 4.01172C10.386 2.47074 11.4524 1.62439 13.0547 1.47266Z" fill="#838383"/>
<path opacity="0.93" fill-rule="evenodd" clip-rule="evenodd" d="M12.2422 3.19609C12.7277 3.10883 13.0832 3.2781 13.3086 3.7039C13.3594 4.44793 13.3763 5.19271 13.3594 5.93827C14.1381 5.93827 14.9167 5.93827 15.6953 5.93827C15.6546 5.11712 15.7054 4.30462 15.8477 3.50077C16.3508 3.07658 16.8247 3.11044 17.2696 3.60234C17.3373 5.769 17.3373 7.93567 17.2696 10.1023C16.878 10.695 16.404 10.7627 15.8477 10.3055C15.7041 9.39975 15.6533 8.48569 15.6953 7.56327C14.9167 7.56327 14.1381 7.56327 13.3594 7.56327C13.4014 8.48569 13.3507 9.39975 13.2071 10.3055C12.6507 10.7627 12.1767 10.695 11.7852 10.1023C11.7174 7.96952 11.7174 5.83671 11.7852 3.7039C11.8893 3.48178 12.0416 3.31252 12.2422 3.19609Z" fill="#838383"/>
<path opacity="0.924" fill-rule="evenodd" clip-rule="evenodd" d="M21.1827 3.19799C23.5492 3.06773 24.988 4.15107 25.4991 6.44798C25.5651 8.70375 24.4987 10.0748 22.2999 10.5613C20.1437 10.7067 18.7726 9.74181 18.1866 7.66674C17.949 5.32847 18.9477 3.8389 21.1827 3.19799ZM21.3858 4.82299C20.8745 4.9873 20.4513 5.29199 20.1163 5.73705C19.4177 7.30197 19.8748 8.36838 21.4874 8.93627C22.9114 9.00243 23.7239 8.32535 23.9249 6.90502C23.7027 5.44703 22.8563 4.75302 21.3858 4.82299Z" fill="#838383"/>
<path opacity="0.921" fill-rule="evenodd" clip-rule="evenodd" d="M26.0485 3.19664C27.4127 3.14962 28.7669 3.2004 30.111 3.34899C30.5487 3.89944 30.4809 4.3734 29.9079 4.77086C29.537 4.8215 29.1647 4.83843 28.7907 4.82164C28.8077 6.58238 28.7907 8.34281 28.7399 10.1029C28.4262 10.5909 28.003 10.7094 27.4704 10.4584C27.3484 10.3667 27.2637 10.2482 27.2165 10.1029C27.1657 8.34281 27.1488 6.58238 27.1657 4.82164C26.7918 4.83843 26.4194 4.8215 26.0485 4.77086C25.3797 4.24677 25.3797 3.72204 26.0485 3.19664Z" fill="#838383"/>
<path opacity="0.922" fill-rule="evenodd" clip-rule="evenodd" d="M37.0235 3.19821C37.4605 3.12673 37.816 3.26214 38.0899 3.60446C38.1407 5.39841 38.1576 7.19268 38.1407 8.98727C38.6834 8.97041 39.225 8.98733 39.7657 9.03805C40.1427 9.30231 40.2611 9.65778 40.1211 10.1045C40.0365 10.3245 39.8842 10.4769 39.6641 10.5615C38.8178 10.6292 37.9713 10.6292 37.125 10.5615C36.8373 10.4769 36.651 10.2906 36.5664 10.0029C36.4987 7.9378 36.4987 5.87268 36.5664 3.80758C36.6273 3.52786 36.7796 3.32474 37.0235 3.19821Z" fill="#838383"/>
<path opacity="0.943" fill-rule="evenodd" clip-rule="evenodd" d="M31.8438 3.29931C32.9277 3.2824 34.011 3.29933 35.0938 3.35009C35.4931 3.83123 35.4931 4.30519 35.0938 4.77196C34.4176 4.8227 33.7405 4.83963 33.0625 4.82274C33.0625 5.26284 33.0625 5.70296 33.0625 6.14306C33.639 6.12619 34.2145 6.14312 34.7891 6.19384C35.4917 6.73928 35.4578 7.24709 34.6875 7.71727C34.1469 7.76799 33.6053 7.78492 33.0625 7.76806C33.0625 8.17431 33.0625 8.58056 33.0625 8.98681C33.7066 8.96993 34.3498 8.98686 34.9922 9.03759C35.1784 9.08837 35.2969 9.20686 35.3477 9.39306C35.5228 9.92437 35.3704 10.3137 34.8907 10.561C33.9088 10.6288 32.9271 10.6288 31.9453 10.561C31.7639 10.4813 31.6116 10.3629 31.4883 10.2056C31.4206 8.03889 31.4206 5.87222 31.4883 3.70556C31.5584 3.51765 31.6768 3.38222 31.8438 3.29931Z" fill="#838383"/>
<path opacity="0.932" fill-rule="evenodd" clip-rule="evenodd" d="M11.7381 18.1275C12.8896 18.1105 14.0407 18.1275 15.1912 18.1782C16.0781 18.444 16.7043 19.0026 17.0701 19.854C17.2342 21.8122 17.2682 23.7759 17.1717 25.7446C16.9447 26.6828 16.3861 27.3429 15.4959 27.7251C14.1418 27.9282 12.7875 27.9282 11.4334 27.7251C10.6717 27.4374 10.1469 26.9126 9.85919 26.1509C9.69366 24.1601 9.65981 22.1627 9.75762 20.1587C10.03 19.0909 10.6902 18.4138 11.7381 18.1275ZM12.0428 19.7525C12.9913 19.7356 13.9393 19.7525 14.8865 19.8032C15.1743 19.9556 15.3943 20.1757 15.5467 20.4634C15.6144 22.1561 15.6144 23.8488 15.5467 25.5415C15.4327 25.7572 15.2804 25.9434 15.0897 26.1001C14.0815 26.2616 13.0659 26.2954 12.0428 26.2017C11.7551 26.0493 11.535 25.8292 11.3826 25.5415C11.3149 23.8488 11.3149 22.1561 11.3826 20.4634C11.5274 20.1479 11.7474 19.9109 12.0428 19.7525Z" fill="#838383"/>
<path opacity="0.932" fill-rule="evenodd" clip-rule="evenodd" d="M24.2303 18.1275C25.3818 18.1105 26.5329 18.1275 27.6834 18.1782C28.7498 18.4321 29.41 19.0923 29.6639 20.1587C29.7316 22.0546 29.7316 23.9503 29.6639 25.8462C28.9931 27.5111 27.7573 28.1881 25.9568 27.8775C24.3135 28.1811 23.1116 27.6057 22.3514 26.1509C22.1858 24.1601 22.152 22.1627 22.2498 20.1587C22.5222 19.0909 23.1824 18.4138 24.2303 18.1275ZM24.535 19.7525C25.4835 19.7356 26.4314 19.7525 27.3787 19.8032C27.6664 19.9556 27.8865 20.1757 28.0389 20.4634C28.1066 22.1561 28.1066 23.8488 28.0389 25.5415C27.8865 25.8292 27.6664 26.0493 27.3787 26.2017C26.4308 26.2694 25.4829 26.2694 24.535 26.2017C24.2472 26.0493 24.0272 25.8292 23.8748 25.5415C23.8071 23.8488 23.8071 22.1561 23.8748 20.4634C24.0469 20.1731 24.2669 19.9362 24.535 19.7525Z" fill="#838383"/>
<path opacity="0.932" fill-rule="evenodd" clip-rule="evenodd" d="M36.7216 18.1275C37.8731 18.1105 39.0242 18.1275 40.1747 18.1782C41.2411 18.4321 41.9013 19.0923 42.1552 20.1587C42.2229 22.0546 42.2229 23.9503 42.1552 25.8462C41.8894 26.733 41.3308 27.3593 40.4794 27.7251C39.1253 27.9282 37.771 27.9282 36.4169 27.7251C35.689 27.4035 35.1643 26.8788 34.8427 26.1509C34.6785 24.1587 34.6445 22.1613 34.7411 20.1587C35.0502 19.122 35.7103 18.4448 36.7216 18.1275ZM37.0263 19.7525C37.9748 19.7356 38.9228 19.7525 39.87 19.8032C40.1578 19.9556 40.3778 20.1757 40.5302 20.4634C40.5979 22.1561 40.5979 23.8488 40.5302 25.5415C40.3778 25.8292 40.1578 26.0493 39.87 26.2017C38.9221 26.2694 37.9742 26.2694 37.0263 26.2017C36.7386 26.0493 36.5185 25.8292 36.3661 25.5415C36.2984 23.8488 36.2984 22.1561 36.3661 20.4634C36.5382 20.1731 36.7583 19.9362 37.0263 19.7525Z" fill="#838383"/>
<path opacity="0.954" fill-rule="evenodd" clip-rule="evenodd" d="M47.5859 51.9488C33.1641 51.9488 18.7422 51.9488 4.32031 51.9488C3.36399 51.6522 2.77155 51.009 2.54297 50.0191C2.47526 48.9696 2.47526 47.9201 2.54297 46.8706C2.83827 45.3734 3.70156 44.3578 5.13281 43.8238C5.21743 41.4547 5.26821 39.0849 5.28516 36.7144C5.79297 36.0373 6.30078 36.0373 6.8086 36.7144C6.85938 39.0162 6.8763 41.3183 6.85938 43.6207C11.2604 43.6207 15.6615 43.6207 20.0625 43.6207C20.0455 40.4382 20.0625 37.2559 20.1133 34.0738C20.3652 32.8768 21.0592 32.0473 22.1953 31.5855C23.4425 31.4711 24.6951 31.4204 25.9531 31.4332C27.2112 31.4204 28.4638 31.4711 29.7109 31.5855C30.847 32.0473 31.5411 32.8768 31.793 34.0738C31.8438 37.2559 31.8607 40.4382 31.8438 43.6207C36.2448 43.6207 40.6459 43.6207 45.0469 43.6207C45.0299 37.7299 45.0469 31.8393 45.0977 25.9488C45.2062 25.5643 45.4601 25.395 45.8594 25.441C46.208 25.4037 46.4619 25.5391 46.6211 25.8472C46.6381 31.8397 46.6888 37.8319 46.7734 43.8238C48.2047 44.3578 49.0679 45.3734 49.3633 46.8706C49.431 47.9201 49.431 48.9696 49.3633 50.0191C49.1347 51.009 48.5423 51.6522 47.5859 51.9488ZM23.4141 32.9566C25.1071 32.9396 26.7999 32.9566 28.4922 33.0074C29.3215 33.0748 29.8801 33.498 30.168 34.2769C30.2188 37.3913 30.2357 40.5059 30.2188 43.6207C27.375 43.6207 24.5312 43.6207 21.6875 43.6207C21.6705 40.5059 21.6875 37.3913 21.7383 34.2769C22.051 33.505 22.6096 33.065 23.4141 32.9566ZM5.94531 45.2456C19.2839 45.2287 32.6224 45.2456 45.9609 45.2964C46.8946 45.553 47.487 46.1455 47.7383 47.0738C47.806 47.954 47.806 48.8342 47.7383 49.7144C47.5728 50.0934 47.2851 50.3135 46.875 50.3746C32.9271 50.4423 18.9791 50.4423 5.03125 50.3746C4.62118 50.3135 4.33343 50.0934 4.16797 49.7144C4.10026 48.8342 4.10026 47.954 4.16797 47.0738C4.4378 46.1439 5.03026 45.5345 5.94531 45.2456Z" fill="#838383"/>
<path opacity="0.938" fill-rule="evenodd" clip-rule="evenodd" d="M11.6365 31.4321C12.8558 31.4152 14.0745 31.4321 15.2928 31.4829C16.3017 31.7808 16.9279 32.441 17.1717 33.4634C17.2394 35.3253 17.2394 37.1874 17.1717 39.0493C16.8474 40.2879 16.0519 40.982 14.785 41.1314C13.6971 41.2171 12.6138 41.1833 11.535 41.0298C10.7484 40.7511 10.1898 40.2263 9.85919 39.4556C9.69366 37.4648 9.65981 35.4674 9.75762 33.4634C10.0194 32.4402 10.6457 31.7631 11.6365 31.4321ZM12.3475 32.9556C13.2346 32.9174 14.1149 32.9682 14.9881 33.1079C15.2807 33.235 15.4669 33.455 15.5467 33.7681C15.6144 35.4269 15.6144 37.0858 15.5467 38.7446C15.4669 39.0578 15.2807 39.2777 14.9881 39.4048C14.0817 39.5653 13.1677 39.5991 12.2459 39.5064C11.8398 39.4385 11.552 39.2184 11.3826 38.8462C11.3149 37.1196 11.3149 35.3931 11.3826 33.6665C11.5945 33.2659 11.9161 33.0288 12.3475 32.9556Z" fill="#838383"/>
<path opacity="0.938" fill-rule="evenodd" clip-rule="evenodd" d="M36.6172 31.4321C37.8365 31.4152 39.0552 31.4321 40.2735 31.4829C41.1206 31.7207 41.713 32.2454 42.0508 33.0571C42.215 35.0493 42.249 37.0467 42.1524 39.0493C41.9656 39.9132 41.4747 40.5396 40.6797 40.9282C39.3003 41.2248 37.9123 41.2586 36.5157 41.0298C35.5648 40.6886 34.9724 40.0284 34.7383 39.0493C34.6706 37.1874 34.6706 35.3253 34.7383 33.4634C35.001 32.4393 35.6273 31.7622 36.6172 31.4321ZM37.3282 32.9556C36.8467 33.0208 36.5251 33.2915 36.3633 33.7681C36.2956 35.4269 36.2956 37.0858 36.3633 38.7446C36.4923 39.1783 36.7801 39.4322 37.2266 39.5064C38.1484 39.5991 39.0624 39.5653 39.9688 39.4048C40.2227 39.2863 40.4088 39.1001 40.5274 38.8462C40.5951 37.1196 40.5951 35.3931 40.5274 33.6665C40.3377 33.2581 40.016 33.0382 39.5625 33.0064C38.8185 32.9556 38.0737 32.9387 37.3282 32.9556Z" fill="#838383"/>
</g>
<defs>
<clipPath id="clip0_3247_105447">
<rect width="52" height="52" fill="white"/>
</clipPath>
</defs>
</svg>
