<svg width="14" height="11" viewBox="0 0 14 11" fill="none" xmlns="http://www.w3.org/2000/svg">
<g clip-path="url(#clip0_3247_113734)">
<path d="M3.20157 10.2902V5.07986L1.58571 3.60159L0.136719 2.78125V9.37067C0.136719 9.87943 0.548916 10.2902 1.0562 10.2902H3.20157Z" fill="#4285F4"/>
<path d="M10.5586 10.2901H12.704C13.2128 10.2901 13.6234 9.87785 13.6234 9.37062V2.78125L11.9822 3.72085L10.5586 5.07981V10.2901Z" fill="#34A853"/>
<path d="M3.20034 5.07412L2.98047 3.03831L3.20034 1.08984L6.87815 3.84822L10.556 1.08984L10.8019 2.93312L10.556 5.07412L6.87815 7.8325L3.20034 5.07412Z" fill="#EA4335"/>
<path d="M10.5586 1.09001V5.07429L13.6234 2.77568V1.54972C13.6234 0.41269 12.3255 -0.235501 11.4168 0.446403L10.5586 1.09001Z" fill="#FBBC04"/>
<path d="M0.136719 2.7757L1.5463 3.83293L3.20157 5.07432V1.09004L2.34336 0.446427C1.4331 -0.235529 0.136719 0.412714 0.136719 1.5497V2.7757Z" fill="#C5221F"/>
</g>
<defs>
<clipPath id="clip0_3247_113734">
<rect width="13.4853" height="10.1667" fill="white" transform="translate(0.136719 0.167969)"/>
</clipPath>
</defs>
</svg>
