<svg width="528" height="304" viewBox="0 0 528 304" fill="none" xmlns="http://www.w3.org/2000/svg">
<g clip-path="url(#clip0_3247_118429)">
<path opacity="0.08" d="M415.778 151.964C415.778 235.889 347.743 303.917 263.819 303.917C179.895 303.917 111.859 235.889 111.859 151.964C111.859 68.0393 179.893 -0.00195312 263.819 -0.00195312C347.744 -0.00195312 415.778 68.0393 415.778 151.964Z" fill="white"/>
<g opacity="0.4" clip-path="url(#clip1_3247_118429)">
<path d="M326.941 44.5471V283.25C326.941 289.997 321.888 295.455 315.656 295.455H204.253C198.006 295.455 192.953 289.997 192.953 283.25V44.5471C192.953 30.8021 198.006 30.1318 204.253 30.1318H226.572C227.868 30.1318 228.929 31.605 228.929 33.4318V34.22C228.929 38.4996 231.271 38.5143 234.144 38.5143H285.75C288.652 38.5143 290.98 38.5143 290.98 34.22V33.4318C290.98 31.605 292.026 30.1318 293.344 30.1318H315.656C321.888 30.1318 326.941 31.9586 326.941 44.5471Z" fill="white"/>
<path d="M326.941 44.5471V93.5236H192.953V44.5471C192.953 30.8021 198.006 30.1318 204.253 30.1318H226.572C227.868 30.1318 228.929 31.605 228.929 33.4318V34.22C228.929 38.4996 231.271 38.5143 234.144 38.5143H285.75C288.652 38.5143 290.98 38.5143 290.98 34.22V33.4318C290.98 31.605 292.026 30.1318 293.344 30.1318H315.656C321.888 30.1318 326.941 31.9586 326.941 44.5471Z" fill="#407BFF"/>
</g>
<path d="M322.204 22H197.675C196.005 22.0154 194.355 22.3595 192.818 23.0127C191.281 23.6659 189.889 24.6154 188.719 25.8069C187.549 26.9985 186.626 28.4087 186.001 29.9572C185.377 31.5056 185.063 33.162 185.079 34.8316V291.168C185.049 294.54 186.359 297.785 188.721 300.191C191.083 302.597 194.303 303.967 197.675 304H322.204C325.577 303.967 328.799 302.597 331.163 300.192C333.527 297.786 334.84 294.541 334.815 291.168V34.8316C334.842 31.4583 333.529 28.212 331.165 25.806C328.8 23.4001 325.577 22.0311 322.204 22ZM326.933 283.25C326.933 289.997 321.88 295.455 315.648 295.455H204.245C197.999 295.455 192.946 289.997 192.946 283.25V44.5473C192.946 30.8024 197.999 30.1321 204.245 30.1321H226.564C227.86 30.1321 228.921 31.6053 228.921 33.432V34.2202C228.921 38.4998 231.264 38.5146 234.136 38.5146H285.742C288.645 38.5146 290.972 38.5146 290.972 34.2202V33.432C290.972 31.6053 292.018 30.1321 293.337 30.1321H315.648C321.88 30.1321 326.933 31.9588 326.933 44.5473V283.25Z" fill="#263238"/>
<path d="M222.702 35.4878L222.488 35.7014L222.37 35.8266C221.818 35.2756 221.069 34.9661 220.289 34.9661C219.509 34.9661 218.761 35.2756 218.208 35.8266L218.112 35.7087L217.906 35.4951C217.995 35.4141 218.083 35.3331 218.179 35.2594C218.604 34.9097 219.111 34.6739 219.652 34.5744C219.792 34.5744 219.932 34.5744 220.072 34.5154C220.212 34.4565 220.425 34.5154 220.433 34.5154H220.72C220.972 34.5493 221.219 34.611 221.457 34.6996C221.635 34.7656 221.808 34.8469 221.972 34.9427C222.148 35.0453 222.315 35.161 222.473 35.2889L222.694 35.4951L222.702 35.4878Z" fill="white"/>
<path d="M218.894 36.5117L218.555 36.1729C218.921 35.7797 219.409 35.5205 219.939 35.4363C220.317 35.3806 220.702 35.4142 221.064 35.5345C221.426 35.6547 221.755 35.8583 222.024 36.1287L221.685 36.4675C221.315 36.0974 220.813 35.8894 220.289 35.8894C219.766 35.8894 219.264 36.0974 218.894 36.4675V36.5117Z" fill="white"/>
<path d="M221.343 36.8511L221.004 37.1899C220.908 37.0925 220.793 37.0161 220.666 36.9654C220.54 36.9146 220.404 36.8908 220.267 36.8953C220.131 36.8921 219.995 36.9166 219.869 36.9672C219.742 37.0178 219.627 37.0936 219.531 37.1899L219.199 36.8511C219.337 36.7051 219.503 36.5887 219.687 36.5092C219.872 36.4297 220.07 36.3887 220.271 36.3887C220.472 36.3887 220.67 36.4297 220.855 36.5092C221.039 36.5887 221.205 36.7051 221.343 36.8511Z" fill="white"/>
<path d="M220.599 37.4988C220.599 37.56 220.581 37.6198 220.547 37.6707C220.513 37.7216 220.465 37.7612 220.408 37.7846C220.352 37.8081 220.289 37.8142 220.229 37.8023C220.169 37.7903 220.114 37.7609 220.071 37.7176C220.028 37.6743 219.998 37.6192 219.986 37.5592C219.974 37.4992 219.981 37.437 220.004 37.3804C220.027 37.3239 220.067 37.2756 220.118 37.2416C220.169 37.2076 220.229 37.1895 220.29 37.1895C220.372 37.1895 220.451 37.222 220.509 37.2801C220.567 37.3381 220.599 37.4168 220.599 37.4988Z" fill="white"/>
<path d="M201.68 36.1423C201.68 35.966 201.732 35.7937 201.83 35.6471C201.928 35.5005 202.067 35.3863 202.23 35.3188C202.393 35.2514 202.572 35.2337 202.745 35.2681C202.918 35.3025 203.077 35.3874 203.201 35.512C203.326 35.6367 203.411 35.7955 203.445 35.9684C203.48 36.1413 203.462 36.3205 203.394 36.4833C203.327 36.6462 203.213 36.7854 203.066 36.8833C202.92 36.9813 202.747 37.0336 202.571 37.0336C202.335 37.0336 202.108 36.9396 201.941 36.7725C201.774 36.6054 201.68 36.3786 201.68 36.1423Z" fill="white"/>
<path d="M204.484 36.1422C204.484 35.9656 204.537 35.793 204.635 35.6463C204.733 35.4996 204.873 35.3853 205.036 35.3181C205.2 35.2509 205.379 35.2337 205.552 35.2686C205.725 35.3036 205.884 35.3893 206.009 35.5147C206.133 35.64 206.217 35.7995 206.251 35.9729C206.284 36.1463 206.266 36.3257 206.197 36.4884C206.128 36.6512 206.013 36.7899 205.865 36.8869C205.718 36.9839 205.545 37.035 205.368 37.0335C205.252 37.0335 205.136 37.0104 205.028 36.9655C204.921 36.9207 204.823 36.8549 204.741 36.772C204.659 36.6892 204.594 36.5909 204.55 36.4828C204.506 36.3747 204.483 36.2589 204.484 36.1422Z" fill="white"/>
<path d="M207.273 36.1423C207.273 35.966 207.326 35.7937 207.424 35.6471C207.522 35.5005 207.661 35.3863 207.824 35.3188C207.987 35.2514 208.166 35.2337 208.339 35.2681C208.511 35.3025 208.67 35.3874 208.795 35.512C208.92 35.6367 209.005 35.7955 209.039 35.9684C209.073 36.1413 209.056 36.3205 208.988 36.4833C208.921 36.6462 208.806 36.7854 208.66 36.8833C208.513 36.9813 208.341 37.0336 208.165 37.0336C207.928 37.0336 207.702 36.9396 207.534 36.7725C207.367 36.6054 207.273 36.3786 207.273 36.1423Z" fill="white"/>
<path d="M210.07 36.1423C210.07 35.966 210.123 35.7937 210.221 35.6471C210.318 35.5005 210.458 35.3863 210.621 35.3188C210.783 35.2514 210.963 35.2337 211.135 35.2681C211.308 35.3025 211.467 35.3874 211.592 35.512C211.716 35.6367 211.801 35.7955 211.836 35.9684C211.87 36.1413 211.853 36.3205 211.785 36.4833C211.718 36.6462 211.603 36.7854 211.457 36.8833C211.31 36.9813 211.138 37.0336 210.962 37.0336C210.725 37.0336 210.499 36.9396 210.331 36.7725C210.164 36.6054 210.07 36.3786 210.07 36.1423Z" fill="white"/>
<path d="M212.875 36.1422C212.875 35.9656 212.927 35.793 213.026 35.6463C213.124 35.4996 213.264 35.3853 213.427 35.3181C213.59 35.2509 213.77 35.2337 213.943 35.2686C214.116 35.3036 214.275 35.3893 214.399 35.5147C214.524 35.64 214.608 35.7995 214.641 35.9729C214.675 36.1463 214.656 36.3257 214.588 36.4884C214.519 36.6512 214.404 36.7899 214.256 36.8869C214.109 36.9839 213.936 37.035 213.759 37.0335C213.642 37.0335 213.527 37.0104 213.419 36.9655C213.311 36.9207 213.213 36.8549 213.131 36.772C213.049 36.6892 212.984 36.5909 212.94 36.4828C212.896 36.3747 212.874 36.2589 212.875 36.1422Z" fill="white"/>
<path d="M316.874 38.0794H309.648V34.75H316.874V38.0794ZM310.017 37.7111H316.506V35.1036H310.017V37.7111Z" fill="white"/>
<path d="M314.913 35.3027H310.25V37.5125H314.913V35.3027Z" fill="white"/>
<path d="M317.528 35.5166H316.887V37.3065H317.528V35.5166Z" fill="white"/>
<path d="M266.981 33.1671H252.904C252.79 33.1671 252.677 33.1446 252.572 33.1009C252.466 33.0572 252.37 32.9932 252.29 32.9125C252.209 32.8318 252.145 32.736 252.101 32.6305C252.058 32.5251 252.035 32.412 252.035 32.2979C252.035 32.1838 252.058 32.0707 252.101 31.9653C252.145 31.8598 252.209 31.764 252.29 31.6833C252.37 31.6026 252.466 31.5386 252.572 31.4949C252.677 31.4512 252.79 31.4287 252.904 31.4287H266.981C267.095 31.4287 267.208 31.4512 267.313 31.4949C267.419 31.5386 267.515 31.6026 267.595 31.6833C267.676 31.764 267.74 31.8598 267.784 31.9653C267.827 32.0707 267.85 32.1838 267.85 32.2979C267.85 32.412 267.827 32.5251 267.784 32.6305C267.74 32.736 267.676 32.8318 267.595 32.9125C267.515 32.9932 267.419 33.0572 267.313 33.1009C267.208 33.1446 267.095 33.1671 266.981 33.1671Z" fill="white"/>
<g opacity="0.4">
<path d="M311.633 55.501H208.768C205.03 55.501 202 58.531 202 62.2686V96.2296C202 99.9673 205.03 102.997 208.768 102.997H311.633C315.37 102.997 318.4 99.9673 318.4 96.2296V62.2686C318.4 58.531 315.37 55.501 311.633 55.501Z" fill="#EBF2FF"/>
<path d="M271.846 74.0879H243.758C243.591 74.0879 243.431 74.0216 243.313 73.9037C243.195 73.7857 243.129 73.6258 243.129 73.459C243.129 73.2922 243.195 73.1322 243.313 73.0143C243.431 72.8963 243.591 72.8301 243.758 72.8301H271.846C272.012 72.8307 272.172 72.8972 272.29 73.015C272.407 73.1328 272.474 73.2924 272.475 73.459C272.474 73.6256 272.407 73.7852 272.29 73.903C272.172 74.0208 272.012 74.0872 271.846 74.0879Z" fill="#2B478B"/>
<path d="M290.635 78.644H243.758C243.591 78.644 243.431 78.5777 243.313 78.4598C243.195 78.3418 243.129 78.1819 243.129 78.0151C243.129 77.9326 243.145 77.8509 243.177 77.7748C243.208 77.6986 243.255 77.6295 243.313 77.5713C243.372 77.5131 243.441 77.467 243.517 77.4356C243.594 77.4043 243.675 77.3883 243.758 77.3887H290.635C290.718 77.3883 290.799 77.4043 290.876 77.4356C290.952 77.467 291.021 77.5131 291.08 77.5713C291.138 77.6295 291.185 77.6986 291.216 77.7748C291.248 77.8509 291.264 77.9326 291.264 78.0151C291.264 78.1819 291.198 78.3418 291.08 78.4598C290.962 78.5777 290.802 78.644 290.635 78.644Z" fill="#2B478B"/>
<path d="M236.926 66.9287H210.066V93.7888H236.926V66.9287Z" fill="#C2CFFF"/>
<path d="M215.047 86.7524L220.912 76.1787L225.227 82.0619L227.379 79.7066L231.945 86.7524H215.047Z" fill="#AABDF2"/>
<path d="M223.715 74.658C223.715 74.3577 223.804 74.0642 223.971 73.8145C224.138 73.5648 224.375 73.3702 224.652 73.2552C224.93 73.1403 225.235 73.1102 225.529 73.1688C225.824 73.2274 226.095 73.372 226.307 73.5844C226.519 73.7967 226.664 74.0673 226.722 74.3618C226.781 74.6564 226.751 74.9617 226.636 75.2391C226.521 75.5166 226.327 75.7537 226.077 75.9205C225.827 76.0874 225.534 76.1764 225.233 76.1764C224.831 76.1764 224.444 76.0165 224.16 75.7317C223.875 75.447 223.715 75.0607 223.715 74.658Z" fill="#AABDF2"/>
<path d="M289.751 66.9287H243.676C243.328 66.9287 243.047 67.2103 243.047 67.5576V69.0535C243.047 69.4008 243.328 69.6824 243.676 69.6824H289.751C290.099 69.6824 290.38 69.4008 290.38 69.0535V67.5576C290.38 67.2103 290.099 66.9287 289.751 66.9287Z" fill="#2B478B"/>
<path d="M249.938 86.2607L253.807 86.8194L251.011 89.5505L251.675 93.4016L248.212 91.5876L244.754 93.4091L245.411 89.5555L242.609 86.8294L246.478 86.2632L248.204 82.7578L249.938 86.2607Z" fill="#F78248"/>
<path d="M263.325 86.2607L267.194 86.8194L264.395 89.5505L265.061 93.4016L261.599 91.5876L258.141 93.4091L258.797 89.5555L255.996 86.8294L259.865 86.2632L261.591 82.7578L263.325 86.2607Z" fill="#F78248"/>
<path d="M276.729 86.2607L280.6 86.8194L277.801 89.5505L278.468 93.4016L275.005 91.5876L271.547 93.4091L272.204 89.5555L269.402 86.8294L273.269 86.2632L274.995 82.7578L276.729 86.2607Z" fill="#F78248"/>
<path d="M290.13 86.2607L293.998 86.8194L291.202 89.5505L291.866 93.4016L288.406 91.5876L284.946 93.4091L285.605 89.5555L282.801 86.8294L286.669 86.2632L288.396 82.7578L290.13 86.2607Z" fill="#F78248"/>
<path d="M303.528 86.2607L307.397 86.8194L304.6 89.5505L305.264 93.4016L301.802 91.5876L298.344 93.4091L299.003 89.5555L296.199 86.8294L300.068 86.2632L301.794 82.7578L303.528 86.2607Z" fill="#F78248"/>
</g>
<g opacity="0.4">
<path d="M318.4 176.328V259.264C318.4 261.905 317.351 264.438 315.483 266.306C313.615 268.174 311.082 269.223 308.441 269.223H211.957C210.649 269.223 209.354 268.966 208.146 268.465C206.938 267.965 205.84 267.231 204.916 266.306C203.991 265.381 203.258 264.283 202.757 263.075C202.257 261.866 202 260.571 202 259.264V176.328C202 175.02 202.257 173.725 202.757 172.517C203.258 171.308 203.991 170.21 204.916 169.285C205.84 168.361 206.938 167.627 208.146 167.126C209.354 166.626 210.649 166.368 211.957 166.368H308.441C309.749 166.368 311.044 166.625 312.253 167.125C313.462 167.625 314.56 168.359 315.485 169.284C316.41 170.209 317.143 171.307 317.644 172.516C318.144 173.724 318.401 175.02 318.4 176.328Z" fill="#EBF2FF"/>
<g opacity="0.3">
<path d="M245.514 197.994C244.737 197.89 243.954 197.839 243.171 197.839C243.041 197.839 242.92 197.839 242.785 197.839C238.199 197.948 233.837 199.847 230.632 203.13C227.427 206.412 225.633 210.818 225.633 215.406C225.633 219.993 227.427 224.399 230.632 227.682C233.837 230.964 238.199 232.863 242.785 232.972H243.171C243.954 232.974 244.737 232.922 245.514 232.817C249.267 232.314 252.757 230.612 255.466 227.966C258.174 225.32 259.957 221.87 260.547 218.129C260.685 217.226 260.755 216.314 260.755 215.401C260.752 211.146 259.205 207.037 256.402 203.836C253.599 200.635 249.731 198.559 245.514 197.994ZM245.514 227.017C244.742 227.172 243.958 227.25 243.171 227.25H242.785C239.72 227.14 236.817 225.846 234.688 223.639C232.558 221.432 231.368 218.485 231.368 215.418C231.368 212.351 232.558 209.404 234.688 207.197C236.817 204.99 239.72 203.696 242.785 203.587H243.171C246.107 203.585 248.939 204.675 251.117 206.645C253.295 208.615 254.662 211.324 254.954 214.246C255.246 217.168 254.442 220.094 252.697 222.456C250.953 224.818 248.392 226.447 245.514 227.027V227.017Z" fill="#739AF0"/>
<path d="M231.339 215.412C231.338 216.331 231.444 217.247 231.655 218.141H209.871V215.412H231.339Z" fill="#739AF0"/>
<path d="M310.557 215.412V218.141H254.699C254.909 217.246 255.015 216.331 255.015 215.412H310.557Z" fill="#739AF0"/>
<path d="M245.518 170.119V203.807C244.746 203.652 243.962 203.574 243.175 203.574H242.789V170.119H245.518Z" fill="#739AF0"/>
<path d="M245.518 227.016V263.435H242.789V227.244H243.175C243.961 227.246 244.746 227.169 245.518 227.016Z" fill="#739AF0"/>
<path d="M307.824 170.129V217.277V219.83H310.555V217.277V170.344L307.824 170.129Z" fill="#739AF0"/>
<path d="M279.755 170.129H277.023V263.443H279.755V170.129Z" fill="#739AF0"/>
<path d="M262.595 173.584H249.098V194.546H262.595V173.584Z" fill="#739AF0"/>
<path d="M223.028 189.354H209.871V204.418H223.028V189.354Z" fill="#739AF0"/>
<path d="M236.348 173.584H209.871V186.741H236.348V173.584Z" fill="#739AF0"/>
<path d="M274.316 173.584H264.875V186.613H274.316V173.584Z" fill="#739AF0"/>
<path d="M274.316 189.354H264.875V211.131H274.316V189.354Z" fill="#739AF0"/>
<path d="M274.316 220.732H264.875V233.624H274.316V220.732Z" fill="#739AF0"/>
<path d="M293.426 173.584H285.809V211.135H293.426V173.584Z" fill="#739AF0"/>
<path d="M305.347 173.584H295.906V211.135H305.347V173.584Z" fill="#739AF0"/>
<path d="M310.56 222.096H284.379V263.431H310.56V222.096Z" fill="#739AF0"/>
<path d="M274.314 247.797H248.258V263.429H274.314V247.797Z" fill="#739AF0"/>
<path d="M274.314 236.574H248.258V244.86H274.314V236.574Z" fill="#739AF0"/>
<path d="M233.276 236.574H209.871V263.442H233.276V236.574Z" fill="#739AF0"/>
<path d="M219.726 219.604H209.871V234.081H219.726V219.604Z" fill="#739AF0"/>
</g>
<path d="M267.99 217.921C276.818 217.921 283.975 210.764 283.975 201.935C283.975 193.106 276.818 185.949 267.99 185.949C259.161 185.949 252.004 193.106 252.004 201.935C252.004 210.764 259.161 217.921 267.99 217.921Z" fill="#EBF2FF"/>
<path d="M244.003 204.167C244.464 217.947 268.388 239.17 268.388 239.17C268.388 239.17 290.838 216.384 290.377 202.616C289.916 188.847 279.162 178.028 266.356 178.457C253.55 178.885 243.547 190.408 244.003 204.167ZM253.479 202.385C253.389 199.683 254.102 197.014 255.528 194.717C256.954 192.42 259.029 190.597 261.491 189.479C263.953 188.361 266.691 187.999 269.359 188.437C272.027 188.876 274.505 190.095 276.48 191.942C278.455 193.789 279.838 196.18 280.454 198.813C281.07 201.446 280.891 204.202 279.94 206.733C278.989 209.265 277.309 211.457 275.113 213.033C272.916 214.61 270.301 215.499 267.599 215.59C263.978 215.703 260.46 214.377 257.815 211.902C255.17 209.427 253.613 206.005 253.484 202.385H253.479Z" fill="#F78E48"/>
</g>
<g filter="url(#filter0_d_3247_118429)">
<path d="M343.094 95.999H177.306C171.282 95.999 166.398 100.882 166.398 106.906V161.642C166.398 167.666 171.282 172.549 177.306 172.549H343.094C349.118 172.549 354.002 167.666 354.002 161.642V106.906C354.002 100.882 349.118 95.999 343.094 95.999Z" fill="#EBF2FF"/>
<path d="M278.963 125.973H233.693C233.424 125.973 233.167 125.866 232.977 125.676C232.787 125.486 232.68 125.228 232.68 124.959C232.68 124.69 232.787 124.432 232.977 124.242C233.167 124.052 233.424 123.945 233.693 123.945H278.963C279.231 123.946 279.488 124.053 279.678 124.243C279.868 124.433 279.975 124.69 279.976 124.959C279.976 125.228 279.869 125.486 279.679 125.676C279.489 125.866 279.231 125.973 278.963 125.973Z" fill="#2B478B"/>
<path d="M309.246 133.298H233.693C233.56 133.298 233.429 133.272 233.306 133.222C233.183 133.171 233.071 133.097 232.977 133.003C232.883 132.91 232.808 132.798 232.757 132.675C232.706 132.553 232.68 132.421 232.68 132.288C232.68 132.019 232.787 131.761 232.977 131.571C233.167 131.381 233.424 131.274 233.693 131.274H309.246C309.515 131.274 309.773 131.381 309.963 131.571C310.153 131.761 310.259 132.019 310.259 132.288C310.259 132.421 310.233 132.553 310.182 132.675C310.131 132.798 310.057 132.91 309.962 133.003C309.868 133.097 309.756 133.171 309.633 133.222C309.511 133.272 309.379 133.298 309.246 133.298Z" fill="#2B478B"/>
<path d="M222.685 114.44H179.395V157.731H222.685V114.44Z" fill="#C2CFFF"/>
<path d="M187.426 146.384L196.879 129.343L203.833 138.825L207.302 135.029L214.66 146.384H187.426Z" fill="#AABDF2"/>
<path d="M201.391 126.896C201.391 126.412 201.534 125.939 201.803 125.537C202.072 125.134 202.454 124.821 202.901 124.636C203.349 124.45 203.841 124.402 204.315 124.496C204.79 124.591 205.226 124.824 205.568 125.166C205.911 125.508 206.144 125.944 206.238 126.419C206.332 126.894 206.284 127.386 206.099 127.833C205.914 128.28 205.6 128.662 205.197 128.931C204.795 129.2 204.322 129.344 203.838 129.344C203.189 129.344 202.566 129.086 202.107 128.627C201.648 128.168 201.391 127.545 201.391 126.896Z" fill="#AABDF2"/>
<path d="M307.825 114.44H233.564C233.005 114.44 232.551 114.894 232.551 115.454V117.865C232.551 118.425 233.005 118.879 233.564 118.879H307.825C308.384 118.879 308.838 118.425 308.838 117.865V115.454C308.838 114.894 308.384 114.44 307.825 114.44Z" fill="#2B478B"/>
<path d="M243.66 145.593L249.895 146.493L245.388 150.895L246.458 157.102L240.877 154.178L235.304 157.114L236.362 150.903L231.848 146.51L238.083 145.597L240.865 139.947L243.66 145.593Z" fill="#F78248"/>
<path d="M265.242 145.593L271.477 146.493L266.966 150.895L268.04 157.102L262.459 154.178L256.886 157.114L257.945 150.903L253.43 146.51L259.665 145.597L262.447 139.947L265.242 145.593Z" fill="#F78248"/>
<path d="M286.847 145.593L293.086 146.493L288.575 150.895L289.65 157.102L284.069 154.178L278.496 157.114L279.554 150.903L275.039 146.51L281.27 145.597L284.053 139.947L286.847 145.593Z" fill="#F78248"/>
<path d="M308.429 145.593L314.664 146.493L310.158 150.895L311.228 157.102L305.651 154.178L300.074 157.114L301.136 150.903L296.617 146.51L302.852 145.597L305.635 139.947L308.429 145.593Z" fill="#F78248"/>
<path d="M330.031 145.593L336.266 146.493L331.759 150.895L332.829 157.102L327.248 154.178L321.676 157.114L322.738 150.903L318.219 146.51L324.454 145.597L327.236 139.947L330.031 145.593Z" fill="#F78248"/>
</g>
<rect x="457" width="71" height="303" fill="url(#paint0_linear_3247_118429)"/>
<rect width="71" height="303" transform="matrix(-1 0 0 1 71 0)" fill="url(#paint1_linear_3247_118429)"/>
<rect width="71" height="528" transform="matrix(-4.37114e-08 1 1 4.37114e-08 0 233)" fill="url(#paint2_linear_3247_118429)"/>
</g>
<defs>
<filter id="filter0_d_3247_118429" x="143.721" y="95.999" width="232.956" height="158.188" filterUnits="userSpaceOnUse" color-interpolation-filters="sRGB">
<feFlood flood-opacity="0" result="BackgroundImageFix"/>
<feColorMatrix in="SourceAlpha" type="matrix" values="0 0 0 0 0 0 0 0 0 0 0 0 0 0 0 0 0 0 127 0" result="hardAlpha"/>
<feOffset dy="58.9607"/>
<feGaussianBlur stdDeviation="11.3386"/>
<feComposite in2="hardAlpha" operator="out"/>
<feColorMatrix type="matrix" values="0 0 0 0 0 0 0 0 0 0 0 0 0 0 0 0 0 0 0.7 0"/>
<feBlend mode="normal" in2="BackgroundImageFix" result="effect1_dropShadow_3247_118429"/>
<feBlend mode="normal" in="SourceGraphic" in2="effect1_dropShadow_3247_118429" result="shape"/>
</filter>
<linearGradient id="paint0_linear_3247_118429" x1="528" y1="151.5" x2="457" y2="151.5" gradientUnits="userSpaceOnUse">
<stop/>
<stop offset="1" stop-opacity="0"/>
</linearGradient>
<linearGradient id="paint1_linear_3247_118429" x1="71" y1="151.5" x2="0" y2="151.5" gradientUnits="userSpaceOnUse">
<stop/>
<stop offset="1" stop-opacity="0"/>
</linearGradient>
<linearGradient id="paint2_linear_3247_118429" x1="71" y1="264" x2="0" y2="264" gradientUnits="userSpaceOnUse">
<stop/>
<stop offset="1" stop-opacity="0"/>
</linearGradient>
<clipPath id="clip0_3247_118429">
<rect width="527.636" height="303.73" fill="white"/>
</clipPath>
<clipPath id="clip1_3247_118429">
<rect width="133.988" height="265.323" fill="white" transform="translate(192.949 30.1318)"/>
</clipPath>
</defs>
</svg>
