<svg width="15" height="17" viewBox="0 0 15 17" fill="none" xmlns="http://www.w3.org/2000/svg">
<path d="M12.271 12.7121L11.3045 13.668C10.592 14.3666 9.66787 15.2656 8.53117 16.3648C8.18953 16.6952 7.7329 16.8798 7.25768 16.8798C6.78245 16.8798 6.32582 16.6952 5.98418 16.3648L3.14163 13.5996C2.78335 13.2487 2.48534 12.9531 2.24432 12.7121C1.25286 11.7205 0.577678 10.4573 0.304161 9.08203C0.0306448 7.70677 0.171074 6.2813 0.707692 4.98585C1.24431 3.69041 2.15302 2.58318 3.3189 1.80417C4.48479 1.02517 5.85549 0.609375 7.25768 0.609375C8.65987 0.609375 10.0306 1.02517 11.1965 1.80417C12.3623 2.58318 13.271 3.69041 13.8077 4.98585C14.3443 6.2813 14.4847 7.70677 14.2112 9.08203C13.9377 10.4573 13.2625 11.7205 12.271 12.7121ZM9.29331 7.92264C9.29331 7.38276 9.07884 6.86499 8.69709 6.48323C8.31533 6.10147 7.79756 5.88701 7.25768 5.88701C6.71779 5.88701 6.20002 6.10147 5.81827 6.48323C5.43651 6.86499 5.22204 7.38276 5.22204 7.92264C5.22204 8.46253 5.43651 8.9803 5.81827 9.36205C6.20002 9.74381 6.71779 9.95828 7.25768 9.95828C7.79756 9.95828 8.31533 9.74381 8.69709 9.36205C9.07884 8.9803 9.29331 8.46253 9.29331 7.92264Z" fill="#F50000"/>
</svg>
