<svg width="37" height="36" viewBox="0 0 37 36" fill="none" xmlns="http://www.w3.org/2000/svg">
<path opacity="0.976" fill-rule="evenodd" clip-rule="evenodd" d="M17.7052 1.96447C21.2759 1.68208 23.879 3.11908 25.5144 6.27546C26.8283 9.84269 26.0391 12.8462 23.1469 15.2861C20.951 16.7718 18.5953 17.078 16.0797 16.2049C12.5206 14.5412 11.0012 11.7496 11.5214 7.83024C12.1204 5.25239 13.6398 3.45026 16.0797 2.42384C16.6213 2.23574 17.1631 2.08262 17.7052 1.96447ZM16.5038 5.4274C16.8071 5.39453 17.0898 5.45342 17.3518 5.60408C17.8336 6.02689 18.3048 6.46267 18.7653 6.91151C19.1529 6.55921 19.5299 6.19407 19.896 5.81609C20.3393 5.39258 20.834 5.3219 21.3801 5.60408C21.7453 5.96922 22.1104 6.33433 22.4755 6.69949C22.7577 7.24557 22.687 7.74027 22.2635 8.1836C21.8856 8.54975 21.5204 8.92671 21.1681 9.31435C21.6169 9.77485 22.0527 10.246 22.4755 10.7278C22.7057 11.1262 22.7057 11.5267 22.4755 11.9292C22.1104 12.2944 21.7453 12.6595 21.3801 13.0246C20.8642 13.3017 20.393 13.2428 19.9667 12.8479C19.5856 12.4559 19.1851 12.079 18.7653 11.7172C18.3048 12.166 17.8336 12.6018 17.3518 13.0246C16.9534 13.2548 16.5529 13.2548 16.1504 13.0246C15.7852 12.6595 15.4201 12.2944 15.055 11.9292C14.7881 11.4257 14.8353 10.9546 15.1963 10.5158C15.5979 10.126 15.9866 9.72559 16.3624 9.31435C15.9376 8.83074 15.5018 8.35957 15.055 7.90091C14.8248 7.50246 14.8248 7.10204 15.055 6.69949C15.4904 6.20415 15.9733 5.78012 16.5038 5.4274Z" fill="white"/>
<path opacity="0.912" fill-rule="evenodd" clip-rule="evenodd" d="M11.3468 13.6985C11.4513 13.68 11.5455 13.7035 11.6295 13.7692C13.3235 16.3011 15.7028 17.6439 18.7674 17.7975C21.8785 17.6206 24.3049 16.2543 26.0466 13.6985C27.331 13.9623 28.603 14.2567 29.8628 14.5819C26.1671 16.0376 22.4687 17.4864 18.7674 18.9282C15.0661 17.4864 11.3676 16.0376 7.67188 14.5819C8.89768 14.2733 10.1227 13.9789 11.3468 13.6985Z" fill="white"/>
<path opacity="0.977" fill-rule="evenodd" clip-rule="evenodd" d="M5.98648 15.0449C9.99004 16.6225 13.9947 18.2008 18.0007 19.7799C17.1263 21.3053 16.2075 22.8012 15.2445 24.2676C15.0089 24.4089 14.7733 24.4089 14.5378 24.2676C10.9391 22.8403 7.33483 21.4269 3.72498 20.0273C3.47516 19.836 3.39271 19.5886 3.47763 19.2852C4.29691 17.8582 5.1332 16.4447 5.98648 15.0449Z" fill="white"/>
<path opacity="0.977" fill-rule="evenodd" clip-rule="evenodd" d="M31.4826 15.0449C32.3939 16.4186 33.2537 17.832 34.0621 19.2852C34.1471 19.5886 34.0646 19.836 33.8148 20.0273C30.1003 21.4959 26.3782 22.9446 22.6486 24.3736C22.431 24.3524 22.2543 24.2582 22.1186 24.0909C21.2587 22.654 20.3989 21.2169 19.5391 19.7799C23.5322 18.2137 27.5134 16.6354 31.4826 15.0449Z" fill="white"/>
<path opacity="0.987" fill-rule="evenodd" clip-rule="evenodd" d="M18.1297 21.4727C18.2238 25.6542 18.2238 29.8473 18.1297 34.0522C14.0543 32.4386 9.97893 30.8249 5.9035 29.2112C5.56763 28.97 5.34384 28.6519 5.23211 28.2572C5.17323 26.0895 5.18501 23.9222 5.26745 21.7553C8.12068 22.8674 10.9711 23.9864 13.8187 25.1123C14.6926 25.6016 15.4818 25.4956 16.1863 24.7942C16.8713 23.7064 17.5192 22.5992 18.1297 21.4727Z" fill="white"/>
<path opacity="0.987" fill-rule="evenodd" clip-rule="evenodd" d="M19.3369 21.4727C20.0065 22.5753 20.6779 23.6826 21.3511 24.7942C22.0556 25.4956 22.8447 25.6016 23.7186 25.1123C26.5663 23.9864 29.4167 22.8674 32.2699 21.7553C32.3524 23.9222 32.3641 26.0895 32.3052 28.2572C32.1113 28.8045 31.7462 29.1932 31.2098 29.4232C27.2674 30.9454 23.3333 32.4885 19.4076 34.0522C19.3369 29.8593 19.3134 25.6661 19.3369 21.4727Z" fill="white"/>
</svg>
