<svg width="320" height="235" viewBox="0 0 320 235" fill="none" xmlns="http://www.w3.org/2000/svg">
<g filter="url(#filter0_dii_3247_107011)">
<rect x="20" y="11.9785" width="280" height="202.042" rx="26" fill="#00971C" shape-rendering="crispEdges"/>
<rect x="20.6114" y="12.5899" width="278.777" height="200.819" rx="25.3886" stroke="white" stroke-width="1.22271" shape-rendering="crispEdges"/>
<path d="M47.6884 60.8587H51.7111V62.4336H45.737V50.5367H47.6884V60.8587ZM57.4342 62.5877C56.5441 62.5877 55.7396 62.3879 55.0206 61.9885C54.3017 61.5777 53.7368 61.0071 53.3259 60.2767C52.9151 59.535 52.7097 58.6791 52.7097 57.7091C52.7097 56.7504 52.9208 55.9003 53.3431 55.1585C53.7653 54.4167 54.3416 53.8461 55.072 53.4467C55.8023 53.0473 56.6183 52.8476 57.5198 52.8476C58.4214 52.8476 59.2373 53.0473 59.9677 53.4467C60.6981 53.8461 61.2744 54.4167 61.6966 55.1585C62.1188 55.9003 62.33 56.7504 62.33 57.7091C62.33 58.6677 62.1131 59.5178 61.6795 60.2596C61.2458 61.0014 60.6524 61.5777 59.8992 61.9885C59.1574 62.3879 58.3358 62.5877 57.4342 62.5877ZM57.4342 60.893C57.9364 60.893 58.4043 60.7732 58.8379 60.5335C59.283 60.2939 59.6425 59.9344 59.9163 59.4551C60.1902 58.9758 60.3272 58.3938 60.3272 57.7091C60.3272 57.0243 60.1959 56.448 59.9335 55.9801C59.671 55.5008 59.3229 55.1414 58.8893 54.9017C58.4556 54.6621 57.9877 54.5422 57.4856 54.5422C56.9835 54.5422 56.5156 54.6621 56.0819 54.9017C55.6597 55.1414 55.323 55.5008 55.072 55.9801C54.8209 56.448 54.6954 57.0243 54.6954 57.7091C54.6954 58.7247 54.9522 59.5121 55.4657 60.0713C55.9906 60.6191 56.6468 60.893 57.4342 60.893ZM66.2105 54.3711C66.4958 53.8918 66.8724 53.5209 67.3403 53.2584C67.8196 52.9845 68.3845 52.8476 69.035 52.8476V54.8675H68.5385C67.774 54.8675 67.1919 55.0615 66.7925 55.4495C66.4045 55.8375 66.2105 56.5108 66.2105 57.4694V62.4336H64.2591V53.0016H66.2105V54.3711ZM79.4733 57.4865C79.4733 57.8403 79.4505 58.1598 79.4048 58.4451H72.1982C72.2552 59.1983 72.5348 59.8031 73.0369 60.2596C73.5391 60.7161 74.1553 60.9443 74.8857 60.9443C75.9356 60.9443 76.6774 60.505 77.111 59.6263H79.2165C78.9312 60.4936 78.412 61.2068 77.6588 61.766C76.917 62.3138 75.9926 62.5877 74.8857 62.5877C73.9841 62.5877 73.1739 62.3879 72.4549 61.9885C71.7474 61.5777 71.1882 61.0071 70.7774 60.2767C70.378 59.535 70.1783 58.6791 70.1783 57.7091C70.1783 56.739 70.3723 55.8888 70.7603 55.1585C71.1597 54.4167 71.7132 53.8461 72.4207 53.4467C73.1397 53.0473 73.9613 52.8476 74.8857 52.8476C75.7758 52.8476 76.5689 53.0416 77.2651 53.4296C77.9612 53.8176 78.5033 54.3654 78.8913 55.0729C79.2793 55.769 79.4733 56.5736 79.4733 57.4865ZM77.4362 56.8703C77.4248 56.1513 77.1681 55.575 76.6659 55.1414C76.1638 54.7077 75.5419 54.4909 74.8001 54.4909C74.1268 54.4909 73.5505 54.7077 73.0712 55.1414C72.5919 55.5636 72.3066 56.1399 72.2153 56.8703H77.4362ZM92.8113 52.8476C93.5531 52.8476 94.215 53.0016 94.797 53.3098C95.3904 53.6179 95.8526 54.0744 96.1836 54.6792C96.5259 55.284 96.6971 56.0144 96.6971 56.8703V62.4336H94.7628V57.1613C94.7628 56.3168 94.5517 55.672 94.1294 55.227C93.7072 54.7705 93.1309 54.5422 92.4005 54.5422C91.6701 54.5422 91.0881 54.7705 90.6545 55.227C90.2322 55.672 90.0211 56.3168 90.0211 57.1613V62.4336H88.0868V57.1613C88.0868 56.3168 87.8757 55.672 87.4534 55.227C87.0312 54.7705 86.4549 54.5422 85.7245 54.5422C84.9942 54.5422 84.4122 54.7705 83.9785 55.227C83.5563 55.672 83.3451 56.3168 83.3451 57.1613V62.4336H81.3937V53.0016H83.3451V54.0801C83.6647 53.6921 84.0698 53.3896 84.5605 53.1728C85.0512 52.956 85.5762 52.8476 86.1354 52.8476C86.8885 52.8476 87.5618 53.0073 88.1553 53.3269C88.7487 53.6464 89.2052 54.1086 89.5247 54.7134C89.81 54.1428 90.2551 53.6921 90.8599 53.3611C91.4647 53.0187 92.1152 52.8476 92.8113 52.8476ZM105.578 50.5367V62.4336H103.627V50.5367H105.578ZM110.092 54.3882C110.423 53.9545 110.874 53.5893 111.444 53.2926C112.015 52.9959 112.66 52.8476 113.378 52.8476C114.2 52.8476 114.948 53.053 115.621 53.4638C116.306 53.8632 116.842 54.4281 117.23 55.1585C117.618 55.8888 117.812 56.7276 117.812 57.6748C117.812 58.622 117.618 59.4722 117.23 60.2254C116.842 60.9672 116.306 61.5492 115.621 61.9714C114.948 62.3822 114.2 62.5877 113.378 62.5877C112.66 62.5877 112.02 62.445 111.461 62.1597C110.902 61.863 110.446 61.4978 110.092 61.0642V66.9185H108.14V53.0016H110.092V54.3882ZM115.826 57.6748C115.826 57.0243 115.689 56.4652 115.416 55.9973C115.153 55.518 114.799 55.1585 114.354 54.9188C113.921 54.6678 113.453 54.5422 112.951 54.5422C112.46 54.5422 111.992 54.6678 111.547 54.9188C111.113 55.1699 110.759 55.5351 110.486 56.0144C110.223 56.4937 110.092 57.0586 110.092 57.7091C110.092 58.3595 110.223 58.9301 110.486 59.4208C110.759 59.9001 111.113 60.2653 111.547 60.5164C111.992 60.7675 112.46 60.893 112.951 60.893C113.453 60.893 113.921 60.7675 114.354 60.5164C114.799 60.2539 115.153 59.8773 115.416 59.3866C115.689 58.8959 115.826 58.3253 115.826 57.6748ZM123.165 62.5877C122.424 62.5877 121.756 62.4564 121.163 62.1939C120.581 61.9201 120.118 61.5549 119.776 61.0984C119.434 60.6305 119.251 60.1113 119.228 59.5407H121.248C121.282 59.9401 121.471 60.2767 121.813 60.5506C122.167 60.8131 122.606 60.9443 123.131 60.9443C123.679 60.9443 124.101 60.8416 124.398 60.6362C124.706 60.4194 124.86 60.1455 124.86 59.8146C124.86 59.4608 124.689 59.1983 124.347 59.0271C124.016 58.856 123.485 58.6677 122.755 58.4622C122.047 58.2682 121.471 58.0799 121.026 57.8973C120.581 57.7148 120.193 57.4352 119.862 57.0586C119.542 56.682 119.382 56.1856 119.382 55.5693C119.382 55.0672 119.531 54.6107 119.827 54.1999C120.124 53.7776 120.546 53.4467 121.094 53.207C121.653 52.9674 122.292 52.8476 123.011 52.8476C124.084 52.8476 124.946 53.1215 125.596 53.6692C126.258 54.2056 126.612 54.9417 126.657 55.8774H124.706C124.672 55.4552 124.501 55.1185 124.192 54.8675C123.884 54.6164 123.468 54.4909 122.943 54.4909C122.429 54.4909 122.036 54.5879 121.762 54.7819C121.488 54.9759 121.351 55.2327 121.351 55.5522C121.351 55.8033 121.442 56.0144 121.625 56.1856C121.807 56.3567 122.03 56.4937 122.292 56.5964C122.555 56.6877 122.943 56.8075 123.456 56.9559C124.141 57.1385 124.7 57.3268 125.134 57.5208C125.579 57.7033 125.961 57.9772 126.281 58.3424C126.6 58.7076 126.766 59.1926 126.777 59.7974C126.777 60.3338 126.629 60.8131 126.332 61.2353C126.035 61.6576 125.613 61.9885 125.065 62.2282C124.529 62.4678 123.896 62.5877 123.165 62.5877ZM137.428 53.0016V62.4336H135.476V61.3209C135.168 61.7089 134.763 62.0171 134.261 62.2453C133.77 62.4621 133.245 62.5705 132.686 62.5705C131.944 62.5705 131.277 62.4165 130.683 62.1084C130.101 61.8002 129.639 61.3438 129.297 60.7389C128.966 60.1341 128.8 59.4037 128.8 58.5478V53.0016H130.735V58.2568C130.735 59.1013 130.946 59.7518 131.368 60.2083C131.79 60.6533 132.366 60.8759 133.097 60.8759C133.827 60.8759 134.404 60.6533 134.826 60.2083C135.259 59.7518 135.476 59.1013 135.476 58.2568V53.0016H137.428ZM151.42 52.8476C152.162 52.8476 152.824 53.0016 153.406 53.3098C153.999 53.6179 154.461 54.0744 154.792 54.6792C155.135 55.284 155.306 56.0144 155.306 56.8703V62.4336H153.372V57.1613C153.372 56.3168 153.16 55.672 152.738 55.227C152.316 54.7705 151.74 54.5422 151.009 54.5422C150.279 54.5422 149.697 54.7705 149.263 55.227C148.841 55.672 148.63 56.3168 148.63 57.1613V62.4336H146.696V57.1613C146.696 56.3168 146.484 55.672 146.062 55.227C145.64 54.7705 145.064 54.5422 144.333 54.5422C143.603 54.5422 143.021 54.7705 142.587 55.227C142.165 55.672 141.954 56.3168 141.954 57.1613V62.4336H140.002V53.0016H141.954V54.0801C142.273 53.6921 142.679 53.3896 143.169 53.1728C143.66 52.956 144.185 52.8476 144.744 52.8476C145.497 52.8476 146.171 53.0073 146.764 53.3269C147.357 53.6464 147.814 54.1086 148.133 54.7134C148.419 54.1428 148.864 53.6921 149.469 53.3611C150.073 53.0187 150.724 52.8476 151.42 52.8476ZM163.229 51.752C162.875 51.752 162.578 51.6322 162.338 51.3925C162.099 51.1529 161.979 50.8562 161.979 50.5024C161.979 50.1486 162.099 49.8519 162.338 49.6123C162.578 49.3726 162.875 49.2528 163.229 49.2528C163.571 49.2528 163.862 49.3726 164.102 49.6123C164.341 49.8519 164.461 50.1486 164.461 50.5024C164.461 50.8562 164.341 51.1529 164.102 51.3925C163.862 51.6322 163.571 51.752 163.229 51.752ZM164.187 53.0016V62.4336H162.236V53.0016H164.187ZM170.173 62.5877C169.431 62.5877 168.763 62.4564 168.17 62.1939C167.588 61.9201 167.126 61.5549 166.783 61.0984C166.441 60.6305 166.258 60.1113 166.236 59.5407H168.256C168.29 59.9401 168.478 60.2767 168.82 60.5506C169.174 60.8131 169.614 60.9443 170.139 60.9443C170.686 60.9443 171.109 60.8416 171.405 60.6362C171.713 60.4194 171.867 60.1455 171.867 59.8146C171.867 59.4608 171.696 59.1983 171.354 59.0271C171.023 58.856 170.492 58.6677 169.762 58.4622C169.054 58.2682 168.478 58.0799 168.033 57.8973C167.588 57.7148 167.2 57.4352 166.869 57.0586C166.549 56.682 166.39 56.1856 166.39 55.5693C166.39 55.0672 166.538 54.6107 166.835 54.1999C167.131 53.7776 167.554 53.4467 168.101 53.207C168.661 52.9674 169.3 52.8476 170.019 52.8476C171.091 52.8476 171.953 53.1215 172.603 53.6692C173.265 54.2056 173.619 54.9417 173.665 55.8774H171.713C171.679 55.4552 171.508 55.1185 171.2 54.8675C170.892 54.6164 170.475 54.4909 169.95 54.4909C169.437 54.4909 169.043 54.5879 168.769 54.7819C168.495 54.9759 168.358 55.2327 168.358 55.5522C168.358 55.8033 168.45 56.0144 168.632 56.1856C168.815 56.3567 169.037 56.4937 169.3 56.5964C169.562 56.6877 169.95 56.8075 170.464 56.9559C171.148 57.1385 171.708 57.3268 172.141 57.5208C172.586 57.7033 172.969 57.9772 173.288 58.3424C173.608 58.7076 173.773 59.1926 173.785 59.7974C173.785 60.3338 173.636 60.8131 173.34 61.2353C173.043 61.6576 172.621 61.9885 172.073 62.2282C171.536 62.4678 170.903 62.5877 170.173 62.5877ZM183.763 62.5877C183.022 62.5877 182.354 62.4564 181.761 62.1939C181.179 61.9201 180.716 61.5549 180.374 61.0984C180.032 60.6305 179.849 60.1113 179.826 59.5407H181.846C181.88 59.9401 182.069 60.2767 182.411 60.5506C182.765 60.8131 183.204 60.9443 183.729 60.9443C184.277 60.9443 184.699 60.8416 184.996 60.6362C185.304 60.4194 185.458 60.1455 185.458 59.8146C185.458 59.4608 185.287 59.1983 184.945 59.0271C184.614 58.856 184.083 58.6677 183.353 58.4622C182.645 58.2682 182.069 58.0799 181.624 57.8973C181.179 57.7148 180.791 57.4352 180.46 57.0586C180.14 56.682 179.98 56.1856 179.98 55.5693C179.98 55.0672 180.129 54.6107 180.425 54.1999C180.722 53.7776 181.144 53.4467 181.692 53.207C182.251 52.9674 182.89 52.8476 183.609 52.8476C184.682 52.8476 185.544 53.1215 186.194 53.6692C186.856 54.2056 187.21 54.9417 187.255 55.8774H185.304C185.27 55.4552 185.099 55.1185 184.791 54.8675C184.482 54.6164 184.066 54.4909 183.541 54.4909C183.027 54.4909 182.634 54.5879 182.36 54.7819C182.086 54.9759 181.949 55.2327 181.949 55.5522C181.949 55.8033 182.04 56.0144 182.223 56.1856C182.405 56.3567 182.628 56.4937 182.89 56.5964C183.153 56.6877 183.541 56.8075 184.054 56.9559C184.739 57.1385 185.298 57.3268 185.732 57.5208C186.177 57.7033 186.559 57.9772 186.879 58.3424C187.198 58.7076 187.364 59.1926 187.375 59.7974C187.375 60.3338 187.227 60.8131 186.93 61.2353C186.634 61.6576 186.211 61.9885 185.664 62.2282C185.127 62.4678 184.494 62.5877 183.763 62.5877ZM190.477 51.752C190.123 51.752 189.826 51.6322 189.587 51.3925C189.347 51.1529 189.227 50.8562 189.227 50.5024C189.227 50.1486 189.347 49.8519 189.587 49.6123C189.826 49.3726 190.123 49.2528 190.477 49.2528C190.819 49.2528 191.11 49.3726 191.35 49.6123C191.589 49.8519 191.709 50.1486 191.709 50.5024C191.709 50.8562 191.589 51.1529 191.35 51.3925C191.11 51.6322 190.819 51.752 190.477 51.752ZM191.435 53.0016V62.4336H189.484V53.0016H191.435ZM205.415 52.8476C206.157 52.8476 206.819 53.0016 207.401 53.3098C207.994 53.6179 208.456 54.0744 208.787 54.6792C209.13 55.284 209.301 56.0144 209.301 56.8703V62.4336H207.366V57.1613C207.366 56.3168 207.155 55.672 206.733 55.227C206.311 54.7705 205.735 54.5422 205.004 54.5422C204.274 54.5422 203.692 54.7705 203.258 55.227C202.836 55.672 202.625 56.3168 202.625 57.1613V62.4336H200.691V57.1613C200.691 56.3168 200.479 55.672 200.057 55.227C199.635 54.7705 199.059 54.5422 198.328 54.5422C197.598 54.5422 197.016 54.7705 196.582 55.227C196.16 55.672 195.949 56.3168 195.949 57.1613V62.4336H193.997V53.0016H195.949V54.0801C196.268 53.6921 196.674 53.3896 197.164 53.1728C197.655 52.956 198.18 52.8476 198.739 52.8476C199.492 52.8476 200.166 53.0073 200.759 53.3269C201.352 53.6464 201.809 54.1086 202.128 54.7134C202.414 54.1428 202.859 53.6921 203.464 53.3611C204.068 53.0187 204.719 52.8476 205.415 52.8476ZM213.735 54.3882C214.066 53.9545 214.517 53.5893 215.088 53.2926C215.658 52.9959 216.303 52.8476 217.022 52.8476C217.844 52.8476 218.591 53.053 219.264 53.4638C219.949 53.8632 220.486 54.4281 220.874 55.1585C221.262 55.8888 221.456 56.7276 221.456 57.6748C221.456 58.622 221.262 59.4722 220.874 60.2254C220.486 60.9672 219.949 61.5492 219.264 61.9714C218.591 62.3822 217.844 62.5877 217.022 62.5877C216.303 62.5877 215.664 62.445 215.105 62.1597C214.546 61.863 214.089 61.4978 213.735 61.0642V66.9185H211.784V53.0016H213.735V54.3882ZM219.47 57.6748C219.47 57.0243 219.333 56.4652 219.059 55.9973C218.797 55.518 218.443 55.1585 217.998 54.9188C217.564 54.6678 217.096 54.5422 216.594 54.5422C216.103 54.5422 215.635 54.6678 215.19 54.9188C214.757 55.1699 214.403 55.5351 214.129 56.0144C213.867 56.4937 213.735 57.0586 213.735 57.7091C213.735 58.3595 213.867 58.9301 214.129 59.4208C214.403 59.9001 214.757 60.2653 215.19 60.5164C215.635 60.7675 216.103 60.893 216.594 60.893C217.096 60.893 217.564 60.7675 217.998 60.5164C218.443 60.2539 218.797 59.8773 219.059 59.3866C219.333 58.8959 219.47 58.3253 219.47 57.6748ZM225.337 49.7663V62.4336H223.385V49.7663H225.337ZM236.389 53.0016L230.604 66.8671H228.584L230.501 62.2795L226.786 53.0016H228.96L231.613 60.1911L234.369 53.0016H236.389ZM45.0865 96.6748C45.0865 95.7276 45.2805 94.8888 45.6685 94.1585C46.0679 93.4281 46.6043 92.8632 47.2776 92.4638C47.9623 92.053 48.7212 91.8476 49.5543 91.8476C50.1705 91.8476 50.7753 91.9845 51.3688 92.2584C51.9736 92.5209 52.4529 92.8746 52.8067 93.3197V88.7663H54.7752V101.434H52.8067V100.013C52.4871 100.469 52.0421 100.846 51.4715 101.143C50.9123 101.439 50.2675 101.588 49.5371 101.588C48.7155 101.588 47.9623 101.382 47.2776 100.971C46.6043 100.549 46.0679 99.9672 45.6685 99.2254C45.2805 98.4722 45.0865 97.622 45.0865 96.6748ZM52.8067 96.7091C52.8067 96.0586 52.6697 95.4937 52.3958 95.0144C52.1334 94.5351 51.7853 94.1699 51.3516 93.9188C50.918 93.6678 50.4501 93.5422 49.948 93.5422C49.4458 93.5422 48.978 93.6678 48.5443 93.9188C48.1107 94.1585 47.7569 94.518 47.483 94.9973C47.2205 95.4652 47.0893 96.0243 47.0893 96.6748C47.0893 97.3253 47.2205 97.8959 47.483 98.3866C47.7569 98.8773 48.1107 99.2539 48.5443 99.5164C48.9894 99.7675 49.4573 99.893 49.948 99.893C50.4501 99.893 50.918 99.7675 51.3516 99.5164C51.7853 99.2653 52.1334 98.9001 52.3958 98.4208C52.6697 97.9301 52.8067 97.3595 52.8067 96.7091ZM65.8802 92.0016V101.434H63.9288V100.321C63.6206 100.709 63.2155 101.017 62.7134 101.245C62.2227 101.462 61.6977 101.571 61.1385 101.571C60.3968 101.571 59.7292 101.416 59.1357 101.108C58.5537 100.8 58.0915 100.344 57.7492 99.7389C57.4182 99.1341 57.2528 98.4037 57.2528 97.5478V92.0016H59.1871V97.2568C59.1871 98.1013 59.3982 98.7518 59.8205 99.2083C60.2427 99.6533 60.819 99.8759 61.5494 99.8759C62.2797 99.8759 62.856 99.6533 63.2783 99.2083C63.7119 98.7518 63.9288 98.1013 63.9288 97.2568V92.0016H65.8802ZM79.8726 91.8476C80.6144 91.8476 81.2763 92.0016 81.8583 92.3098C82.4517 92.6179 82.9139 93.0744 83.2448 93.6792C83.5872 94.284 83.7584 95.0144 83.7584 95.8703V101.434H81.824V96.1613C81.824 95.3168 81.6129 94.672 81.1907 94.227C80.7684 93.7705 80.1921 93.5422 79.4618 93.5422C78.7314 93.5422 78.1494 93.7705 77.7158 94.227C77.2935 94.672 77.0824 95.3168 77.0824 96.1613V101.434H75.1481V96.1613C75.1481 95.3168 74.9369 94.672 74.5147 94.227C74.0925 93.7705 73.5162 93.5422 72.7858 93.5422C72.0554 93.5422 71.4734 93.7705 71.0398 94.227C70.6175 94.672 70.4064 95.3168 70.4064 96.1613V101.434H68.455V92.0016H70.4064V93.0801C70.7259 92.6921 71.1311 92.3896 71.6218 92.1728C72.1125 91.956 72.6374 91.8476 73.1966 91.8476C73.9498 91.8476 74.6231 92.0073 75.2165 92.3269C75.81 92.6464 76.2664 93.1086 76.586 93.7134C76.8713 93.1428 77.3163 92.6921 77.9212 92.3611C78.526 92.0187 79.1765 91.8476 79.8726 91.8476ZM97.6592 91.8476C98.401 91.8476 99.0628 92.0016 99.6449 92.3098C100.238 92.6179 100.7 93.0744 101.031 93.6792C101.374 94.284 101.545 95.0144 101.545 95.8703V101.434H99.6106V96.1613C99.6106 95.3168 99.3995 94.672 98.9773 94.227C98.555 93.7705 97.9787 93.5422 97.2484 93.5422C96.518 93.5422 95.936 93.7705 95.5023 94.227C95.0801 94.672 94.869 95.3168 94.869 96.1613V101.434H92.9346V96.1613C92.9346 95.3168 92.7235 94.672 92.3013 94.227C91.879 93.7705 91.3027 93.5422 90.5724 93.5422C89.842 93.5422 89.26 93.7705 88.8263 94.227C88.4041 94.672 88.193 95.3168 88.193 96.1613V101.434H86.2415V92.0016H88.193V93.0801C88.5125 92.6921 88.9176 92.3896 89.4084 92.1728C89.8991 91.956 90.424 91.8476 90.9832 91.8476C91.7364 91.8476 92.4097 92.0073 93.0031 92.3269C93.5965 92.6464 94.053 93.1086 94.3725 93.7134C94.6578 93.1428 95.1029 92.6921 95.7077 92.3611C96.3126 92.0187 96.9631 91.8476 97.6592 91.8476ZM112.519 92.0016L106.733 105.867H104.713L106.63 101.28L102.915 92.0016H105.089L107.743 99.1911L110.499 92.0016H112.519ZM120.715 93.5936V98.8146C120.715 99.1683 120.794 99.4251 120.954 99.5849C121.125 99.7332 121.411 99.8074 121.81 99.8074H123.008V101.434H121.468C120.589 101.434 119.916 101.228 119.448 100.817C118.98 100.407 118.746 99.7389 118.746 98.8146V93.5936H117.633V92.0016H118.746V89.6565H120.715V92.0016H123.008V93.5936H120.715ZM133.452 96.4865C133.452 96.8403 133.429 97.1598 133.383 97.4451H126.176C126.233 98.1983 126.513 98.8031 127.015 99.2596C127.517 99.7161 128.134 99.9443 128.864 99.9443C129.914 99.9443 130.656 99.505 131.089 98.6263H133.195C132.909 99.4936 132.39 100.207 131.637 100.766C130.895 101.314 129.971 101.588 128.864 101.588C127.962 101.588 127.152 101.388 126.433 100.989C125.726 100.578 125.166 100.007 124.756 99.2767C124.356 98.535 124.156 97.6791 124.156 96.7091C124.156 95.739 124.35 94.8888 124.738 94.1585C125.138 93.4167 125.691 92.8461 126.399 92.4467C127.118 92.0473 127.94 91.8476 128.864 91.8476C129.754 91.8476 130.547 92.0416 131.243 92.4296C131.939 92.8176 132.481 93.3654 132.869 94.0729C133.258 94.769 133.452 95.5736 133.452 96.4865ZM131.414 95.8703C131.403 95.1513 131.146 94.575 130.644 94.1414C130.142 93.7077 129.52 93.4909 128.778 93.4909C128.105 93.4909 127.529 93.7077 127.049 94.1414C126.57 94.5636 126.285 95.1399 126.194 95.8703H131.414ZM139.412 96.6577L142.459 101.434H140.251L138.213 98.2325L136.296 101.434H134.259L137.306 96.7946L134.259 92.0016H136.467L138.505 95.2027L140.422 92.0016H142.459L139.412 96.6577ZM146.191 93.5936V98.8146C146.191 99.1683 146.271 99.4251 146.43 99.5849C146.602 99.7332 146.887 99.8074 147.286 99.8074H148.485V101.434H146.944C146.065 101.434 145.392 101.228 144.924 100.817C144.456 100.407 144.222 99.7389 144.222 98.8146V93.5936H143.11V92.0016H144.222V89.6565H146.191V92.0016H148.485V93.5936H146.191ZM158.821 101.588C157.931 101.588 157.126 101.388 156.407 100.989C155.688 100.578 155.124 100.007 154.713 99.2767C154.302 98.535 154.097 97.6791 154.097 96.7091C154.097 95.7504 154.308 94.9003 154.73 94.1585C155.152 93.4167 155.728 92.8461 156.459 92.4467C157.189 92.0473 158.005 91.8476 158.907 91.8476C159.808 91.8476 160.624 92.0473 161.354 92.4467C162.085 92.8461 162.661 93.4167 163.083 94.1585C163.506 94.9003 163.717 95.7504 163.717 96.7091C163.717 97.6677 163.5 98.5178 163.066 99.2596C162.633 100.001 162.039 100.578 161.286 100.989C160.544 101.388 159.723 101.588 158.821 101.588ZM158.821 99.893C159.323 99.893 159.791 99.7732 160.225 99.5335C160.67 99.2939 161.029 98.9344 161.303 98.4551C161.577 97.9758 161.714 97.3938 161.714 96.7091C161.714 96.0243 161.583 95.448 161.32 94.9801C161.058 94.5008 160.71 94.1414 160.276 93.9017C159.842 93.6621 159.375 93.5422 158.872 93.5422C158.37 93.5422 157.902 93.6621 157.469 93.9017C157.046 94.1414 156.71 94.5008 156.459 94.9801C156.208 95.448 156.082 96.0243 156.082 96.7091C156.082 97.7247 156.339 98.5121 156.852 99.0713C157.377 99.6191 158.034 99.893 158.821 99.893ZM169.6 93.5936H167.854V101.434H165.886V93.5936H164.773V92.0016H165.886V91.334C165.886 90.2499 166.171 89.4625 166.741 88.9718C167.323 88.4696 168.231 88.2186 169.463 88.2186V89.8448C168.87 89.8448 168.453 89.9589 168.214 90.1871C167.974 90.404 167.854 90.7863 167.854 91.334V92.0016H169.6V93.5936ZM178.053 93.5936V98.8146C178.053 99.1683 178.133 99.4251 178.293 99.5849C178.464 99.7332 178.749 99.8074 179.148 99.8074H180.347V101.434H178.806C177.927 101.434 177.254 101.228 176.786 100.817C176.318 100.407 176.084 99.7389 176.084 98.8146V93.5936H174.972V92.0016H176.084V89.6565H178.053V92.0016H180.347V93.5936H178.053ZM187.024 91.8476C187.743 91.8476 188.382 92.0016 188.941 92.3098C189.512 92.6179 189.957 93.0744 190.276 93.6792C190.607 94.284 190.773 95.0144 190.773 95.8703V101.434H188.838V96.1613C188.838 95.3168 188.627 94.672 188.205 94.227C187.783 93.7705 187.206 93.5422 186.476 93.5422C185.746 93.5422 185.164 93.7705 184.73 94.227C184.308 94.672 184.097 95.3168 184.097 96.1613V101.434H182.145V88.7663H184.097V93.0972C184.428 92.6978 184.844 92.3896 185.346 92.1728C185.86 91.956 186.419 91.8476 187.024 91.8476ZM201.906 96.4865C201.906 96.8403 201.884 97.1598 201.838 97.4451H194.631C194.688 98.1983 194.968 98.8031 195.47 99.2596C195.972 99.7161 196.588 99.9443 197.319 99.9443C198.369 99.9443 199.11 99.505 199.544 98.6263H201.65C201.364 99.4936 200.845 100.207 200.092 100.766C199.35 101.314 198.426 101.588 197.319 101.588C196.417 101.588 195.607 101.388 194.888 100.989C194.181 100.578 193.621 100.007 193.211 99.2767C192.811 98.535 192.611 97.6791 192.611 96.7091C192.611 95.739 192.805 94.8888 193.193 94.1585C193.593 93.4167 194.146 92.8461 194.854 92.4467C195.573 92.0473 196.394 91.8476 197.319 91.8476C198.209 91.8476 199.002 92.0416 199.698 92.4296C200.394 92.8176 200.936 93.3654 201.324 94.0729C201.712 94.769 201.906 95.5736 201.906 96.4865ZM199.869 95.8703C199.858 95.1513 199.601 94.575 199.099 94.1414C198.597 93.7077 197.975 93.4909 197.233 93.4909C196.56 93.4909 195.984 93.7077 195.504 94.1414C195.025 94.5636 194.74 95.1399 194.648 95.8703H199.869ZM210.225 93.3882C210.556 92.9545 211.007 92.5893 211.577 92.2926C212.148 91.9959 212.793 91.8476 213.512 91.8476C214.333 91.8476 215.081 92.053 215.754 92.4638C216.439 92.8632 216.975 93.4281 217.363 94.1585C217.751 94.8888 217.945 95.7276 217.945 96.6748C217.945 97.622 217.751 98.4722 217.363 99.2254C216.975 99.9672 216.439 100.549 215.754 100.971C215.081 101.382 214.333 101.588 213.512 101.588C212.793 101.588 212.154 101.445 211.594 101.16C211.035 100.863 210.579 100.498 210.225 100.064V105.918H208.273V92.0016H210.225V93.3882ZM215.959 96.6748C215.959 96.0243 215.822 95.4652 215.549 94.9973C215.286 94.518 214.932 94.1585 214.487 93.9188C214.054 93.6678 213.586 93.5422 213.084 93.5422C212.593 93.5422 212.125 93.6678 211.68 93.9188C211.246 94.1699 210.893 94.5351 210.619 95.0144C210.356 95.4937 210.225 96.0586 210.225 96.7091C210.225 97.3595 210.356 97.9301 210.619 98.4208C210.893 98.9001 211.246 99.2653 211.68 99.5164C212.125 99.7675 212.593 99.893 213.084 99.893C213.586 99.893 214.054 99.7675 214.487 99.5164C214.932 99.2539 215.286 98.8773 215.549 98.3866C215.822 97.8959 215.959 97.3253 215.959 96.6748ZM221.826 93.3711C222.112 92.8918 222.488 92.5209 222.956 92.2584C223.435 91.9845 224 91.8476 224.651 91.8476V93.8675H224.154C223.39 93.8675 222.808 94.0615 222.408 94.4495C222.02 94.8375 221.826 95.5108 221.826 96.4694V101.434H219.875V92.0016H221.826V93.3711ZM227.437 90.752C227.084 90.752 226.787 90.6322 226.547 90.3925C226.308 90.1529 226.188 89.8562 226.188 89.5024C226.188 89.1486 226.308 88.8519 226.547 88.6123C226.787 88.3726 227.084 88.2528 227.437 88.2528C227.78 88.2528 228.071 88.3726 228.31 88.6123C228.55 88.8519 228.67 89.1486 228.67 89.5024C228.67 89.8562 228.55 90.1529 228.31 90.3925C228.071 90.6322 227.78 90.752 227.437 90.752ZM228.396 92.0016V101.434H226.445V92.0016H228.396ZM235.717 91.8476C236.459 91.8476 237.12 92.0016 237.702 92.3098C238.296 92.6179 238.758 93.0744 239.089 93.6792C239.42 94.284 239.585 95.0144 239.585 95.8703V101.434H237.651V96.1613C237.651 95.3168 237.44 94.672 237.018 94.227C236.596 93.7705 236.019 93.5422 235.289 93.5422C234.558 93.5422 233.976 93.7705 233.543 94.227C233.121 94.672 232.909 95.3168 232.909 96.1613V101.434H230.958V92.0016H232.909V93.0801C233.229 92.6921 233.634 92.3896 234.125 92.1728C234.627 91.956 235.158 91.8476 235.717 91.8476ZM244.351 93.5936V98.8146C244.351 99.1683 244.431 99.4251 244.591 99.5849C244.762 99.7332 245.047 99.8074 245.447 99.8074H246.645V101.434H245.104C244.226 101.434 243.552 101.228 243.085 100.817C242.617 100.407 242.383 99.7389 242.383 98.8146V93.5936H241.27V92.0016H242.383V89.6565H244.351V92.0016H246.645V93.5936H244.351ZM249.437 90.752C249.083 90.752 248.786 90.6322 248.546 90.3925C248.307 90.1529 248.187 89.8562 248.187 89.5024C248.187 89.1486 248.307 88.8519 248.546 88.6123C248.786 88.3726 249.083 88.2528 249.437 88.2528C249.779 88.2528 250.07 88.3726 250.31 88.6123C250.549 88.8519 250.669 89.1486 250.669 89.5024C250.669 89.8562 250.549 90.1529 250.31 90.3925C250.07 90.6322 249.779 90.752 249.437 90.752ZM250.395 92.0016V101.434H248.444V92.0016H250.395ZM257.716 91.8476C258.458 91.8476 259.12 92.0016 259.702 92.3098C260.295 92.6179 260.757 93.0744 261.088 93.6792C261.419 94.284 261.585 95.0144 261.585 95.8703V101.434H259.65V96.1613C259.65 95.3168 259.439 94.672 259.017 94.227C258.595 93.7705 258.018 93.5422 257.288 93.5422C256.558 93.5422 255.976 93.7705 255.542 94.227C255.12 94.672 254.909 95.3168 254.909 96.1613V101.434H252.957V92.0016H254.909V93.0801C255.228 92.6921 255.633 92.3896 256.124 92.1728C256.626 91.956 257.157 91.8476 257.716 91.8476ZM267.874 91.8476C268.604 91.8476 269.249 91.9959 269.808 92.2926C270.379 92.5779 270.824 92.9374 271.144 93.3711V92.0016H273.112V101.588C273.112 102.455 272.929 103.225 272.564 103.899C272.199 104.583 271.668 105.12 270.972 105.508C270.288 105.896 269.466 106.09 268.507 106.09C267.229 106.09 266.168 105.787 265.323 105.182C264.479 104.589 264 103.779 263.886 102.752H265.82C265.968 103.242 266.282 103.636 266.761 103.933C267.252 104.241 267.834 104.395 268.507 104.395C269.295 104.395 269.928 104.155 270.407 103.676C270.898 103.197 271.144 102.501 271.144 101.588V100.013C270.813 100.458 270.362 100.834 269.791 101.143C269.232 101.439 268.593 101.588 267.874 101.588C267.052 101.588 266.299 101.382 265.614 100.971C264.941 100.549 264.405 99.9672 264.005 99.2254C263.617 98.4722 263.423 97.622 263.423 96.6748C263.423 95.7276 263.617 94.8888 264.005 94.1585C264.405 93.4281 264.941 92.8632 265.614 92.4638C266.299 92.053 267.052 91.8476 267.874 91.8476ZM271.144 96.7091C271.144 96.0586 271.007 95.4937 270.733 95.0144C270.47 94.5351 270.122 94.1699 269.688 93.9188C269.255 93.6678 268.787 93.5422 268.285 93.5422C267.783 93.5422 267.315 93.6678 266.881 93.9188C266.448 94.1585 266.094 94.518 265.82 94.9973C265.557 95.4652 265.426 96.0243 265.426 96.6748C265.426 97.3253 265.557 97.8959 265.82 98.3866C266.094 98.8773 266.448 99.2539 266.881 99.5164C267.326 99.7675 267.794 99.893 268.285 99.893C268.787 99.893 269.255 99.7675 269.688 99.5164C270.122 99.2653 270.47 98.9001 270.733 98.4208C271.007 97.9301 271.144 97.3595 271.144 96.7091Z" fill="white"/>
<path d="M51.0998 131.927C52.7284 131.927 54.1516 132.242 55.3695 132.873C56.6019 133.489 57.5483 134.384 58.2086 135.558C58.8835 136.717 59.221 138.074 59.221 139.63C59.221 141.185 58.8835 142.535 58.2086 143.679C57.5483 144.824 56.6019 145.704 55.3695 146.32C54.1516 146.922 52.7284 147.223 51.0998 147.223H46.1038V131.927H51.0998ZM51.0998 145.176C52.8898 145.176 54.2617 144.692 55.2154 143.723C56.1691 142.755 56.646 141.39 56.646 139.63C56.646 137.854 56.1691 136.468 55.2154 135.47C54.2617 134.472 52.8898 133.973 51.0998 133.973H48.6128V145.176H51.0998ZM62.9841 133.489C62.5293 133.489 62.1478 133.335 61.8397 133.027C61.5316 132.719 61.3775 132.337 61.3775 131.883C61.3775 131.428 61.5316 131.046 61.8397 130.738C62.1478 130.43 62.5293 130.276 62.9841 130.276C63.4243 130.276 63.7985 130.43 64.1066 130.738C64.4147 131.046 64.5688 131.428 64.5688 131.883C64.5688 132.337 64.4147 132.719 64.1066 133.027C63.7985 133.335 63.4243 133.489 62.9841 133.489ZM64.2166 135.096V147.223H61.7076V135.096H64.2166ZM73.6291 134.898C74.5829 134.898 75.4339 135.096 76.1822 135.492C76.9451 135.888 77.5394 136.475 77.9649 137.253C78.3904 138.03 78.6031 138.969 78.6031 140.07V147.223H76.1161V140.444C76.1161 139.358 75.8447 138.529 75.3018 137.957C74.7589 137.37 74.018 137.077 73.0789 137.077C72.1399 137.077 71.3916 137.37 70.834 137.957C70.2912 138.529 70.0197 139.358 70.0197 140.444V147.223H67.5107V135.096H70.0197V136.482C70.4305 135.984 70.9514 135.595 71.5823 135.316C72.2279 135.037 72.9102 134.898 73.6291 134.898ZM92.9179 140.862C92.9179 141.317 92.8886 141.728 92.8299 142.095H83.5642C83.6376 143.063 83.997 143.841 84.6426 144.428C85.2882 145.014 86.0805 145.308 87.0196 145.308C88.3694 145.308 89.3231 144.743 89.8807 143.613H92.5878C92.221 144.728 91.5534 145.645 90.585 146.364C89.6313 147.069 88.4428 147.421 87.0196 147.421C85.8604 147.421 84.8187 147.164 83.8943 146.65C82.9846 146.122 82.2657 145.389 81.7375 144.45C81.2239 143.496 80.9672 142.395 80.9672 141.148C80.9672 139.901 81.2166 138.808 81.7155 137.869C82.229 136.915 82.9406 136.182 83.8503 135.668C84.7747 135.155 85.8311 134.898 87.0196 134.898C88.164 134.898 89.1838 135.147 90.0788 135.646C90.9738 136.145 91.6707 136.849 92.1696 137.759C92.6685 138.654 92.9179 139.688 92.9179 140.862ZM90.2989 140.07C90.2842 139.145 89.9541 138.404 89.3085 137.847C88.6629 137.289 87.8632 137.011 86.9095 137.011C86.0438 137.011 85.3029 137.289 84.6866 137.847C84.0704 138.39 83.7036 139.131 83.5862 140.07H90.2989ZM99.7888 147.421C98.835 147.421 97.9767 147.252 97.2137 146.915C96.4654 146.562 95.8712 146.093 95.431 145.506C94.9909 144.904 94.7561 144.237 94.7268 143.503H97.3238C97.3678 144.017 97.6099 144.45 98.0501 144.802C98.5049 145.139 99.0698 145.308 99.7447 145.308C100.449 145.308 100.992 145.176 101.373 144.912C101.77 144.633 101.968 144.281 101.968 143.855C101.968 143.4 101.748 143.063 101.307 142.843C100.882 142.623 100.2 142.381 99.2606 142.117C98.3509 141.867 97.6099 141.625 97.0377 141.39C96.4654 141.156 95.9666 140.796 95.5411 140.312C95.1302 139.828 94.9248 139.189 94.9248 138.397C94.9248 137.752 95.1156 137.165 95.4971 136.636C95.8785 136.094 96.4214 135.668 97.1257 135.36C97.8447 135.052 98.6663 134.898 99.5907 134.898C100.97 134.898 102.078 135.25 102.914 135.954C103.765 136.644 104.22 137.59 104.279 138.793H101.77C101.726 138.25 101.505 137.818 101.109 137.495C100.713 137.172 100.178 137.011 99.5026 137.011C98.8424 137.011 98.3362 137.135 97.984 137.385C97.6319 137.634 97.4558 137.964 97.4558 138.375C97.4558 138.698 97.5732 138.969 97.808 139.189C98.0427 139.41 98.3288 139.586 98.6663 139.718C99.0038 139.835 99.5026 139.989 100.163 140.18C101.043 140.415 101.762 140.657 102.32 140.906C102.892 141.141 103.384 141.493 103.794 141.963C104.205 142.432 104.418 143.056 104.433 143.833C104.433 144.523 104.242 145.139 103.86 145.682C103.479 146.225 102.936 146.65 102.232 146.959C101.542 147.267 100.728 147.421 99.7888 147.421ZM113.416 134.898C114.34 134.898 115.162 135.096 115.881 135.492C116.615 135.888 117.187 136.475 117.598 137.253C118.023 138.03 118.236 138.969 118.236 140.07V147.223H115.749V140.444C115.749 139.358 115.478 138.529 114.935 137.957C114.392 137.37 113.651 137.077 112.712 137.077C111.773 137.077 111.025 137.37 110.467 137.957C109.924 138.529 109.653 139.358 109.653 140.444V147.223H107.144V130.936H109.653V136.504C110.078 135.991 110.614 135.595 111.259 135.316C111.92 135.037 112.638 134.898 113.416 134.898ZM131.555 147.421C130.602 147.421 129.743 147.252 128.98 146.915C128.232 146.562 127.638 146.093 127.198 145.506C126.757 144.904 126.523 144.237 126.493 143.503H129.09C129.134 144.017 129.376 144.45 129.817 144.802C130.271 145.139 130.836 145.308 131.511 145.308C132.216 145.308 132.758 145.176 133.14 144.912C133.536 144.633 133.734 144.281 133.734 143.855C133.734 143.4 133.514 143.063 133.074 142.843C132.648 142.623 131.966 142.381 131.027 142.117C130.117 141.867 129.376 141.625 128.804 141.39C128.232 141.156 127.733 140.796 127.308 140.312C126.897 139.828 126.691 139.189 126.691 138.397C126.691 137.752 126.882 137.165 127.264 136.636C127.645 136.094 128.188 135.668 128.892 135.36C129.611 135.052 130.433 134.898 131.357 134.898C132.736 134.898 133.844 135.25 134.681 135.954C135.532 136.644 135.986 137.59 136.045 138.793H133.536C133.492 138.25 133.272 137.818 132.876 137.495C132.48 137.172 131.944 137.011 131.269 137.011C130.609 137.011 130.103 137.135 129.751 137.385C129.398 137.634 129.222 137.964 129.222 138.375C129.222 138.698 129.34 138.969 129.574 139.189C129.809 139.41 130.095 139.586 130.433 139.718C130.77 139.835 131.269 139.989 131.929 140.18C132.81 140.415 133.529 140.657 134.086 140.906C134.659 141.141 135.15 141.493 135.561 141.963C135.972 142.432 136.184 143.056 136.199 143.833C136.199 144.523 136.008 145.139 135.627 145.682C135.245 146.225 134.703 146.65 133.998 146.959C133.309 147.267 132.494 147.421 131.555 147.421ZM140.187 133.489C139.732 133.489 139.35 133.335 139.042 133.027C138.734 132.719 138.58 132.337 138.58 131.883C138.58 131.428 138.734 131.046 139.042 130.738C139.35 130.43 139.732 130.276 140.187 130.276C140.627 130.276 141.001 130.43 141.309 130.738C141.617 131.046 141.771 131.428 141.771 131.883C141.771 132.337 141.617 132.719 141.309 133.027C141.001 133.335 140.627 133.489 140.187 133.489ZM141.419 135.096V147.223H138.91V135.096H141.419ZM150.832 134.898C151.785 134.898 152.636 135.096 153.385 135.492C154.148 135.888 154.742 136.475 155.167 137.253C155.593 138.03 155.806 138.969 155.806 140.07V147.223H153.319V140.444C153.319 139.358 153.047 138.529 152.504 137.957C151.961 137.37 151.22 137.077 150.281 137.077C149.342 137.077 148.594 137.37 148.037 137.957C147.494 138.529 147.222 139.358 147.222 140.444V147.223H144.713V135.096H147.222V136.482C147.633 135.984 148.154 135.595 148.785 135.316C149.43 135.037 150.113 134.898 150.832 134.898ZM163.892 134.898C164.831 134.898 165.66 135.089 166.379 135.47C167.113 135.837 167.685 136.299 168.096 136.857V135.096H170.627V147.421C170.627 148.536 170.392 149.526 169.922 150.392C169.453 151.272 168.771 151.962 167.876 152.461C166.995 152.96 165.939 153.209 164.706 153.209C163.063 153.209 161.698 152.82 160.613 152.043C159.527 151.28 158.911 150.238 158.764 148.917H161.251C161.442 149.548 161.845 150.054 162.461 150.436C163.092 150.832 163.841 151.03 164.706 151.03C165.719 151.03 166.533 150.722 167.149 150.106C167.78 149.49 168.096 148.595 168.096 147.421V145.396C167.67 145.968 167.091 146.452 166.357 146.849C165.638 147.23 164.816 147.421 163.892 147.421C162.836 147.421 161.867 147.157 160.987 146.628C160.121 146.086 159.432 145.337 158.918 144.384C158.419 143.415 158.17 142.322 158.17 141.104C158.17 139.886 158.419 138.808 158.918 137.869C159.432 136.93 160.121 136.204 160.987 135.69C161.867 135.162 162.836 134.898 163.892 134.898ZM168.096 141.148C168.096 140.312 167.92 139.586 167.567 138.969C167.23 138.353 166.782 137.884 166.225 137.561C165.667 137.238 165.066 137.077 164.42 137.077C163.775 137.077 163.173 137.238 162.615 137.561C162.058 137.869 161.603 138.331 161.251 138.947C160.913 139.549 160.745 140.268 160.745 141.104C160.745 141.941 160.913 142.674 161.251 143.305C161.603 143.936 162.058 144.42 162.615 144.758C163.188 145.08 163.789 145.242 164.42 145.242C165.066 145.242 165.667 145.08 166.225 144.758C166.782 144.435 167.23 143.965 167.567 143.349C167.92 142.718 168.096 141.985 168.096 141.148ZM180.195 134.898C181.119 134.898 181.941 135.096 182.66 135.492C183.393 135.888 183.965 136.475 184.376 137.253C184.802 138.03 185.014 138.969 185.014 140.07V147.223H182.528V140.444C182.528 139.358 182.256 138.529 181.713 137.957C181.17 137.37 180.429 137.077 179.49 137.077C178.551 137.077 177.803 137.37 177.245 137.957C176.703 138.529 176.431 139.358 176.431 140.444V147.223H173.922V130.936H176.431V136.504C176.857 135.991 177.392 135.595 178.038 135.316C178.698 135.037 179.417 134.898 180.195 134.898Z" fill="white"/>
<g clip-path="url(#clip0_3247_107011)">
<g filter="url(#filter1_d_3247_107011)">
<path d="M260.138 129.798C260.406 129.352 261.053 129.352 261.322 129.798L264.217 134.61C264.314 134.77 264.471 134.884 264.653 134.926L270.124 136.193C270.632 136.311 270.831 136.926 270.49 137.319L266.809 141.56C266.686 141.701 266.626 141.886 266.642 142.073L267.128 147.667C267.173 148.186 266.649 148.566 266.17 148.363L260.999 146.173C260.827 146.1 260.632 146.1 260.46 146.173L255.289 148.363C254.81 148.566 254.287 148.186 254.332 147.667L254.817 142.073C254.833 141.886 254.773 141.701 254.651 141.56L250.969 137.319C250.628 136.926 250.828 136.311 251.335 136.193L256.806 134.926C256.988 134.884 257.146 134.77 257.242 134.61L260.138 129.798Z" fill="#F2C94C"/>
<path d="M260.728 136.428L261.865 138.317L264.013 138.815L262.568 140.48L262.758 142.677L260.728 141.817L258.697 142.677L258.888 140.48L257.443 138.815L259.591 138.317L260.728 136.428Z" fill="#F2C94C"/>
<path d="M260.728 136.428L261.865 138.317L264.013 138.815L262.568 140.48L262.758 142.677L260.728 141.817L258.697 142.677L258.888 140.48L257.443 138.815L259.591 138.317L260.728 136.428Z" fill="#F2C94C"/>
<path d="M260.728 136.428L261.865 138.317L264.013 138.815L262.568 140.48L262.758 142.677L260.728 141.817L258.697 142.677L258.888 140.48L257.443 138.815L259.591 138.317L260.728 136.428Z" fill="#F2C94C"/>
<path d="M260.728 136.428L261.865 138.317L264.013 138.815L262.568 140.48L262.758 142.677L260.728 141.817L258.697 142.677L258.888 140.48L257.443 138.815L259.591 138.317L260.728 136.428Z" fill="#F2C94C"/>
<path d="M260.728 136.428L261.865 138.317L264.013 138.815L262.568 140.48L262.758 142.677L260.728 141.817L258.697 142.677L258.888 140.48L257.443 138.815L259.591 138.317L260.728 136.428Z" fill="#F2C94C"/>
</g>
<g filter="url(#filter2_d_3247_107011)">
<path d="M250.22 129.804C250.488 129.358 251.135 129.358 251.404 129.804L254.299 134.615C254.396 134.776 254.553 134.89 254.735 134.932L260.206 136.199C260.714 136.317 260.913 136.932 260.572 137.325L256.891 141.566C256.768 141.707 256.708 141.892 256.724 142.079L257.21 147.673C257.255 148.192 256.732 148.572 256.252 148.369L251.081 146.179C250.909 146.106 250.714 146.106 250.542 146.179L245.371 148.369C244.892 148.572 244.369 148.192 244.414 147.673L244.899 142.079C244.915 141.892 244.855 141.707 244.733 141.566L241.051 137.325C240.71 136.932 240.91 136.317 241.417 136.199L246.888 134.932C247.07 134.89 247.228 134.776 247.324 134.615L250.22 129.804Z" fill="#F2C94C"/>
<path d="M250.818 136.422L251.955 138.311L254.103 138.809L252.657 140.474L252.848 142.671L250.818 141.811L248.787 142.671L248.978 140.474L247.532 138.809L249.681 138.311L250.818 136.422Z" fill="#F2C94C"/>
<path d="M250.818 136.422L251.955 138.311L254.103 138.809L252.657 140.474L252.848 142.671L250.818 141.811L248.787 142.671L248.978 140.474L247.532 138.809L249.681 138.311L250.818 136.422Z" fill="#F2C94C"/>
<path d="M250.818 136.422L251.955 138.311L254.103 138.809L252.657 140.474L252.848 142.671L250.818 141.811L248.787 142.671L248.978 140.474L247.532 138.809L249.681 138.311L250.818 136.422Z" fill="#F2C94C"/>
<path d="M250.818 136.422L251.955 138.311L254.103 138.809L252.657 140.474L252.848 142.671L250.818 141.811L248.787 142.671L248.978 140.474L247.532 138.809L249.681 138.311L250.818 136.422Z" fill="#F2C94C"/>
<path d="M250.818 136.422L251.955 138.311L254.103 138.809L252.657 140.474L252.848 142.671L250.818 141.811L248.787 142.671L248.978 140.474L247.532 138.809L249.681 138.311L250.818 136.422Z" fill="#F2C94C"/>
</g>
<g filter="url(#filter3_d_3247_107011)">
<path d="M240.317 129.804C240.586 129.358 241.233 129.358 241.501 129.804L244.397 134.615C244.493 134.776 244.651 134.89 244.833 134.932L250.304 136.199C250.811 136.317 251.011 136.932 250.67 137.325L246.988 141.566C246.866 141.707 246.806 141.892 246.822 142.079L247.307 147.673C247.352 148.192 246.829 148.572 246.35 148.369L241.179 146.179C241.007 146.106 240.812 146.106 240.64 146.179L235.469 148.369C234.99 148.572 234.466 148.192 234.511 147.673L234.997 142.079C235.013 141.892 234.953 141.707 234.83 141.566L231.149 137.325C230.808 136.932 231.008 136.317 231.515 136.199L236.986 134.932C237.168 134.89 237.325 134.776 237.422 134.615L240.317 129.804Z" fill="#F2C94C"/>
<path d="M240.915 136.428L242.052 138.317L244.201 138.815L242.755 140.48L242.946 142.677L240.915 141.817L238.885 142.677L239.076 140.48L237.63 138.815L239.778 138.317L240.915 136.428Z" fill="#F2C94C"/>
<path d="M240.915 136.428L242.052 138.317L244.201 138.815L242.755 140.48L242.946 142.677L240.915 141.817L238.885 142.677L239.076 140.48L237.63 138.815L239.778 138.317L240.915 136.428Z" fill="#F2C94C"/>
<path d="M240.915 136.428L242.052 138.317L244.201 138.815L242.755 140.48L242.946 142.677L240.915 141.817L238.885 142.677L239.076 140.48L237.63 138.815L239.778 138.317L240.915 136.428Z" fill="#F2C94C"/>
<path d="M240.915 136.428L242.052 138.317L244.201 138.815L242.755 140.48L242.946 142.677L240.915 141.817L238.885 142.677L239.076 140.48L237.63 138.815L239.778 138.317L240.915 136.428Z" fill="#F2C94C"/>
<path d="M240.915 136.428L242.052 138.317L244.201 138.815L242.755 140.48L242.946 142.677L240.915 141.817L238.885 142.677L239.076 140.48L237.63 138.815L239.778 138.317L240.915 136.428Z" fill="#F2C94C"/>
</g>
<g filter="url(#filter4_d_3247_107011)">
<path d="M230.411 129.798C230.68 129.352 231.327 129.352 231.595 129.798L234.491 134.61C234.587 134.77 234.745 134.884 234.927 134.926L240.398 136.193C240.905 136.311 241.105 136.926 240.763 137.319L237.082 141.56C236.96 141.701 236.899 141.886 236.916 142.073L237.401 147.667C237.446 148.186 236.923 148.566 236.443 148.363L231.273 146.173C231.1 146.1 230.906 146.1 230.734 146.173L225.563 148.363C225.083 148.566 224.56 148.186 224.605 147.667L225.091 142.073C225.107 141.886 225.047 141.701 224.924 141.56L221.243 137.319C220.901 136.926 221.101 136.311 221.609 136.193L227.079 134.926C227.262 134.884 227.419 134.77 227.516 134.61L230.411 129.798Z" fill="#F2C94C"/>
<path d="M230.997 136.414L232.134 138.303L234.283 138.801L232.837 140.466L233.028 142.663L230.997 141.803L228.967 142.663L229.158 140.466L227.712 138.801L229.86 138.303L230.997 136.414Z" fill="#F2C94C"/>
<path d="M230.997 136.414L232.134 138.303L234.283 138.801L232.837 140.466L233.028 142.663L230.997 141.803L228.967 142.663L229.158 140.466L227.712 138.801L229.86 138.303L230.997 136.414Z" fill="#F2C94C"/>
<path d="M230.997 136.414L232.134 138.303L234.283 138.801L232.837 140.466L233.028 142.663L230.997 141.803L228.967 142.663L229.158 140.466L227.712 138.801L229.86 138.303L230.997 136.414Z" fill="#F2C94C"/>
<path d="M230.997 136.414L232.134 138.303L234.283 138.801L232.837 140.466L233.028 142.663L230.997 141.803L228.967 142.663L229.158 140.466L227.712 138.801L229.86 138.303L230.997 136.414Z" fill="#F2C94C"/>
<path d="M230.997 136.414L232.134 138.303L234.283 138.801L232.837 140.466L233.028 142.663L230.997 141.803L228.967 142.663L229.158 140.466L227.712 138.801L229.86 138.303L230.997 136.414Z" fill="#F2C94C"/>
</g>
<g filter="url(#filter5_d_3247_107011)">
<path d="M220.501 129.804C220.77 129.358 221.416 129.358 221.685 129.804L224.581 134.615C224.677 134.776 224.834 134.89 225.017 134.932L230.487 136.199C230.995 136.317 231.195 136.932 230.853 137.325L227.172 141.566C227.049 141.707 226.989 141.892 227.006 142.079L227.491 147.673C227.536 148.192 227.013 148.572 226.533 148.369L221.362 146.179C221.19 146.106 220.996 146.106 220.823 146.179L215.653 148.369C215.173 148.572 214.65 148.192 214.695 147.673L215.18 142.079C215.197 141.892 215.137 141.707 215.014 141.566L211.333 137.325C210.991 136.932 211.191 136.317 211.698 136.199L217.169 134.932C217.352 134.89 217.509 134.776 217.605 134.615L220.501 129.804Z" fill="#F2C94C"/>
<path d="M221.091 136.422L222.228 138.311L224.376 138.809L222.931 140.474L223.121 142.671L221.091 141.811L219.061 142.671L219.251 140.474L217.806 138.809L219.954 138.311L221.091 136.422Z" fill="#F2C94C"/>
<path d="M221.091 136.422L222.228 138.311L224.376 138.809L222.931 140.474L223.121 142.671L221.091 141.811L219.061 142.671L219.251 140.474L217.806 138.809L219.954 138.311L221.091 136.422Z" fill="#F2C94C"/>
<path d="M221.091 136.422L222.228 138.311L224.376 138.809L222.931 140.474L223.121 142.671L221.091 141.811L219.061 142.671L219.251 140.474L217.806 138.809L219.954 138.311L221.091 136.422Z" fill="#F2C94C"/>
<path d="M221.091 136.422L222.228 138.311L224.376 138.809L222.931 140.474L223.121 142.671L221.091 141.811L219.061 142.671L219.251 140.474L217.806 138.809L219.954 138.311L221.091 136.422Z" fill="#F2C94C"/>
<path d="M221.091 136.422L222.228 138.311L224.376 138.809L222.931 140.474L223.121 142.671L221.091 141.811L219.061 142.671L219.251 140.474L217.806 138.809L219.954 138.311L221.091 136.422Z" fill="#F2C94C"/>
</g>
</g>
<path d="M58.2673 170.669V182.566H56.3158V174.418L52.6868 182.566H51.3345L47.6884 174.418V182.566H45.737V170.669H47.8425L52.0192 179.999L56.1789 170.669H58.2673ZM69.374 173.134V182.566H67.4225V181.454C67.1144 181.842 66.7093 182.15 66.2072 182.378C65.7165 182.595 65.1915 182.703 64.6323 182.703C63.8905 182.703 63.2229 182.549 62.6295 182.241C62.0475 181.933 61.5853 181.477 61.243 180.872C60.912 180.267 60.7466 179.537 60.7466 178.681V173.134H62.6809V178.39C62.6809 179.234 62.892 179.885 63.3142 180.341C63.7365 180.786 64.3128 181.009 65.0432 181.009C65.7735 181.009 66.3498 180.786 66.7721 180.341C67.2057 179.885 67.4225 179.234 67.4225 178.39V173.134H69.374ZM83.3664 172.98C84.1082 172.98 84.7701 173.134 85.3521 173.443C85.9455 173.751 86.4077 174.207 86.7386 174.812C87.081 175.417 87.2522 176.147 87.2522 177.003V182.566H85.3178V177.294C85.3178 176.45 85.1067 175.805 84.6845 175.36C84.2622 174.903 83.6859 174.675 82.9556 174.675C82.2252 174.675 81.6432 174.903 81.2095 175.36C80.7873 175.805 80.5762 176.45 80.5762 177.294V182.566H78.6419V177.294C78.6419 176.45 78.4307 175.805 78.0085 175.36C77.5863 174.903 77.0099 174.675 76.2796 174.675C75.5492 174.675 74.9672 174.903 74.5336 175.36C74.1113 175.805 73.9002 176.45 73.9002 177.294V182.566H71.9488V173.134H73.9002V174.213C74.2197 173.825 74.6249 173.522 75.1156 173.306C75.6063 173.089 76.1312 172.98 76.6904 172.98C77.4436 172.98 78.1169 173.14 78.7103 173.46C79.3037 173.779 79.7602 174.241 80.0798 174.846C80.3651 174.276 80.8101 173.825 81.415 173.494C82.0198 173.152 82.6703 172.98 83.3664 172.98ZM91.6868 174.538C92.0177 174.082 92.4685 173.711 93.0391 173.425C93.6211 173.129 94.2659 172.98 94.9734 172.98C95.8065 172.98 96.5597 173.18 97.233 173.58C97.9063 173.979 98.4369 174.55 98.8249 175.291C99.2129 176.022 99.4069 176.86 99.4069 177.808C99.4069 178.755 99.2129 179.605 98.8249 180.358C98.4369 181.1 97.9006 181.682 97.2159 182.104C96.5425 182.515 95.7951 182.72 94.9734 182.72C94.243 182.72 93.5926 182.578 93.022 182.293C92.4628 182.007 92.0177 181.642 91.6868 181.197V182.566H89.7353V169.899H91.6868V174.538ZM97.4213 177.808C97.4213 177.157 97.2843 176.598 97.0104 176.13C96.748 175.651 96.3942 175.291 95.9491 175.052C95.5155 174.801 95.0476 174.675 94.5455 174.675C94.0547 174.675 93.5869 174.801 93.1418 175.052C92.7081 175.303 92.3544 175.668 92.0805 176.147C91.818 176.626 91.6868 177.191 91.6868 177.842C91.6868 178.492 91.818 179.063 92.0805 179.554C92.3544 180.033 92.7081 180.398 93.1418 180.649C93.5869 180.9 94.0547 181.026 94.5455 181.026C95.0476 181.026 95.5155 180.9 95.9491 180.649C96.3942 180.387 96.748 180.01 97.0104 179.519C97.2843 179.029 97.4213 178.458 97.4213 177.808ZM100.686 177.808C100.686 176.86 100.88 176.022 101.268 175.291C101.668 174.561 102.204 173.996 102.877 173.597C103.562 173.186 104.315 172.98 105.137 172.98C105.879 172.98 106.523 173.129 107.071 173.425C107.63 173.711 108.075 174.07 108.406 174.504V173.134H110.375V182.566H108.406V181.163C108.075 181.608 107.625 181.979 107.054 182.275C106.484 182.572 105.833 182.72 105.103 182.72C104.292 182.72 103.551 182.515 102.877 182.104C102.204 181.682 101.668 181.1 101.268 180.358C100.88 179.605 100.686 178.755 100.686 177.808ZM108.406 177.842C108.406 177.191 108.269 176.626 107.996 176.147C107.733 175.668 107.385 175.303 106.951 175.052C106.518 174.801 106.05 174.675 105.548 174.675C105.046 174.675 104.578 174.801 104.144 175.052C103.71 175.291 103.357 175.651 103.083 176.13C102.82 176.598 102.689 177.157 102.689 177.808C102.689 178.458 102.82 179.029 103.083 179.519C103.357 180.01 103.71 180.387 104.144 180.649C104.589 180.9 105.057 181.026 105.548 181.026C106.05 181.026 106.518 180.9 106.951 180.649C107.385 180.398 107.733 180.033 107.996 179.554C108.269 179.063 108.406 178.492 108.406 177.842ZM113.931 171.885C113.577 171.885 113.28 171.765 113.041 171.525C112.801 171.286 112.681 170.989 112.681 170.635C112.681 170.281 112.801 169.985 113.041 169.745C113.28 169.505 113.577 169.386 113.931 169.386C114.273 169.386 114.564 169.505 114.804 169.745C115.044 169.985 115.163 170.281 115.163 170.635C115.163 170.989 115.044 171.286 114.804 171.525C114.564 171.765 114.273 171.885 113.931 171.885ZM114.89 173.134V182.566H112.938V173.134H114.89ZM119.591 180.221L117.52 184.946H116.253L117.469 180.221H119.591ZM127.695 170.669V182.566H125.743V170.669H127.695ZM135.015 172.98C135.757 172.98 136.419 173.134 137.001 173.443C137.594 173.751 138.057 174.207 138.388 174.812C138.719 175.417 138.884 176.147 138.884 177.003V182.566H136.95V177.294C136.95 176.45 136.739 175.805 136.316 175.36C135.894 174.903 135.318 174.675 134.587 174.675C133.857 174.675 133.275 174.903 132.841 175.36C132.419 175.805 132.208 176.45 132.208 177.294V182.566H130.257V173.134H132.208V174.213C132.528 173.825 132.933 173.522 133.423 173.306C133.926 173.089 134.456 172.98 135.015 172.98ZM140.723 177.808C140.723 176.86 140.917 176.022 141.305 175.291C141.704 174.561 142.241 173.996 142.914 173.597C143.599 173.186 144.357 172.98 145.191 172.98C145.807 172.98 146.412 173.117 147.005 173.391C147.61 173.654 148.089 174.007 148.443 174.453V169.899H150.411V182.566H148.443V181.146C148.123 181.602 147.678 181.979 147.108 182.275C146.549 182.572 145.904 182.72 145.173 182.72C144.352 182.72 143.599 182.515 142.914 182.104C142.241 181.682 141.704 181.1 141.305 180.358C140.917 179.605 140.723 178.755 140.723 177.808ZM148.443 177.842C148.443 177.191 148.306 176.626 148.032 176.147C147.77 175.668 147.422 175.303 146.988 175.052C146.554 174.801 146.086 174.675 145.584 174.675C145.082 174.675 144.614 174.801 144.181 175.052C143.747 175.291 143.393 175.651 143.119 176.13C142.857 176.598 142.726 177.157 142.726 177.808C142.726 178.458 142.857 179.029 143.119 179.519C143.393 180.01 143.747 180.387 144.181 180.649C144.626 180.9 145.094 181.026 145.584 181.026C146.086 181.026 146.554 180.9 146.988 180.649C147.422 180.398 147.77 180.033 148.032 179.554C148.306 179.063 148.443 178.492 148.443 177.842ZM153.967 171.885C153.614 171.885 153.317 171.765 153.077 171.525C152.838 171.286 152.718 170.989 152.718 170.635C152.718 170.281 152.838 169.985 153.077 169.745C153.317 169.505 153.614 169.386 153.967 169.386C154.31 169.386 154.601 169.505 154.84 169.745C155.08 169.985 155.2 170.281 155.2 170.635C155.2 170.989 155.08 171.286 154.84 171.525C154.601 171.765 154.31 171.885 153.967 171.885ZM154.926 173.134V182.566H152.975V173.134H154.926ZM156.838 177.808C156.838 176.86 157.032 176.022 157.42 175.291C157.819 174.561 158.355 173.996 159.029 173.597C159.713 173.186 160.467 172.98 161.288 172.98C162.03 172.98 162.675 173.129 163.223 173.425C163.782 173.711 164.227 174.07 164.558 174.504V173.134H166.526V182.566H164.558V181.163C164.227 181.608 163.776 181.979 163.205 182.275C162.635 182.572 161.984 182.72 161.254 182.72C160.444 182.72 159.702 182.515 159.029 182.104C158.355 181.682 157.819 181.1 157.42 180.358C157.032 179.605 156.838 178.755 156.838 177.808ZM164.558 177.842C164.558 177.191 164.421 176.626 164.147 176.147C163.885 175.668 163.536 175.303 163.103 175.052C162.669 174.801 162.201 174.675 161.699 174.675C161.197 174.675 160.729 174.801 160.295 175.052C159.862 175.291 159.508 175.651 159.234 176.13C158.972 176.598 158.84 177.157 158.84 177.808C158.84 178.458 158.972 179.029 159.234 179.519C159.508 180.01 159.862 180.387 160.295 180.649C160.741 180.9 161.208 181.026 161.699 181.026C162.201 181.026 162.669 180.9 163.103 180.649C163.536 180.398 163.885 180.033 164.147 179.554C164.421 179.063 164.558 178.492 164.558 177.842Z" fill="white"/>
</g>
<defs>
<filter id="filter0_dii_3247_107011" x="-2.7027" y="0.627165" width="325.405" height="247.446" filterUnits="userSpaceOnUse" color-interpolation-filters="sRGB">
<feFlood flood-opacity="0" result="BackgroundImageFix"/>
<feColorMatrix in="SourceAlpha" type="matrix" values="0 0 0 0 0 0 0 0 0 0 0 0 0 0 0 0 0 0 127 0" result="hardAlpha"/>
<feOffset dy="11.3514"/>
<feGaussianBlur stdDeviation="11.3514"/>
<feComposite in2="hardAlpha" operator="out"/>
<feColorMatrix type="matrix" values="0 0 0 0 0 0 0 0 0 0 0 0 0 0 0 0 0 0 0.22 0"/>
<feBlend mode="normal" in2="BackgroundImageFix" result="effect1_dropShadow_3247_107011"/>
<feBlend mode="normal" in="SourceGraphic" in2="effect1_dropShadow_3247_107011" result="shape"/>
<feColorMatrix in="SourceAlpha" type="matrix" values="0 0 0 0 0 0 0 0 0 0 0 0 0 0 0 0 0 0 127 0" result="hardAlpha"/>
<feOffset dx="-4.23784" dy="4.02973"/>
<feGaussianBlur stdDeviation="4.72973"/>
<feComposite in2="hardAlpha" operator="arithmetic" k2="-1" k3="1"/>
<feColorMatrix type="matrix" values="0 0 0 0 0 0 0 0 0 0 0 0 0 0 0 0 0 0 0.3 0"/>
<feBlend mode="normal" in2="shape" result="effect2_innerShadow_3247_107011"/>
<feColorMatrix in="SourceAlpha" type="matrix" values="0 0 0 0 0 0 0 0 0 0 0 0 0 0 0 0 0 0 127 0" result="hardAlpha"/>
<feOffset dx="4.02973" dy="-4.02973"/>
<feGaussianBlur stdDeviation="4.72973"/>
<feComposite in2="hardAlpha" operator="arithmetic" k2="-1" k3="1"/>
<feColorMatrix type="matrix" values="0 0 0 0 0 0 0 0 0 0 0 0 0 0 0 0 0 0 0.3 0"/>
<feBlend mode="normal" in2="effect2_innerShadow_3247_107011" result="effect3_innerShadow_3247_107011"/>
</filter>
<filter id="filter1_d_3247_107011" x="240.597" y="119.98" width="39.8403" height="39.4848" filterUnits="userSpaceOnUse" color-interpolation-filters="sRGB">
<feFlood flood-opacity="0" result="BackgroundImageFix"/>
<feColorMatrix in="SourceAlpha" type="matrix" values="0 0 0 0 0 0 0 0 0 0 0 0 0 0 0 0 0 0 127 0" result="hardAlpha"/>
<feOffset/>
<feGaussianBlur stdDeviation="2.44541"/>
<feComposite in2="hardAlpha" operator="out"/>
<feColorMatrix type="matrix" values="0 0 0 0 0 0 0 0 0 0 0 0 0 0 0 0 0 0 0.55 0"/>
<feBlend mode="normal" in2="BackgroundImageFix" result="effect1_dropShadow_3247_107011"/>
<feBlend mode="normal" in="SourceGraphic" in2="effect1_dropShadow_3247_107011" result="shape"/>
</filter>
<filter id="filter2_d_3247_107011" x="230.687" y="119.98" width="39.8403" height="39.4848" filterUnits="userSpaceOnUse" color-interpolation-filters="sRGB">
<feFlood flood-opacity="0" result="BackgroundImageFix"/>
<feColorMatrix in="SourceAlpha" type="matrix" values="0 0 0 0 0 0 0 0 0 0 0 0 0 0 0 0 0 0 127 0" result="hardAlpha"/>
<feOffset/>
<feGaussianBlur stdDeviation="2.44541"/>
<feComposite in2="hardAlpha" operator="out"/>
<feColorMatrix type="matrix" values="0 0 0 0 0 0 0 0 0 0 0 0 0 0 0 0 0 0 0.55 0"/>
<feBlend mode="normal" in2="BackgroundImageFix" result="effect1_dropShadow_3247_107011"/>
<feBlend mode="normal" in="SourceGraphic" in2="effect1_dropShadow_3247_107011" result="shape"/>
</filter>
<filter id="filter3_d_3247_107011" x="220.781" y="119.98" width="39.8403" height="39.4848" filterUnits="userSpaceOnUse" color-interpolation-filters="sRGB">
<feFlood flood-opacity="0" result="BackgroundImageFix"/>
<feColorMatrix in="SourceAlpha" type="matrix" values="0 0 0 0 0 0 0 0 0 0 0 0 0 0 0 0 0 0 127 0" result="hardAlpha"/>
<feOffset/>
<feGaussianBlur stdDeviation="2.44541"/>
<feComposite in2="hardAlpha" operator="out"/>
<feColorMatrix type="matrix" values="0 0 0 0 0 0 0 0 0 0 0 0 0 0 0 0 0 0 0.55 0"/>
<feBlend mode="normal" in2="BackgroundImageFix" result="effect1_dropShadow_3247_107011"/>
<feBlend mode="normal" in="SourceGraphic" in2="effect1_dropShadow_3247_107011" result="shape"/>
</filter>
<filter id="filter4_d_3247_107011" x="210.871" y="119.98" width="39.8403" height="39.4848" filterUnits="userSpaceOnUse" color-interpolation-filters="sRGB">
<feFlood flood-opacity="0" result="BackgroundImageFix"/>
<feColorMatrix in="SourceAlpha" type="matrix" values="0 0 0 0 0 0 0 0 0 0 0 0 0 0 0 0 0 0 127 0" result="hardAlpha"/>
<feOffset/>
<feGaussianBlur stdDeviation="2.44541"/>
<feComposite in2="hardAlpha" operator="out"/>
<feColorMatrix type="matrix" values="0 0 0 0 0 0 0 0 0 0 0 0 0 0 0 0 0 0 0.55 0"/>
<feBlend mode="normal" in2="BackgroundImageFix" result="effect1_dropShadow_3247_107011"/>
<feBlend mode="normal" in="SourceGraphic" in2="effect1_dropShadow_3247_107011" result="shape"/>
</filter>
<filter id="filter5_d_3247_107011" x="200.961" y="119.98" width="39.8403" height="39.4848" filterUnits="userSpaceOnUse" color-interpolation-filters="sRGB">
<feFlood flood-opacity="0" result="BackgroundImageFix"/>
<feColorMatrix in="SourceAlpha" type="matrix" values="0 0 0 0 0 0 0 0 0 0 0 0 0 0 0 0 0 0 127 0" result="hardAlpha"/>
<feOffset/>
<feGaussianBlur stdDeviation="2.44541"/>
<feComposite in2="hardAlpha" operator="out"/>
<feColorMatrix type="matrix" values="0 0 0 0 0 0 0 0 0 0 0 0 0 0 0 0 0 0 0.55 0"/>
<feBlend mode="normal" in2="BackgroundImageFix" result="effect1_dropShadow_3247_107011"/>
<feBlend mode="normal" in="SourceGraphic" in2="effect1_dropShadow_3247_107011" result="shape"/>
</filter>
<clipPath id="clip0_3247_107011">
<rect width="69.6943" height="29.7038" fill="white" transform="translate(205.852 124.871)"/>
</clipPath>
</defs>
</svg>
