<svg width="115" height="108" viewBox="0 0 115 108" fill="none" xmlns="http://www.w3.org/2000/svg">
<g filter="url(#filter0_dii_3247_105395)">
<rect x="5.13281" y="23.7715" width="87.5005" height="78.2426" rx="11.463" transform="rotate(-15 5.13281 23.7715)" fill="#00971C" shape-rendering="crispEdges"/>
<rect x="5.3668" y="23.9066" width="87.1184" height="77.8605" rx="11.2719" transform="rotate(-15 5.3668 23.9066)" stroke="white" stroke-width="0.382098" shape-rendering="crispEdges"/>
<path d="M17.4119 36.1661L18.6262 35.8408L18.7536 36.3162L16.9503 36.7993L15.988 33.2082L16.5771 33.0504L17.4119 36.1661ZM20.4936 35.8998C20.2249 35.9718 19.9659 35.9765 19.7166 35.9141C19.4663 35.8483 19.2497 35.7217 19.0666 35.5345C18.8826 35.3438 18.7513 35.1021 18.6729 34.8093C18.5954 34.5199 18.5903 34.2462 18.6578 33.9881C18.7252 33.7301 18.853 33.5112 19.0412 33.3316C19.2294 33.152 19.4595 33.0257 19.7316 32.9528C20.0038 32.8798 20.2662 32.8741 20.519 32.9356C20.7718 32.9971 20.9919 33.1227 21.1793 33.3125C21.3668 33.5022 21.4993 33.7418 21.5768 34.0312C21.6543 34.3205 21.6577 34.5947 21.5867 34.8537C21.5158 35.1127 21.3833 35.3346 21.1892 35.5195C20.9976 35.7001 20.7657 35.8268 20.4936 35.8998ZM20.3565 35.3882C20.5081 35.3476 20.6396 35.2736 20.7512 35.1662C20.8661 35.0578 20.9456 34.9203 20.9895 34.7534C21.0334 34.5866 21.0276 34.3998 20.9723 34.1932C20.9169 33.9865 20.8306 33.8231 20.7136 33.7031C20.5956 33.5797 20.4614 33.4993 20.3112 33.462C20.1609 33.4248 20.0099 33.4265 19.8584 33.4671C19.7068 33.5077 19.5753 33.5817 19.4637 33.6891C19.3557 33.7956 19.2831 33.9313 19.2461 34.0963C19.2082 34.2579 19.2169 34.442 19.2723 34.6487C19.3544 34.9552 19.4956 35.1722 19.6959 35.2994C19.8986 35.4223 20.1188 35.4519 20.3565 35.3882ZM22.4782 32.7097C22.5255 32.542 22.6092 32.3995 22.7292 32.2825C22.8517 32.161 23.0112 32.074 23.2075 32.0214L23.3709 32.6311L23.2211 32.6713C22.9903 32.7331 22.8303 32.8387 22.7411 32.9882C22.6553 33.1367 22.6512 33.3556 22.7288 33.645L23.1303 35.1434L22.5412 35.3013L21.7784 32.4542L22.3674 32.2963L22.4782 32.7097ZM26.7336 32.5774C26.7622 32.6842 26.7811 32.7825 26.7904 32.8723L24.6151 33.4552C24.6932 33.6779 24.8265 33.8379 25.015 33.9351C25.2035 34.0322 25.408 34.0513 25.6285 33.9922C25.9454 33.9073 26.1338 33.7147 26.1936 33.4144L26.8291 33.2441C26.8132 33.5289 26.7141 33.7862 26.532 34.0159C26.3524 34.2413 26.0955 34.3987 25.7614 34.4883C25.4892 34.5612 25.2285 34.5664 24.9792 34.504C24.7324 34.4372 24.5174 34.3102 24.3344 34.123C24.1538 33.9314 24.0243 33.6892 23.9458 33.3964C23.8674 33.1036 23.8572 32.8313 23.9152 32.5794C23.9758 32.3232 24.0967 32.1062 24.278 31.9284C24.4627 31.7497 24.6946 31.6229 24.9736 31.5482C25.2423 31.4762 25.4974 31.4706 25.7389 31.5314C25.9804 31.5922 26.1883 31.7137 26.3627 31.8959C26.5361 32.0747 26.6597 32.3018 26.7336 32.5774ZM26.0688 32.5562C26.0073 32.3401 25.8831 32.1869 25.6965 32.0966C25.5098 32.0063 25.3046 31.9911 25.0807 32.0511C24.8774 32.1056 24.721 32.2177 24.6114 32.3873C24.5009 32.5536 24.4614 32.7506 24.4929 32.9784L26.0688 32.5562ZM30.3845 30.0983C30.6084 30.0383 30.8207 30.0313 31.0213 30.0772C31.2253 30.1222 31.4018 30.2227 31.5506 30.3785C31.7028 30.5333 31.8136 30.74 31.8828 30.9983L32.3328 32.6776L31.7489 32.8341L31.3225 31.2426C31.2542 30.9877 31.1383 30.8101 30.9748 30.7099C30.8105 30.6063 30.618 30.584 30.3976 30.6431C30.1771 30.7022 30.0199 30.8181 29.9259 30.991C29.8344 31.1595 29.8229 31.3712 29.8912 31.6261L30.3176 33.2176L29.7337 33.374L29.3073 31.7826C29.239 31.5277 29.1231 31.3501 28.9597 31.2499C28.7953 31.1463 28.6029 31.124 28.3824 31.1831C28.1619 31.2421 28.0047 31.3581 27.9107 31.531C27.8193 31.6995 27.8077 31.9112 27.876 32.1661L28.3024 33.7575L27.7134 33.9154L26.9505 31.0683L27.5396 30.9105L27.6268 31.236C27.6919 31.093 27.7897 30.969 27.9203 30.8638C28.0509 30.7587 28.2006 30.6835 28.3693 30.6383C28.5967 30.5774 28.8129 30.5711 29.0178 30.6196C29.2228 30.6681 29.398 30.7706 29.5433 30.9274C29.5833 30.7321 29.6812 30.56 29.837 30.4112C29.9919 30.2589 30.1744 30.1546 30.3845 30.0983ZM34.0514 28.3682L35.0136 31.9593L34.4246 32.1171L33.4623 28.526L34.0514 28.3682ZM35.7253 29.1657C35.7901 29.008 35.8967 28.8613 36.0449 28.7256C36.1931 28.5899 36.3758 28.493 36.5928 28.4348C36.8408 28.3684 37.0831 28.3699 37.3195 28.4395C37.5585 28.5047 37.7661 28.6318 37.9423 28.8209C38.1185 29.0099 38.2449 29.2474 38.3215 29.5334C38.3981 29.8193 38.4083 30.0916 38.3521 30.3503C38.295 30.6056 38.1802 30.8247 38.0076 31.0075C37.8376 31.186 37.6286 31.3085 37.3806 31.3749C37.1636 31.4331 36.9591 31.4417 36.7673 31.4008C36.5745 31.3565 36.4071 31.2831 36.2653 31.1809L36.7388 32.948L36.1497 33.1058L35.0241 28.905L35.6132 28.7472L35.7253 29.1657ZM37.7221 29.694C37.6695 29.4976 37.5829 29.3399 37.4624 29.2208C37.3444 29.0974 37.2086 29.0175 37.0548 28.9811C36.9036 28.9404 36.7522 28.9404 36.6007 28.981C36.4526 29.0207 36.3215 29.0964 36.2074 29.2082C36.0968 29.319 36.0196 29.4579 35.9757 29.6247C35.9352 29.7906 35.9413 29.9718 35.9939 30.1681C36.0465 30.3645 36.1323 30.5261 36.2512 30.653C36.3726 30.7755 36.509 30.8571 36.6602 30.8978C36.8148 30.9376 36.9662 30.9377 37.1143 30.898C37.2659 30.8574 37.397 30.7816 37.5076 30.6708C37.6207 30.5555 37.697 30.4133 37.7366 30.2439C37.7795 30.0736 37.7747 29.8903 37.7221 29.694ZM40.3348 30.5833C40.1109 30.6433 39.8987 30.6577 39.6984 30.6265C39.5006 30.5909 39.3315 30.518 39.1912 30.4079C39.0501 30.2944 38.953 30.1524 38.8999 29.982L39.5096 29.8187C39.5523 29.9364 39.6363 30.0228 39.7618 30.0778C39.8898 30.1284 40.0331 30.1325 40.1915 30.0901C40.3569 30.0458 40.476 29.9806 40.549 29.8946C40.6245 29.8042 40.6488 29.7091 40.622 29.6092C40.5934 29.5024 40.5205 29.437 40.4033 29.413C40.2896 29.3881 40.1142 29.3742 39.8771 29.3713C39.6478 29.37 39.4587 29.3597 39.3095 29.3406C39.1604 29.3215 39.0207 29.2685 38.8903 29.1816C38.7634 29.0937 38.675 28.9568 38.6252 28.7708C38.5846 28.6192 38.5925 28.4694 38.6488 28.3214C38.7042 28.17 38.8049 28.0359 38.9509 27.9193C39.1003 27.8017 39.2835 27.7139 39.5005 27.6557C39.8243 27.5689 40.1065 27.5819 40.3472 27.6947C40.5904 27.803 40.7567 27.9966 40.8461 28.2754L40.2571 28.4332C40.2126 28.3085 40.1337 28.2208 40.0204 28.1699C39.9071 28.119 39.7712 28.1148 39.6127 28.1573C39.4577 28.1988 39.3467 28.2599 39.2797 28.3407C39.2128 28.4214 39.1922 28.51 39.218 28.6064C39.2383 28.6822 39.283 28.7385 39.3519 28.7754C39.4209 28.8123 39.4991 28.8357 39.5867 28.8455C39.6733 28.8518 39.8001 28.8566 39.9671 28.8598C40.1886 28.8596 40.3726 28.8712 40.5192 28.8946C40.6683 28.9138 40.8059 28.9655 40.9318 29.0499C41.0578 29.1343 41.147 29.2673 41.1994 29.449C41.2428 29.6109 41.2367 29.7675 41.1813 29.919C41.1259 30.0704 41.0252 30.2045 40.8793 30.3211C40.7367 30.4369 40.5553 30.5243 40.3348 30.5833ZM43.8646 26.5362L44.6275 29.3833L44.0384 29.5411L43.9484 29.2052C43.8868 29.3473 43.7894 29.4731 43.6563 29.5826C43.5257 29.6877 43.376 29.7629 43.2072 29.8081C42.9833 29.8681 42.7694 29.8756 42.5653 29.8306C42.3647 29.7847 42.1883 29.6843 42.036 29.5294C41.8872 29.3736 41.7782 29.1665 41.7089 28.9081L41.2604 27.234L41.8442 27.0775L42.2693 28.6638C42.3376 28.9188 42.4539 29.098 42.6183 29.2017C42.7818 29.3019 42.9737 29.3224 43.1942 29.2633C43.4146 29.2043 43.5706 29.0905 43.6621 28.922C43.756 28.7491 43.7689 28.5352 43.7006 28.2803L43.2755 26.694L43.8646 26.5362ZM48.0758 25.358C48.2997 25.298 48.5119 25.2909 48.7125 25.3369C48.9166 25.3819 49.093 25.4823 49.2418 25.6381C49.3941 25.793 49.5049 25.9996 49.5741 26.2579L50.024 27.9373L49.4402 28.0937L49.0137 26.5022C48.9454 26.2473 48.8296 26.0698 48.6661 25.9696C48.5017 25.8659 48.3093 25.8437 48.0888 25.9027C47.8684 25.9618 47.7112 26.0778 47.6172 26.2506C47.5257 26.4191 47.5141 26.6308 47.5824 26.8858L48.0089 28.4772L47.425 28.6337L46.9986 27.0422C46.9303 26.7873 46.8144 26.6097 46.6509 26.5095C46.4866 26.4059 46.2941 26.3836 46.0737 26.4427C45.8532 26.5018 45.696 26.6177 45.602 26.7906C45.5105 26.9591 45.499 27.1708 45.5673 27.4257L45.9937 29.0172L45.4047 29.175L44.6418 26.3279L45.2308 26.1701L45.3181 26.4956C45.3831 26.3527 45.481 26.2286 45.6115 26.1235C45.7421 26.0183 45.8918 25.9432 46.0606 25.8979C46.288 25.837 46.5041 25.8308 46.7091 25.8792C46.9141 25.9277 47.0892 26.0303 47.2346 26.187C47.2746 25.9917 47.3725 25.8196 47.5283 25.6708C47.6831 25.5186 47.8657 25.4143 48.0758 25.358ZM51.5516 24.0722C51.4448 24.1008 51.3455 24.0886 51.2538 24.0357C51.1621 23.9827 51.1019 23.9028 51.0733 23.7961C51.0447 23.6893 51.0569 23.59 51.1098 23.4983C51.1628 23.4066 51.2427 23.3464 51.3494 23.3178C51.4528 23.2901 51.5503 23.3027 51.642 23.3557C51.7338 23.4086 51.7939 23.4885 51.8225 23.5953C51.8512 23.7021 51.839 23.8013 51.786 23.8931C51.7331 23.9848 51.6549 24.0445 51.5516 24.0722ZM51.942 24.3719L52.7049 27.2189L52.1158 27.3768L51.353 24.5297L51.942 24.3719ZM54.5241 26.7813C54.3002 26.8413 54.0881 26.8557 53.8877 26.8245C53.6899 26.7889 53.5209 26.716 53.3806 26.6059C53.2394 26.4924 53.1423 26.3504 53.0893 26.18L53.699 26.0166C53.7416 26.1344 53.8257 26.2208 53.9512 26.2758C54.0792 26.3264 54.2224 26.3305 54.3809 26.288C54.5462 26.2437 54.6654 26.1786 54.7383 26.0926C54.8138 26.0022 54.8382 25.9071 54.8114 25.8072C54.7828 25.7004 54.7099 25.635 54.5927 25.611C54.4789 25.5861 54.3035 25.5722 54.0665 25.5693C53.8372 25.5679 53.648 25.5577 53.4989 25.5386C53.3498 25.5195 53.21 25.4665 53.0797 25.3795C52.9528 25.2917 52.8644 25.1548 52.8146 24.9688C52.7739 24.8172 52.7818 24.6674 52.8381 24.5194C52.8935 24.368 52.9942 24.2339 53.1402 24.1173C53.2896 23.9997 53.4728 23.9118 53.6898 23.8537C54.0136 23.7669 54.2959 23.7799 54.5365 23.8926C54.7797 24.001 54.946 24.1946 55.0355 24.4734L54.4464 24.6312C54.402 24.5065 54.3231 24.4187 54.2097 24.3679C54.0964 24.317 53.9605 24.3128 53.8021 24.3553C53.6471 24.3968 53.5361 24.4579 53.4691 24.5386C53.4021 24.6193 53.3815 24.7079 53.4074 24.8044C53.4277 24.8802 53.4723 24.9365 53.5413 24.9734C53.6102 25.0103 53.6885 25.0337 53.776 25.0434C53.8626 25.0498 53.9895 25.0545 54.1565 25.0578C54.3779 25.0575 54.5619 25.0691 54.7085 25.0926C54.8576 25.1117 54.9952 25.1635 55.1212 25.2479C55.2472 25.3323 55.3364 25.4653 55.3887 25.6469C55.4321 25.8088 55.4261 25.9655 55.3707 26.117C55.3153 26.2684 55.2146 26.4025 55.0686 26.5191C54.9261 26.6348 54.7446 26.7222 54.5241 26.7813ZM58.6265 25.6821C58.4026 25.7421 58.1905 25.7564 57.9901 25.7252C57.7923 25.6896 57.6233 25.6168 57.483 25.5067C57.3418 25.3931 57.2447 25.2512 57.1917 25.0808L57.8014 24.9174C57.844 25.0352 57.9281 25.1216 58.0536 25.1766C58.1816 25.2272 58.3248 25.2313 58.4833 25.1888C58.6486 25.1445 58.7678 25.0793 58.8407 24.9933C58.9162 24.903 58.9406 24.8078 58.9138 24.7079C58.8852 24.6011 58.8123 24.5358 58.6951 24.5118C58.5813 24.4869 58.4059 24.473 58.1689 24.47C57.9396 24.4687 57.7504 24.4585 57.6013 24.4394C57.4522 24.4202 57.3124 24.3672 57.1821 24.2803C57.0552 24.1925 56.9668 24.0556 56.9169 23.8695C56.8763 23.718 56.8842 23.5682 56.9405 23.4202C56.9959 23.2687 57.0966 23.1347 57.2426 23.018C57.392 22.9005 57.5752 22.8126 57.7922 22.7545C58.116 22.6677 58.3983 22.6807 58.6389 22.7934C58.8821 22.9018 59.0484 23.0953 59.1379 23.3741L58.5488 23.532C58.5044 23.4073 58.4255 23.3195 58.3121 23.2686C58.1988 23.2178 58.0629 23.2136 57.9045 23.256C57.7495 23.2976 57.6385 23.3587 57.5715 23.4394C57.5045 23.5201 57.4839 23.6087 57.5098 23.7052C57.5301 23.7809 57.5747 23.8373 57.6437 23.8742C57.7126 23.9111 57.7909 23.9344 57.8784 23.9442C57.965 23.9505 58.0919 23.9553 58.2589 23.9586C58.4803 23.9583 58.6643 23.9699 58.8109 23.9934C58.96 24.0125 59.0976 24.0643 59.2236 24.1486C59.3496 24.233 59.4387 24.3661 59.4911 24.5477C59.5345 24.7096 59.5285 24.8663 59.4731 25.0177C59.4177 25.1692 59.317 25.3032 59.171 25.4199C59.0285 25.5356 58.847 25.623 58.6265 25.6821ZM59.7766 21.8683C59.6698 21.8969 59.5705 21.8848 59.4788 21.8318C59.3871 21.7788 59.3269 21.699 59.2983 21.5922C59.2697 21.4854 59.2819 21.3861 59.3348 21.2944C59.3878 21.2027 59.4676 21.1425 59.5744 21.1139C59.6778 21.0862 59.7753 21.0989 59.867 21.1518C59.9587 21.2048 60.0189 21.2846 60.0475 21.3914C60.0761 21.4982 60.064 21.5975 60.011 21.6892C59.9581 21.7809 59.8799 21.8406 59.7766 21.8683ZM60.167 22.168L60.9299 25.0151L60.3408 25.1729L59.5779 22.3258L60.167 22.168ZM64.3744 20.9908C64.5983 20.9308 64.8105 20.9237 65.0111 20.9697C65.2152 21.0147 65.3916 21.1151 65.5404 21.2709C65.6927 21.4258 65.8034 21.6324 65.8727 21.8908L66.3226 23.5701L65.7387 23.7265L65.3123 22.1351C65.244 21.8801 65.1281 21.7026 64.9647 21.6024C64.8003 21.4988 64.6079 21.4765 64.3874 21.5355C64.167 21.5946 64.0097 21.7106 63.9158 21.8835C63.8243 22.0519 63.8127 22.2637 63.881 22.5186L64.3075 24.11L63.7236 24.2665L63.2971 22.675C63.2288 22.4201 63.113 22.2426 62.9495 22.1424C62.7851 22.0387 62.5927 22.0164 62.3722 22.0755C62.1518 22.1346 61.9946 22.2506 61.9006 22.4234C61.8091 22.5919 61.7975 22.8036 61.8658 23.0585L62.2923 24.65L61.7032 24.8078L60.9404 21.9608L61.5294 21.8029L61.6166 22.1284C61.6817 21.9855 61.7795 21.8614 61.9101 21.7563C62.0407 21.6512 62.1904 21.576 62.3592 21.5307C62.5865 21.4698 62.8027 21.4636 63.0077 21.512C63.2126 21.5605 63.3878 21.6631 63.5332 21.8198C63.5732 21.6245 63.671 21.4524 63.8268 21.3036C63.9817 21.1514 64.1642 21.0471 64.3744 20.9908ZM67.0105 20.7829C67.0753 20.6252 67.1819 20.4785 67.3301 20.3428C67.4783 20.2071 67.661 20.1101 67.878 20.052C68.126 19.9855 68.3682 19.9871 68.6047 20.0566C68.8437 20.1218 69.0513 20.2489 69.2275 20.438C69.4037 20.6271 69.5301 20.8646 69.6067 21.1505C69.6833 21.4364 69.6935 21.7088 69.6373 21.9675C69.5802 22.2228 69.4653 22.4418 69.2928 22.6247C69.1228 22.8031 68.9138 22.9256 68.6658 22.9921C68.4487 23.0502 68.2443 23.0588 68.0524 23.018C67.8596 22.9736 67.6923 22.9003 67.5505 22.798L68.024 24.5652L67.4349 24.723L66.3093 20.5222L66.8984 20.3643L67.0105 20.7829ZM69.0073 21.3111C68.9547 21.1148 68.8681 20.9571 68.7476 20.838C68.6296 20.7145 68.4938 20.6346 68.34 20.5983C68.1888 20.5576 68.0374 20.5575 67.8859 20.5981C67.7377 20.6378 67.6067 20.7136 67.4926 20.8253C67.382 20.9362 67.3048 21.0751 67.2609 21.2419C67.2204 21.4078 67.2265 21.5889 67.2791 21.7853C67.3317 21.9816 67.4175 22.1432 67.5364 22.2701C67.6578 22.3927 67.7942 22.4743 67.9454 22.515C68.1 22.5548 68.2514 22.5548 68.3995 22.5151C68.5511 22.4745 68.6822 22.3988 68.7928 22.2879C68.9059 22.1727 68.9822 22.0304 69.0217 21.8611C69.0647 21.6908 69.0599 21.5075 69.0073 21.3111ZM70.1386 18.4494L71.1631 22.2731L70.5741 22.4309L69.5496 18.6072L70.1386 18.4494ZM73.7365 18.532L73.1115 23.1854L72.5018 23.3487L72.7095 21.8089L70.8378 19.3087L71.494 19.1329L72.8764 21.0885L73.1268 18.6954L73.7365 18.532ZM19.4749 47.0066C19.3982 46.7207 19.389 46.4518 19.447 46.2C19.5085 45.9472 19.6247 45.7333 19.7957 45.5583C19.9691 45.3789 20.1816 45.2555 20.433 45.1881C20.619 45.1383 20.8127 45.1307 21.014 45.1654C21.2178 45.1957 21.3911 45.2637 21.5339 45.3694L21.1656 43.995L21.7598 43.8358L22.7843 47.6594L22.1901 47.8187L22.0752 47.3898C22.0157 47.5534 21.9118 47.7031 21.7635 47.8388C21.6188 47.9736 21.4361 48.0705 21.2157 48.1296C20.9676 48.1961 20.7237 48.195 20.4838 48.1263C20.2464 48.0533 20.0374 47.921 19.8568 47.7294C19.6788 47.5335 19.5515 47.2925 19.4749 47.0066ZM21.808 46.3925C21.7554 46.1962 21.6683 46.0367 21.5469 45.9142C21.4289 45.7908 21.2943 45.7087 21.1431 45.668C20.9919 45.6273 20.8405 45.6272 20.6889 45.6678C20.5374 45.7084 20.4063 45.7842 20.2957 45.895C20.1842 46.0025 20.1065 46.1396 20.0626 46.3064C20.0212 46.4689 20.0268 46.6483 20.0794 46.8446C20.132 47.041 20.2178 47.2026 20.3367 47.3295C20.4591 47.4555 20.5963 47.5405 20.7484 47.5847C20.9031 47.6245 21.0545 47.6245 21.2026 47.5848C21.3542 47.5442 21.4853 47.4685 21.5958 47.3576C21.7064 47.2468 21.782 47.1084 21.8224 46.9425C21.8654 46.7722 21.8606 46.5889 21.808 46.3925ZM25.3735 43.9142L26.1364 46.7612L25.5474 46.9191L25.4574 46.5832C25.3957 46.7253 25.2984 46.851 25.1653 46.9605C25.0347 47.0657 24.885 47.1409 24.7162 47.1861C24.4923 47.2461 24.2783 47.2536 24.0743 47.2086C23.8737 47.1626 23.6972 47.0622 23.545 46.9073C23.3961 46.7515 23.2871 46.5445 23.2179 46.2861L22.7693 44.612L23.3532 44.4555L23.7782 46.0418C23.8466 46.2967 23.9629 46.476 24.1273 46.5796C24.2907 46.6798 24.4827 46.7004 24.7031 46.6413C24.9236 46.5822 25.0796 46.4685 25.171 46.3C25.265 46.1271 25.2778 45.9132 25.2095 45.6583L24.7845 44.072L25.3735 43.9142ZM29.5847 42.7359C29.8086 42.6759 30.0209 42.6689 30.2215 42.7148C30.4256 42.7599 30.602 42.8603 30.7508 43.0161C30.9031 43.171 31.0138 43.3776 31.083 43.6359L31.533 45.3152L30.9491 45.4717L30.5227 43.8802C30.4544 43.6253 30.3385 43.4478 30.1751 43.3476C30.0107 43.2439 29.8183 43.2216 29.5978 43.2807C29.3773 43.3398 29.2201 43.4558 29.1261 43.6286C29.0347 43.7971 29.0231 44.0088 29.0914 44.2637L29.5178 45.8552L28.9339 46.0116L28.5075 44.4202C28.4392 44.1653 28.3233 43.9877 28.1599 43.8875C27.9955 43.7839 27.8031 43.7616 27.5826 43.8207C27.3622 43.8797 27.2049 43.9957 27.111 44.1686C27.0195 44.3371 27.0079 44.5488 27.0762 44.8037L27.5027 46.3952L26.9136 46.553L26.1507 43.7059L26.7398 43.5481L26.827 43.8736C26.8921 43.7306 26.9899 43.6066 27.1205 43.5015C27.2511 43.3963 27.4008 43.3211 27.5696 43.2759C27.7969 43.215 28.0131 43.2088 28.2181 43.2572C28.423 43.3057 28.5982 43.4083 28.7436 43.565C28.7835 43.3697 28.8814 43.1976 29.0372 43.0488C29.1921 42.8965 29.3746 42.7922 29.5847 42.7359ZM34.9537 41.2973C35.1776 41.2373 35.3898 41.2303 35.5904 41.2762C35.7945 41.3213 35.9709 41.4217 36.1197 41.5775C36.272 41.7323 36.3827 41.939 36.452 42.1973L36.9019 43.8766L36.3181 44.0331L35.8916 42.4416C35.8233 42.1867 35.7074 42.0091 35.544 41.909C35.3796 41.8053 35.1872 41.783 34.9667 41.8421C34.7463 41.9012 34.5891 42.0171 34.4951 42.19C34.4036 42.3585 34.392 42.5702 34.4603 42.8251L34.8868 44.4166L34.3029 44.573L33.8765 42.9816C33.8082 42.7267 33.6923 42.5491 33.5288 42.4489C33.3645 42.3453 33.172 42.323 32.9516 42.3821C32.7311 42.4411 32.5739 42.5571 32.4799 42.73C32.3884 42.8985 32.3769 43.1102 32.4452 43.3651L32.8716 44.9566L32.2826 45.1144L31.5197 42.2673L32.1087 42.1095L32.196 42.435C32.261 42.292 32.3589 42.168 32.4894 42.0629C32.62 41.9577 32.7697 41.8825 32.9385 41.8373C33.1659 41.7764 33.382 41.7701 33.587 41.8186C33.792 41.8671 33.9671 41.9697 34.1125 42.1264C34.1525 41.9311 34.2504 41.759 34.4062 41.6102C34.561 41.4579 34.7436 41.3536 34.9537 41.2973ZM39.4515 40.142L38.8265 44.7953L38.2168 44.9587L38.4244 43.4188L36.5528 40.9187L37.209 40.7429L38.5914 42.6985L38.8418 40.3054L39.4515 40.142ZM42.0543 39.9596L42.4765 41.5356C42.5052 41.6424 42.55 41.7134 42.6112 41.7487C42.6749 41.7797 42.767 41.779 42.8875 41.7467L43.2492 41.6498L43.3808 42.1406L42.9157 42.2652C42.6505 42.3363 42.4306 42.3288 42.2562 42.2426C42.0817 42.1564 41.9571 41.9738 41.8823 41.6948L41.46 40.1188L41.1242 40.2088L40.9954 39.7283L41.3313 39.6383L41.1416 38.9304L41.7358 38.7712L41.9255 39.4791L42.6179 39.2936L42.7467 39.7741L42.0543 39.9596ZM46.1329 39.8027C46.1615 39.9095 46.1805 40.0078 46.1898 40.0976L44.0144 40.6805C44.0926 40.9032 44.2259 41.0632 44.4144 41.1603C44.6029 41.2575 44.8074 41.2766 45.0278 41.2175C45.3447 41.1326 45.5331 40.94 45.5929 40.6396L46.2285 40.4693C46.2125 40.7542 46.1135 41.0115 45.9314 41.2412C45.7517 41.4666 45.4949 41.624 45.1607 41.7135C44.8886 41.7865 44.6279 41.7917 44.3786 41.7293C44.1317 41.6625 43.9168 41.5355 43.7337 41.3483C43.5532 41.1567 43.4237 40.9145 43.3452 40.6217C43.2667 40.3289 43.2565 40.0565 43.3146 39.8047C43.3752 39.5485 43.4961 39.3315 43.6773 39.1537C43.8621 38.975 44.0939 38.8482 44.3729 38.7735C44.6416 38.7015 44.8967 38.6959 45.1382 38.7567C45.3798 38.8175 45.5877 38.939 45.762 39.1212C45.9355 39.2999 46.0591 39.5271 46.1329 39.8027ZM45.4682 39.7814C45.4066 39.5653 45.2825 39.4121 45.0958 39.3219C44.9092 39.2316 44.7039 39.2164 44.48 39.2764C44.2768 39.3309 44.1204 39.4429 44.0108 39.6126C43.9002 39.7788 43.8607 39.9759 43.8922 40.2037L45.4682 39.7814ZM47.9459 39.3723L49.2519 40.5675L48.5854 40.7461L47.7116 39.9446L47.3918 41.0659L46.7769 41.2306L47.3214 39.5839L46.014 38.3836L46.6806 38.205L47.5544 39.0065L47.8742 37.8851L48.4891 37.7204L47.9459 39.3723ZM49.7444 37.8991L50.1666 39.475C50.1953 39.5818 50.2401 39.6529 50.3013 39.6882C50.365 39.7191 50.4571 39.7184 50.5776 39.6861L50.9393 39.5892L51.0709 40.0801L50.6058 40.2047C50.3406 40.2758 50.1207 40.2682 49.9463 40.182C49.7718 40.0959 49.6472 39.9133 49.5724 39.6343L49.1501 38.0583L48.8143 38.1483L48.6855 37.6677L49.0214 37.5777L48.8317 36.8699L49.4259 36.7106L49.6156 37.4185L50.308 37.233L50.4368 37.7135L49.7444 37.8991ZM54.2034 39.2906C53.9347 39.3626 53.6757 39.3673 53.4264 39.3049C53.1761 39.2391 52.9595 39.1125 52.7764 38.9253C52.5924 38.7346 52.4612 38.4929 52.3827 38.2001C52.3052 37.9107 52.3001 37.637 52.3676 37.3789C52.435 37.1209 52.5629 36.902 52.751 36.7224C52.9392 36.5428 53.1693 36.4165 53.4415 36.3436C53.7136 36.2706 53.976 36.2649 54.2288 36.3264C54.4816 36.3879 54.7017 36.5135 54.8891 36.7033C55.0766 36.893 55.2091 37.1326 55.2866 37.422C55.3641 37.7113 55.3675 37.9855 55.2966 38.2445C55.2257 38.5035 55.0931 38.7254 54.899 38.9103C54.7074 39.0909 54.4755 39.2176 54.2034 39.2906ZM54.0663 38.779C54.2179 38.7384 54.3495 38.6644 54.461 38.557C54.5759 38.4486 54.6554 38.3111 54.6993 38.1442C54.7432 37.9774 54.7374 37.7906 54.6821 37.5839C54.6267 37.3773 54.5405 37.2139 54.4234 37.0939C54.3054 36.9705 54.1712 36.8901 54.021 36.8528C53.8707 36.8156 53.7198 36.8173 53.5682 36.8579C53.4166 36.8985 53.2851 36.9725 53.1736 37.0799C53.0655 37.1864 52.9929 37.3221 52.9559 37.4871C52.918 37.6487 52.9267 37.8328 52.9821 38.0395C53.0642 38.346 53.2054 38.563 53.4057 38.6902C53.6084 38.8131 53.8287 38.8427 54.0663 38.779ZM56.8105 36.0057L56.2835 36.1469L56.9176 38.5134L56.3234 38.6727L55.6893 36.3061L55.3534 36.3961L55.2247 35.9156L55.5605 35.8256L55.5065 35.6241C55.4188 35.2968 55.4413 35.0361 55.5738 34.8418C55.7089 34.6431 55.9624 34.494 56.3345 34.3943L56.466 34.8852C56.2869 34.9332 56.1704 35.0013 56.1165 35.0896C56.0617 35.1744 56.0564 35.2995 56.1007 35.4649L56.1547 35.6664L56.6818 35.5252L56.8105 36.0057ZM59.362 35.322L59.7843 36.898C59.8129 37.0048 59.8578 37.0758 59.919 37.1111C59.9826 37.1421 60.0747 37.1414 60.1953 37.1091L60.557 37.0122L60.6885 37.503L60.2235 37.6276C59.9583 37.6987 59.7384 37.6912 59.5639 37.605C59.3895 37.5188 59.2649 37.3362 59.1901 37.0572L58.7678 35.4812L58.432 35.5712L58.3032 35.0907L58.6391 35.0007L58.4494 34.2928L59.0436 34.1336L59.2333 34.8415L59.9257 34.656L60.0544 35.1365L59.362 35.322ZM61.9287 34.0694C62.1458 34.0112 62.3511 34.0061 62.5448 34.0538C62.742 34.1007 62.9133 34.2025 63.0586 34.3592C63.2075 34.515 63.3165 34.7221 63.3857 34.9805L63.8357 36.6598L63.2518 36.8162L62.8254 35.2247C62.7571 34.9698 62.6412 34.7923 62.4777 34.6921C62.3133 34.5884 62.1209 34.5662 61.9005 34.6252C61.68 34.6843 61.5228 34.8003 61.4288 34.9731C61.3373 35.1416 61.3258 35.3533 61.3941 35.6083L61.8205 37.1997L61.2314 37.3576L60.2069 33.5339L60.796 33.3761L61.1462 34.6833C61.2138 34.536 61.3146 34.4093 61.4487 34.3032C61.5861 34.1963 61.7462 34.1183 61.9287 34.0694ZM66.7963 34.266C66.8249 34.3727 66.8439 34.471 66.8532 34.5609L64.6778 35.1437C64.756 35.3665 64.8893 35.5264 65.0778 35.6236C65.2662 35.7208 65.4707 35.7398 65.6912 35.6808C66.0081 35.5958 66.1965 35.4032 66.2563 35.1029L66.8919 34.9326C66.8759 35.2175 66.7768 35.4748 66.5947 35.7045C66.4151 35.9298 66.1582 36.0873 65.8241 36.1768C65.552 36.2497 65.2912 36.255 65.0419 36.1926C64.7951 36.1258 64.5802 35.9988 64.3971 35.8115C64.2165 35.6199 64.087 35.3777 64.0086 35.0849C63.9301 34.7921 63.9199 34.5198 63.9779 34.2679C64.0385 34.0117 64.1594 33.7947 64.3407 33.6169C64.5254 33.4382 64.7573 33.3115 65.0363 33.2367C65.305 33.1647 65.5601 33.1591 65.8016 33.22C66.0431 33.2808 66.2511 33.4023 66.4254 33.5845C66.5988 33.7632 66.7225 33.9904 66.7963 34.266ZM66.1316 34.2447C66.07 34.0286 65.9459 33.8754 65.7592 33.7851C65.5726 33.6948 65.3673 33.6797 65.1434 33.7397C64.9401 33.7941 64.7837 33.9062 64.6741 34.0759C64.5636 34.2421 64.5241 34.4391 64.5556 34.667L66.1316 34.2447ZM69.0567 32.6579C69.1215 32.5002 69.228 32.3535 69.3763 32.2178C69.5245 32.0821 69.7071 31.9852 69.9241 31.927C70.1722 31.8606 70.4144 31.8621 70.6509 31.9317C70.8899 31.9969 71.0975 32.124 71.2737 32.3131C71.4498 32.5022 71.5763 32.7396 71.6529 33.0256C71.7295 33.3115 71.7397 33.5838 71.6835 33.8425C71.6263 34.0978 71.5115 34.3169 71.339 34.4997C71.169 34.6782 70.96 34.8007 70.7119 34.8671C70.4949 34.9253 70.2905 34.9339 70.0986 34.893C69.9058 34.8487 69.7385 34.7754 69.5966 34.6731L70.0701 36.4402L69.4811 36.5981L68.3555 32.3972L68.9445 32.2394L69.0567 32.6579ZM71.0535 33.1862C71.0009 32.9898 70.9143 32.8321 70.7938 32.713C70.6758 32.5896 70.5399 32.5097 70.3862 32.4733C70.235 32.4326 70.0836 32.4326 69.932 32.4732C69.7839 32.5129 69.6528 32.5886 69.5388 32.7004C69.4282 32.8113 69.3509 32.9501 69.307 33.1169C69.2666 33.2828 69.2727 33.464 69.3253 33.6603C69.3779 33.8567 69.4636 34.0183 69.5826 34.1452C69.704 34.2677 69.8403 34.3493 69.9915 34.39C70.1462 34.4298 70.2976 34.4299 70.4457 34.3902C70.5973 34.3496 70.7283 34.2738 70.8389 34.163C70.9521 34.0477 71.0284 33.9055 71.0679 33.7361C71.1109 33.5658 71.1061 33.3825 71.0535 33.1862ZM72.5572 31.7144C72.6046 31.5466 72.6882 31.4042 72.8082 31.2872C72.9308 31.1657 73.0902 31.0787 73.2866 31.0261L73.4499 31.6358L73.3001 31.6759C73.0693 31.7378 72.9093 31.8434 72.8201 31.9928C72.7344 32.1413 72.7303 32.3603 72.8078 32.6496L73.2093 34.1481L72.6203 34.3059L71.8574 31.4589L72.4464 31.301L72.5572 31.7144ZM74.0391 30.47C73.9323 30.4986 73.8331 30.4864 73.7413 30.4335C73.6496 30.3805 73.5894 30.3007 73.5608 30.1939C73.5322 30.0871 73.5444 29.9878 73.5973 29.8961C73.6503 29.8044 73.7302 29.7442 73.837 29.7156C73.9403 29.6879 74.0378 29.7005 74.1296 29.7535C74.2213 29.8065 74.2814 29.8863 74.3101 29.9931C74.3387 30.0999 74.3265 30.1992 74.2735 30.2909C74.2206 30.3826 74.1424 30.4423 74.0391 30.47ZM74.4295 30.7697L75.1924 33.6167L74.6033 33.7746L73.8405 30.9275L74.4295 30.7697ZM76.6269 30.131C76.8508 30.071 77.063 30.064 77.2637 30.1099C77.4677 30.155 77.6441 30.2554 77.7929 30.4112C77.9418 30.567 78.0508 30.774 78.12 31.0324L78.57 32.7117L77.9861 32.8682L77.5597 31.2767C77.4914 31.0218 77.3755 30.8442 77.212 30.744C77.0477 30.6404 76.8552 30.6181 76.6348 30.6772C76.4143 30.7363 76.2571 30.8522 76.1631 31.0251C76.0717 31.1936 76.0601 31.4053 76.1284 31.6602L76.5548 33.2517L75.9658 33.4095L75.2029 30.5624L75.7919 30.4046L75.8792 30.7301C75.9442 30.5872 76.0421 30.4631 76.1727 30.358C76.3067 30.2519 76.4581 30.1763 76.6269 30.131ZM79.3745 29.9597L79.7967 31.5357C79.8254 31.6425 79.8702 31.7135 79.9314 31.7488C79.9951 31.7797 80.0872 31.7791 80.2077 31.7468L80.5694 31.6498L80.701 32.1407L80.2359 32.2653C79.9707 32.3364 79.7508 32.3288 79.5764 32.2427C79.4019 32.1565 79.2773 31.9739 79.2025 31.6949L78.7802 30.1189L78.4444 30.2089L78.3156 29.7284L78.6515 29.6384L78.4618 28.9305L79.056 28.7713L79.2457 29.4792L79.9381 29.2936L80.0669 29.7742L79.3745 29.9597ZM80.6796 28.6907C80.5728 28.7193 80.4736 28.7071 80.3819 28.6542C80.2901 28.6012 80.23 28.5213 80.2014 28.4145C80.1727 28.3078 80.1849 28.2085 80.2379 28.1168C80.2908 28.0251 80.3707 27.9649 80.4775 27.9363C80.5808 27.9086 80.6784 27.9212 80.7701 27.9742C80.8618 28.0271 80.922 28.107 80.9506 28.2138C80.9792 28.3206 80.967 28.4198 80.9141 28.5115C80.8611 28.6033 80.783 28.663 80.6796 28.6907ZM81.0701 28.9903L81.8329 31.8374L81.2439 31.9952L80.481 29.1482L81.0701 28.9903ZM83.2674 28.3517C83.4913 28.2917 83.7036 28.2847 83.9042 28.3306C84.1082 28.3756 84.2847 28.476 84.4335 28.6318C84.5823 28.7876 84.6913 28.9947 84.7605 29.2531L85.2105 30.9324L84.6266 31.0888L84.2002 29.4974C84.1319 29.2425 84.016 29.0649 83.8526 28.9647C83.6882 28.8611 83.4958 28.8388 83.2753 28.8979C83.0548 28.9569 82.8976 29.0729 82.8036 29.2458C82.7122 29.4143 82.7006 29.626 82.7689 29.8809L83.1953 31.4723L82.6063 31.6302L81.8434 28.7831L82.4325 28.6253L82.5197 28.9508C82.5848 28.8078 82.6826 28.6838 82.8132 28.5786C82.9472 28.4726 83.0986 28.3969 83.2674 28.3517ZM86.3337 27.5301C86.5541 27.471 86.7607 27.4637 86.9535 27.508C87.1488 27.548 87.3123 27.6205 87.4438 27.7255L87.333 27.3122L87.9272 27.153L88.7026 30.0465C88.7727 30.3083 88.7799 30.5556 88.7241 30.7884C88.6693 31.0246 88.5525 31.2294 88.3737 31.4029C88.1984 31.5754 87.9661 31.7004 87.6768 31.7779C87.2909 31.8813 86.9461 31.8758 86.6423 31.7616C86.3394 31.6508 86.1292 31.4449 86.0117 31.1442L86.5955 30.9877C86.68 31.1238 86.8066 31.2173 86.9753 31.2681C87.1483 31.3214 87.3364 31.3208 87.5397 31.2664C87.7774 31.2027 87.9492 31.0791 88.0551 30.8957C88.1644 30.7113 88.1822 30.4813 88.1084 30.2058L87.981 29.7304C87.9171 29.8915 87.8115 30.0416 87.6642 30.1808C87.5194 30.3156 87.3385 30.412 87.1214 30.4702C86.8734 30.5367 86.6295 30.5356 86.3895 30.4669C86.1522 30.3939 85.9432 30.2616 85.7626 30.07C85.5846 29.8741 85.4572 29.6331 85.3806 29.3472C85.304 29.0613 85.2947 28.7924 85.3528 28.5406C85.4143 28.2878 85.5305 28.0739 85.7014 27.8989C85.8749 27.7195 86.0856 27.5966 86.3337 27.5301ZM87.7138 28.7331C87.6612 28.5368 87.5741 28.3773 87.4527 28.2548C87.3347 28.1314 87.2001 28.0493 87.0489 28.0086C86.8977 27.9679 86.7463 27.9678 86.5947 28.0084C86.4432 28.049 86.3121 28.1248 86.2015 28.2356C86.09 28.3431 86.0123 28.4802 85.9684 28.647C85.927 28.8095 85.9326 28.9889 85.9852 29.1852C86.0378 29.3816 86.1236 29.5432 86.2425 29.6701C86.3648 29.7961 86.5021 29.8811 86.6542 29.9253C86.8089 29.9651 86.9603 29.9651 87.1084 29.9254C87.26 29.8848 87.391 29.8091 87.5016 29.6982C87.6122 29.5874 87.6878 29.449 87.7282 29.2831C87.7712 29.1128 87.7664 28.9295 87.7138 28.7331ZM22.5807 58.5977C22.5041 58.3118 22.4948 58.0429 22.5528 57.7911C22.6143 57.5383 22.7305 57.3244 22.9015 57.1494C23.0749 56.97 23.2857 56.8471 23.5337 56.7806C23.7576 56.7206 23.9642 56.7133 24.1536 56.7585C24.3454 56.7994 24.5089 56.8719 24.6438 56.9761L24.5331 56.5627L25.1273 56.4035L25.8902 59.2505L25.2959 59.4098L25.1824 58.9861C25.1185 59.1472 25.0124 59.2956 24.8642 59.4313C24.716 59.567 24.5316 59.6644 24.3112 59.7235C24.0666 59.789 23.8261 59.787 23.5896 59.7174C23.3522 59.6445 23.1432 59.5122 22.9627 59.3206C22.7846 59.1246 22.6573 58.8836 22.5807 58.5977ZM24.9138 57.9836C24.8612 57.7873 24.7742 57.6279 24.6527 57.5053C24.5347 57.3819 24.4001 57.2998 24.2489 57.2591C24.0977 57.2184 23.9463 57.2183 23.7948 57.2589C23.6432 57.2996 23.5121 57.3753 23.4015 57.4861C23.29 57.5936 23.2123 57.7307 23.1684 57.8975C23.127 58.06 23.1326 58.2394 23.1852 58.4357C23.2378 58.6321 23.3236 58.7937 23.4425 58.9206C23.5649 59.0466 23.7021 59.1316 23.8543 59.1758C24.0089 59.2156 24.1603 59.2156 24.3084 59.1759C24.46 59.1353 24.5911 59.0596 24.7017 58.9487C24.8123 58.8379 24.8878 58.6995 24.9283 58.5336C24.9712 58.3633 24.9664 58.18 24.9138 57.9836ZM27.325 55.7648C27.5489 55.7048 27.7611 55.6977 27.9617 55.7437C28.1658 55.7887 28.3422 55.8891 28.491 56.0449C28.6399 56.2007 28.7489 56.4078 28.8181 56.6661L29.2681 58.3454L28.6842 58.5019L28.2578 56.9104C28.1895 56.6555 28.0736 56.478 27.9101 56.3778C27.7457 56.2741 27.5533 56.2518 27.3329 56.3109C27.1124 56.37 26.9552 56.486 26.8612 56.6588C26.7697 56.8273 26.7582 57.039 26.8265 57.2939L27.2529 58.8854L26.6639 59.0432L25.901 56.1962L26.49 56.0383L26.5773 56.3638C26.6423 56.2209 26.7402 56.0968 26.8707 55.9917C27.0048 55.8856 27.1562 55.81 27.325 55.7648ZM29.4382 56.7603C29.3616 56.4743 29.3523 56.2055 29.4104 55.9536C29.4718 55.7009 29.5881 55.487 29.759 55.3119C29.9324 55.1325 30.1449 55.0092 30.3964 54.9418C30.5824 54.8919 30.776 54.8844 30.9773 54.919C31.1811 54.9493 31.3544 55.0174 31.4972 55.1231L31.1289 53.7486L31.7231 53.5894L32.7477 57.4131L32.1535 57.5723L32.0385 57.1434C31.979 57.3071 31.8751 57.4567 31.7269 57.5924C31.5821 57.7272 31.3995 57.8242 31.179 57.8832C30.931 57.9497 30.687 57.9486 30.4471 57.88C30.2097 57.807 30.0007 57.6747 29.8202 57.4831C29.6421 57.2871 29.5148 57.0462 29.4382 56.7603ZM31.7713 56.1462C31.7187 55.9498 31.6317 55.7904 31.5102 55.6679C31.3923 55.5444 31.2577 55.4623 31.1064 55.4216C30.9552 55.3809 30.8039 55.3809 30.6523 55.4215C30.5007 55.4621 30.3696 55.5378 30.259 55.6487C30.1475 55.7561 30.0698 55.8932 30.0259 56.0601C29.9845 56.2225 29.9901 56.4019 30.0427 56.5983C30.0954 56.7946 30.1811 56.9562 30.3 57.0831C30.4224 57.2091 30.5597 57.2942 30.7118 57.3383C30.8664 57.3781 31.0178 57.3782 31.1659 57.3385C31.3175 57.2979 31.4486 57.2221 31.5592 57.1113C31.6698 57.0004 31.7453 56.862 31.7858 56.6961C31.8288 56.5258 31.8239 56.3425 31.7713 56.1462ZM34.9167 54.2954L35.339 55.8714C35.3676 55.9782 35.4125 56.0492 35.4736 56.0845C35.5373 56.1155 35.6294 56.1148 35.75 56.0825L36.1117 55.9856L36.2432 56.4764L35.7782 56.6011C35.5129 56.6721 35.2931 56.6646 35.1186 56.5784C34.9442 56.4922 34.8195 56.3097 34.7448 56.0306L34.3225 54.4547L33.9866 54.5447L33.8579 54.0641L34.1937 53.9741L34.0041 53.2662L34.5983 53.107L34.788 53.8149L35.4803 53.6294L35.6091 54.1099L34.9167 54.2954ZM38.5861 52.7972L37.9611 57.4505L37.3514 57.6139L37.5591 56.074L35.6874 53.5739L36.3436 53.3981L37.726 55.3536L37.9764 52.9606L38.5861 52.7972ZM39.7319 52.9388C39.7967 52.7811 39.9032 52.6344 40.0515 52.4987C40.1997 52.363 40.3823 52.2661 40.5993 52.2079C40.8474 52.1414 41.0896 52.143 41.3261 52.2125C41.5651 52.2777 41.7727 52.4049 41.9489 52.5939C42.125 52.783 42.2514 53.0205 42.3281 53.3064C42.4047 53.5923 42.4149 53.8647 42.3587 54.1234C42.3015 54.3787 42.1867 54.5978 42.0142 54.7806C41.8442 54.9591 41.6352 55.0815 41.3871 55.148C41.1701 55.2061 40.9657 55.2148 40.7738 55.1739C40.581 55.1295 40.4137 55.0562 40.2718 54.9539L40.7453 56.7211L40.1563 56.8789L39.0307 52.6781L39.6197 52.5202L39.7319 52.9388ZM41.7287 53.467C41.6761 53.2707 41.5895 53.113 41.469 52.9939C41.351 52.8704 41.2151 52.7905 41.0614 52.7542C40.9102 52.7135 40.7588 52.7134 40.6072 52.7541C40.4591 52.7937 40.328 52.8695 40.214 52.9813C40.1034 53.0921 40.0261 53.231 39.9822 53.3978C39.9418 53.5637 39.9479 53.7448 40.0005 53.9412C40.0531 54.1375 40.1388 54.2992 40.2578 54.4261C40.3792 54.5486 40.5155 54.6302 40.6667 54.6709C40.8214 54.7107 40.9728 54.7107 41.1209 54.6711C41.2725 54.6304 41.4035 54.5547 41.5141 54.4438C41.6272 54.3286 41.7036 54.1863 41.7431 54.017C41.7861 53.8467 41.7813 53.6634 41.7287 53.467ZM45.5047 52.3943C45.5333 52.5011 45.5523 52.5994 45.5616 52.6892L43.3862 53.2721C43.4644 53.4948 43.5977 53.6548 43.7862 53.752C43.9747 53.8492 44.1792 53.8682 44.3996 53.8091C44.7165 53.7242 44.9049 53.5316 44.9647 53.2313L45.6003 53.061C45.5843 53.3459 45.4853 53.6032 45.3031 53.8329C45.1235 54.0582 44.8667 54.2156 44.5325 54.3052C44.2604 54.3781 43.9997 54.3833 43.7503 54.3209C43.5035 54.2541 43.2886 54.1271 43.1055 53.9399C42.925 53.7483 42.7954 53.5061 42.717 53.2133C42.6385 52.9205 42.6283 52.6482 42.6864 52.3963C42.7469 52.1401 42.8679 51.9231 43.0491 51.7453C43.2338 51.5666 43.4657 51.4399 43.7447 51.3651C44.0134 51.2931 44.2685 51.2875 44.51 51.3483C44.7515 51.4091 44.9595 51.5306 45.1338 51.7128C45.3073 51.8916 45.4309 52.1187 45.5047 52.3943ZM44.84 52.3731C44.7784 52.157 44.6543 52.0038 44.4676 51.9135C44.281 51.8232 44.0757 51.8081 43.8518 51.8681C43.6486 51.9225 43.4922 52.0346 43.3825 52.2042C43.272 52.3705 43.2325 52.5675 43.264 52.7953L44.84 52.3731ZM47.5304 53.5019C47.3065 53.5619 47.0944 53.5763 46.894 53.545C46.6962 53.5094 46.5271 53.4366 46.3869 53.3265C46.2457 53.2129 46.1486 53.071 46.0955 52.9006L46.7053 52.7372C46.7479 52.855 46.832 52.9414 46.9575 52.9964C47.0855 53.047 47.2287 53.0511 47.3872 53.0086C47.5525 52.9643 47.6717 52.8992 47.7446 52.8132C47.8201 52.7228 47.8444 52.6277 47.8177 52.5278C47.7891 52.421 47.7162 52.3556 47.599 52.3316C47.4852 52.3067 47.3098 52.2928 47.0727 52.2899C46.8435 52.2885 46.6543 52.2783 46.5052 52.2592C46.3561 52.2401 46.2163 52.187 46.086 52.1001C45.9591 52.0123 45.8707 51.8754 45.8208 51.6894C45.7802 51.5378 45.7881 51.388 45.8444 51.24C45.8998 51.0885 46.0005 50.9545 46.1465 50.8378C46.2959 50.7203 46.4791 50.6324 46.6961 50.5743C47.0199 50.4875 47.3022 50.5005 47.5428 50.6132C47.786 50.7216 47.9523 50.9152 48.0418 51.1939L47.4527 51.3518C47.4082 51.2271 47.3293 51.1393 47.216 51.0885C47.1027 51.0376 46.9668 51.0334 46.8084 51.0759C46.6534 51.1174 46.5424 51.1785 46.4754 51.2592C46.4084 51.3399 46.3878 51.4285 46.4137 51.525C46.434 51.6008 46.4786 51.6571 46.5476 51.694C46.6165 51.7309 46.6948 51.7542 46.7823 51.764C46.8689 51.7703 46.9957 51.7751 47.1627 51.7784C47.3842 51.7781 47.5682 51.7897 47.7148 51.8132C47.8639 51.8323 48.0015 51.8841 48.1275 51.9685C48.2535 52.0529 48.3426 52.1859 48.395 52.3675C48.4384 52.5294 48.4324 52.6861 48.377 52.8376C48.3215 52.989 48.2209 53.1231 48.0749 53.2397C47.9324 53.3554 47.7509 53.4428 47.5304 53.5019ZM51.454 50.8002C51.4826 50.907 51.5015 51.0053 51.5108 51.0951L49.3355 51.678C49.4136 51.9008 49.5469 52.0607 49.7354 52.1579C49.9239 52.2551 50.1284 52.2741 50.3488 52.215C50.6658 52.1301 50.8541 51.9375 50.914 51.6372L51.5495 51.4669C51.5335 51.7518 51.4345 52.0091 51.2524 52.2388C51.0728 52.4641 50.8159 52.6216 50.4818 52.7111C50.2096 52.784 49.9489 52.7893 49.6996 52.7268C49.4528 52.6601 49.2378 52.533 49.0547 52.3458C48.8742 52.1542 48.7447 51.912 48.6662 51.6192C48.5878 51.3264 48.5776 51.0541 48.6356 50.8022C48.6962 50.546 48.8171 50.329 48.9984 50.1512C49.1831 49.9725 49.4149 49.8458 49.694 49.771C49.9627 49.699 50.2178 49.6934 50.4593 49.7542C50.7008 49.8151 50.9087 49.9366 51.0831 50.1187C51.2565 50.2975 51.3801 50.5247 51.454 50.8002ZM50.7892 50.779C50.7276 50.5629 50.6035 50.4097 50.4169 50.3194C50.2302 50.2291 50.025 50.214 49.801 50.274C49.5978 50.3284 49.4414 50.4405 49.3318 50.6102C49.2213 50.7764 49.1817 50.9734 49.2133 51.2013L50.7892 50.779ZM52.4869 49.5875L52.9092 51.1635C52.9378 51.2703 52.9827 51.3413 53.0438 51.3766C53.1075 51.4076 53.1996 51.4069 53.3202 51.3746L53.6819 51.2777L53.8134 51.7685L53.3483 51.8931C53.0831 51.9642 52.8632 51.9567 52.6888 51.8705C52.5143 51.7843 52.3897 51.6017 52.3149 51.3227L51.8927 49.7467L51.5568 49.8367L51.428 49.3562L51.7639 49.2662L51.5742 48.5583L52.1684 48.3991L52.3581 49.107L53.0505 48.9215L53.1793 49.402L52.4869 49.5875ZM54.4094 49.0724L54.8317 50.6484C54.8603 50.7551 54.9052 50.8262 54.9663 50.8615C55.03 50.8924 55.1221 50.8917 55.2427 50.8594L55.6044 50.7625L55.7359 51.2534L55.2709 51.378C55.0056 51.4491 54.7858 51.4415 54.6113 51.3554C54.4368 51.2692 54.3122 51.0866 54.2375 50.8076L53.8152 49.2316L53.4793 49.3216L53.3506 48.8411L53.6864 48.7511L53.4967 48.0432L54.091 47.884L54.2806 48.5918L54.973 48.4063L55.1018 48.8869L54.4094 49.0724ZM55.7146 47.8034C55.6078 47.832 55.5085 47.8198 55.4168 47.7668C55.3251 47.7139 55.2649 47.634 55.2363 47.5272C55.2077 47.4204 55.2199 47.3212 55.2728 47.2295C55.3258 47.1377 55.4056 47.0776 55.5124 47.049C55.6158 47.0213 55.7133 47.0339 55.805 47.0869C55.8967 47.1398 55.9569 47.2197 55.9855 47.3265C56.0141 47.4333 56.002 47.5325 55.949 47.6242C55.8961 47.716 55.8179 47.7757 55.7146 47.8034ZM56.105 48.103L56.8679 50.9501L56.2788 51.1079L55.5159 48.2609L56.105 48.103ZM58.3024 47.4644C58.5263 47.4044 58.7385 47.3974 58.9391 47.4433C59.1432 47.4883 59.3196 47.5887 59.4684 47.7445C59.6172 47.9003 59.7263 48.1074 59.7955 48.3658L60.2455 50.0451L59.6616 50.2015L59.2351 48.6101C59.1668 48.3551 59.051 48.1776 58.8875 48.0774C58.7231 47.9738 58.5307 47.9515 58.3102 48.0105C58.0898 48.0696 57.9326 48.1856 57.8386 48.3585C57.7471 48.5269 57.7356 48.7387 57.8039 48.9936L58.2303 50.585L57.6412 50.7429L56.8784 47.8958L57.4674 47.738L57.5546 48.0635C57.6197 47.9205 57.7175 47.7965 57.8481 47.6913C57.9822 47.5853 58.1336 47.5096 58.3024 47.4644ZM61.3686 46.6428C61.5891 46.5837 61.7957 46.5764 61.9885 46.6207C62.1838 46.6607 62.3472 46.7332 62.4787 46.8382L62.368 46.4249L62.9622 46.2656L63.7375 49.1592C63.8077 49.421 63.8149 49.6683 63.7591 49.9011C63.7042 50.1373 63.5874 50.3421 63.4087 50.5155C63.2334 50.688 63.0011 50.8131 62.7117 50.8906C62.3259 50.994 61.9811 50.9885 61.6772 50.8743C61.3743 50.7634 61.1641 50.5576 61.0466 50.2568L61.6305 50.1004C61.7149 50.2365 61.8415 50.33 62.0102 50.3808C62.1832 50.4341 62.3714 50.4335 62.5746 50.3791C62.8123 50.3154 62.9841 50.1918 63.09 50.0084C63.1994 49.824 63.2171 49.594 63.1433 49.3184L63.0159 48.8431C62.952 49.0042 62.8464 49.1543 62.6991 49.2935C62.5543 49.4283 62.3734 49.5247 62.1564 49.5829C61.9084 49.6493 61.6644 49.6482 61.4245 49.5796C61.1871 49.5066 60.9781 49.3743 60.7976 49.1827C60.6195 48.9868 60.4922 48.7458 60.4156 48.4599C60.339 48.174 60.3297 47.9051 60.3877 47.6533C60.4492 47.4005 60.5654 47.1866 60.7364 47.0116C60.9098 46.8322 61.1206 46.7093 61.3686 46.6428ZM62.7487 47.8458C62.6961 47.6495 62.6091 47.49 62.4876 47.3675C62.3696 47.244 62.235 47.162 62.0838 47.1213C61.9326 47.0805 61.7812 47.0805 61.6297 47.1211C61.4781 47.1617 61.347 47.2375 61.2364 47.3483C61.1249 47.4557 61.0472 47.5929 61.0033 47.7597C60.9619 47.9222 60.9675 48.1016 61.0201 48.2979C61.0727 48.4943 61.1585 48.6559 61.2774 48.7828C61.3998 48.9087 61.537 48.9938 61.6892 49.038C61.8438 49.0777 61.9952 49.0778 62.1433 49.0381C62.2949 48.9975 62.426 48.9218 62.5366 48.8109C62.6472 48.7 62.7227 48.5617 62.7632 48.3957C62.8061 48.2255 62.8013 48.0422 62.7487 47.8458ZM65.2767 45.2412C65.1699 45.2698 65.0707 45.2576 64.979 45.2047C64.8872 45.1517 64.8271 45.0718 64.7985 44.965C64.7699 44.8583 64.782 44.759 64.835 44.6673C64.8879 44.5756 64.9678 44.5154 65.0746 44.4868C65.1779 44.4591 65.2755 44.4717 65.3672 44.5247C65.4589 44.5776 65.5191 44.6575 65.5477 44.7643C65.5763 44.8711 65.5641 44.9703 65.5112 45.0621C65.4582 45.1538 65.3801 45.2135 65.2767 45.2412ZM65.6672 45.5408L66.43 48.3879L65.841 48.5458L65.0781 45.6987L65.6672 45.5408ZM67.8645 44.9022C68.0884 44.8422 68.3007 44.8352 68.5013 44.8811C68.7053 44.9261 68.8818 45.0265 69.0306 45.1823C69.1794 45.3381 69.2884 45.5452 69.3577 45.8036L69.8076 47.4829L69.2237 47.6393L68.7973 46.0479C68.729 45.793 68.6131 45.6154 68.4497 45.5152C68.2853 45.4116 68.0929 45.3893 67.8724 45.4484C67.652 45.5074 67.4947 45.6234 67.4008 45.7963C67.3093 45.9648 67.2977 46.1765 67.366 46.4314L67.7925 48.0229L67.2034 48.1807L66.4405 45.3336L67.0296 45.1758L67.1168 45.5013C67.1819 45.3583 67.2797 45.2343 67.4103 45.1292C67.5443 45.0231 67.6957 44.9474 67.8645 44.9022ZM69.9777 45.8977C69.9011 45.6118 69.8919 45.3429 69.9499 45.0911C70.0114 44.8383 70.1276 44.6244 70.2985 44.4494C70.472 44.27 70.6845 44.1466 70.9359 44.0792C71.1219 44.0294 71.3156 44.0218 71.5169 44.0565C71.7207 44.0868 71.894 44.1548 72.0367 44.2605L71.6685 42.8861L72.2627 42.7269L73.2872 46.5505L72.693 46.7098L72.5781 46.2809C72.5186 46.4445 72.4147 46.5942 72.2664 46.7299C72.1216 46.8647 71.939 46.9616 71.7185 47.0207C71.4705 47.0872 71.2266 47.0861 70.9866 47.0174C70.7493 46.9444 70.5403 46.8121 70.3597 46.6205C70.1817 46.4246 70.0544 46.1836 69.9777 45.8977ZM72.3109 45.2836C72.2583 45.0873 72.1712 44.9278 72.0498 44.8053C71.9318 44.6819 71.7972 44.5998 71.646 44.5591C71.4948 44.5184 71.3434 44.5183 71.1918 44.5589C71.0403 44.5995 70.9092 44.6753 70.7986 44.7861C70.6871 44.8936 70.6094 45.0307 70.5655 45.1975C70.5241 45.36 70.5297 45.5394 70.5823 45.7357C70.6349 45.9321 70.7207 46.0937 70.8396 46.2206C70.962 46.3466 71.0992 46.4316 71.2513 46.4758C71.406 46.5156 71.5574 46.5156 71.7055 46.4759C71.8571 46.4353 71.9881 46.3596 72.0987 46.2487C72.2093 46.1379 72.2849 45.9995 72.3253 45.8336C72.3683 45.6633 72.3635 45.48 72.3109 45.2836ZM75.8764 42.8053L76.6393 45.6524L76.0502 45.8102L75.9603 45.4743C75.8986 45.6164 75.8013 45.7421 75.6682 45.8516C75.5376 45.9568 75.3879 46.032 75.2191 46.0772C74.9952 46.1372 74.7812 46.1447 74.5772 46.0997C74.3766 46.0537 74.2001 45.9533 74.0479 45.7985C73.899 45.6427 73.79 45.4356 73.7208 45.1772L73.2722 43.5031L73.8561 43.3466L74.2811 44.9329C74.3494 45.1878 74.4658 45.3671 74.6302 45.4707C74.7936 45.5709 74.9856 45.5915 75.206 45.5324C75.4265 45.4734 75.5825 45.3596 75.6739 45.1911C75.7679 45.0182 75.7807 44.8043 75.7124 44.5494L75.2874 42.9631L75.8764 42.8053ZM78.4624 45.2137C78.2385 45.2737 78.0263 45.2881 77.826 45.2568C77.6282 45.2212 77.4591 45.1484 77.3188 45.0383C77.1777 44.9248 77.0805 44.7828 77.0275 44.6124L77.6372 44.449C77.6799 44.5668 77.7639 44.6532 77.8894 44.7082C78.0174 44.7588 78.1607 44.7629 78.3191 44.7204C78.4845 44.6761 78.6036 44.611 78.6766 44.525C78.7521 44.4346 78.7764 44.3395 78.7496 44.2396C78.721 44.1328 78.6481 44.0674 78.5309 44.0434C78.4172 44.0185 78.2418 44.0046 78.0047 44.0017C77.7754 44.0003 77.5863 43.9901 77.4371 43.971C77.288 43.9519 77.1483 43.8988 77.0179 43.8119C76.891 43.7241 76.8026 43.5872 76.7528 43.4012C76.7122 43.2496 76.72 43.0998 76.7764 42.9518C76.8318 42.8003 76.9325 42.6663 77.0784 42.5497C77.2279 42.4321 77.4111 42.3442 77.6281 42.2861C77.9519 42.1993 78.2341 42.2123 78.4748 42.325C78.718 42.4334 78.8843 42.627 78.9737 42.9058L78.3847 43.0636C78.3402 42.9389 78.2613 42.8511 78.148 42.8003C78.0347 42.7494 77.8988 42.7452 77.7403 42.7877C77.5853 42.8292 77.4743 42.8903 77.4073 42.971C77.3404 43.0517 77.3198 43.1403 77.3456 43.2368C77.3659 43.3126 77.4106 43.3689 77.4795 43.4058C77.5485 43.4427 77.6267 43.466 77.7143 43.4758C77.8009 43.4822 77.9277 43.4869 78.0947 43.4902C78.3162 43.4899 78.5002 43.5015 78.6468 43.525C78.7959 43.5441 78.9334 43.5959 79.0594 43.6803C79.1854 43.7647 79.2746 43.8977 79.327 44.0793C79.3703 44.2412 79.3643 44.3979 79.3089 44.5494C79.2535 44.7008 79.1528 44.8349 79.0069 44.9515C78.8643 45.0672 78.6828 45.1546 78.4624 45.2137ZM80.2298 42.1538L80.6521 43.7298C80.6807 43.8366 80.7256 43.9076 80.7867 43.9429C80.8504 43.9739 80.9425 43.9732 81.0631 43.9409L81.4248 43.844L81.5563 44.3348L81.0912 44.4595C80.826 44.5305 80.6061 44.523 80.4317 44.4368C80.2572 44.3506 80.1326 44.1681 80.0578 43.889L79.6356 42.3131L79.2997 42.4031L79.1709 41.9225L79.5068 41.8325L79.3171 41.1246L79.9113 40.9654L80.101 41.6733L80.7934 41.4878L80.9222 41.9683L80.2298 42.1538ZM82.0361 41.5978C82.0835 41.4301 82.1672 41.2877 82.2872 41.1706C82.4097 41.0492 82.5691 40.9621 82.7655 40.9095L82.9289 41.5192L82.779 41.5594C82.5482 41.6212 82.3882 41.7269 82.299 41.8763C82.2133 42.0248 82.2092 42.2437 82.2867 42.5331L82.6882 44.0315L82.0992 44.1894L81.3363 41.3423L81.9254 41.1845L82.0361 41.5978ZM85.8823 40.1242L85.2573 44.7775L84.6475 44.9409L84.8552 43.4011L82.9835 40.9009L83.6398 40.7251L85.0222 42.6807L85.2726 40.2876L85.8823 40.1242ZM87.3371 42.8247C87.2303 42.8533 87.131 42.8411 87.0393 42.7881C86.9476 42.7352 86.8874 42.6553 86.8588 42.5485C86.8302 42.4417 86.8424 42.3425 86.8953 42.2508C86.9483 42.159 87.0281 42.0989 87.1349 42.0703C87.2383 42.0426 87.3358 42.0552 87.4275 42.1082C87.5192 42.1611 87.5794 42.241 87.608 42.3478C87.6366 42.4546 87.6245 42.5538 87.5715 42.6455C87.5186 42.7373 87.4404 42.797 87.3371 42.8247Z" fill="white"/>
<path d="M28.0731 71.8411C28.5647 71.7094 29.0198 71.6895 29.4384 71.7814C29.8603 71.8677 30.2184 72.0614 30.5126 72.3623C30.8101 72.6576 31.0217 73.04 31.1475 73.5094C31.2733 73.9789 31.2806 74.4137 31.1695 74.8137C31.0627 75.2126 30.8483 75.5548 30.5261 75.8405C30.2071 76.1206 29.8018 76.3265 29.3102 76.4583L27.8022 76.8623L26.565 72.2452L28.0731 71.8411ZM29.1447 75.8404C29.685 75.6956 30.06 75.4385 30.2695 75.0691C30.4791 74.6996 30.5126 74.2492 30.3702 73.7177C30.2266 73.1818 29.9706 72.8018 29.602 72.5778C29.2334 72.3538 28.7789 72.3141 28.2386 72.4589L27.4879 72.6601L28.394 76.0416L29.1447 75.8404ZM31.7868 71.3515C31.6495 71.3883 31.5219 71.3727 31.404 71.3046C31.286 71.2365 31.2087 71.1338 31.1719 70.9965C31.1351 70.8592 31.1507 70.7316 31.2188 70.6137C31.2869 70.4958 31.3896 70.4184 31.5269 70.3816C31.6598 70.346 31.7852 70.3622 31.9031 70.4303C32.021 70.4984 32.0984 70.6011 32.1352 70.7384C32.172 70.8757 32.1563 71.0033 32.0882 71.1213C32.0201 71.2392 31.9197 71.3159 31.7868 71.3515ZM32.2888 71.7368L33.2696 75.3974L32.5123 75.6003L31.5314 71.9398L32.2888 71.7368ZM35.114 70.9157C35.4018 70.8386 35.6747 70.8296 35.9327 70.8886C36.195 70.9465 36.4218 71.0756 36.6132 71.2759C36.8045 71.4762 36.9447 71.7425 37.0337 72.0746L37.6122 74.2338L36.8615 74.4349L36.3132 72.3887C36.2254 72.061 36.0764 71.8327 35.8663 71.7039C35.6549 71.5706 35.4076 71.542 35.1241 71.6179C34.8406 71.6939 34.6385 71.843 34.5177 72.0653C34.4001 72.2819 34.3852 72.5541 34.473 72.8818L35.0213 74.928L34.2639 75.1309L33.2831 71.4704L34.0405 71.2675L34.1526 71.686C34.2363 71.5022 34.362 71.3427 34.5299 71.2075C34.7023 71.0712 34.8969 70.9739 35.114 70.9157ZM41.4187 71.156C41.4555 71.2933 41.4799 71.4197 41.4919 71.5352L38.695 72.2846C38.7954 72.571 38.9669 72.7766 39.2092 72.9016C39.4515 73.0265 39.7144 73.051 39.9979 72.975C40.4054 72.8659 40.6475 72.6182 40.7245 72.2321L41.5416 72.0131C41.5211 72.3794 41.3937 72.7102 41.1596 73.0056C40.9287 73.2953 40.5984 73.4977 40.1688 73.6128C39.8189 73.7066 39.4837 73.7133 39.1631 73.6331C38.8458 73.5472 38.5694 73.3839 38.334 73.1432C38.1019 72.8968 37.9354 72.5854 37.8345 72.209C37.7336 71.8325 37.7205 71.4824 37.7952 71.1586C37.873 70.8292 38.0285 70.5502 38.2616 70.3216C38.499 70.0918 38.7972 69.9288 39.1559 69.8327C39.5014 69.7401 39.8293 69.733 40.1399 69.8111C40.4504 69.8893 40.7177 70.0456 40.9419 70.2798C41.1649 70.5096 41.3238 70.8017 41.4187 71.156ZM40.5641 71.1287C40.4849 70.8508 40.3253 70.6539 40.0854 70.5378C39.8454 70.4217 39.5815 70.4022 39.2936 70.4794C39.0323 70.5494 38.8312 70.6935 38.6902 70.9116C38.5481 71.1253 38.4973 71.3787 38.5379 71.6716L40.5641 71.1287ZM44.0232 72.58C43.7353 72.6572 43.4626 72.6756 43.205 72.6355C42.9506 72.5897 42.7333 72.4961 42.5529 72.3545C42.3714 72.2085 42.2466 72.026 42.1784 71.8069L42.9623 71.5969C43.0171 71.7483 43.1252 71.8594 43.2865 71.9301C43.4511 71.9952 43.6353 72.0004 43.839 71.9458C44.0516 71.8888 44.2048 71.8051 44.2986 71.6945C44.3956 71.5783 44.4269 71.456 44.3925 71.3276C44.3557 71.1903 44.262 71.1062 44.1113 71.0754C43.9651 71.0433 43.7396 71.0254 43.4348 71.0217C43.14 71.02 42.8967 71.0068 42.705 70.9822C42.5133 70.9577 42.3337 70.8895 42.1661 70.7778C42.0029 70.6648 41.8893 70.4888 41.8252 70.2496C41.773 70.0547 41.7831 69.8622 41.8555 69.6719C41.9267 69.4771 42.0562 69.3048 42.2439 69.1548C42.436 69.0037 42.6715 68.8907 42.9505 68.8159C43.3669 68.7044 43.7297 68.7211 44.0391 68.866C44.3518 69.0054 44.5656 69.2542 44.6807 69.6127L43.9233 69.8156C43.8661 69.6553 43.7647 69.5424 43.619 69.477C43.4733 69.4116 43.2986 69.4062 43.0949 69.4608C42.8956 69.5142 42.7528 69.5928 42.6667 69.6966C42.5806 69.8004 42.5542 69.9143 42.5874 70.0383C42.6135 70.1357 42.6709 70.2081 42.7595 70.2556C42.8482 70.303 42.9488 70.333 43.0614 70.3456C43.1727 70.3537 43.3358 70.3599 43.5505 70.3641C43.8352 70.3637 44.0718 70.3787 44.2603 70.4089C44.452 70.4334 44.6289 70.5 44.7908 70.6085C44.9528 70.717 45.0675 70.888 45.1348 71.1215C45.1906 71.3297 45.1829 71.5311 45.1116 71.7259C45.0404 71.9206 44.9109 72.0929 44.7232 72.2429C44.54 72.3917 44.3067 72.5041 44.0232 72.58ZM47.1238 67.6977C47.4028 67.623 47.6669 67.6163 47.9159 67.6777C48.1694 67.738 48.3896 67.8688 48.5765 68.0703C48.7679 68.2707 48.908 68.5369 48.997 68.8691L49.5756 71.0282L48.8249 71.2293L48.2766 69.1832C48.1888 68.8554 48.0398 68.6271 47.8296 68.4983C47.6183 68.3651 47.3709 68.3364 47.0874 68.4124C46.804 68.4883 46.6018 68.6374 46.481 68.8597C46.3634 69.0763 46.3485 69.3485 46.4364 69.6763L46.9846 71.7224L46.2273 71.9254L44.91 67.0092L45.6674 66.8063L46.1177 68.4871C46.2046 68.2977 46.3342 68.1348 46.5066 67.9984C46.6833 67.8608 46.8891 67.7606 47.1238 67.6977ZM53.612 70.0107C53.3242 70.0878 53.0514 70.1063 52.7938 70.0662C52.5395 70.0204 52.3221 69.9267 52.1418 69.7852C51.9603 69.6392 51.8354 69.4567 51.7672 69.2376L52.5511 69.0275C52.6059 69.179 52.714 69.2901 52.8754 69.3608C53.04 69.4258 53.2241 69.4311 53.4279 69.3765C53.6405 69.3195 53.7937 69.2358 53.8874 69.1252C53.9845 69.009 54.0158 68.8867 53.9814 68.7582C53.9446 68.6209 53.8509 68.5369 53.7002 68.506C53.5539 68.474 53.3284 68.4561 53.0236 68.4524C52.7288 68.4506 52.4856 68.4375 52.2939 68.4129C52.1022 68.3883 51.9225 68.3202 51.7549 68.2084C51.5917 68.0955 51.4781 67.9195 51.414 67.6803C51.3618 67.4854 51.3719 67.2928 51.4443 67.1025C51.5156 66.9078 51.645 66.7355 51.8327 66.5855C52.0248 66.4343 52.2604 66.3214 52.5394 66.2466C52.9557 66.1351 53.3186 66.1518 53.628 66.2967C53.9406 66.436 54.1545 66.6849 54.2695 67.0433L53.5122 67.2463C53.455 67.086 53.3535 66.9731 53.2078 66.9077C53.0621 66.8423 52.8874 66.8369 52.6837 66.8915C52.4844 66.9449 52.3417 67.0235 52.2556 67.1273C52.1694 67.231 52.143 67.3449 52.1762 67.4689C52.2023 67.5664 52.2597 67.6388 52.3484 67.6863C52.437 67.7337 52.5377 67.7637 52.6502 67.7763C52.7616 67.7844 52.9246 67.7906 53.1393 67.7948C53.4241 67.7944 53.6607 67.8093 53.8491 67.8395C54.0408 67.8641 54.2177 67.9307 54.3797 68.0392C54.5417 68.1477 54.6563 68.3187 54.7237 68.5522C54.7794 68.7604 54.7717 68.9618 54.7005 69.1565C54.6292 69.3513 54.4998 69.5236 54.3121 69.6736C54.1288 69.8224 53.8955 69.9347 53.612 70.0107ZM55.0907 65.1073C54.9534 65.1441 54.8257 65.1284 54.7078 65.0603C54.5899 64.9923 54.5125 64.8896 54.4757 64.7523C54.439 64.615 54.4546 64.4874 54.5227 64.3694C54.5908 64.2515 54.6935 64.1741 54.8308 64.1374C54.9636 64.1018 55.089 64.118 55.207 64.1861C55.3249 64.2542 55.4022 64.3569 55.439 64.4942C55.4758 64.6315 55.4602 64.7591 55.3921 64.877C55.324 64.9949 55.2235 65.0717 55.0907 65.1073ZM55.5926 65.4926L56.5735 69.1531L55.8161 69.356L54.8353 65.6955L55.5926 65.4926ZM58.4178 64.6715C58.7057 64.5944 58.9786 64.5853 59.2365 64.6444C59.4989 64.7022 59.7257 64.8313 59.917 65.0317C60.1084 65.232 60.2485 65.4982 60.3376 65.8304L60.9161 67.9895L60.1654 68.1907L59.6171 66.1445C59.5293 65.8167 59.3803 65.5885 59.1702 65.4596C58.9588 65.3264 58.7114 65.2977 58.428 65.3737C58.1445 65.4496 57.9424 65.5987 57.8215 65.821C57.7039 66.0376 57.6891 66.3098 57.7769 66.6376L58.3252 68.6837L57.5678 68.8867L56.587 65.2261L57.3443 65.0232L57.4565 65.4418C57.5401 65.2579 57.6659 65.0984 57.8338 64.9633C58.0061 64.8269 58.2008 64.7296 58.4178 64.6715ZM62.3601 63.6152C62.6436 63.5392 62.9092 63.5297 63.1571 63.5867C63.4082 63.6381 63.6183 63.7314 63.7874 63.8664L63.645 63.3349L64.409 63.1302L65.4059 66.8506C65.4961 67.1872 65.5053 67.5051 65.4336 67.8044C65.3631 68.1081 65.2129 68.3714 64.9831 68.5944C64.7577 68.8162 64.459 68.9769 64.087 69.0766C63.5909 69.2095 63.1476 69.2025 62.7569 69.0556C62.3675 68.9131 62.0972 68.6485 61.9461 68.2618L62.6968 68.0606C62.8054 68.2356 62.9682 68.3558 63.185 68.4211C63.4075 68.4897 63.6494 68.4889 63.9107 68.4189C64.2163 68.337 64.4372 68.1782 64.5734 67.9423C64.714 67.7053 64.7368 67.4096 64.6419 67.0553L64.4781 66.4441C64.396 66.6512 64.2602 66.8442 64.0708 67.0232C63.8846 67.1965 63.652 67.3205 63.373 67.3953C63.0541 67.4807 62.7404 67.4793 62.432 67.3911C62.1268 67.2972 61.8581 67.1271 61.6259 66.8808C61.397 66.6288 61.2333 66.319 61.1348 65.9514C61.0363 65.5838 61.0244 65.2381 61.099 64.9143C61.1781 64.5893 61.3275 64.3143 61.5473 64.0893C61.7703 63.8586 62.0412 63.7006 62.3601 63.6152ZM64.1346 65.1619C64.0669 64.9094 63.955 64.7044 63.7989 64.5469C63.6472 64.3882 63.4741 64.2827 63.2797 64.2303C63.0853 64.178 62.8907 64.1779 62.6958 64.2301C62.5009 64.2823 62.3324 64.3797 62.1902 64.5223C62.0468 64.6604 61.9469 64.8367 61.8904 65.0512C61.8372 65.26 61.8445 65.4907 61.9121 65.7432C61.9797 65.9956 62.09 66.2034 62.2429 66.3666C62.4002 66.5285 62.5767 66.6379 62.7723 66.6947C62.9711 66.7458 63.1658 66.7459 63.3562 66.6948C63.5511 66.6426 63.7196 66.5452 63.8618 66.4027C64.004 66.2602 64.1011 66.0823 64.1531 65.869C64.2084 65.65 64.2022 65.4143 64.1346 65.1619ZM67.2811 62.2966C67.5601 62.2218 67.8242 62.2151 68.0733 62.2766C68.3267 62.3368 68.5469 62.4677 68.7338 62.6692C68.9252 62.8695 69.0654 63.1358 69.1544 63.4679L69.7329 65.627L68.9822 65.8282L68.4339 63.782C68.3461 63.4543 68.1971 63.226 67.987 63.0972C67.7756 62.9639 67.5282 62.9353 67.2448 63.0112C66.9613 63.0872 66.7592 63.2363 66.6383 63.4585C66.5208 63.6752 66.5059 63.9474 66.5937 64.2751L67.142 66.3213L66.3846 66.5242L65.0673 61.6081L65.8247 61.4052L66.275 63.0859C66.362 62.8965 66.4916 62.7336 66.6639 62.5973C66.8406 62.4597 67.0464 62.3595 67.2811 62.2966Z" fill="white"/>
<g clip-path="url(#clip0_3247_105395)">
<g filter="url(#filter1_d_3247_105395)">
<path d="M91.0891 54.6246C91.1341 54.4682 91.3293 54.4158 91.4465 54.5288L92.7097 55.747C92.7518 55.7876 92.8085 55.8093 92.8669 55.8073L94.6208 55.7473C94.7835 55.7418 94.8936 55.9113 94.8223 56.0576L94.0541 57.6354C94.0285 57.688 94.0253 57.7487 94.0453 57.8036L94.6444 59.4531C94.6999 59.6061 94.5727 59.7632 94.4115 59.7407L92.6735 59.4976C92.6156 59.4895 92.5569 59.5053 92.5108 59.5412L91.1272 60.6207C90.9989 60.7208 90.8102 60.6484 90.7818 60.4881L90.4759 58.7601C90.4657 58.7025 90.4326 58.6515 90.3841 58.6188L88.9299 57.6365C88.7951 57.5454 88.8057 57.3435 88.9493 57.267L90.4982 56.442C90.5498 56.4146 90.5881 56.3673 90.6042 56.3111L91.0891 54.6246Z" fill="#F2C94C"/>
<path d="M91.8044 56.578L92.3005 57.0564L92.9892 57.0328L92.6875 57.6524L92.9227 58.3001L92.2403 58.2047L91.697 58.6285L91.5768 57.95L91.0058 57.5642L91.614 57.2403L91.8044 56.578Z" fill="#F2C94C"/>
<path d="M91.8044 56.578L92.3005 57.0564L92.9892 57.0328L92.6875 57.6524L92.9227 58.3001L92.2403 58.2047L91.697 58.6285L91.5768 57.95L91.0058 57.5642L91.614 57.2403L91.8044 56.578Z" fill="#F2C94C"/>
<path d="M91.8044 56.578L92.3005 57.0564L92.9892 57.0328L92.6875 57.6524L92.9227 58.3001L92.2403 58.2047L91.697 58.6285L91.5768 57.95L91.0058 57.5642L91.614 57.2403L91.8044 56.578Z" fill="#F2C94C"/>
<path d="M91.8044 56.578L92.3005 57.0564L92.9892 57.0328L92.6875 57.6524L92.9227 58.3001L92.2403 58.2047L91.697 58.6285L91.5768 57.95L91.0058 57.5642L91.614 57.2403L91.8044 56.578Z" fill="#F2C94C"/>
<path d="M91.8044 56.578L92.3005 57.0564L92.9892 57.0328L92.6875 57.6524L92.9227 58.3001L92.2403 58.2047L91.697 58.6285L91.5768 57.95L91.0058 57.5642L91.614 57.2403L91.8044 56.578Z" fill="#F2C94C"/>
</g>
<g filter="url(#filter2_d_3247_105395)">
<path d="M88.0969 55.4273C88.1419 55.2709 88.3371 55.2186 88.4543 55.3315L89.7175 56.5497C89.7596 56.5903 89.8163 56.6121 89.8748 56.6101L91.6286 56.5501C91.7913 56.5445 91.9014 56.714 91.8301 56.8603L91.0619 58.4382C91.0363 58.4907 91.0332 58.5514 91.0531 58.6064L91.6522 60.2559C91.7077 60.4088 91.5805 60.5659 91.4194 60.5434L89.6814 60.3004C89.6235 60.2923 89.5647 60.308 89.5187 60.344L88.135 61.4234C88.0067 61.5235 87.818 61.4511 87.7896 61.2908L87.4837 59.5628C87.4735 59.5052 87.4404 59.4543 87.3919 59.4215L85.9377 58.4392C85.8029 58.3481 85.8135 58.1462 85.9571 58.0697L87.506 57.2448C87.5576 57.2173 87.5959 57.1701 87.612 57.1139L88.0969 55.4273Z" fill="#F2C94C"/>
<path d="M88.8122 57.3788L89.3083 57.8572L89.997 57.8336L89.6953 58.4532L89.9306 59.1009L89.2481 59.0054L88.7048 59.4293L88.5846 58.7508L88.0136 58.365L88.6218 58.0411L88.8122 57.3788Z" fill="#F2C94C"/>
<path d="M88.8122 57.3788L89.3083 57.8572L89.997 57.8336L89.6953 58.4532L89.9306 59.1009L89.2481 59.0054L88.7048 59.4293L88.5846 58.7508L88.0136 58.365L88.6218 58.0411L88.8122 57.3788Z" fill="#F2C94C"/>
<path d="M88.8122 57.3788L89.3083 57.8572L89.997 57.8336L89.6953 58.4532L89.9306 59.1009L89.2481 59.0054L88.7048 59.4293L88.5846 58.7508L88.0136 58.365L88.6218 58.0411L88.8122 57.3788Z" fill="#F2C94C"/>
<path d="M88.8122 57.3788L89.3083 57.8572L89.997 57.8336L89.6953 58.4532L89.9306 59.1009L89.2481 59.0054L88.7048 59.4293L88.5846 58.7508L88.0136 58.365L88.6218 58.0411L88.8122 57.3788Z" fill="#F2C94C"/>
<path d="M88.8122 57.3788L89.3083 57.8572L89.997 57.8336L89.6953 58.4532L89.9306 59.1009L89.2481 59.0054L88.7048 59.4293L88.5846 58.7508L88.0136 58.365L88.6218 58.0411L88.8122 57.3788Z" fill="#F2C94C"/>
</g>
<g filter="url(#filter3_d_3247_105395)">
<path d="M85.1047 56.2281C85.1497 56.0717 85.3449 56.0194 85.4621 56.1323L86.7253 57.3505C86.7674 57.3911 86.8241 57.4129 86.8826 57.4109L88.6364 57.3508C88.7991 57.3453 88.9092 57.5148 88.8379 57.6611L88.0697 59.239C88.0442 59.2915 88.041 59.3522 88.0609 59.4072L88.66 61.0567C88.7155 61.2096 88.5883 61.3667 88.4272 61.3442L86.6892 61.1012C86.6313 61.0931 86.5726 61.1088 86.5265 61.1447L85.1428 62.2242C85.0145 62.3243 84.8258 62.2519 84.7974 62.0916L84.4915 60.3636C84.4813 60.306 84.4482 60.2551 84.3998 60.2223L82.9455 59.24C82.8107 59.1489 82.8213 58.947 82.9649 58.8705L84.5138 58.0456C84.5654 58.0181 84.6037 57.9708 84.6198 57.9147L85.1047 56.2281Z" fill="#F2C94C"/>
<path d="M85.8201 58.1776L86.3161 58.656L87.0048 58.6324L86.7031 59.252L86.9384 59.8997L86.2559 59.8043L85.7126 60.2281L85.5925 59.5496L85.0214 59.1639L85.6296 58.8399L85.8201 58.1776Z" fill="#F2C94C"/>
<path d="M85.8201 58.1776L86.3161 58.656L87.0048 58.6324L86.7031 59.252L86.9384 59.8997L86.2559 59.8043L85.7126 60.2281L85.5925 59.5496L85.0214 59.1639L85.6296 58.8399L85.8201 58.1776Z" fill="#F2C94C"/>
<path d="M85.8201 58.1776L86.3161 58.656L87.0048 58.6324L86.7031 59.252L86.9384 59.8997L86.2559 59.8043L85.7126 60.2281L85.5925 59.5496L85.0214 59.1639L85.6296 58.8399L85.8201 58.1776Z" fill="#F2C94C"/>
<path d="M85.8201 58.1776L86.3161 58.656L87.0048 58.6324L86.7031 59.252L86.9384 59.8997L86.2559 59.8043L85.7126 60.2281L85.5925 59.5496L85.0214 59.1639L85.6296 58.8399L85.8201 58.1776Z" fill="#F2C94C"/>
<path d="M85.8201 58.1776L86.3161 58.656L87.0048 58.6324L86.7031 59.252L86.9384 59.8997L86.2559 59.8043L85.7126 60.2281L85.5925 59.5496L85.0214 59.1639L85.6296 58.8399L85.8201 58.1776Z" fill="#F2C94C"/>
</g>
<g filter="url(#filter4_d_3247_105395)">
<path d="M82.1164 57.0289C82.1614 56.8725 82.3567 56.8201 82.4738 56.9331L83.737 58.1513C83.7791 58.1919 83.8359 58.2136 83.8943 58.2116L85.6482 58.1516C85.8108 58.1461 85.9209 58.3156 85.8497 58.4619L85.0815 60.0397C85.0559 60.0923 85.0527 60.153 85.0726 60.2079L85.6717 61.8574C85.7273 62.0104 85.6001 62.1675 85.4389 62.145L83.7009 61.9019C83.643 61.8938 83.5843 61.9096 83.5382 61.9455L82.1545 63.025C82.0262 63.1251 81.8375 63.0527 81.8092 62.8924L81.5032 61.1644C81.493 61.1068 81.4599 61.0558 81.4115 61.0231L79.9573 60.0408C79.8224 59.9497 79.833 59.7478 79.9766 59.6713L81.5256 58.8463C81.5772 58.8189 81.6154 58.7716 81.6316 58.7154L82.1164 57.0289Z" fill="#F2C94C"/>
<path d="M82.8318 58.9784L83.3278 59.4568L84.0165 59.4332L83.7148 60.0528L83.9501 60.7005L83.2676 60.605L82.7243 61.0289L82.6042 60.3504L82.0332 59.9646L82.6414 59.6407L82.8318 58.9784Z" fill="#F2C94C"/>
<path d="M82.8318 58.9784L83.3278 59.4568L84.0165 59.4332L83.7148 60.0528L83.9501 60.7005L83.2676 60.605L82.7243 61.0289L82.6042 60.3504L82.0332 59.9646L82.6414 59.6407L82.8318 58.9784Z" fill="#F2C94C"/>
<path d="M82.8318 58.9784L83.3278 59.4568L84.0165 59.4332L83.7148 60.0528L83.9501 60.7005L83.2676 60.605L82.7243 61.0289L82.6042 60.3504L82.0332 59.9646L82.6414 59.6407L82.8318 58.9784Z" fill="#F2C94C"/>
<path d="M82.8318 58.9784L83.3278 59.4568L84.0165 59.4332L83.7148 60.0528L83.9501 60.7005L83.2676 60.605L82.7243 61.0289L82.6042 60.3504L82.0332 59.9646L82.6414 59.6407L82.8318 58.9784Z" fill="#F2C94C"/>
<path d="M82.8318 58.9784L83.3278 59.4568L84.0165 59.4332L83.7148 60.0528L83.9501 60.7005L83.2676 60.605L82.7243 61.0289L82.6042 60.3504L82.0332 59.9646L82.6414 59.6407L82.8318 58.9784Z" fill="#F2C94C"/>
</g>
<g filter="url(#filter5_d_3247_105395)">
<path d="M79.1243 57.8316C79.1692 57.6752 79.3645 57.6229 79.4816 57.7358L80.7448 58.954C80.7869 58.9946 80.8437 59.0164 80.9021 59.0144L82.656 58.9544C82.8186 58.9488 82.9287 59.1183 82.8575 59.2646L82.0893 60.8425C82.0637 60.895 82.0605 60.9557 82.0805 61.0107L82.6795 62.6602C82.7351 62.8131 82.6079 62.9702 82.4467 62.9477L80.7087 62.7047C80.6508 62.6966 80.5921 62.7123 80.546 62.7483L79.1624 63.8277C79.0341 63.9278 78.8453 63.8554 78.817 63.6951L78.511 61.9671C78.5008 61.9095 78.4677 61.8586 78.4193 61.8258L76.9651 60.8435C76.8302 60.7524 76.8408 60.5505 76.9844 60.474L78.5334 59.6491C78.585 59.6216 78.6232 59.5744 78.6394 59.5182L79.1243 57.8316Z" fill="#F2C94C"/>
<path d="M79.8396 59.7812L80.3356 60.2595L81.0243 60.2359L80.7227 60.8555L80.9579 61.5032L80.2754 61.4078L79.7321 61.8317L79.612 61.1531L79.041 60.7674L79.6492 60.4434L79.8396 59.7812Z" fill="#F2C94C"/>
<path d="M79.8396 59.7812L80.3356 60.2595L81.0243 60.2359L80.7227 60.8555L80.9579 61.5032L80.2754 61.4078L79.7321 61.8317L79.612 61.1531L79.041 60.7674L79.6492 60.4434L79.8396 59.7812Z" fill="#F2C94C"/>
<path d="M79.8396 59.7812L80.3356 60.2595L81.0243 60.2359L80.7227 60.8555L80.9579 61.5032L80.2754 61.4078L79.7321 61.8317L79.612 61.1531L79.041 60.7674L79.6492 60.4434L79.8396 59.7812Z" fill="#F2C94C"/>
<path d="M79.8396 59.7812L80.3356 60.2595L81.0243 60.2359L80.7227 60.8555L80.9579 61.5032L80.2754 61.4078L79.7321 61.8317L79.612 61.1531L79.041 60.7674L79.6492 60.4434L79.8396 59.7812Z" fill="#F2C94C"/>
<path d="M79.8396 59.7812L80.3356 60.2595L81.0243 60.2359L80.7227 60.8555L80.9579 61.5032L80.2754 61.4078L79.7321 61.8317L79.612 61.1531L79.041 60.7674L79.6492 60.4434L79.8396 59.7812Z" fill="#F2C94C"/>
</g>
</g>
<path d="M33.4754 83.3488L34.4376 86.94L33.8486 87.0978L33.1895 84.6383L32.7531 87.3913L32.3449 87.5007L30.5853 85.3361L31.2443 87.7956L30.6553 87.9534L29.693 84.3623L30.3286 84.192L32.3439 86.6702L32.845 83.5177L33.4754 83.3488ZM37.0273 83.1946L37.7902 86.0416L37.2012 86.1995L37.1112 85.8636C37.0495 86.0057 36.9522 86.1314 36.8191 86.2409C36.6885 86.3461 36.5388 86.4213 36.37 86.4665C36.1461 86.5265 35.9321 86.534 35.7281 86.489C35.5275 86.443 35.351 86.3426 35.1988 86.1877C35.05 86.0319 34.9409 85.8249 34.8717 85.5665L34.4231 83.8924L35.007 83.7359L35.4321 85.3222C35.5004 85.5771 35.6167 85.7564 35.7811 85.86C35.9445 85.9602 36.1365 85.9808 36.3569 85.9217C36.5774 85.8626 36.7334 85.7489 36.8248 85.5804C36.9188 85.4075 36.9316 85.1936 36.8633 84.9387L36.4383 83.3524L37.0273 83.1946ZM41.2385 82.0163C41.4624 81.9563 41.6747 81.9493 41.8753 81.9952C42.0794 82.0403 42.2558 82.1407 42.4046 82.2965C42.5569 82.4513 42.6676 82.658 42.7368 82.9163L43.1868 84.5956L42.6029 84.7521L42.1765 83.1606C42.1082 82.9057 41.9923 82.7281 41.8289 82.628C41.6645 82.5243 41.4721 82.502 41.2516 82.5611C41.0311 82.6202 40.8739 82.7361 40.7799 82.909C40.6885 83.0775 40.6769 83.2892 40.7452 83.5441L41.1716 85.1356L40.5878 85.292L40.1613 83.7006C40.093 83.4457 39.9771 83.2681 39.8137 83.1679C39.6493 83.0643 39.4569 83.042 39.2364 83.1011C39.016 83.1601 38.8587 83.2761 38.7648 83.449C38.6733 83.6175 38.6617 83.8292 38.73 84.0841L39.1565 85.6756L38.5674 85.8334L37.8045 82.9863L38.3936 82.8285L38.4808 83.154C38.5459 83.011 38.6437 82.887 38.7743 82.7818C38.9049 82.6767 39.0546 82.6015 39.2234 82.5563C39.4507 82.4954 39.6669 82.4891 39.8719 82.5376C40.0768 82.5861 40.252 82.6886 40.3974 82.8454C40.4373 82.6501 40.5352 82.478 40.691 82.3292C40.8459 82.1769 41.0284 82.0726 41.2385 82.0163ZM43.8761 81.8136C43.939 81.649 44.0451 81.5006 44.1943 81.3683C44.346 81.2317 44.5286 81.1348 44.7422 81.0775C44.9936 81.0102 45.2371 81.0095 45.4727 81.0756C45.7082 81.1417 45.9146 81.2711 46.0917 81.4636C46.2679 81.6527 46.3943 81.8902 46.4709 82.1761C46.5475 82.462 46.5577 82.7343 46.5015 82.993C46.4444 83.2483 46.3295 83.4674 46.157 83.6502C45.987 83.8287 45.778 83.9512 45.53 84.0176C45.3095 84.0767 45.1016 84.0862 44.9063 84.0463C44.7144 84.0054 44.5505 83.9312 44.4146 83.8236L44.5254 84.2369L43.9364 84.3948L42.9118 80.5711L43.5009 80.4133L43.8761 81.8136ZM45.8715 82.3367C45.8189 82.1403 45.7323 81.9826 45.6118 81.8635C45.4938 81.7401 45.3579 81.6602 45.2042 81.6238C45.053 81.5831 44.9016 81.5831 44.75 81.6237C44.6019 81.6634 44.4708 81.7391 44.3568 81.8509C44.2462 81.9618 44.169 82.1006 44.1251 82.2674C44.0846 82.4333 44.0907 82.6145 44.1433 82.8108C44.1959 83.0072 44.2817 83.1688 44.4006 83.2957C44.522 83.4182 44.6583 83.4998 44.8095 83.5405C44.9642 83.5803 45.1156 83.5804 45.2637 83.5407C45.4153 83.5001 45.5464 83.4243 45.6569 83.3135C45.7701 83.1983 45.8464 83.056 45.8859 82.8866C45.9289 82.7163 45.9241 82.533 45.8715 82.3367ZM46.857 82.0726C46.7804 81.7867 46.7711 81.5178 46.8292 81.266C46.8907 81.0132 47.0069 80.7993 47.1778 80.6243C47.3513 80.4449 47.562 80.322 47.81 80.2555C48.034 80.1955 48.2406 80.1881 48.4299 80.2334C48.6218 80.2743 48.7852 80.3468 48.9202 80.4509L48.8094 80.0376L49.4036 79.8783L50.1665 82.7254L49.5723 82.8846L49.4588 82.4609C49.3949 82.622 49.2888 82.7705 49.1406 82.9062C48.9923 83.0419 48.808 83.1393 48.5875 83.1984C48.3429 83.2639 48.1024 83.2619 47.8659 83.1923C47.6285 83.1193 47.4196 82.987 47.239 82.7954C47.061 82.5995 46.9336 82.3585 46.857 82.0726ZM49.1902 81.4585C49.1376 81.2622 49.0505 81.1027 48.9291 80.9802C48.8111 80.8568 48.6765 80.7747 48.5253 80.734C48.3741 80.6933 48.2227 80.6932 48.0711 80.7338C47.9196 80.7744 47.7885 80.8502 47.6779 80.961C47.5664 81.0684 47.4887 81.2056 47.4447 81.3724C47.4034 81.5349 47.409 81.7143 47.4616 81.9106C47.5142 82.107 47.6 82.2686 47.7189 82.3955C47.8412 82.5215 47.9785 82.6065 48.1306 82.6507C48.2853 82.6905 48.4367 82.6905 48.5848 82.6508C48.7363 82.6102 48.8674 82.5345 48.978 82.4236C49.0886 82.3127 49.1641 82.1744 49.2046 82.0085C49.2476 81.8382 49.2428 81.6549 49.1902 81.4585ZM50.376 79.2135C50.2692 79.2421 50.1699 79.23 50.0782 79.177C49.9865 79.1241 49.9263 79.0442 49.8977 78.9374C49.8691 78.8306 49.8812 78.7314 49.9342 78.6396C49.9872 78.5479 50.067 78.4878 50.1738 78.4591C50.2772 78.4314 50.3747 78.4441 50.4664 78.497C50.5581 78.55 50.6183 78.6299 50.6469 78.7367C50.6755 78.8434 50.6634 78.9427 50.6104 79.0344C50.5574 79.1261 50.4793 79.1858 50.376 79.2135ZM50.7664 79.5132L51.5293 82.3603L50.9402 82.5181L50.1773 79.671L50.7664 79.5132ZM52.7588 81.2721L52.5157 82.8657L52.1334 82.9682L52.1181 81.4438L52.7588 81.2721ZM54.4322 77.7335L55.3945 81.3246L54.8054 81.4824L53.8432 77.8913L54.4322 77.7335ZM56.829 77.8389C57.0529 77.7789 57.2651 77.7719 57.4657 77.8178C57.6698 77.8628 57.8462 77.9632 57.995 78.119C58.1439 78.2748 58.2529 78.4819 58.3221 78.7403L58.7721 80.4196L58.1882 80.576L57.7618 78.9845C57.6935 78.7296 57.5776 78.5521 57.4141 78.4519C57.2498 78.3483 57.0573 78.326 56.8369 78.385C56.6164 78.4441 56.4592 78.5601 56.3652 78.7329C56.2737 78.9014 56.2622 79.1131 56.3305 79.3681L56.7569 80.9595L56.1679 81.1174L55.405 78.2703L55.994 78.1125L56.0813 78.438C56.1463 78.295 56.2442 78.171 56.3747 78.0658C56.5088 77.9598 56.6602 77.8841 56.829 77.8389ZM58.9422 78.8344C58.8656 78.5485 58.8563 78.2796 58.9144 78.0278C58.9759 77.775 59.0921 77.5611 59.263 77.3861C59.4365 77.2067 59.6489 77.0833 59.9004 77.0159C60.0864 76.9661 60.28 76.9585 60.4813 76.9932C60.6851 77.0235 60.8584 77.0915 61.0012 77.1972L60.6329 75.8228L61.2271 75.6636L62.2517 79.4872L61.6575 79.6464L61.5425 79.2176C61.483 79.3812 61.3791 79.5309 61.2309 79.6666C61.0861 79.8014 60.9035 79.8983 60.683 79.9574C60.435 80.0238 60.191 80.0227 59.9511 79.9541C59.7137 79.8811 59.5047 79.7488 59.3242 79.5572C59.1461 79.3612 59.0188 79.1203 58.9422 78.8344ZM61.2753 78.2203C61.2227 78.024 61.1357 77.8645 61.0143 77.742C60.8963 77.6185 60.7617 77.5365 60.6105 77.4958C60.4592 77.455 60.3079 77.455 60.1563 77.4956C60.0047 77.5362 59.8736 77.612 59.763 77.7228C59.6515 77.8302 59.5738 77.9674 59.5299 78.1342C59.4885 78.2966 59.4941 78.4761 59.5468 78.6724C59.5994 78.8688 59.6851 79.0304 59.804 79.1573C59.9264 79.2832 60.0637 79.3683 60.2158 79.4125C60.3704 79.4522 60.5218 79.4523 60.6699 79.4126C60.8215 79.372 60.9526 79.2963 61.0632 79.1854C61.1738 79.0745 61.2493 78.9362 61.2898 78.7702C61.3328 78.6 61.3279 78.4167 61.2753 78.2203ZM62.4611 75.9753C62.3543 76.0039 62.2551 75.9918 62.1634 75.9388C62.0716 75.8859 62.0115 75.806 61.9829 75.6992C61.9542 75.5924 61.9664 75.4932 62.0194 75.4014C62.0723 75.3097 62.1522 75.2495 62.259 75.2209C62.3623 75.1932 62.4599 75.2059 62.5516 75.2588C62.6433 75.3118 62.7035 75.3917 62.7321 75.4984C62.7607 75.6052 62.7485 75.7045 62.6956 75.7962C62.6426 75.8879 62.5645 75.9476 62.4611 75.9753ZM62.8516 76.275L63.6144 79.1221L63.0254 79.2799L62.2625 76.4328L62.8516 76.275ZM63.8065 77.531C63.7299 77.2451 63.7207 76.9762 63.7787 76.7244C63.8402 76.4716 63.9564 76.2577 64.1273 76.0827C64.3008 75.9033 64.5115 75.7804 64.7596 75.7139C64.9835 75.6539 65.1901 75.6465 65.3794 75.6918C65.5713 75.7327 65.7347 75.8052 65.8697 75.9093L65.7589 75.496L66.3532 75.3367L67.116 78.1838L66.5218 78.343L66.4083 77.9193C66.3444 78.0804 66.2383 78.2289 66.0901 78.3646C65.9418 78.5003 65.7575 78.5977 65.537 78.6567C65.2924 78.7223 65.0519 78.7203 64.8154 78.6507C64.5781 78.5777 64.3691 78.4454 64.1885 78.2538C64.0105 78.0578 63.8832 77.8169 63.8065 77.531ZM66.1397 76.9169C66.0871 76.7206 66 76.5611 65.8786 76.4386C65.7606 76.3151 65.626 76.2331 65.4748 76.1924C65.3236 76.1516 65.1722 76.1516 65.0206 76.1922C64.8691 76.2328 64.738 76.3086 64.6274 76.4194C64.5159 76.5268 64.4382 76.664 64.3943 76.8308C64.3529 76.9932 64.3585 77.1727 64.4111 77.369C64.4637 77.5654 64.5495 77.727 64.6684 77.8539C64.7908 77.9798 64.928 78.0649 65.0801 78.1091C65.2348 78.1488 65.3862 78.1489 65.5343 78.1092C65.6859 78.0686 65.8169 77.9929 65.9275 77.882C66.0381 77.7711 66.1137 77.6328 66.1541 77.4668C66.1971 77.2966 66.1923 77.1133 66.1397 76.9169Z" fill="white"/>
</g>
<defs>
<filter id="filter0_dii_3247_105395" x="-1.96183" y="-2.42232" width="118.959" height="112.412" filterUnits="userSpaceOnUse" color-interpolation-filters="sRGB">
<feFlood flood-opacity="0" result="BackgroundImageFix"/>
<feColorMatrix in="SourceAlpha" type="matrix" values="0 0 0 0 0 0 0 0 0 0 0 0 0 0 0 0 0 0 127 0" result="hardAlpha"/>
<feOffset dy="3.54732"/>
<feGaussianBlur stdDeviation="3.54732"/>
<feComposite in2="hardAlpha" operator="out"/>
<feColorMatrix type="matrix" values="0 0 0 0 0 0 0 0 0 0 0 0 0 0 0 0 0 0 0.22 0"/>
<feBlend mode="normal" in2="BackgroundImageFix" result="effect1_dropShadow_3247_105395"/>
<feBlend mode="normal" in="SourceGraphic" in2="effect1_dropShadow_3247_105395" result="shape"/>
<feColorMatrix in="SourceAlpha" type="matrix" values="0 0 0 0 0 0 0 0 0 0 0 0 0 0 0 0 0 0 127 0" result="hardAlpha"/>
<feOffset dx="-1.32433" dy="1.2593"/>
<feGaussianBlur stdDeviation="1.47805"/>
<feComposite in2="hardAlpha" operator="arithmetic" k2="-1" k3="1"/>
<feColorMatrix type="matrix" values="0 0 0 0 0 0 0 0 0 0 0 0 0 0 0 0 0 0 0.3 0"/>
<feBlend mode="normal" in2="shape" result="effect2_innerShadow_3247_105395"/>
<feColorMatrix in="SourceAlpha" type="matrix" values="0 0 0 0 0 0 0 0 0 0 0 0 0 0 0 0 0 0 127 0" result="hardAlpha"/>
<feOffset dx="1.2593" dy="-1.2593"/>
<feGaussianBlur stdDeviation="1.47805"/>
<feComposite in2="hardAlpha" operator="arithmetic" k2="-1" k3="1"/>
<feColorMatrix type="matrix" values="0 0 0 0 0 0 0 0 0 0 0 0 0 0 0 0 0 0 0.3 0"/>
<feBlend mode="normal" in2="effect2_innerShadow_3247_105395" result="effect3_innerShadow_3247_105395"/>
</filter>
<filter id="filter1_d_3247_105395" x="84.7411" y="50.3622" width="14.5333" height="14.4552" filterUnits="userSpaceOnUse" color-interpolation-filters="sRGB">
<feFlood flood-opacity="0" result="BackgroundImageFix"/>
<feColorMatrix in="SourceAlpha" type="matrix" values="0 0 0 0 0 0 0 0 0 0 0 0 0 0 0 0 0 0 127 0" result="hardAlpha"/>
<feOffset/>
<feGaussianBlur stdDeviation="0.764197"/>
<feComposite in2="hardAlpha" operator="out"/>
<feColorMatrix type="matrix" values="0 0 0 0 0 0 0 0 0 0 0 0 0 0 0 0 0 0 0.55 0"/>
<feBlend mode="normal" in2="BackgroundImageFix" result="effect1_dropShadow_3247_105395"/>
<feBlend mode="normal" in="SourceGraphic" in2="effect1_dropShadow_3247_105395" result="shape"/>
</filter>
<filter id="filter2_d_3247_105395" x="81.749" y="51.163" width="14.5333" height="14.4552" filterUnits="userSpaceOnUse" color-interpolation-filters="sRGB">
<feFlood flood-opacity="0" result="BackgroundImageFix"/>
<feColorMatrix in="SourceAlpha" type="matrix" values="0 0 0 0 0 0 0 0 0 0 0 0 0 0 0 0 0 0 127 0" result="hardAlpha"/>
<feOffset/>
<feGaussianBlur stdDeviation="0.764197"/>
<feComposite in2="hardAlpha" operator="out"/>
<feColorMatrix type="matrix" values="0 0 0 0 0 0 0 0 0 0 0 0 0 0 0 0 0 0 0.55 0"/>
<feBlend mode="normal" in2="BackgroundImageFix" result="effect1_dropShadow_3247_105395"/>
<feBlend mode="normal" in="SourceGraphic" in2="effect1_dropShadow_3247_105395" result="shape"/>
</filter>
<filter id="filter3_d_3247_105395" x="78.7568" y="51.9638" width="14.5333" height="14.4552" filterUnits="userSpaceOnUse" color-interpolation-filters="sRGB">
<feFlood flood-opacity="0" result="BackgroundImageFix"/>
<feColorMatrix in="SourceAlpha" type="matrix" values="0 0 0 0 0 0 0 0 0 0 0 0 0 0 0 0 0 0 127 0" result="hardAlpha"/>
<feOffset/>
<feGaussianBlur stdDeviation="0.764197"/>
<feComposite in2="hardAlpha" operator="out"/>
<feColorMatrix type="matrix" values="0 0 0 0 0 0 0 0 0 0 0 0 0 0 0 0 0 0 0.55 0"/>
<feBlend mode="normal" in2="BackgroundImageFix" result="effect1_dropShadow_3247_105395"/>
<feBlend mode="normal" in="SourceGraphic" in2="effect1_dropShadow_3247_105395" result="shape"/>
</filter>
<filter id="filter4_d_3247_105395" x="75.7685" y="52.7665" width="14.5333" height="14.4552" filterUnits="userSpaceOnUse" color-interpolation-filters="sRGB">
<feFlood flood-opacity="0" result="BackgroundImageFix"/>
<feColorMatrix in="SourceAlpha" type="matrix" values="0 0 0 0 0 0 0 0 0 0 0 0 0 0 0 0 0 0 127 0" result="hardAlpha"/>
<feOffset/>
<feGaussianBlur stdDeviation="0.764197"/>
<feComposite in2="hardAlpha" operator="out"/>
<feColorMatrix type="matrix" values="0 0 0 0 0 0 0 0 0 0 0 0 0 0 0 0 0 0 0.55 0"/>
<feBlend mode="normal" in2="BackgroundImageFix" result="effect1_dropShadow_3247_105395"/>
<feBlend mode="normal" in="SourceGraphic" in2="effect1_dropShadow_3247_105395" result="shape"/>
</filter>
<filter id="filter5_d_3247_105395" x="72.7763" y="53.5673" width="14.5333" height="14.4552" filterUnits="userSpaceOnUse" color-interpolation-filters="sRGB">
<feFlood flood-opacity="0" result="BackgroundImageFix"/>
<feColorMatrix in="SourceAlpha" type="matrix" values="0 0 0 0 0 0 0 0 0 0 0 0 0 0 0 0 0 0 127 0" result="hardAlpha"/>
<feOffset/>
<feGaussianBlur stdDeviation="0.764197"/>
<feComposite in2="hardAlpha" operator="out"/>
<feColorMatrix type="matrix" values="0 0 0 0 0 0 0 0 0 0 0 0 0 0 0 0 0 0 0.55 0"/>
<feBlend mode="normal" in2="BackgroundImageFix" result="effect1_dropShadow_3247_105395"/>
<feBlend mode="normal" in="SourceGraphic" in2="effect1_dropShadow_3247_105395" result="shape"/>
</filter>
<clipPath id="clip0_3247_105395">
<rect width="21.7796" height="9.28249" fill="white" transform="translate(74.3047 57.5273) rotate(-15)"/>
</clipPath>
</defs>
</svg>
