<svg width="93" height="93" viewBox="0 0 93 93" fill="none" xmlns="http://www.w3.org/2000/svg">
<path d="M50.6195 11.6174C54.2184 10.5359 58.1195 11.5812 60.6955 14.3172L83.0772 38.0897C85.4333 40.5921 86.3258 44.1359 85.4363 47.4558L75.9553 82.8392C74.5376 88.1304 69.0989 91.2704 63.8077 89.8526L10.1565 75.4769C4.86534 74.0591 1.72532 68.6204 3.14309 63.3292L12.624 27.9458C13.5136 24.6259 16.0585 22.0032 19.3501 21.0141L50.6195 11.6174Z" fill="#4169E1"/>
<g clip-path="url(#clip0_3247_105385)">
<path opacity="0.99" fill-rule="evenodd" clip-rule="evenodd" d="M48.82 38.1578C49.452 38.3393 49.9027 38.7293 50.1722 39.3277C50.5864 40.902 50.8985 42.4998 51.1086 44.1211C51.2091 44.7258 51.5614 45.1063 52.1656 45.2624C53.5274 45.7496 54.8583 46.3081 56.1582 46.9379C57.2181 47.5144 57.4841 48.3428 56.9561 49.423C56.7432 49.685 56.5105 49.9255 56.258 50.1444C54.7279 50.9483 53.2236 51.7903 51.7453 52.6703C51.5517 54.4312 51.3642 56.198 51.1831 57.9707C50.8027 59.3717 49.948 59.7989 48.6189 59.2521C47.4646 58.4033 46.4085 57.4473 45.4505 56.3842C45.1162 56.039 44.7386 55.7528 44.3178 55.5255C43.2331 55.6362 42.1765 55.8746 41.1482 56.2408C40.2122 56.5292 39.2605 56.6275 38.2932 56.5358C37.1711 56.0843 36.8298 55.2862 37.2691 54.1415C37.7592 52.8409 38.348 51.5854 39.0354 50.3751C39.1992 50.0152 39.3001 49.6384 39.3383 49.2448C38.5669 47.863 37.7541 46.5011 36.8999 45.1593C36.0766 42.987 36.8304 41.9945 39.1614 42.1817C40.3288 42.3357 41.4927 42.5129 42.653 42.7135C43.2835 42.9115 43.8102 42.7667 44.2332 42.2789C45.1232 41.1438 46.0561 40.0479 47.0321 38.991C47.5309 38.483 48.1268 38.2052 48.82 38.1578Z" fill="white"/>
<path opacity="0.991" fill-rule="evenodd" clip-rule="evenodd" d="M30.2535 42.2539C30.9634 42.3298 31.4539 42.6968 31.725 43.3548C32.0073 44.5529 32.2748 45.7518 32.5278 46.9516C33.6183 47.406 34.7064 47.8658 35.7923 48.331C36.884 48.9912 37.0159 49.8173 36.1882 50.8093C35.1251 51.5027 34.0419 52.1545 32.9386 52.7651C32.819 53.9903 32.7076 55.2223 32.6044 56.461C32.2091 57.6406 31.455 57.9432 30.3422 57.3691C30.1706 57.2558 29.9991 57.1426 29.8275 57.0293C29.0887 56.3159 28.3316 55.6251 27.5563 54.957C27.3128 54.9458 27.072 54.9654 26.8339 55.0158C25.6926 55.4882 24.5021 55.7244 23.2624 55.7244C22.3448 55.3475 22.0368 54.676 22.3384 53.7102C22.8325 52.6107 23.3123 51.5111 23.7775 50.4113C23.1631 49.4392 22.5488 48.467 21.9344 47.4948C21.6743 46.8885 21.7001 46.2897 22.0119 45.6985C22.3605 45.3226 22.793 45.1525 23.3095 45.1882C24.4916 45.2884 25.6723 45.4029 26.8516 45.5316C27.6194 44.6546 28.3795 43.7646 29.1316 42.8618C29.4568 42.5544 29.8308 42.3518 30.2535 42.2539Z" fill="white" fill-opacity="0.5"/>
<path opacity="0.992" fill-rule="evenodd" clip-rule="evenodd" d="M62.3774 50.8648C63.0401 50.9186 63.5076 51.2457 63.78 51.8463C64.0509 53.1064 64.3017 54.3681 64.5323 55.6314C65.618 56.1096 66.6977 56.6008 67.7715 57.105C68.684 57.612 68.881 58.3209 68.3625 59.2318C68.1978 59.4397 68.0133 59.6258 67.8091 59.7902C66.7909 60.3249 65.7729 60.8597 64.7547 61.3944C64.6077 62.5794 64.4733 63.7716 64.3515 64.9709C63.8193 66.3659 62.9396 66.6349 61.7126 65.778C61.0333 65.1759 60.3976 64.5344 59.8055 63.8538C59.6245 63.6911 59.4258 63.5538 59.2093 63.4417C58.0082 63.7023 56.8021 63.9343 55.5906 64.1376C54.3398 64.0785 53.8381 63.4393 54.0855 62.2202C54.6155 61.0958 55.135 59.9732 55.6441 58.8523C54.9939 57.7719 54.3817 56.6657 53.8077 55.5338C53.5869 54.2607 54.1142 53.6113 55.3897 53.5854C56.5627 53.7254 57.735 53.8714 58.9065 54.023C59.6575 53.2091 60.4007 52.3819 61.1361 51.5416C61.5009 51.2114 61.9147 50.9857 62.3774 50.8648Z" fill="white" fill-opacity="0.5"/>
</g>
<defs>
<clipPath id="clip0_3247_105385">
<rect width="49.9232" height="49.9231" fill="white" transform="translate(28.3398 19.084) rotate(15)"/>
</clipPath>
</defs>
</svg>
