<svg width="52" height="52" viewBox="0 0 52 52" fill="none" xmlns="http://www.w3.org/2000/svg">
<g opacity="0.5" clip-path="url(#clip0_3247_105437)">
<path opacity="0.949" fill-rule="evenodd" clip-rule="evenodd" d="M23.3086 -0.0488281C25.069 -0.0488281 26.8295 -0.0488281 28.5898 -0.0488281C28.5898 0.560547 28.5898 1.16992 28.5898 1.7793C28.0143 1.7793 27.4388 1.7793 26.8633 1.7793C26.8633 2.5918 26.8633 3.4043 26.8633 4.2168C34.9307 4.80357 41.1091 8.49368 45.3984 15.2871C47.4613 18.8326 48.4938 22.6581 48.4961 26.7637C49.4446 26.7468 50.3926 26.7637 51.3398 26.8145C51.6086 26.8961 51.8117 27.0485 51.9492 27.2715C51.9492 27.7793 51.9492 28.2871 51.9492 28.7949C51.193 31.6833 49.331 33.3759 46.3633 33.873C47.028 35.3565 46.8757 36.7444 45.9062 38.0371C42.3346 40.9994 38.763 43.9616 35.1914 46.9238C34.2641 47.6752 33.2147 48.183 32.043 48.4473C24.8321 48.498 17.6212 48.515 10.4102 48.498C10.427 49.4127 10.4102 50.3268 10.3594 51.2402C10.2676 51.5178 10.1152 51.7549 9.90234 51.9512C6.58463 51.9512 3.26693 51.9512 -0.0507812 51.9512C-0.0507812 51.3418 -0.0507812 50.7324 -0.0507812 50.123C2.82682 50.123 5.70443 50.123 8.58203 50.123C8.58203 45.8236 8.58203 41.5241 8.58203 37.2246C5.70443 37.2246 2.82682 37.2246 -0.0507812 37.2246C-0.0507812 36.6152 -0.0507812 36.0059 -0.0507812 35.3965C3.16554 35.3795 6.38169 35.3965 9.59765 35.4473C9.72622 35.4786 9.84472 35.5294 9.95312 35.5996C10.681 35.0072 11.4088 34.4147 12.1367 33.8223C9.76693 33.7884 7.39713 33.7545 5.02734 33.7207C2.31251 33.1216 0.6198 31.4797 -0.0507812 28.7949C-0.0507812 28.2871 -0.0507812 27.7793 -0.0507812 27.2715C0.0867429 27.0485 0.289867 26.8961 0.558594 26.8145C1.50591 26.7637 2.45382 26.7468 3.40234 26.7637C3.66252 18.0977 7.48803 11.547 14.8789 7.11133C18.048 5.38806 21.4334 4.42321 25.0352 4.2168C25.0352 3.4043 25.0352 2.5918 25.0352 1.7793C24.4596 1.7793 23.8841 1.7793 23.3086 1.7793C23.3086 1.16992 23.3086 0.560547 23.3086 -0.0488281ZM24.9336 6.04492C33.4373 6.04688 39.8527 9.66928 44.1797 16.9121C45.8211 19.9912 46.6506 23.275 46.668 26.7637C32.8555 26.7637 19.043 26.7637 5.23047 26.7637C5.63499 17.8835 9.8329 11.5358 17.8242 7.7207C20.117 6.77848 22.4868 6.21988 24.9336 6.04492ZM1.87891 28.5918C17.9258 28.5918 33.9726 28.5918 50.0195 28.5918C49.5607 30.354 48.4435 31.4542 46.668 31.8926C32.8555 31.9603 19.043 31.9603 5.23047 31.8926C3.45497 31.4542 2.33779 30.354 1.87891 28.5918ZM15.6914 33.7715C19.5509 33.7545 23.4103 33.7715 27.2695 33.8223C28.3946 34.0919 28.7162 34.7521 28.2344 35.8027C28.0912 35.9334 27.9388 36.052 27.7773 36.1582C25.5495 36.2903 23.3151 36.3581 21.0742 36.3613C19.2498 36.9799 18.6236 38.2157 19.1953 40.0684C19.584 40.8634 20.2103 41.3542 21.0742 41.541C24.832 41.6088 28.5898 41.6088 32.3476 41.541C35.8685 39.0697 39.3893 36.5983 42.9101 34.127C44.573 34.0298 45.1993 34.7915 44.7891 36.4121C40.9678 39.7035 37.0914 42.9366 33.1601 46.1113C32.8216 46.2467 32.483 46.3822 32.1445 46.5176C24.9043 46.6686 17.6595 46.7194 10.4102 46.6699C10.3932 43.6567 10.4102 40.6437 10.4609 37.6309C11.7305 36.5645 13 35.498 14.2695 34.4316C14.7156 34.1236 15.1896 33.9035 15.6914 33.7715ZM30.1133 33.7715C33.4311 33.7545 36.7489 33.7715 40.0664 33.8223C37.3298 35.7125 34.6214 37.6422 31.9414 39.6113C28.4292 39.7792 24.9084 39.813 21.3789 39.7129C20.5664 39.2051 20.5664 38.6973 21.3789 38.1895C23.5117 38.1556 25.6445 38.1217 27.7773 38.0879C29.1031 37.8115 29.9326 37.016 30.2656 35.7012C30.3437 35.0468 30.2929 34.4035 30.1133 33.7715Z" fill="#838383"/>
<path opacity="0.929" fill-rule="evenodd" clip-rule="evenodd" d="M25.543 7.66992C25.6783 7.66992 25.8138 7.66992 25.9492 7.66992C25.9492 8.2793 25.9492 8.88867 25.9492 9.49805C21.3821 9.59183 17.4381 11.183 14.1172 14.2715C13.6755 13.8467 13.2524 13.4067 12.8477 12.9512C16.4071 9.59784 20.6389 7.83743 25.543 7.66992Z" fill="#838383"/>
<path opacity="0.891" fill-rule="evenodd" clip-rule="evenodd" d="M11.5273 14.1699C12.1294 14.4141 12.6372 14.8035 13.0508 15.3379C12.5253 16.0153 11.9836 16.6755 11.4258 17.3184C10.9122 17.0284 10.4383 16.6899 10.0039 16.3027C10.4774 15.5598 10.9852 14.8489 11.5273 14.1699Z" fill="#838383"/>
<path opacity="0.935" fill-rule="evenodd" clip-rule="evenodd" d="M3.91186 43.2168C6.14418 43.3171 7.10902 44.4683 6.80639 46.6699C6.22843 48.1259 5.16202 48.7183 3.60717 48.4473C2.0763 47.8749 1.45 46.7745 1.72826 45.1465C2.11625 44.1152 2.84411 43.4719 3.91186 43.2168ZM4.21654 45.0449C4.735 45.1064 5.03969 45.3941 5.13061 45.9082C4.92123 46.6274 4.48113 46.8305 3.81029 46.5176C3.31571 45.842 3.45113 45.3511 4.21654 45.0449Z" fill="#838383"/>
</g>
<defs>
<clipPath id="clip0_3247_105437">
<rect width="52" height="52" fill="white"/>
</clipPath>
</defs>
</svg>
